<?xml version="1.0" encoding="UTF-8"?>
<!-- Generated by Pixelmator Pro 3.7.1 -->
<svg width="465" height="106" viewBox="0 0 465 106" xmlns="http://www.w3.org/2000/svg">
    <clipPath id="clipPath1">
        <path d="M 0 -0 L 566.926025 -0 L 566.926025 121.782997 L 0 121.782997 Z"/>
    </clipPath>
    <g id="Agrupar" clip-path="url(#clipPath1)">
        <path id="Trazado" fill="#ffffff" stroke="none" d="M 0 3 L 28.080999 3 L 28.080999 8.970253 L 19.862 8.970253 L 19.862 90 L 9.929 90 L 9.929 8.970253 L 0 8.970253 L 0 3 Z"/>
        <path id="path1" fill="#ffffff" stroke="none" d="M 53.519001 81.216003 L 64.480003 81.216003 L 64.480003 2.634003 L 74.067001 2.634003 L 74.067001 81.216003 C 74.067001 86.301003 69.445 89.903999 64.707001 89.903999 L 53.519001 89.903999 C 48.512001 89.903999 44.044998 85.829002 44.044998 81.112999 L 44.044998 2.634003 L 53.519001 2.634003 L 53.519001 81.216003 L 53.519001 81.216003 Z"/>
        <path id="path2" fill="#ffffff" stroke="none" d="M 259.674011 40.203529 L 274.31601 40.203529 L 274.31601 89.982002 L 253.684006 89.982002 C 249.272003 89.982002 243.837997 87.515541 243.837997 83.773842 L 243.837997 8.527328 C 243.837997 5.36628 248.373001 2 253.466995 2 L 264.726013 2 C 269.720001 2 274.251007 5.335609 274.251007 8.45356 L 274.251007 26.279724 L 264.382996 26.279724 L 264.382996 8.701889 L 253.169998 8.701889 L 253.169998 83.829346 L 264.641998 83.829346 L 264.641998 46.295559 L 259.674011 46.295559 L 259.674011 40.203529 Z"/>
        <path id="path3" fill="#ffffff" stroke="none" d="M 401.255005 48.153999 L 401.255005 89.463997 L 392.010986 89.463997 L 392.010986 10.345001 C 392.010986 6.770996 395.562988 2.876999 400.058014 2.876999 L 415.298004 2.876999 L 415.298004 10.502998 L 401.255005 10.502998 L 401.255005 39.735001 L 412.815002 39.735001 L 412.815002 48.193001 L 401.255005 48.153999 Z"/>
        <path id="path4" fill="#ffffff" stroke="none" d="M 434.045013 2.898895 L 443.747986 2.898895 L 443.747986 34.410896 L 449.22699 39.919899 L 454.589996 34.563904 L 454.589996 2.898895 L 464.175995 2.898895 L 464.175995 32.880905 C 464.175995 36.541901 454.705994 46.186897 454.705994 46.186897 C 454.705994 46.186897 464.291992 55.825897 464.291992 59.732903 L 464.291992 89.638 L 455.274994 89.638 L 455.274994 58.503899 L 449.453003 52.616898 L 443.631989 58.426903 L 443.631989 89.639 L 434.045013 89.639 L 434.045013 59.804901 C 434.045013 56.136902 444.200012 46.110901 444.200012 46.110901 C 444.200012 46.110901 434.045013 36.572899 434.045013 32.729904 L 434.045013 2.898895 L 434.045013 2.898895 Z"/>
        <path id="path5" fill="#ffffff" stroke="none" d="M 115.615997 48.348999 C 118.869003 48.348999 123.194 44.460999 123.194 39.257004 L 123.194 10.82 C 123.194 6.727997 118.527 2.917999 113.219002 2.917999 L 93.528 2.917999 L 93.528 89.811996 L 102.603996 89.811996 L 102.603996 48.987999 L 106.028999 48.987999 L 116.129997 89.657997 L 125.033997 89.657997 L 115.615997 48.348999 Z M 113.82 39.851997 L 102.945999 39.851997 L 102.945999 11.337006 L 113.82 11.337006 L 113.82 39.851997 Z"/>
        <path id="path6" fill="#ffffff" stroke="none" d="M 316.457001 48.122101 C 319.710999 48.122101 324.037994 44.227097 324.037994 39.0271 L 324.037994 10.590103 C 324.037994 6.4991 319.368011 2.685104 314.062988 2.685104 L 294.372986 2.685104 L 294.372986 89.584999 L 303.441986 89.584999 L 303.441986 48.755096 L 306.869995 48.755096 L 316.973999 89.424004 L 325.875 89.424004 L 316.457001 48.122101 Z M 314.528992 39.528099 L 303.661987 39.528099 L 303.661987 11.014099 L 314.528992 11.014099 L 314.528992 39.528099 Z"/>
        <path id="path7" fill="#ffffff" stroke="none" d="M 171.712006 50.398003 C 171.669998 46.503998 167.604996 44.040001 167.604996 44.040001 C 167.604996 44.040001 171.712006 41.382004 171.712006 37.686996 L 171.712006 11.160004 C 171.712006 6.153 167.304001 2.895996 162.811005 2.895996 L 142.091995 2.895996 L 142.091995 89.639 L 162.811005 89.639 C 167.005997 89.639 171.712006 87.018997 171.712006 81.377998 C 171.712006 81.377998 171.757996 54.287003 171.712006 50.398003 Z M 162.380997 81.139 L 151.509995 81.139 L 151.509995 48.807999 L 162.380997 48.807999 L 162.380997 81.139 Z M 162.380997 39.832001 L 151.509995 39.832001 L 151.509995 11.318001 L 162.380997 11.318001 L 162.380997 39.832001 Z"/>
        <path id="path8" fill="#ffffff" stroke="none" d="M 211.391998 2.254898 L 205.912994 2.254898 L 200.604996 2.254898 C 195.167999 2.254898 191.209 6.902901 191.209 10.437897 L 191.209 80.885002 C 191.209 85.439003 196.281006 89.567001 200.563004 89.567001 L 212.291 89.567001 C 216.871002 89.567001 221.451004 84.837997 221.451004 81.067001 L 221.451004 10.198898 C 221.451004 7.022903 217.126007 2.254898 211.391998 2.254898 Z M 211.733994 80.613998 L 201.231995 80.613998 L 201.231995 10.835899 L 211.733994 10.835899 L 211.733994 80.613998 Z"/>
        <path id="path9" fill="#ffffff" stroke="none" d="M 363.69101 2.875999 L 351.712006 2.875999 C 346.31601 2.875999 343.14801 7.322998 343.14801 10.82 L 343.14801 89.463997 L 352.222992 89.463997 L 352.222992 48.153999 L 363.691986 48.153999 L 363.691986 89.463997 L 372.768005 89.463997 L 372.768005 11.294998 C 372.766998 6.106995 369.177002 2.875999 363.69101 2.875999 Z M 363.432007 39.575996 L 352.565002 39.575996 L 352.565002 11.615997 L 363.432007 11.615997 L 363.432007 39.575996 Z"/>
        <path id="path10" fill="#ff373a" stroke="none" d="M 225 95.9431 L 0 95.9431 L 0 106.422096 L 225 106.422096 L 225 95.9431 Z"/>
        <path id="Trazado-copia" fill="#1a9cf7" stroke="none" d="M 465 95.9431 L 240 95.9431 L 240 106.422096 L 465 106.422096 L 465 95.9431 Z"/>
    </g>
</svg>
