<?xml version="1.0" encoding="UTF-8"?>
<!-- Generated by Pixelmator Pro 3.7.1 -->
<svg width="2091" height="463" viewBox="0 0 2091 463" xmlns="http://www.w3.org/2000/svg">
    <g id="Agrupar">
        <path id="barra1" fill="#ffffff" fill-rule="evenodd" stroke="#ffffff" stroke-width="1.042892" stroke-linecap="round" stroke-linejoin="round" d="M 0 388.3479 L 1027.436646 388.3479 L 1027.436646 461.62262 L 0 461.62262 L 0 388.3479 Z"/>
        <path id="barra2" fill="#ffffff" fill-rule="evenodd" stroke="#ffffff" stroke-width="1.042892" stroke-linecap="round" stroke-linejoin="round" d="M 1113.747925 388.589966 L 2089.729736 388.589966 L 2089.729736 461.62262 L 1113.747925 461.62262 L 1113.747925 388.589966 Z"/>
        <path id="TURBOGRAFX" fill="#ffffff" fill-rule="evenodd" stroke="none" d="M 2027.206665 142.924316 L 2026.25061 142.924316 L 1999.002808 2.860962 L 1967.452759 2.860962 L 2009.041504 174.474426 L 1964.106445 348 L 1995.656616 348 L 2026.25061 202.678314 L 2027.206665 202.678314 L 2057.800781 348 L 2089.35083 348 L 2045.371948 174.474426 L 2086.004639 2.860962 L 2054.45459 2.860962 Z M 1795.361206 348 L 1826.911377 348 L 1826.911377 182.122925 L 1876.626709 182.122925 L 1876.626709 155.353149 L 1826.911377 155.353149 L 1826.911377 29.630737 L 1879.016846 29.630737 L 1879.016846 2.860962 L 1795.361206 2.860962 Z M 1666.77063 348 L 1698.320801 348 L 1647.649414 2.860962 L 1604.626465 2.860962 L 1553.955078 348 L 1585.505249 348 L 1598.412109 252.393616 L 1653.86377 252.393616 Z M 1650.517578 225.62384 L 1601.758301 225.62384 L 1625.659912 26.762573 L 1626.615967 26.762573 Z M 1378.039429 155.353149 L 1378.039429 29.630737 L 1395.726563 29.630737 C 1411.979614 29.630737 1422.496338 32.97699 1422.496338 53.054321 L 1422.496338 130.495483 C 1422.496338 151.050873 1413.891846 155.353149 1399.072754 155.353149 Z M 1423.93042 348 L 1455.480591 348 L 1455.480591 200.288147 C 1455.480591 176.386566 1442.095703 169.694092 1419.628174 168.26001 L 1419.628174 167.303955 C 1444.007813 165.869843 1454.046509 156.787231 1454.046509 130.017456 L 1454.046509 42.537598 C 1454.046509 8.119324 1435.403198 2.860962 1405.287231 2.860962 L 1346.489258 2.860962 L 1346.489258 348 L 1378.039429 348 L 1378.039429 182.122925 L 1399.072754 182.122925 C 1413.891846 182.122925 1423.93042 186.425232 1423.93042 203.156342 Z M 1175.353882 205.546509 L 1200.689575 205.546509 L 1200.689575 319.318085 C 1196.387329 322.186279 1188.260742 324.098389 1179.656128 324.098389 C 1168.661377 324.098389 1154.798462 317.884003 1154.798462 289.680115 L 1154.798462 58.79071 C 1154.798462 39.669434 1159.578857 26.762573 1177.744019 26.762573 C 1195.909302 26.762573 1200.689575 39.669434 1200.689575 58.79071 L 1200.689575 93.209015 L 1232.239624 93.209015 L 1232.239624 54.488403 C 1232.239624 18.636047 1212.162354 -0.007202 1177.744019 -0.007202 C 1143.325684 -0.007202 1123.248413 18.636047 1123.248413 54.488403 L 1123.248413 290.158142 C 1123.248413 329.834778 1139.023438 350.868195 1182.524414 350.868195 C 1198.777466 350.868195 1215.508545 347.043945 1232.239624 340.351501 L 1232.239624 178.776703 L 1175.353882 178.776703 Z M 896.661255 292.548309 C 896.661255 326.488586 909.568176 350.868195 952.112976 350.868195 C 994.657837 350.868195 1007.564697 326.488586 1007.564697 292.548309 L 1007.564697 58.312683 C 1007.564697 24.372437 994.657837 -0.007202 952.112976 -0.007202 C 909.568176 -0.007202 896.661255 24.372437 896.661255 58.312683 Z M 928.211365 59.268738 C 928.211365 40.147461 932.035645 26.762573 952.112976 26.762573 C 972.190308 26.762573 976.014587 40.147461 976.014587 59.268738 L 976.014587 291.592224 C 976.014587 310.713501 972.190308 324.098389 952.112976 324.098389 C 932.035645 324.098389 928.211365 310.713501 928.211365 291.592224 Z M 703.536377 155.353149 L 703.536377 29.630737 L 721.223572 29.630737 C 737.476685 29.630737 747.993347 32.97699 747.993347 53.054321 L 747.993347 130.495483 C 747.993347 151.050873 739.388794 155.353149 724.569824 155.353149 Z M 671.986267 348 L 730.784241 348 C 762.334351 348 780.977539 342.741638 780.977539 308.323364 L 780.977539 200.288147 C 780.977539 176.386566 767.114624 169.216064 745.125183 168.26001 L 745.125183 167.303955 C 769.504822 166.34787 779.543457 156.787231 779.543457 130.017456 L 779.543457 42.537598 C 779.543457 8.119324 760.900208 2.860962 730.784241 2.860962 L 671.986267 2.860962 Z M 703.536377 321.230225 L 703.536377 182.122925 L 724.569824 182.122925 C 739.388794 182.122925 749.42749 186.425232 749.42749 203.156342 L 749.42749 297.806641 C 749.42749 317.884003 738.910767 321.230225 722.657654 321.230225 Z M 478.86142 155.353149 L 478.86142 29.630737 L 496.548584 29.630737 C 512.801636 29.630737 523.318359 32.97699 523.318359 53.054321 L 523.318359 130.495483 C 523.318359 151.050873 514.713806 155.353149 499.894806 155.353149 Z M 524.752502 348 L 556.302551 348 L 556.302551 200.288147 C 556.302551 176.386566 542.917664 169.694092 520.450195 168.26001 L 520.450195 167.303955 C 544.829834 165.869843 554.868469 156.787231 554.868469 130.017456 L 554.868469 42.537598 C 554.868469 8.119324 536.22522 2.860962 506.109222 2.860962 L 447.31131 2.860962 L 447.31131 348 L 478.86142 348 L 478.86142 182.122925 L 499.894806 182.122925 C 514.713806 182.122925 524.752502 186.425232 524.752502 203.156342 Z M 301.511566 291.592224 C 301.511566 316.44989 293.863068 324.098389 277.609985 324.098389 C 261.83493 324.098389 253.708389 316.44989 253.708389 291.592224 L 253.708389 2.860962 L 222.158279 2.860962 L 222.158279 301.63092 C 222.158279 339.873474 250.840195 350.868195 277.131958 350.868195 C 304.379761 350.868195 333.061676 339.873474 333.061676 301.63092 L 333.061676 2.860962 L 301.511566 2.860962 Z M 54.369095 348 L 85.919197 348 L 85.919197 29.630737 L 121.293556 29.630737 L 121.293556 2.860962 L 18.994734 2.860962 L 18.994734 29.630737 L 54.369095 29.630737 Z"/>
    </g>
</svg>
