<?xml version="1.0" encoding="UTF-8"?>
<!-- Generated by Pixelmator Pro 3.7.1 -->
<svg width="396" height="155" viewBox="0 0 396 155" xmlns="http://www.w3.org/2000/svg">
    <clipPath id="clipPath1">
        <path d="M 3 31.743717 L 478.486344 31.743717 L 478.486344 133.884296 L 3 133.884296 Z"/>
    </clipPath>
    <g id="Agrupar-copia" clip-path="url(#clipPath1)">
        <path id="Trazado" fill="#ffffff" stroke="none" d="M 3 34.25985 L 26.551805 34.25985 L 26.551805 39.267159 L 19.658451 39.267159 L 19.658451 107.227585 L 11.327548 107.227585 L 11.327548 39.267159 L 3 39.267159 L 3 34.25985 Z"/>
        <path id="path1" fill="#ffffff" stroke="none" d="M 47.886906 99.860367 L 57.080002 99.860367 L 57.080002 33.952881 L 65.120712 33.952881 L 65.120712 99.860367 C 65.120712 104.125198 61.244194 107.147072 57.27039 107.147072 L 47.886906 107.147072 C 43.687485 107.147072 39.940968 103.729332 39.940968 99.773972 L 39.940968 33.952881 L 47.886906 33.952881 L 47.886906 99.860367 L 47.886906 99.860367 Z"/>
        <path id="path2" fill="#ffffff" stroke="none" d="M 220.791107 65.462807 L 233.071487 65.462807 L 233.071487 107.212494 L 215.767227 107.212494 C 212.066849 107.212494 207.509293 105.143845 207.509293 102.005646 L 207.509293 38.895668 C 207.509293 36.244469 211.312836 33.421135 215.58522 33.421135 L 225.028275 33.421135 C 229.216782 33.421135 233.016968 36.218742 233.016968 38.833801 L 233.016968 53.784775 L 224.74057 53.784775 L 224.74057 39.042076 L 215.336121 39.042076 L 215.336121 102.0522 L 224.957809 102.0522 L 224.957809 70.57225 L 220.791107 70.57225 L 220.791107 65.462807 Z"/>
        <path id="path3" fill="#ffffff" stroke="none" d="M 339.536469 72.130943 L 339.536469 106.778038 L 331.783417 106.778038 L 331.783417 40.420174 C 331.783417 37.422615 334.762512 34.156685 338.532532 34.156685 L 351.314453 34.156685 L 351.314453 40.552681 L 339.536469 40.552681 L 339.536469 65.069847 L 349.231934 65.069847 L 349.231934 72.163651 L 339.536469 72.130943 Z"/>
        <path id="path4" fill="#ffffff" stroke="none" d="M 367.03775 34.175049 L 375.17572 34.175049 L 375.17572 60.604469 L 379.771027 65.224922 L 384.269043 60.732796 L 384.269043 34.175049 L 392.308899 34.175049 L 392.308899 59.321251 C 392.308899 62.391762 384.366302 70.481117 384.366302 70.481117 C 384.366302 70.481117 392.406189 78.565437 392.406189 81.842278 L 392.406189 106.923981 L 384.843536 106.923981 L 384.843536 80.811501 L 379.960571 75.874016 L 375.07843 80.746925 L 375.07843 106.924812 L 367.03775 106.924812 L 367.03775 81.902664 C 367.03775 78.826279 375.55484 70.417374 375.55484 70.417374 C 375.55484 70.417374 367.03775 62.417763 367.03775 59.194603 L 367.03775 34.175049 L 367.03775 34.175049 Z"/>
        <path id="path5" fill="#ffffff" stroke="none" d="M 99.968254 72.294495 C 102.696587 72.294495 106.323997 69.033585 106.323997 64.668945 L 106.323997 40.818558 C 106.323997 37.386551 102.409744 34.191071 97.95787 34.191071 L 81.442841 34.191071 L 81.442841 107.069908 L 89.054962 107.069908 L 89.054962 72.830429 L 91.927551 72.830429 L 100.399353 106.94075 L 107.867226 106.94075 L 99.968254 72.294495 Z M 98.461937 65.167976 L 89.341805 65.167976 L 89.341805 41.252174 L 98.461937 41.252174 L 98.461937 65.167976 Z"/>
        <path id="path6" fill="#ffffff" stroke="none" d="M 268.415558 72.104187 C 271.144714 72.104187 274.773804 68.83741 274.773804 64.47612 L 274.773804 40.62574 C 274.773804 37.194572 270.857056 33.995743 266.407654 33.995743 L 249.893478 33.995743 L 249.893478 106.879524 L 257.499725 106.879524 L 257.499725 72.635086 L 260.374847 72.635086 L 268.849152 106.744492 L 276.314514 106.744492 L 268.415558 72.104187 Z M 266.798523 64.896317 L 257.684235 64.896317 L 257.684235 40.981346 L 266.798523 40.981346 L 266.798523 64.896317 Z"/>
        <path id="path7" fill="#ffffff" stroke="none" d="M 147.016525 74.013008 C 146.981293 70.74707 143.57193 68.680496 143.57193 68.680496 C 143.57193 68.680496 147.016525 66.451202 147.016525 63.352165 L 147.016525 41.103722 C 147.016525 36.904297 143.319489 34.172615 139.551163 34.172615 L 122.173935 34.172615 L 122.173935 106.924812 L 139.551163 106.924812 C 143.06955 106.924812 147.016525 104.727394 147.016525 99.996231 C 147.016525 99.996231 147.055099 77.27475 147.016525 74.013008 Z M 139.190506 99.795776 L 130.072891 99.795776 L 130.072891 72.679459 L 139.190506 72.679459 L 139.190506 99.795776 Z M 139.190506 65.151199 L 130.072891 65.151199 L 130.072891 41.236237 L 139.190506 41.236237 L 139.190506 65.151199 Z"/>
        <path id="path8" fill="#ffffff" stroke="none" d="M 180.296509 33.634926 L 175.701218 33.634926 L 171.249344 33.634926 C 166.689285 33.634926 163.368835 37.533249 163.368835 40.498085 L 163.368835 99.582748 C 163.368835 103.402237 167.622772 106.864426 171.214127 106.864426 L 181.050522 106.864426 C 184.891815 106.864426 188.733093 102.898163 188.733093 99.735397 L 188.733093 40.29763 C 188.733093 37.633896 185.105682 33.634926 180.296509 33.634926 Z M 180.583344 99.355453 L 171.775223 99.355453 L 171.775223 40.831894 L 180.583344 40.831894 L 180.583344 99.355453 Z"/>
        <path id="path9" fill="#ffffff" stroke="none" d="M 308.031158 34.155846 L 297.984253 34.155846 C 293.458588 34.155846 290.801544 37.88559 290.801544 40.818558 L 290.801544 106.778038 L 298.412842 106.778038 L 298.412842 72.130943 L 308.031982 72.130943 L 308.031982 106.778038 L 315.644135 106.778038 L 315.644135 41.216942 C 315.64328 36.865715 312.632324 34.155846 308.031158 34.155846 Z M 307.813934 64.936485 L 298.699677 64.936485 L 298.699677 41.486168 L 307.813934 41.486168 L 307.813934 64.936485 Z"/>
        <path id="path10" fill="#ffffff" stroke="none" d="M 191.709671 112.212128 L 3 112.212128 L 3 121.000961 L 191.709671 121.000961 L 191.709671 112.212128 Z"/>
        <path id="Trazado-copia" fill="#ffffff" stroke="none" d="M 393 112.212128 L 204.290329 112.212128 L 204.290329 121.000961 L 393 121.000961 L 393 112.212128 Z"/>
    </g>
</svg>
