<?xml version="1.0" encoding="UTF-8"?>
<!-- Generated by Pixelmator Pro 3.7.1 -->
<svg width="551" height="122" viewBox="0 0 551 122" xmlns="http://www.w3.org/2000/svg">
    <g id="Agrupar">
        <path id="barra1" fill="#ffffff" fill-rule="evenodd" stroke="#ffffff" stroke-width="0.274807" stroke-linecap="round" stroke-linejoin="round" d="M 0 102.329254 L 270.740112 102.329254 L 270.740112 121.637062 L 0 121.637062 L 0 102.329254 Z"/>
        <path id="barra2" fill="#ffffff" fill-rule="evenodd" stroke="#ffffff" stroke-width="0.274807" stroke-linecap="round" stroke-linejoin="round" d="M 293.484039 102.393036 L 550.665283 102.393036 L 550.665283 121.637062 L 293.484039 121.637062 L 293.484039 102.393036 Z"/>
        <path id="TURBOGRAFX" fill="#ffffff" fill-rule="evenodd" stroke="none" d="M 534.189819 37.6604 L 533.937866 37.6604 L 526.757813 0.75386 L 518.444031 0.75386 L 529.403076 45.973824 L 517.562256 91.697624 L 525.876038 91.697624 L 533.937866 53.405518 L 534.189819 53.405518 L 542.251648 91.697624 L 550.56543 91.697624 L 538.976563 45.973824 L 549.683655 0.75386 L 541.369934 0.75386 Z M 473.09613 91.697624 L 481.409943 91.697624 L 481.409943 47.989197 L 494.510437 47.989197 L 494.510437 40.935387 L 481.409943 40.935387 L 481.409943 7.807671 L 495.140259 7.807671 L 495.140259 0.75386 L 473.09613 0.75386 Z M 439.211212 91.697624 L 447.524994 91.697624 L 434.172577 0.75386 L 422.835571 0.75386 L 409.483154 91.697624 L 417.796936 91.697624 L 421.198029 66.505447 L 435.81012 66.505447 Z M 434.928345 59.451637 L 422.079773 59.451637 L 428.378113 7.05191 L 428.630035 7.05191 Z M 363.127563 40.935387 L 363.127563 7.807671 L 367.7883 7.807671 C 372.071136 7.807671 374.842407 8.6894 374.842407 13.979759 L 374.842407 34.385422 C 374.842407 39.801743 372.575043 40.935387 368.670044 40.935387 Z M 375.220306 91.697624 L 383.534088 91.697624 L 383.534088 52.775711 C 383.534088 46.477669 380.00705 44.714211 374.086609 44.336334 L 374.086609 44.084412 C 380.510895 43.706528 383.156219 41.313263 383.156219 34.25946 L 383.156219 11.208611 C 383.156219 2.139435 378.2435 0.75386 370.307648 0.75386 L 354.813751 0.75386 L 354.813751 91.697624 L 363.127563 91.697624 L 363.127563 47.989197 L 368.670044 47.989197 C 372.575043 47.989197 375.220306 49.122849 375.220306 53.531479 Z M 309.717834 54.161285 L 316.394043 54.161285 L 316.394043 84.139969 C 315.260376 84.895737 313.118927 85.399574 310.851532 85.399574 C 307.954285 85.399574 304.30127 83.762093 304.30127 76.330399 L 304.30127 15.491287 C 304.30127 10.45285 305.560944 7.05191 310.347656 7.05191 C 315.134399 7.05191 316.394043 10.45285 316.394043 15.491287 L 316.394043 24.560478 L 324.707825 24.560478 L 324.707825 14.357635 C 324.707825 4.910576 319.417236 -0.0019 310.347656 -0.0019 C 301.278076 -0.0019 295.987518 4.910576 295.987518 14.357635 L 295.987518 76.45636 C 295.987518 86.911102 300.144379 92.453392 311.60733 92.453392 C 315.890198 92.453392 320.299011 91.445709 324.707825 89.682251 L 324.707825 47.107468 L 309.717834 47.107468 Z M 236.279465 77.086166 C 236.279465 86.029388 239.680573 92.453392 250.891556 92.453392 C 262.10257 92.453392 265.503662 86.029388 265.503662 77.086166 L 265.503662 15.365326 C 265.503662 6.422112 262.10257 -0.0019 250.891556 -0.0019 C 239.680573 -0.0019 236.279465 6.422112 236.279465 15.365326 Z M 244.593231 15.617249 C 244.593231 10.578812 245.600983 7.05191 250.891556 7.05191 C 256.182129 7.05191 257.18988 10.578812 257.18988 15.617249 L 257.18988 76.834236 C 257.18988 81.872673 256.182129 85.399574 250.891556 85.399574 C 245.600983 85.399574 244.593231 81.872673 244.593231 76.834236 Z M 185.389069 40.935387 L 185.389069 7.807671 L 190.04982 7.807671 C 194.332687 7.807671 197.103943 8.6894 197.103943 13.979759 L 197.103943 34.385422 C 197.103943 39.801743 194.836548 40.935387 190.931595 40.935387 Z M 177.075287 91.697624 L 192.569168 91.697624 C 200.882935 91.697624 205.795609 90.31205 205.795609 81.242874 L 205.795609 52.775711 C 205.795609 46.477669 202.142593 44.588249 196.348145 44.336334 L 196.348145 44.084412 C 202.77243 43.832481 205.417709 41.313263 205.417709 34.25946 L 205.417709 11.208611 C 205.417709 2.139435 200.505035 0.75386 192.569168 0.75386 L 177.075287 0.75386 Z M 185.389069 84.643814 L 185.389069 47.989197 L 190.931595 47.989197 C 194.836548 47.989197 197.481842 49.122849 197.481842 53.531479 L 197.481842 78.471725 C 197.481842 83.762093 194.710587 84.643814 190.427719 84.643814 Z M 126.184906 40.935387 L 126.184906 7.807671 L 130.845657 7.807671 C 135.12851 7.807671 137.899765 8.6894 137.899765 13.979759 L 137.899765 34.385422 C 137.899765 39.801743 135.632385 40.935387 131.727417 40.935387 Z M 138.277679 91.697624 L 146.591446 91.697624 L 146.591446 52.775711 C 146.591446 46.477669 143.064392 44.714211 137.143982 44.336334 L 137.143982 44.084412 C 143.568268 43.706528 146.213547 41.313263 146.213547 34.25946 L 146.213547 11.208611 C 146.213547 2.139435 141.300858 0.75386 133.36499 0.75386 L 117.871132 0.75386 L 117.871132 91.697624 L 126.184906 91.697624 L 126.184906 47.989197 L 131.727417 47.989197 C 135.632385 47.989197 138.277679 49.122849 138.277679 53.531479 Z M 79.451401 76.834236 C 79.451401 83.384201 77.435944 85.399574 73.153084 85.399574 C 68.996193 85.399574 66.854767 83.384201 66.854767 76.834236 L 66.854767 0.75386 L 58.540993 0.75386 L 58.540993 79.479424 C 58.540993 89.55629 66.098969 92.453392 73.027122 92.453392 C 80.207199 92.453392 87.765175 89.55629 87.765175 79.479424 L 87.765175 0.75386 L 79.451401 0.75386 Z M 14.326816 91.697624 L 22.640593 91.697624 L 22.640593 7.807671 L 31.962099 7.807671 L 31.962099 0.75386 L 5.005308 0.75386 L 5.005308 7.807671 L 14.326816 7.807671 Z"/>
    </g>
</svg>
