<?xml version="1.0" encoding="UTF-8"?>
<!-- Generated by Pixelmator Pro 3.7.1 -->
<svg width="498" height="238" viewBox="0 0 498 238" xmlns="http://www.w3.org/2000/svg">
    <path id="Trazado" fill="#ffffff" stroke="none" d="M 68.109901 41.989395 C 70.648003 44.454193 74.1091 45.978104 77.9263 45.978104 L 138.240005 45.985001 L 125.213997 7.124847 C 123.434998 2.996536 119.261002 0.105469 114.248001 0.105469 C 109.255997 0.105469 105.018997 3.090988 103.306 7.202255 L 98.964203 19.860901 L 98.947098 0.759338 L 77.884399 0.748749 C 74.077301 0.748749 70.6549 2.23436 68.1343 4.691803 L 68.141701 0.765793 L 46.575802 0.765793 C 42.558998 0.765793 38.9058 2.478592 36.3507 5.170578 L 36.3507 0.748749 L 16.024799 0.766251 C 7.25023 0.758881 0.052531 7.617889 0.041933 16.686401 C 0.041933 20.884796 1.87684 24.692398 4.58266 27.513397 L 0 27.505997 L 0 45.978104 L 20.478901 45.974396 C 26.232901 45.967499 31.934799 42.495804 33.916698 38.336197 L 33.9762 38.165192 C 36.2659 42.789795 41.044399 45.978104 46.574902 45.978104 L 68.109497 45.974396 L 68.109497 41.989395"/>
    <path id="path1" fill="#0060a8" stroke="none" d="M 3.16382 42.8181 L 20.433201 42.800598 C 27.498699 42.800598 33.224602 37.092194 33.224602 30.058502 C 33.224602 23.011108 27.498699 17.3022 20.433201 17.3022 L 15.9483 17.326599 C 15.5948 17.326599 15.3082 17.036804 15.3082 16.680099 C 15.3082 16.323502 15.5948 16.033203 15.9483 16.033203 L 33.186298 16.036896 L 33.193199 10.628906 L 15.9446 10.628906 C 12.6098 10.628906 9.89657 13.337906 9.89657 16.666306 C 9.89657 19.997894 12.6093 22.696304 15.9446 22.696304 L 20.450701 22.755798 C 24.498899 22.755798 27.7747 26.020508 27.7747 30.048401 C 27.7747 34.078995 24.4993 37.351196 20.450701 37.351196 L 3.17073 37.351196 L 3.16382 42.8181"/>
    <path id="path2" fill="#0060a8" stroke="none" d="M 3.17081 36.081497 L 20.4508 36.081497 C 23.7962 36.081497 26.502001 33.383102 26.502001 30.047806 C 26.502001 26.716202 23.7962 24.020996 20.4508 24.020996 L 15.9446 23.972198 C 11.9034 23.972198 8.62437 20.703705 8.62437 16.665695 C 8.62437 12.638794 11.9034 9.369873 15.9446 9.369873 L 33.193298 9.36618 L 33.186401 3.9375 L 15.9483 3.9375 C 8.89026 3.9375 3.15698 9.639435 3.15698 16.679993 C 3.15698 23.720596 8.89026 29.425705 15.9483 29.425705 L 20.408899 29.432602 C 20.747999 29.432602 21.034599 29.709106 21.034599 30.058395 C 21.034599 30.401199 20.747999 30.677307 20.408899 30.677307 L 3.16389 30.691101 L 3.17081 36.081497"/>
    <path id="path3" fill="#0060a8" stroke="none" d="M 46.613701 37.385605 C 43.617599 37.385605 41.1633 34.997696 41.1633 31.949097 L 41.1633 14.697601 C 41.1633 11.764603 43.617599 9.352356 46.613701 9.352356 L 65.047096 9.355591 L 65.047096 3.9375 L 46.613701 3.9375 C 40.615002 3.9375 35.755901 8.779129 35.755901 14.757095 L 35.755901 31.949493 C 35.755901 37.927902 40.615002 42.776505 46.613701 42.776505 L 64.9701 42.783905 L 64.9664 37.379105 L 46.613701 37.385605"/>
    <path id="path4" fill="#0060a8" stroke="none" d="M 42.484699 14.756104 C 42.484699 12.470093 44.323799 10.617203 46.613499 10.617203 L 65.046898 10.617203 L 65.046898 16.042603 L 49.165401 16.042603 C 47.893101 16.042603 47.875599 17.304794 47.875599 17.304794 L 61.125 17.304794 L 61.125 22.705795 L 42.478298 22.705795 L 42.484699 14.756104"/>
    <path id="path5" fill="#0060a8" stroke="none" d="M 46.613701 36.070709 C 44.330898 36.070709 42.478001 34.228394 42.478001 31.948792 L 42.478001 23.992203 L 61.124802 23.992203 L 61.124802 29.404297 L 47.875401 29.404297 C 47.892899 30.676605 49.165199 30.682999 49.165199 30.682999 L 64.969704 30.682999 L 64.966003 36.063293 L 46.613701 36.070709"/>
    <path id="path6" fill="#0060a8" stroke="none" d="M 77.9645 37.371796 C 74.978996 37.371796 72.539101 34.938705 72.539101 31.949097 L 72.539101 14.756607 C 72.539101 11.764206 74.961502 9.351898 77.950203 9.351898 L 95.803902 9.351898 L 95.803902 3.9375 L 77.908798 3.9375 C 71.912804 3.9375 67.053703 8.779129 67.053703 14.757095 L 67.053703 31.949493 C 67.053703 37.927902 71.954803 42.776505 77.950203 42.776505 L 95.803902 42.783905 L 95.803902 17.305801 L 80.460701 17.305801 L 80.460701 22.706802 L 90.381699 22.706802 L 90.381699 37.371796 L 77.9645 37.371796"/>
    <path id="path7" fill="#0060a8" stroke="none" d="M 73.811501 31.947906 C 73.811501 34.238495 75.664299 36.101501 77.950401 36.101501 L 89.102203 36.101501 L 89.102203 23.984802 L 80.474197 23.984802 L 80.474197 29.403793 L 83.6763 29.403793 L 83.686401 30.676102 L 80.498596 30.676102 C 79.802803 30.676102 79.2332 30.099594 79.2332 29.403793 L 79.204697 17.300903 C 79.204697 17.300903 79.200996 16.042404 80.484299 16.011108 L 95.810097 16.011108 L 95.803101 10.613297 L 77.949501 10.617004 C 75.663399 10.617004 73.810501 12.469803 73.810501 14.755905 L 73.810501 31.947906"/>
    <path id="path8" fill="#0060a8" stroke="none" d="M 112.580002 10.536301 C 112.820999 9.847839 113.474998 9.351563 114.247002 9.351563 C 115.021004 9.351563 115.681 9.847839 115.915001 10.536301 L 124.582001 36.139709 L 111.890999 36.139709 L 111.904999 30.116608 L 116.146004 30.116608 L 114.237 24.442795 L 108.017998 42.778 L 101.621002 42.778 L 112.580002 10.536301"/>
    <path id="path9" fill="#0060a8" stroke="none" d="M 126.329002 37.371597 L 111.913002 37.371597 L 111.913002 42.779099 L 133.852005 42.779099 L 122.442001 9.019989 C 121.442001 5.727112 118.146004 3.304688 114.244003 3.304688 C 110.335999 3.304688 107.050003 5.716507 106.042999 9.006622 L 94.527603 42.779602 L 100.271004 42.779602 L 111.450996 9.950348 C 111.904999 8.863327 112.975998 8.097473 114.234001 8.097473 C 115.486 8.097473 116.561996 8.863327 117.019997 9.943436 L 126.329002 37.371597"/>
    <path id="path10" fill="#ffffff" fill-rule="evenodd" stroke="none" d="M 132.419998 7.119293 C 131.699005 7.835846 130.738007 8.234436 129.716995 8.234436 C 128.699005 8.234436 127.741997 7.835846 127.025002 7.119766 C 126.297997 6.396301 125.900002 5.441986 125.900002 4.42131 C 125.900002 2.323746 127.615997 0.621094 129.716995 0.621094 C 130.738007 0.621094 131.699005 1.019684 132.419998 1.732544 C 133.139008 2.455994 133.542007 3.407089 133.542007 4.420853 C 133.542007 5.441513 133.139008 6.395844 132.419998 7.119293 Z M 127.399002 2.106659 C 126.774002 2.72551 126.438004 3.550354 126.438004 4.420807 C 126.438004 5.298157 126.773003 6.119766 127.399002 6.738159 C 128.020996 7.357025 128.845993 7.696167 129.716995 7.696167 C 131.531006 7.696167 133.007004 6.228058 133.007004 4.420807 C 133.007004 3.550354 132.664001 2.72551 132.044998 2.106659 C 131.423004 1.488266 130.598007 1.152344 129.716995 1.152344 C 128.845993 1.152344 128.022003 1.487808 127.399002 2.106659 Z"/>
    <path id="path11" fill="#ffffff" fill-rule="evenodd" stroke="none" d="M 128.738007 6.537216 L 128.738007 4.74057 L 129.828995 4.74057 L 130.985992 6.537216 L 131.654007 6.537216 L 130.464996 4.705536 C 130.470993 4.704224 130.477997 4.702805 130.485992 4.701263 C 130.718994 4.654587 131.472 4.503342 131.472 3.548477 C 131.472 3.156799 131.339005 2.803818 131.020996 2.569275 C 130.697998 2.325363 130.358002 2.321426 129.783997 2.314774 C 129.774002 2.314667 129.764999 2.31456 129.755005 2.314453 L 128.186005 2.314453 L 128.186005 6.537216 L 128.738007 6.537216 Z M 129.860001 4.27562 L 128.738007 4.27562 L 128.738007 2.783096 L 129.828995 2.783096 C 129.839996 2.783096 129.852005 2.783081 129.863007 2.783066 C 130.173004 2.782837 130.440994 2.782639 130.654007 2.961426 C 130.895004 3.157257 130.906006 3.440186 130.906006 3.552155 C 130.906006 3.859528 130.766006 4.139221 130.375 4.233688 C 130.207001 4.27562 130.039001 4.27562 129.860001 4.27562 Z"/>
    <path id="path12" fill="#ffffff" stroke="none" d="M 407.743988 191.210007 L 407.743988 204 L 410.636993 204 L 410.636993 191.210007 L 414.984985 191.210007 L 414.984985 188.796997 L 403.644012 188.796997 L 403.644012 191.210007 L 407.743988 191.210007 Z"/>
    <path id="path13" fill="#ffffff" stroke="none" d="M 415.707001 188.796997 L 415.707001 203.757996 L 418.60199 204 L 418.60199 194.106003 L 424.394012 204 L 428.493988 194.106003 L 428.493988 204 L 431.391998 204 L 431.391998 188.796997 L 428.251007 188.796997 L 424.151001 198.209 L 419.806 188.796997 L 415.707001 188.796997 Z"/>
    <path id="path14" fill="#ffffff" stroke="none" d="M 10.3099 223.455994 C 10.274 222.201004 9.92006 221.233002 9.24797 220.552002 C 8.57588 219.862 7.63943 219.516998 6.43863 219.516998 C 5.18406 219.516998 4.24313 219.804001 3.61585 220.378006 C 2.99752 220.951004 2.68836 221.811005 2.68836 222.957993 C 2.68836 223.809998 2.96616 224.445999 3.52175 224.867004 C 4.06839 225.279007 5.16614 225.682999 6.815 226.076996 C 9.11803 226.632004 10.7042 227.330994 11.5734 228.173996 C 12.4426 229.016006 12.8773 230.279999 12.8773 231.964005 C 12.8773 233.819 12.2948 235.289001 11.1298 236.373001 C 9.97382 237.457993 8.41009 238 6.43863 238 C 4.41339 238 2.8407 237.408005 1.72055 236.225006 C 0.609362 235.033997 0.035845 233.348999 0 231.171005 L 2.0566 231.171005 C 2.07452 232.613998 2.46433 233.729996 3.22603 234.518005 C 3.98774 235.307007 5.0586 235.701004 6.43863 235.701004 C 7.86346 235.701004 8.92984 235.419006 9.63778 234.854004 C 10.3457 234.289993 10.6997 233.438995 10.6997 232.300003 C 10.6997 231.270004 10.4219 230.516998 9.86629 230.042007 C 9.31966 229.567001 8.22191 229.132996 6.57305 228.738007 C 4.27002 228.182999 2.68388 227.505997 1.81464 226.709 C 0.945407 225.910995 0.510789 224.723999 0.510789 223.147003 C 0.510789 221.326996 1.04398 219.884995 2.11036 218.817993 C 3.17675 217.751999 4.6195 217.218994 6.43863 217.218994 C 8.27568 217.218994 9.70499 217.761002 10.7266 218.845001 C 11.7571 219.929993 12.3037 221.466003 12.3665 223.455994 L 10.3099 223.455994 Z"/>
    <path id="path15" fill="#ffffff" stroke="none" d="M 15.9017 237.488998 L 15.9017 217.729996 L 27.730499 217.729996 L 27.730499 220.082001 L 18.079201 220.082001 L 18.079201 226.130997 L 27.004601 226.130997 L 27.004601 228.509995 L 18.079201 228.509995 L 18.079201 235.136993 L 27.8514 235.136993 L 27.8514 237.488998 L 15.9017 237.488998 Z"/>
    <path id="path16" fill="#ffffff" stroke="none" d="M 37.596699 238 C 35.3475 238 33.532799 237.059006 32.152802 235.177002 C 30.7728 233.294998 30.0828 230.817001 30.0828 227.744003 C 30.0828 224.589005 30.804199 222.048996 32.246899 220.121994 C 33.689701 218.186996 35.580502 217.218994 37.9193 217.218994 C 39.675701 217.218994 41.167801 217.809998 42.3955 218.992996 C 43.623199 220.175995 44.358002 221.731003 44.599899 223.656998 L 42.4627 223.656998 C 42.310299 222.438995 41.799599 221.457001 40.930302 220.714005 C 40.07 219.970001 39.008099 219.598007 37.744598 219.598007 C 36.077801 219.598007 34.760502 220.328003 33.792702 221.789001 C 32.824902 223.25 32.341 225.244003 32.341 227.770996 C 32.341 230.225998 32.824902 232.166 33.792702 233.591003 C 34.760502 235.016006 36.077801 235.727997 37.744598 235.727997 C 39.3307 235.718994 40.647999 235.082993 41.696499 233.819 C 42.036999 233.406998 42.310299 232.811005 42.516399 232.031998 C 42.731499 231.251999 42.8391 230.436996 42.8391 229.585007 L 42.8391 229.195007 L 37.798401 229.195007 L 37.798401 226.897003 L 44.895599 226.897003 L 44.895599 237.449005 L 43.4977 237.449005 L 42.933102 235.231003 C 41.570999 237.067993 39.792198 237.990997 37.596699 238 Z"/>
    <path id="path17" fill="#ffffff" stroke="none" d="M 46.898499 237.488998 L 53.001099 217.729996 L 55.501202 217.729996 L 61.334999 237.488998 L 58.875099 237.488998 L 57.302399 231.735992 L 50.984798 231.735992 L 49.398701 237.488998 L 46.898499 237.488998 Z M 54.197399 220.309998 L 51.6703 229.356995 L 56.684101 229.356995 L 54.197399 220.309998 Z"/>
    <path id="path18" fill="#ffffff" stroke="none" d="M 73.741798 237.488998 L 73.741798 220.082001 L 68.244102 220.082001 L 68.244102 217.729996 L 81.417099 217.729996 L 81.417099 220.082001 L 75.919403 220.082001 L 75.919403 237.488998 L 73.741798 237.488998 Z"/>
    <path id="path19" fill="#ffffff" stroke="none" d="M 83.796303 237.488998 L 83.796303 217.729996 L 85.973801 217.729996 L 85.973801 237.488998 L 83.796303 237.488998 Z"/>
    <path id="path20" fill="#ffffff" stroke="none" d="M 93.823799 237.488998 L 93.823799 220.082001 L 88.326103 220.082001 L 88.326103 217.729996 L 101.499001 217.729996 L 101.499001 220.082001 L 96.001404 220.082001 L 96.001404 237.488998 L 93.823799 237.488998 Z"/>
    <path id="path21" fill="#ffffff" stroke="none" d="M 102.116997 237.488998 L 108.220001 217.729996 L 110.720001 217.729996 L 116.554001 237.488998 L 114.094002 237.488998 L 112.521004 231.735992 L 106.204002 231.735992 L 104.617996 237.488998 L 102.116997 237.488998 Z M 109.416 220.309998 L 106.889 229.356995 L 111.903 229.356995 L 109.416 220.309998 Z"/>
    <path id="path22" fill="#ffffff" stroke="none" d="M 120.707001 237.488998 L 118.57 237.488998 L 118.57 217.729996 L 121.178001 217.729996 L 129.309998 233.792999 L 129.309998 217.729996 L 131.447006 217.729996 L 131.447006 237.488998 L 129.095001 237.488998 L 120.707001 221.520004 L 120.707001 237.488998 Z"/>
    <path id="path23" fill="#ffffff" stroke="none" d="M 139.889008 217.729996 L 142.348999 217.729996 L 147.026993 234.679993 L 151.570007 217.729996 L 154.057007 217.729996 L 148.156006 237.488998 L 145.802994 237.488998 L 139.889008 217.729996 Z"/>
    <path id="path24" fill="#ffffff" stroke="none" d="M 156.570007 237.488998 L 156.570007 217.729996 L 158.748001 217.729996 L 158.748001 237.488998 L 156.570007 237.488998 Z"/>
    <path id="path25" fill="#ffffff" stroke="none" d="M 162.606003 237.488998 L 162.606003 217.729996 L 168.815994 217.729996 C 171.119003 217.729996 172.893005 218.567001 174.139008 220.242996 C 175.384003 221.910004 176.007004 224.279999 176.007004 227.354004 C 176.007004 230.589005 175.389008 233.089005 174.151993 234.854004 C 172.923996 236.610992 171.173004 237.488998 168.895996 237.488998 L 162.606003 237.488998 Z M 164.783005 235.231003 L 168.895996 235.231003 C 170.5 235.231003 171.710007 234.585999 172.526001 233.294998 C 173.341003 231.996002 173.748993 230.087006 173.748993 227.569 C 173.748993 225.078003 173.332001 223.195999 172.498993 221.923004 C 171.673996 220.641998 170.447006 220.001007 168.815994 220.001007 L 164.783005 220.001007 L 164.783005 235.231003 Z"/>
    <path id="path26" fill="#ffffff" stroke="none" d="M 179.031006 237.488998 L 179.031006 217.729996 L 190.860001 217.729996 L 190.860001 220.082001 L 181.209 220.082001 L 181.209 226.130997 L 190.134003 226.130997 L 190.134003 228.509995 L 181.209 228.509995 L 181.209 235.136993 L 190.981003 235.136993 L 190.981003 237.488998 L 179.031006 237.488998 Z"/>
    <path id="path27" fill="#ffffff" stroke="none" d="M 200.914993 238 C 198.557999 238 196.654007 237.059006 195.201996 235.177002 C 193.75 233.294998 193.024002 230.817001 193.024002 227.744003 C 193.024002 224.526993 193.737 221.968002 195.162003 220.067993 C 196.585999 218.169006 198.503998 217.218994 200.914993 217.218994 C 203.334 217.218994 205.255997 218.169006 206.681 220.067993 C 208.106003 221.968002 208.819 224.526993 208.819 227.744003 C 208.819 230.817001 208.093002 233.294998 206.641006 235.177002 C 205.188995 237.059006 203.281006 238 200.914993 238 Z M 200.914993 235.621002 C 202.626007 235.621002 203.992996 234.904007 205.014999 233.470001 C 206.044998 232.026993 206.559998 230.108994 206.559998 227.716995 C 206.559998 225.207993 206.054001 223.227005 205.041 221.776001 C 204.037994 220.324005 202.662003 219.598007 200.914993 219.598007 C 199.175995 219.598007 197.800995 220.324005 196.787994 221.776001 C 195.783997 223.227005 195.283005 225.207993 195.283005 227.716995 C 195.283005 230.108994 195.792999 232.026993 196.815002 233.470001 C 197.845993 234.904007 199.212006 235.621002 200.914993 235.621002 Z"/>
    <path id="path28" fill="#ffffff" stroke="none" d="M 224.598999 238 C 222.350006 238 220.535004 237.059006 219.154999 235.177002 C 217.774994 233.294998 217.085007 230.817001 217.085007 227.744003 C 217.085007 224.589005 217.807007 222.048996 219.248993 220.121994 C 220.692001 218.186996 222.582993 217.218994 224.921997 217.218994 C 226.677994 217.218994 228.169998 217.809998 229.397995 218.992996 C 230.626007 220.175995 231.360001 221.731003 231.602005 223.656998 L 229.464996 223.656998 C 229.313004 222.438995 228.802002 221.457001 227.932999 220.714005 C 227.072998 219.970001 226.011002 219.598007 224.746994 219.598007 C 223.080002 219.598007 221.763 220.328003 220.794998 221.789001 C 219.826996 223.25 219.343002 225.244003 219.343002 227.770996 C 219.343002 230.225998 219.826996 232.166 220.794998 233.591003 C 221.763 235.016006 223.080002 235.727997 224.746994 235.727997 C 226.332993 235.718994 227.651001 235.082993 228.699005 233.819 C 229.039993 233.406998 229.313004 232.811005 229.518997 232.031998 C 229.733994 231.251999 229.841995 230.436996 229.841995 229.585007 L 229.841995 229.195007 L 224.800995 229.195007 L 224.800995 226.897003 L 231.897995 226.897003 L 231.897995 237.449005 L 230.5 237.449005 L 229.936005 235.231003 C 228.574005 237.067993 226.794998 237.990997 224.598999 238 Z"/>
    <path id="path29" fill="#ffffff" stroke="none" d="M 233.901001 237.488998 L 240.003998 217.729996 L 242.503998 217.729996 L 248.337006 237.488998 L 245.878006 237.488998 L 244.304993 231.735992 L 237.987 231.735992 L 236.401001 237.488998 L 233.901001 237.488998 Z M 241.199997 220.309998 L 238.673004 229.356995 L 243.686996 229.356995 L 241.199997 220.309998 Z"/>
    <path id="path30" fill="#ffffff" stroke="none" d="M 252.423996 237.488998 L 250.300003 237.488998 L 250.300003 217.729996 L 253.417999 217.729996 L 258.069 234.343994 L 262.707001 217.729996 L 265.825012 217.729996 L 265.825012 237.488998 L 263.769012 237.488998 L 263.769012 220.848007 L 259.131012 237.488998 L 257.061005 237.488998 L 252.423996 220.848007 L 252.423996 237.488998 Z"/>
    <path id="path31" fill="#ffffff" stroke="none" d="M 269.414001 237.488998 L 269.414001 217.729996 L 281.243011 217.729996 L 281.243011 220.082001 L 271.59201 220.082001 L 271.59201 226.130997 L 280.516998 226.130997 L 280.516998 228.509995 L 271.59201 228.509995 L 271.59201 235.136993 L 281.364014 235.136993 L 281.364014 237.488998 L 269.414001 237.488998 Z"/>
    <path id="path32" fill="#ffffff" stroke="none" d="M 300.222992 223.455994 C 300.187012 222.201004 299.833008 221.233002 299.161011 220.552002 C 298.489014 219.862 297.552002 219.516998 296.35199 219.516998 C 295.096985 219.516998 294.156006 219.804001 293.528992 220.378006 C 292.911011 220.951004 292.601013 221.811005 292.601013 222.957993 C 292.601013 223.809998 292.878998 224.445999 293.434998 224.867004 C 293.980988 225.279007 295.07901 225.682999 296.727997 226.076996 C 299.031006 226.632004 300.617004 227.330994 301.485992 228.173996 C 302.355988 229.016006 302.790009 230.279999 302.790009 231.964005 C 302.790009 233.819 302.208008 235.289001 301.042999 236.373001 C 299.886993 237.457993 298.322998 238 296.35199 238 C 294.325989 238 292.753998 237.408005 291.634003 236.225006 C 290.522003 235.033997 289.949005 233.348999 289.912994 231.171005 L 291.970001 231.171005 C 291.988007 232.613998 292.377014 233.729996 293.139008 234.518005 C 293.901001 235.307007 294.971985 235.701004 296.35199 235.701004 C 297.776001 235.701004 298.842987 235.419006 299.550995 234.854004 C 300.259003 234.289993 300.613007 233.438995 300.613007 232.300003 C 300.613007 231.270004 300.334991 230.516998 299.778992 230.042007 C 299.233002 229.567001 298.13501 229.132996 296.485992 228.738007 C 294.183014 228.182999 292.596985 227.505997 291.727997 226.709 C 290.858002 225.910995 290.424011 224.723999 290.424011 223.147003 C 290.424011 221.326996 290.957001 219.884995 292.02301 218.817993 C 293.089996 217.751999 294.532013 217.218994 296.35199 217.218994 C 298.188995 217.218994 299.618011 217.761002 300.640015 218.845001 C 301.670013 219.929993 302.21701 221.466003 302.278992 223.455994 L 300.222992 223.455994 Z"/>
    <path id="path33" fill="#ffffff" stroke="none" d="M 310.290985 229.518005 L 304.174988 217.729996 L 306.729004 217.729996 L 311.393005 227.098007 L 315.97699 217.729996 L 318.584015 217.729996 L 312.467987 229.464005 L 312.467987 237.488998 L 310.290985 237.488998 L 310.290985 229.518005 Z"/>
    <path id="path34" fill="#ffffff" stroke="none" d="M 330.333008 223.455994 C 330.296997 222.201004 329.942993 221.233002 329.270996 220.552002 C 328.598999 219.862 327.661987 219.516998 326.460999 219.516998 C 325.207001 219.516998 324.265991 219.804001 323.638 220.378006 C 323.019989 220.951004 322.710999 221.811005 322.710999 222.957993 C 322.710999 223.809998 322.989014 224.445999 323.544006 224.867004 C 324.091003 225.279007 325.188995 225.682999 326.838013 226.076996 C 329.140991 226.632004 330.72699 227.330994 331.596008 228.173996 C 332.464996 229.016006 332.899994 230.279999 332.899994 231.964005 C 332.899994 233.819 332.316986 235.289001 331.152008 236.373001 C 329.996002 237.457993 328.433014 238 326.460999 238 C 324.436005 238 322.863007 237.408005 321.743011 236.225006 C 320.631989 235.033997 320.058014 233.348999 320.02301 231.171005 L 322.07901 231.171005 C 322.096985 232.613998 322.487 233.729996 323.248993 234.518005 C 324.01001 235.307007 325.080994 235.701004 326.460999 235.701004 C 327.885986 235.701004 328.951996 235.419006 329.660004 234.854004 C 330.368011 234.289993 330.721985 233.438995 330.721985 232.300003 C 330.721985 231.270004 330.445007 230.516998 329.889008 230.042007 C 329.34201 229.567001 328.244995 229.132996 326.596008 228.738007 C 324.292999 228.182999 322.707001 227.505997 321.837006 226.709 C 320.967987 225.910995 320.53299 224.723999 320.53299 223.147003 C 320.53299 221.326996 321.066986 219.884995 322.132996 218.817993 C 323.199005 217.751999 324.641998 217.218994 326.460999 217.218994 C 328.298004 217.218994 329.727997 217.761002 330.748993 218.845001 C 331.779999 219.929993 332.325989 221.466003 332.389008 223.455994 L 330.333008 223.455994 Z"/>
    <path id="path35" fill="#ffffff" stroke="none" d="M 339.782013 237.488998 L 339.782013 220.082001 L 334.283997 220.082001 L 334.283997 217.729996 L 347.457001 217.729996 L 347.457001 220.082001 L 341.959991 220.082001 L 341.959991 237.488998 L 339.782013 237.488998 Z"/>
    <path id="path36" fill="#ffffff" stroke="none" d="M 349.716003 237.488998 L 349.716003 217.729996 L 361.544006 217.729996 L 361.544006 220.082001 L 351.893005 220.082001 L 351.893005 226.130997 L 360.819 226.130997 L 360.819 228.509995 L 351.893005 228.509995 L 351.893005 235.136993 L 361.665009 235.136993 L 361.665009 237.488998 L 349.716003 237.488998 Z"/>
    <path id="path37" fill="#ffffff" stroke="none" d="M 366.598999 237.488998 L 364.475006 237.488998 L 364.475006 217.729996 L 367.592987 217.729996 L 372.243988 234.343994 L 376.881989 217.729996 L 380 217.729996 L 380 237.488998 L 377.942993 237.488998 L 377.942993 220.848007 L 373.306 237.488998 L 371.235992 237.488998 L 366.598999 220.848007 L 366.598999 237.488998 Z"/>
    <g id="SEGA-ST-V--01">
        <g id="Agrupar">
            <g id="g1">
                <g id="g2">
                    <path id="path38" fill="#ffffff" stroke="none" d="M 150.511185 202.731339 L 150.511185 188.309967 L 137.034851 188.309967 C 129.875946 194.976944 117.383469 202.731339 98.003944 202.731339 L 1.468797 202.731339 L 1.468797 137.446808 L 9.663345 137.446808 C 1.637089 122.222809 1.934838 103.076309 10.55659 88.150055 C 15.06165 80.343887 21.650949 73.948761 29.586586 69.663788 C 37.431606 65.430573 46.286377 63.281616 55.917885 63.281616 L 127.636368 63.281616 L 232.754425 63.281616 C 239.732101 63.281616 246.437897 65.857788 251.642014 70.531143 C 256.522491 74.919678 259.707092 80.796967 260.703918 87.217987 L 272.018341 87.217987 L 272.018341 84.447632 C 272.018341 72.783661 281.507446 63.294556 293.184357 63.294556 L 345.005524 63.294556 L 372.799652 99.516266 L 400.593781 63.268677 L 494.591614 63.268677 L 387.648224 202.640717 L 332.25412 202.640717 L 332.25412 195.417099 C 332.25412 191.494583 329.05658 188.297028 325.134033 188.297028 L 222.915787 188.297028 C 218.993271 188.297028 215.795731 191.494583 215.795731 195.417099 L 215.795731 202.718399 L 150.511185 202.731339 L 150.511185 202.731339 Z"/>
                    <g id="g3">
                        <path id="path39" fill="#000000" stroke="none" d="M 399.972412 62 L 372.812592 97.406143 L 345.639832 62 L 293.197327 62 C 290.16803 62 287.229401 62.595505 284.459045 63.76062 C 281.792267 64.886871 279.384399 66.505066 277.326019 68.563416 C 275.2677 70.62175 273.649506 73.016678 272.523224 75.696411 C 271.358154 78.466766 270.762634 81.405411 270.762634 84.434677 L 270.762634 85.936371 L 261.791351 85.936371 C 260.574493 79.657761 257.338074 73.909927 252.522308 69.573166 C 247.072235 64.692688 240.06868 62 232.767365 62 L 127.649307 62 L 55.930828 62 C 46.092194 62 37.030289 64.200745 28.991087 68.524567 C 20.835375 72.926056 14.077786 79.489471 9.456217 87.502792 C 0.976865 102.208954 0.355478 120.889412 7.604999 136.165192 L 2.750409 136.165192 L 0.200131 136.165192 L 0.200131 138.715485 L 0.200131 201.449738 L 0.200131 204 L 2.750409 204 L 98.016884 204 C 106.988174 204 115.299225 202.368866 122.742935 199.145416 C 128.218918 196.776382 133.190018 193.552917 137.539734 189.578644 L 149.242523 189.578644 L 149.242523 201.449738 L 149.242523 204 L 151.792801 204 L 214.527069 204 L 217.077347 204 L 217.077347 201.449738 L 217.077347 195.417099 C 217.077347 192.193634 219.692337 189.578644 222.915802 189.578644 L 325.134033 189.578644 C 328.357483 189.578644 330.972504 192.193634 330.972504 195.417099 L 330.972504 201.372055 L 330.972504 203.922333 L 333.522797 203.922333 L 387.013885 203.922333 L 388.269592 203.922333 L 389.033417 202.925522 L 497.180725 62 L 399.972412 62 Z M 387.026855 201.372055 L 333.535706 201.372055 L 333.535706 195.417099 C 333.535706 190.782562 329.781494 187.028351 325.147003 187.028351 L 222.928741 187.028351 C 218.294205 187.028351 214.540009 190.782562 214.540009 195.417099 L 214.540009 201.449738 L 151.792801 201.449738 L 151.792801 187.028351 L 136.542923 187.028351 C 129.358124 193.863617 117.072777 201.449738 98.016884 201.449738 L 2.750409 201.449738 L 2.750409 138.715485 L 11.838202 138.715485 C 11.78642 138.624847 11.721693 138.521301 11.669909 138.417725 C 2.970484 123.336128 2.970484 103.853043 11.669909 88.771439 C 16.058458 81.172394 22.466518 74.945572 30.207972 70.7771 C 37.858807 66.647476 46.519394 64.550293 55.930828 64.550293 L 127.649307 64.550293 L 232.767365 64.550293 C 246.619141 64.550293 258.075989 75.036194 259.603546 88.486649 L 273.312897 88.486649 L 273.312897 84.434677 C 273.312897 73.456833 282.219482 64.550293 293.197327 64.550293 L 344.384094 64.550293 L 372.799652 101.58757 L 401.215179 64.550293 L 492.015442 64.550293 L 387.026855 201.372055 Z"/>
                    </g>
                </g>
                <path id="path40" fill="#000000" stroke="none" d="M 406.45816 75.15271 L 372.812592 119.012306 L 339.167023 75.15271 L 293.210236 75.15271 C 288.083801 75.15271 283.928284 79.308228 283.928284 84.434677 L 283.928284 99.089081 L 249.182373 99.089081 L 249.182373 91.554733 C 249.182373 82.492828 241.842209 75.15271 232.780319 75.15271 L 127.662254 75.15271 L 55.943775 75.15271 C 40.590321 75.15271 27.813042 82.052704 20.861269 94.079117 C 14.013059 105.937286 14.013059 121.264839 20.861269 133.122986 C 25.236872 140.709106 31.955624 146.262741 40.16312 149.317902 L 13.36578 149.317902 L 13.36578 190.847305 L 98.029831 190.847305 C 114.483658 190.847305 124.594162 184.102661 130.160751 178.44545 C 130.808029 177.785217 131.429413 177.112045 132.011963 176.425934 L 162.408173 176.425934 L 162.408173 190.847305 L 203.937592 190.847305 L 203.937592 184.814667 C 203.937592 180.180145 207.691803 176.425934 212.326309 176.425934 L 335.76236 176.425934 C 340.396851 176.425934 344.151062 180.180145 344.151062 184.814667 L 344.151062 190.769623 L 381.809784 190.769623 L 470.512817 75.15271 L 406.45816 75.15271 Z M 332.046997 144.98114 L 332.046997 144.812836 L 332.163483 144.98114 L 332.046997 144.98114 Z"/>
                <path id="path41" fill="#ffffff" stroke="none" d="M 227.485565 126.883217 L 317.729187 126.883217 L 317.729187 147.207764 L 227.485565 147.207764 Z"/>
                <path id="path42" fill="#ffffff" stroke="none" d="M 232.767365 85.755127 L 127.649307 85.755127 L 127.649307 91.554733 C 127.649307 88.357193 125.060196 85.755127 121.849693 85.755127 L 55.930828 85.755127 C 16.40799 85.755127 16.40799 141.446991 55.930828 141.446991 L 55.930828 141.446991 L 98.003944 141.446991 C 110.315186 141.446991 110.315186 159.920319 98.003944 159.920319 L 23.955259 159.920319 L 23.955259 180.244873 L 98.003944 180.244873 C 141.708206 180.244873 141.708206 121.122437 98.003944 121.122437 L 55.930828 121.122437 L 55.930828 121.122437 C 45.35429 121.653206 44.253918 104.953415 55.930828 104.422653 L 55.930828 104.422653 L 127.649307 104.422653 L 172.99765 104.422653 L 172.99765 180.244873 L 193.32222 180.244873 L 193.32222 104.422653 L 238.579941 104.422653 L 238.579941 91.554733 C 238.567001 88.357193 235.97789 85.755127 232.767365 85.755127 Z"/>
                <path id="path43" fill="#ffffff" stroke="none" d="M 416.944061 85.755127 L 372.799652 143.285248 L 328.655243 85.755127 L 296.58905 85.755127 L 369.032501 180.167206 L 376.566833 180.167206 L 449.010254 85.755127 Z"/>
            </g>
        </g>
    </g>
</svg>
