<svg width="503" height="105" viewBox="0 0 503 105" fill="none" xmlns="http://www.w3.org/2000/svg">
<g clip-path="url(#clip0_3409_4378)">
<path fill-rule="evenodd" clip-rule="evenodd" d="M127.825 96.8926C128.335 96.8996 128.897 97.0185 129.258 97.4092C129.622 97.8202 129.651 98.4176 129.551 98.9326C129.495 99.2726 129.195 99.4739 128.978 99.7119C129.167 99.8789 129.408 100.036 129.453 100.308C129.557 100.828 129.447 101.376 129.614 101.886C129.719 102.066 129.826 102.248 129.834 102.464C129.46 102.474 129.087 102.467 128.713 102.473C128.461 101.88 128.649 101.213 128.492 100.602C128.43 100.353 128.172 100.198 127.926 100.206C127.316 100.18 126.704 100.197 126.096 100.196C126.087 100.954 126.118 101.716 126.078 102.473C125.76 102.468 125.441 102.468 125.123 102.474C125.107 100.612 125.118 98.7545 125.118 96.8955C126.019 96.8905 126.923 96.8946 127.825 96.8926ZM126.096 97.7793C126.097 98.2922 126.097 98.8054 126.096 99.3203C126.641 99.3233 127.188 99.3273 127.735 99.3223C128.005 99.3202 128.32 99.2697 128.496 99.04C128.681 98.747 128.677 98.3566 128.51 98.0586C128.37 97.8237 128.073 97.8002 127.829 97.7852C127.251 97.7682 126.673 97.7783 126.096 97.7793Z" fill="white"/>
<path fill-rule="evenodd" clip-rule="evenodd" d="M126.693 94.7959C128.421 94.5801 130.227 95.3549 131.263 96.7568C132.394 98.2028 132.601 100.288 131.802 101.94C130.996 103.654 129.152 104.856 127.243 104.793C125.486 104.832 123.784 103.809 122.919 102.294C122.137 100.959 122.044 99.2491 122.649 97.8291C123.329 96.1902 124.932 94.9939 126.693 94.7959ZM129.214 96.0908C128.334 95.6228 127.284 95.4877 126.316 95.7188C125.348 95.9388 124.469 96.5261 123.891 97.333C123.196 98.282 122.933 99.5377 123.197 100.687C123.419 101.754 124.094 102.707 125.005 103.298C126.408 104.22 128.375 104.168 129.717 103.155C131.102 102.177 131.76 100.299 131.284 98.6719C130.99 97.5719 130.204 96.6358 129.214 96.0908Z" fill="white"/>
<path d="M50.3722 0C56.2301 1.09198 61.988 2.65235 67.7179 4.27832C70.9959 5.23032 74.2658 6.21467 77.5138 7.26367C82.6157 8.88865 87.6956 10.7287 92.3165 13.4727C94.3865 14.7296 96.3744 16.1499 98.0734 17.8818C99.9143 19.6808 101.421 21.8148 102.527 24.1367C104.542 28.3447 105.233 33.046 105.437 37.668C105.533 40.684 105.526 43.7261 104.963 46.7031C104.495 49.29 103.663 51.841 102.279 54.0879C101.057 56.0729 99.358 57.7885 97.296 58.8945C95.3181 59.9605 93.0535 60.4688 90.8107 60.4238C87.4087 60.4598 84.1068 59.3751 81.0538 57.9541C80.9988 47.8011 81.0464 37.6461 81.0304 27.4941C81.0084 25.6573 81.1337 23.8011 80.7638 21.9893C80.5038 20.5853 79.9303 19.1698 78.8283 18.2168C78.0973 17.5579 77.1503 17.1863 76.1984 16.9854C75.2354 16.8024 74.2084 17.2114 73.6124 17.9844C72.6215 19.2224 72.3615 20.8663 72.3165 22.4072C72.3085 49.5882 72.3267 76.7703 72.3087 103.949C64.9967 101.632 57.6832 99.3133 50.3732 96.9893C50.3652 64.6593 50.3682 32.33 50.3722 0Z" fill="white"/>
<path d="M100.72 64.1328C107.871 64.1598 115.058 65.0495 121.898 67.1943C123.24 67.6023 124.54 68.1306 125.877 68.5566C128.26 69.4276 130.646 70.4843 132.554 72.1973C133.701 73.2432 134.689 74.6518 134.703 76.2607C134.771 77.5697 134.178 78.826 133.329 79.792C131.713 81.604 129.577 82.8486 127.432 83.9346C125.149 85.0985 122.695 85.8494 120.301 86.7354C105.689 91.9823 91.0759 97.2275 76.466 102.48C76.464 98.3877 76.47 94.2959 76.464 90.2051C76.486 90.0421 76.3961 89.7569 76.6271 89.7139C87.7449 85.7579 98.8599 81.7911 109.976 77.8252C111.479 77.2632 113.098 76.8559 114.374 75.8359C114.896 75.426 115.406 74.7742 115.151 74.0713C114.884 73.4563 114.246 73.1143 113.659 72.8604C111.995 72.2014 110.183 72.0734 108.413 72.0244C105.642 72.0434 102.846 72.3855 100.211 73.2734C92.2921 76.0484 84.387 78.858 76.466 81.624C76.467 77.229 76.4639 72.8364 76.4679 68.4424C82.1989 66.4314 88.1831 65.2125 94.2091 64.5195C96.371 64.2696 98.547 64.2108 100.72 64.1328Z" fill="white"/>
<path d="M46.0997 58.6367C46.1147 62.3797 46.0996 66.1241 46.1056 69.8701C46.0996 70.3779 46.1324 70.8878 46.0685 71.3926C38.5306 74.0645 31.0076 76.7837 23.4767 79.4727C22.4329 79.8666 21.3617 80.3136 20.5568 81.1104C20.1819 81.4842 19.8765 82.0364 20.0812 82.5723C20.3392 83.2032 20.9833 83.5466 21.5773 83.8066C23.2292 84.4786 25.0351 84.5733 26.795 84.6543C28.757 84.6233 30.7275 84.4767 32.6495 84.0527C33.9485 83.7977 35.1987 83.3595 36.4366 82.8945C39.6545 81.7296 42.8729 80.5573 46.0958 79.4043C46.1198 82.5703 46.0996 85.7392 46.1056 88.9082C46.0956 89.541 46.1344 90.1778 46.0714 90.8086C42.1134 91.5196 38.1081 92.0024 34.0851 92.0654C25.9842 92.2484 17.864 90.9949 10.1691 88.4629C7.64514 87.7319 5.13734 86.7582 3.0304 85.1553C1.87047 84.2573 0.832788 83.1282 0.304815 81.7393C-0.137088 80.5633 -0.105521 79.2043 0.44544 78.0693C0.976421 76.9376 1.90412 76.0426 2.92591 75.3477C5.29089 73.7147 7.89915 72.4694 10.5421 71.3584C12.819 70.3865 15.1811 69.6311 17.506 68.7832C27.039 65.4082 36.5627 62.0007 46.0997 58.6367Z" fill="white"/>
<path d="M260.767 24.0625C270.723 25.3275 275.58 32.263 275.58 41.127C275.58 51.0176 269.646 58.5672 257.404 58.5674H203.103C198.071 58.5676 194.617 62.7965 194.617 68.9111V88.0146C194.617 88.2615 194.465 88.4506 194.287 88.5137H181.104C180.903 88.4496 180.797 88.2615 180.798 88.0146V68.9111C180.798 59.0973 187.408 51.6211 196.194 51.6211H252.822C258.906 51.6209 261.76 47.2426 261.76 41.127C261.76 35.0121 258.906 30.633 252.822 30.6328H181.248C180.948 30.6328 180.798 30.4806 180.798 30.1787V24.2148C180.798 24.1519 180.836 24.1124 180.859 24.0625H260.767Z" fill="white"/>
<path d="M382.265 24.0625C382.285 24.1115 382.3 24.1628 382.3 24.2148V30.1787C382.3 30.4046 382.079 30.6328 381.849 30.6328H344.302C338.215 30.6329 335.361 35.012 335.361 41.127V71.1016C335.361 80.7135 329.584 88.2047 317.85 88.5127H272.831C272.653 88.4497 272.501 88.2606 272.501 88.0137V82.0488C272.501 81.7468 272.727 81.5957 272.952 81.5957H312.604C318.61 81.5957 321.544 77.2155 321.544 71.1006V41.127C321.544 32.263 326.406 25.3275 336.357 24.0625H382.265Z" fill="white"/>
<path fill-rule="evenodd" clip-rule="evenodd" d="M464.905 24.0625C467.126 24.8136 468.447 27.078 468.447 30.6328V74.1973C468.447 74.4231 468.677 74.6501 468.898 74.6504H481.814C482.115 74.6504 482.265 74.8765 482.265 75.1035V81.1445C482.265 81.3695 482.115 81.5967 481.814 81.5967H468.898C468.677 81.597 468.447 81.8229 468.447 82.0498V88.0146C468.447 88.3165 468.228 88.4677 467.998 88.4678H455.002C454.781 88.4678 454.551 88.3165 454.551 88.0146V81.8984C454.551 81.7475 454.401 81.5967 454.18 81.5967H382.08C378.696 81.5967 376.972 80.6147 376.372 79.2549C375.62 77.6689 376.673 75.5559 379.677 73.6689L457.333 25.7236C458.699 24.9027 459.973 24.3635 461.145 24.0625H464.905ZM454.631 36.9746C454.631 36.1448 453.879 36.0684 453.5 36.3701L393.343 73.5938C392.962 73.8197 392.812 74.0467 392.893 74.3486C392.963 74.5006 393.194 74.6504 393.715 74.6504H454.18C454.401 74.6504 454.631 74.4243 454.631 74.1973V36.9746Z" fill="white"/>
<path d="M494.731 82.0498H492.408V88.4678H491.427V82.0498H489.104V81.2188H494.731V82.0498Z" fill="white"/>
<path d="M499.085 87.4102L501.119 81.2188H502.3V88.4678H501.49V82.5781L499.537 88.4678H498.566L496.613 82.5781V88.4678H495.632V81.2188H496.984L499.085 87.4102Z" fill="white"/>
</g>
<defs>
<clipPath id="clip0_3409_4378">
<rect width="503" height="105" fill="white"/>
</clipPath>
</defs>
</svg>
