<svg width="120" height="80" viewBox="0 0 120 80" fill="none" xmlns="http://www.w3.org/2000/svg">
<path d="M39.5418 36.8845L35.9278 37.2806C33.1882 37.5808 30.4264 36.9641 28.0747 35.527L25.9028 34.1997" stroke="white" stroke-width="0.859146"/>
<path d="M80.4587 36.8845L84.0727 37.2806C86.8123 37.5808 89.5741 36.9641 91.9258 35.527L94.0977 34.1997" stroke="white" stroke-width="0.859146"/>
<path d="M46.9091 27.1115H45.2273C44.4389 27.1115 43.7258 27.5797 43.4123 28.3031L39.4282 37.4972C38.2665 40.178 35.5739 41.8665 32.6548 41.7449C28.7709 41.5831 25.7481 38.3127 25.892 34.428L25.9546 32.7383C26.0688 29.654 26.4864 26.5884 27.2013 23.5859L29.9243 12.149C30.6845 8.95611 31.9308 5.89892 33.6195 3.08448C33.8928 2.62885 34.2934 2.263 34.7718 2.0319L35.3975 1.72969C35.7647 1.55232 36.1571 1.4328 36.5608 1.37534L38.0731 1.16013C38.82 1.05384 39.5777 1.04639 40.3265 1.13799L41.7671 1.31418C42.2158 1.36906 42.6518 1.50042 43.0561 1.70257L44.4232 2.38612H61.731H63.709H75.5772L76.9443 1.70257C77.3486 1.50042 77.7845 1.36906 78.2332 1.31418L79.6738 1.13799C80.4227 1.04639 81.1803 1.05384 81.9273 1.16013L83.4396 1.37534C83.8433 1.4328 84.2357 1.55232 84.6029 1.72969L85.2285 2.0319C85.707 2.263 86.1075 2.62885 86.3809 3.08448C88.0695 5.89892 89.3158 8.9561 90.076 12.149L92.7991 23.5859C93.514 26.5884 93.9315 29.6539 94.0458 32.7383L94.1084 34.428C94.2522 38.3127 91.2295 41.5831 87.3455 41.7449C84.4264 41.8665 81.7338 40.178 80.5721 37.4972L76.588 28.3031C76.2746 27.5797 75.5615 27.1115 74.7731 27.1115H73.1802" stroke="white" stroke-width="1.95026"/>
<path d="M68.0256 27.1113H63.7093H60.2478H52.0884" stroke="white" stroke-width="1.95026"/>
<circle cx="49.4758" cy="22.0641" r="5.68325" stroke="white" stroke-width="1.95026"/>
<circle cx="70.5251" cy="22.0641" r="5.68325" stroke="white" stroke-width="1.95026"/>
<circle cx="49.4755" cy="22.0641" r="3.9467" fill="white"/>
<circle cx="70.5248" cy="22.0641" r="3.9467" fill="white"/>
<path d="M70.8472 2.84082V13.4727C70.8472 13.9471 70.4623 14.332 69.9878 14.332H50.0132C49.5387 14.332 49.1538 13.9471 49.1538 13.4727V2.84082H70.8472Z" stroke="white" stroke-width="0.859146"/>
<circle cx="60.0572" cy="22.3059" r="1.74514" fill="white"/>
<circle cx="81.2644" cy="12.8284" r="7.73232" stroke="white" stroke-width="0.859146"/>
<circle cx="81.2641" cy="8.10294" r="2.14787" fill="white"/>
<circle cx="81.2641" cy="17.5536" r="2.14787" fill="white"/>
<circle cx="76.539" cy="12.8282" r="2.14787" transform="rotate(-90 76.539 12.8282)" fill="white"/>
<circle cx="85.9892" cy="12.8282" r="2.14787" transform="rotate(-90 85.9892 12.8282)" fill="white"/>
<circle cx="38.7366" cy="12.8284" r="7.73232" stroke="white" stroke-width="0.859146"/>
<path d="M40.1476 10.6962C40.2723 10.5649 40.3524 10.3975 40.3763 10.218L40.6069 8.48877C40.6928 7.84496 40.1919 7.27288 39.5424 7.27288L37.9308 7.27288C37.2813 7.27288 36.7804 7.84496 36.8663 8.48877L37.0969 10.218C37.1208 10.3975 37.2009 10.5649 37.3256 10.6962L38.2473 11.6663C38.5134 11.9464 38.9598 11.9464 39.2259 11.6663L40.1476 10.6962Z" fill="white"/>
<path d="M40.1476 14.9603C40.2723 15.0916 40.3524 15.259 40.3763 15.4385L40.6069 17.1677C40.6928 17.8115 40.1919 18.3836 39.5424 18.3836L37.9308 18.3836C37.2813 18.3836 36.7804 17.8115 36.8663 17.1677L37.0969 15.4385C37.1208 15.259 37.2009 15.0916 37.3256 14.9603L38.2473 13.9901C38.5134 13.7101 38.9598 13.7101 39.2259 13.9901L40.1476 14.9603Z" fill="white"/>
<path d="M36.6046 11.4174C36.4733 11.2926 36.3059 11.2126 36.1264 11.1886L34.3972 10.958C33.7534 10.8722 33.1813 11.373 33.1813 12.0226L33.1813 13.6341C33.1813 14.2837 33.7534 14.7845 34.3972 14.6986L36.1264 14.468C36.3059 14.4441 36.4733 14.3641 36.6046 14.2393L37.5748 13.3176C37.8549 13.0516 37.8549 12.6051 37.5748 12.339L36.6046 11.4174Z" fill="white"/>
<path d="M40.8681 11.4174C40.9994 11.2926 41.1667 11.2126 41.3462 11.1886L43.0754 10.958C43.7192 10.8722 44.2913 11.373 44.2913 12.0226L44.2913 13.6341C44.2913 14.2837 43.7192 14.7845 43.0754 14.6986L41.3462 14.4681C41.1667 14.4441 40.9994 14.3641 40.8681 14.2393L39.8979 13.3176C39.6178 13.0516 39.6178 12.6051 39.8979 12.339L40.8681 11.4174Z" fill="white"/>
<rect x="45.207" y="4.12958" width="1.71829" height="3.49028" rx="0.859146" stroke="white" stroke-width="0.429573"/>
<rect x="73.0751" y="4.12958" width="1.71829" height="3.49028" rx="0.859146" stroke="white" stroke-width="0.429573"/>
<circle cx="57.584" cy="16.7683" r="0.342316" fill="white"/>
<circle cx="58.7925" cy="16.7683" r="0.342316" fill="white"/>
<circle cx="60" cy="16.7683" r="0.342316" fill="white"/>
<circle cx="61.2085" cy="16.7683" r="0.342316" fill="white"/>
<circle cx="62.417" cy="16.7683" r="0.342316" fill="white"/>
<circle cx="58.188" cy="17.6375" r="0.342316" fill="white"/>
<circle cx="59.396" cy="17.6375" r="0.342316" fill="white"/>
<circle cx="60.6045" cy="17.6375" r="0.342316" fill="white"/>
<circle cx="61.8125" cy="17.6375" r="0.342316" fill="white"/>
<circle cx="58.7925" cy="18.5069" r="0.342316" fill="white"/>
<circle cx="60" cy="18.5069" r="0.342316" fill="white"/>
<circle cx="61.2085" cy="18.5069" r="0.342316" fill="white"/>
</svg>
