<?xml version="1.0" encoding="UTF-8"?>
<!-- Generated by Pixelmator Pro 3.5.11 -->
<svg width="398" height="141" viewBox="0 0 398 141" xmlns="http://www.w3.org/2000/svg">
    <path id="mainlogo" fill="#1dabe6" stroke="none" d="M 305.05722 104.006424 L 305.056366 104.007538 C 305.068542 104.009956 305.098969 104.028397 305.098969 104.177612 L 305.095215 123.358711 L 305.099274 123.377464 L 305.105072 123.367172 L 324.103973 104.368507 C 324.325134 104.11219 324.516724 104.161438 324.516724 104.161438 L 324.535553 104.168694 C 324.572937 104.18573 324.653809 104.238358 324.653809 104.374367 L 324.64975 125.746643 L 345.983948 104.434639 C 346.169739 104.217804 346.338715 104.222816 346.387421 104.229797 L 346.401917 104.232956 C 346.401917 104.232956 346.533783 104.264389 346.533783 104.440735 L 346.533783 116.088028 L 346.538696 116.125214 L 346.570587 116.063881 L 358.283722 104.322067 C 358.529236 104.079826 358.606628 104.167297 358.606628 104.167297 L 358.614746 104.1772 C 358.631561 104.204529 358.669525 104.29615 358.669525 104.567368 L 358.669525 122.606766 L 376.791656 104.449417 L 377.457733 105.323425 L 376.792236 104.448944 L 397.582123 104.448944 C 397.766174 104.448944 397.766174 104.522339 397.766174 104.522339 L 397.774292 104.544388 C 397.791077 104.599533 397.822388 104.747704 397.716888 104.853699 L 391.252533 111.341354 L 380.383972 111.341354 L 377.411346 114.339775 L 377.394257 114.354065 L 382.681274 114.354324 C 382.742157 114.346764 382.769989 114.369804 382.780121 114.381805 L 382.78476 114.388786 C 382.78476 114.388786 382.881836 114.457741 382.790253 114.659416 L 375.903015 121.546204 L 370.115417 121.546204 L 366.961334 124.70639 L 385.193054 124.706917 C 385.295074 124.706711 385.333344 124.770157 385.34436 124.795547 L 385.348114 124.805176 L 385.355957 124.816101 C 385.374786 124.84697 385.413635 124.942703 385.29364 125.096664 L 378.528687 131.815552 L 351.667206 131.809204 L 351.667786 131.807846 L 349.793365 131.808044 C 349.733643 131.810501 349.694824 131.773529 349.679169 131.754883 L 349.668732 131.740921 C 349.662354 131.729904 349.652496 131.692474 349.730743 131.613617 L 351.430969 129.906174 L 351.430695 122.326782 L 341.552826 132.196136 C 341.429077 132.318741 341.329071 132.294342 341.31546 132.290222 L 341.288483 132.282639 C 341.246765 132.265915 341.170227 132.222687 341.162994 132.128372 L 341.14386 120.69931 L 329.814758 132.020493 L 329.295959 131.168732 L 329.813599 132.020264 L 317.730042 132.013458 C 317.652069 132.014648 317.540192 131.934906 317.540192 131.934906 L 318.462189 131.102936 L 317.540192 131.933975 L 317.524536 131.921951 C 317.481934 131.885834 317.368896 131.765289 317.368317 131.517014 L 317.346863 122.485611 L 298.794891 140.999237 L 287.645844 140.998657 C 287.643982 140.999802 287.508911 141.015167 287.588654 140.904449 L 297.890289 130.644867 L 298.241577 130.801208 L 297.890289 130.64418 L 297.871735 122.43055 L 288.049438 132.266983 C 287.993652 132.32811 287.881256 132.336426 287.816498 132.335678 L 287.767792 132.333557 C 287.767792 132.333557 287.572449 132.317383 287.578094 132.064117 L 287.559784 120.564796 L 276.329193 131.823059 L 276.328613 131.822327 L 265.320465 131.822708 C 265.285797 131.820969 265.211517 131.807404 265.272888 131.718216 L 292.820984 104.170349 C 292.851196 104.144554 292.885132 104.147682 292.907104 104.154114 L 292.937653 104.165833 C 292.955841 104.174057 293.001312 104.203926 293.001312 104.296982 L 293.001556 115.997742 L 304.930298 104.068336 C 305.007965 103.970551 305.05722 104.006424 305.05722 104.006424 Z"/>
    <path id="ARCADE" fill="#ffffff" fill-rule="evenodd" stroke="none" d="M 315 42 L 363 42 L 363 50 L 331 50 L 331 66 L 347 66 L 347 74 L 331 74 L 331 90 L 363 90 L 363 98 L 315 98 Z M 259 42 L 291 42 L 291 50 L 299 50 L 299 58 L 307 58 L 307 82 L 299 82 L 299 90 L 291 90 L 291 98 L 259 98 Z M 275 50 L 275 90 L 283 90 L 283 82 L 291 82 L 291 58 L 283 58 L 283 50 Z M 219 42 L 235 42 L 235 50 L 243 50 L 243 58 L 251 58 L 251 98 L 235 98 L 235 74 L 219 74 L 219 98 L 203 98 L 203 58 L 211 58 L 211 50 L 219 50 Z M 219 58 L 219 66 L 235 66 L 235 58 Z M 155 42 L 187 42 L 187 50 L 195 50 L 195 58 L 179 58 L 179 50 L 163 50 L 163 90 L 179 90 L 179 82 L 195 82 L 195 90 L 187 90 L 187 98 L 155 98 L 155 90 L 147 90 L 147 50 L 155 50 Z M 91 42 L 131 42 L 131 50 L 139 50 L 139 66 L 131 66 L 131 74 L 123 74 L 123 82 L 131 82 L 131 90 L 139 90 L 139 98 L 123 98 L 123 90 L 115 90 L 115 82 L 107 82 L 107 98 L 91 98 Z M 107 50 L 107 66 L 123 66 L 123 50 Z M 51 42 L 67 42 L 67 50 L 75 50 L 75 58 L 83 58 L 83 98 L 67 98 L 67 74 L 51 74 L 51 98 L 35 98 L 35 58 L 43 58 L 43 50 L 51 50 Z M 51 58 L 51 66 L 67 66 L 67 58 Z"/>
</svg>
