<?xml version="1.0" encoding="UTF-8"?>
<!-- Generated by Pixelmator Pro 3.5.11 -->
<svg width="398" height="141" viewBox="0 0 398 141" xmlns="http://www.w3.org/2000/svg">
    <path id="syslogo" fill="#ffffff" stroke="none" d="M 308.738098 105.006195 L 308.737244 105.007263 C 308.748993 105.009598 308.778351 105.02739 308.778351 105.17128 L 308.774719 123.668419 L 308.778625 123.686508 L 308.78421 123.676582 L 327.105682 105.355362 C 327.318939 105.108185 327.503693 105.155685 327.503693 105.155685 L 327.521881 105.162674 C 327.557922 105.179108 327.635895 105.229858 327.635895 105.361023 L 327.631989 125.971199 L 348.205444 105.419144 C 348.384613 105.210037 348.547577 105.214874 348.594513 105.221603 L 348.608521 105.224655 C 348.608521 105.224655 348.735687 105.254959 348.735687 105.425018 L 348.735687 116.656998 L 348.740417 116.692856 L 348.771179 116.633713 L 360.06665 105.310593 C 360.303406 105.076981 360.378021 105.161331 360.378021 105.161331 L 360.378296 105.160881 L 360.385834 105.170883 C 360.402069 105.197235 360.43866 105.285583 360.43866 105.547134 L 360.43866 122.943291 L 377.914642 105.433388 L 378.556946 106.27623 L 377.915192 105.432938 L 397.963745 105.432938 C 398.141235 105.432938 398.141235 105.503723 398.141235 105.503723 L 398.141785 105.503944 L 398.149048 105.524979 C 398.165253 105.578156 398.195435 105.721039 398.093719 105.823257 L 391.859833 112.079575 L 381.378845 112.079575 L 378.512207 114.971085 L 378.495728 114.984863 L 383.594238 114.985115 C 383.652924 114.977821 383.679779 115.000046 383.689545 115.011612 L 383.694031 115.018349 C 383.694031 115.018349 383.787659 115.084839 383.69931 115.279327 L 377.057648 121.920547 L 371.47644 121.920547 L 368.434845 124.968048 L 386.016449 124.968552 C 386.114838 124.968353 386.151733 125.029541 386.162354 125.054024 L 386.165985 125.063301 L 386.173523 125.073845 C 386.191711 125.103607 386.229156 125.19593 386.113434 125.344406 L 379.589722 131.8237 L 379.589996 131.824158 L 353.686035 131.817581 L 353.686615 131.816269 L 351.879028 131.816467 C 351.821442 131.818848 351.783997 131.783173 351.76889 131.765213 L 351.75885 131.75174 C 351.752686 131.741119 351.743195 131.705032 351.818665 131.628967 L 353.458252 129.982422 L 353.457977 122.673286 L 343.932343 132.190735 C 343.812988 132.30896 343.716553 132.285431 343.70343 132.281464 L 343.70285 132.282776 L 343.677429 132.274139 C 343.637177 132.258011 343.563385 132.216339 343.556396 132.125381 L 343.537933 121.103851 L 332.612823 132.021347 L 332.112518 131.199951 L 332.611694 132.021118 L 320.959015 132.014557 C 320.88382 132.015701 320.77594 131.938812 320.77594 131.938812 L 321.66507 131.136505 L 321.66394 131.136505 L 320.77594 131.937912 L 320.760834 131.926315 C 320.719757 131.891479 320.610748 131.775238 320.610199 131.535812 L 320.589508 122.826462 L 302.699036 140.679916 L 291.94754 140.679352 C 291.94577 140.680481 291.815521 140.695282 291.892395 140.588516 L 301.826691 130.694778 L 302.165466 130.845535 L 301.826691 130.694107 L 301.808807 122.773354 L 301.808533 122.772514 L 301.808533 122.774918 L 292.336761 132.259033 C 292.282959 132.317993 292.174561 132.326004 292.112122 132.325287 L 292.065155 132.323242 C 292.065155 132.323242 291.87677 132.307648 291.882233 132.063416 L 291.864563 120.974136 L 281.034454 131.830948 L 281.033875 131.830246 L 270.418243 131.830612 C 270.384827 131.828934 270.313202 131.815857 270.372345 131.729843 L 296.938171 105.164276 C 296.967285 105.139404 297.000031 105.142418 297.02121 105.148613 L 297.050659 105.159927 C 297.068207 105.167854 297.112061 105.196655 297.112061 105.286392 L 297.112305 116.569923 L 308.615662 105.065903 C 308.690582 104.971603 308.738098 105.006195 308.738098 105.006195 Z"/>
    <path id="ARCADE" fill="#ffffff" fill-rule="evenodd" stroke="none" d="M 311 42 L 359 42 L 359 50 L 327 50 L 327 66 L 343 66 L 343 74 L 327 74 L 327 90 L 359 90 L 359 98 L 311 98 Z M 255 42 L 287 42 L 287 50 L 295 50 L 295 58 L 303 58 L 303 82 L 295 82 L 295 90 L 287 90 L 287 98 L 255 98 Z M 271 50 L 271 90 L 279 90 L 279 82 L 287 82 L 287 58 L 279 58 L 279 50 Z M 215 42 L 231 42 L 231 50 L 239 50 L 239 58 L 247 58 L 247 98 L 231 98 L 231 74 L 215 74 L 215 98 L 199 98 L 199 58 L 207 58 L 207 50 L 215 50 Z M 215 58 L 215 66 L 231 66 L 231 58 Z M 151 42 L 183 42 L 183 50 L 191 50 L 191 58 L 175 58 L 175 50 L 159 50 L 159 90 L 175 90 L 175 82 L 191 82 L 191 90 L 183 90 L 183 98 L 151 98 L 151 90 L 143 90 L 143 50 L 151 50 Z M 87 42 L 127 42 L 127 50 L 135 50 L 135 66 L 127 66 L 127 74 L 119 74 L 119 82 L 127 82 L 127 90 L 135 90 L 135 98 L 119 98 L 119 90 L 111 90 L 111 82 L 103 82 L 103 98 L 87 98 Z M 103 50 L 103 66 L 119 66 L 119 50 Z M 47 42 L 63 42 L 63 50 L 71 50 L 71 58 L 79 58 L 79 98 L 63 98 L 63 74 L 47 74 L 47 98 L 31 98 L 31 58 L 39 58 L 39 50 L 47 50 Z M 47 58 L 47 66 L 63 66 L 63 58 Z"/>
</svg>
