<?xml version="1.0" encoding="UTF-8"?>
<!-- Generated by Pixelmator Pro 3.7.1 -->
<svg width="600" height="107" viewBox="0 0 600 107" xmlns="http://www.w3.org/2000/svg">
    <g id="Agrupar">
        <radialGradient id="radialGradient1" cx="43.456438" cy="42.96498" r="28.100414" fx="43.456438" fy="42.96498" gradientUnits="userSpaceOnUse">
            <stop offset="0.015625" stop-color="#fefefe" stop-opacity="1"/>
            <stop offset="1" stop-color="#0549a0" stop-opacity="1"/>
        </radialGradient>
        <path id="Trazado" fill="url(#radialGradient1)" stroke="none" d="M 41.700001 77.599998 C 55.5 77.599998 66.800003 66.400002 66.800003 52.5 C 66.800003 38.699997 55.599998 27.400002 41.700001 27.400002 C 27.9 27.400002 16.6 38.599998 16.6 52.5 C 16.700001 66.400002 27.9 77.599998 41.700001 77.599998 Z"/>
        <path id="path1" fill="#ffffff" stroke="none" d="M 64.400002 42.099998 C 65.400002 41.900002 66.400002 41.699997 67.300003 41.599998 C 68.800003 41.300003 70.400002 41.099998 71.900002 41.099998 C 73.599998 41.099998 75.199997 41.300003 76.800003 41.800003 C 77.699997 42.099998 78.5 42.5 79.199997 43 C 79.800003 43.5 80.300003 44 80.599998 44.799999 C 80.599998 44.899998 80.699997 45 80.800003 45.099998 C 81.699997 46.699997 81.900002 48.399998 81.5 50.199997 C 81.199997 51.599998 80.599998 52.799999 79.900002 54 C 78.599998 56.099998 76.900002 57.899998 74.900002 59.5 C 73.099998 61 71.099998 62.199997 69 63.299995 C 66.900002 64.5 64.699997 65.599998 62.400002 66.5 C 62.400002 66.199997 62.599998 66 62.700001 65.799995 C 63.799999 64.099998 64.599998 62.299999 65.300003 60.299999 C 65.699997 59 66.099998 57.599998 66.300003 56.199997 C 66.300003 56 66.400002 55.799999 66.5 55.699997 C 68.5 54.599998 70.5 53.299999 72.199997 51.699997 C 72.599998 51.299999 73 50.899998 73.300003 50.5 C 73.5 50.199997 73.699997 49.899998 73.900002 49.599998 C 74 49.399998 74.099998 49.099998 74.099998 48.899998 C 74.099998 48.699997 74 48.599998 73.800003 48.599998 C 73.400002 48.599998 73 48.5 72.599998 48.5 C 71.5 48.5 70.400002 48.599998 69.300003 48.699997 C 68.300003 48.799999 67.300003 48.899998 66.300003 49.099998 C 65.699997 49.199997 65.199997 49.299999 64.599998 49.399998 C 61.900002 50 59.299999 50.699997 56.599998 51.399998 C 52.099998 52.699997 47.700001 54.099998 43.400002 55.899998 C 39.599998 57.399998 35.799999 58.799999 31.9 60.099998 C 28.4 61.199997 24.9 62.299999 21.4 63.199997 C 20.6 63.400002 19.9 63.5 19.1 63.799995 C 18.9 63.699997 18.700001 63.799995 18.5 63.900002 C 16.700001 64.299995 14.8 64.699997 13 64.900002 C 11 65.199997 9 65.400002 7 65.199997 C 6.2 65.099998 5.4 65 4.6 64.699997 C 2.4 63.900002 1 62.399998 0.3 60.299999 C 0.1 59.799999 0 59.299999 0 58.799999 C 0 58.599998 0 58.399998 -0.3 58.399998 C -0.3 57.799999 -0.3 57.299999 -0.3 56.699997 C -0.1 56.599998 -0.1 56.5 0 56.299999 C 0.3 54.599998 1 53.199997 1.9 51.799999 C 3.1 50 4.5 48.5 6.2 47.199997 C 8.2 45.5 10.5 44.099998 12.8 42.800003 C 15 41.599998 17.299999 40.599998 19.700001 39.599998 C 19.799999 39.599998 19.9 39.5 20 39.5 C 19.9 39.699997 19.799999 40 19.6 40.199997 C 18.5 42.099998 17.700001 44.199997 17.200001 46.299999 C 17 47.199997 16.799999 48.199997 16.6 49.199997 C 16.5 49.299999 16.299999 49.299999 16.200001 49.399998 C 14.3 50.599998 12.5 51.899998 10.8 53.399998 C 9.8 54.299999 8.8 55.299999 8 56.399998 C 7.8 56.699997 7.6 56.899998 7.5 57.199997 C 7.4 57.399998 7.5 57.599998 7.8 57.699997 C 8 57.799999 8.2 57.799999 8.4 57.799999 C 9.3 57.799999 10.2 57.799999 11 57.799999 C 12.6 57.699997 14.2 57.399998 15.8 57.099998 C 16.1 57 16.5 57.099998 16.700001 56.899998 C 17.200001 56.799999 17.6 56.699997 18.1 56.599998 C 20.4 56.099998 22.6 55.399998 24.799999 54.699997 C 28.5 53.5 32.099998 52.199997 35.799999 50.899998 C 36 50.799999 36.200001 50.799999 36.299999 50.699997 C 36.799999 50.5 37.400002 50.299999 37.900002 50.099998 C 43.400002 48.099998 49 46.199997 54.599998 44.5 C 54.700001 44.5 54.900002 44.399998 55 44.299999 C 55.200001 44.399998 55.400002 44.299999 55.700001 44.199997 C 57.599998 43.699997 59.400002 43.099998 61.299999 42.699997 C 62.5 42.599998 63.5 42.300003 64.400002 42.099998 Z"/>
        <path id="path2" fill="#ffffff" stroke="none" d="M 22.700001 69.099998 C 23 69.199997 23.1 69.400002 23.299999 69.599998 C 24.4 70.799995 25.6 71.900002 27 72.900002 C 28.200001 73.799995 29.5 74.5 30.799999 75.199997 C 31 75.299995 31.1 75.400002 31.299999 75.5 C 31.4 75.599998 31.4 75.699997 31.4 75.699997 C 30.200001 75.900002 29 76.099998 27.799999 76.199997 C 26.4 76.400002 25 76.5 23.6 76.699997 C 22.299999 76.799995 20.9 77 19.6 77.099998 C 18.700001 77 18 77.099998 17.200001 77.099998 C 15.1 77.199997 13 77.299995 10.9 77.299995 C 10.4 77.299995 9.9 77.199997 9.4 77.099998 C 7.9 76.599998 6.7 75 7 72.900002 C 7.3 71.199997 8.8 69.900002 10.5 69.799995 C 10.6 69.799995 10.6 69.799995 10.7 69.799995 C 13.4 69.799995 16.200001 69.699997 18.9 69.5 C 20.200001 69.400002 21.5 69.299995 22.700001 69.099998 Z"/>
        <path id="path3" fill="#ffffff" stroke="none" d="M 61.5 37 C 61.200001 36.900002 61.099998 36.699997 61 36.5 C 59.299999 34.5 57.400002 32.800003 55.200001 31.400002 C 54.799999 31.099998 54.299999 30.900002 53.799999 30.599998 C 53.700001 30.5 53.599998 30.5 53.5 30.300003 C 55 30.099998 56.5 29.900002 58.099998 29.800003 C 59.700001 29.699997 61.400002 29.5 63 29.400002 C 65.599998 29.300003 68.300003 29.199997 70.900002 29.199997 C 72.599998 29.199997 74.099998 30.400002 74.5 32 C 75 33.699997 74.099998 35.5 72.5 36.300003 C 71.900002 36.599998 71.300003 36.699997 70.699997 36.699997 C 69.199997 36.699997 67.699997 36.699997 66.199997 36.699997 C 64.699997 36.900002 63.099998 36.900002 61.5 37 Z"/>
    </g>
    <path id="Trazado-copia-10" fill="#ffffff" stroke="none" d="M 433.512909 29.097435 L 402.551483 29.097435 C 399.986176 29.097435 397.888733 31.178749 397.888733 33.760208 C 397.888733 36.325531 399.970032 38.422974 402.551483 38.422974 L 413.377502 38.422974 L 413.377502 71.820625 C 413.377502 74.385956 415.458801 76.483383 418.040253 76.483383 C 420.621704 76.483383 422.703033 74.402084 422.703033 71.820625 L 422.703033 38.422974 L 433.529022 38.422974 C 436.094391 38.422974 438.191803 36.341667 438.191803 33.760208 C 438.175659 31.194878 436.094391 29.097435 433.512909 29.097435 Z"/>
    <path id="Trazado-copia-9" fill="#ffffff" stroke="none" d="M 392.983948 36.196465 C 390.579956 31.275543 385.901062 27 380.78656 27 C 375.672058 27 370.993134 31.275543 368.589142 36.196465 C 364.394257 44.747551 360.425293 55.831699 356.456268 70.094276 C 355.762512 72.611191 357.230713 75.208794 359.731506 75.902565 C 360.15097 76.015503 360.586639 76.080032 361.006104 76.080032 C 363.071259 76.080032 364.975098 74.708633 365.555908 72.627335 C 366.427185 69.481171 367.314545 66.512497 368.185791 63.689022 L 393.403442 63.689022 C 394.274658 66.512497 395.145935 69.481171 396.033325 72.627335 C 396.727081 75.144257 399.34082 76.612465 401.841614 75.902565 C 404.35849 75.208794 405.826721 72.595062 405.116852 70.094276 C 401.131683 55.831699 397.16272 44.747551 392.983948 36.196465 Z M 371.267426 54.379627 C 373.187378 49.023098 375.107361 44.360329 377.075714 40.35907 C 377.914673 38.648849 379.269928 36.454605 380.78656 36.454605 C 382.319305 36.454605 383.674561 38.648849 384.513519 40.35907 C 386.481903 44.376465 388.401855 49.023098 390.321808 54.379627 L 371.267426 54.379627 L 371.267426 54.379627 Z"/>
    <path id="Trazado-copia-8" fill="#ffffff" stroke="none" d="M 276.237366 36.196465 C 273.833374 31.275543 269.15448 27 264.039948 27 C 258.925446 27 254.246552 31.275543 251.84256 36.196465 C 247.647675 44.747551 243.67868 55.831699 239.709702 70.094276 C 239.015915 72.611191 240.484116 75.208794 242.984909 75.902565 C 243.404419 76.015503 243.840027 76.080032 244.259506 76.080032 C 246.324692 76.080032 248.2285 74.708633 248.809357 72.627335 C 249.680573 69.481171 250.567947 66.512497 251.439194 63.689022 L 276.640717 63.689022 C 277.511963 66.512497 278.383209 69.481171 279.270569 72.627335 C 279.964355 75.144257 282.578064 76.612465 285.078857 75.902565 C 287.595795 75.208794 289.064026 72.595062 288.354095 70.094276 C 284.385101 55.831699 280.416107 44.747551 276.237366 36.196465 Z M 254.504684 54.363491 C 256.424652 49.006962 258.344604 44.3442 260.312988 40.342934 C 261.151947 38.632713 262.507202 36.438477 264.023834 36.438477 C 265.55658 36.438477 266.911835 38.632713 267.750793 40.342934 C 269.719177 44.360329 271.63916 49.006962 273.559082 54.363491 L 254.504684 54.363491 L 254.504684 54.363491 Z"/>
    <path id="Trazado-copia-7" fill="#ffffff" stroke="none" d="M 238.483505 53.895603 C 238.483505 53.766529 238.483505 53.637455 238.467361 53.524517 C 238.467361 53.492249 238.467361 53.459984 238.451218 53.427711 C 238.435089 53.298641 238.418961 53.185699 238.402832 53.056629 C 238.402832 53.024357 238.386688 52.992092 238.386688 52.959824 C 238.354416 52.846886 238.338287 52.717812 238.289886 52.604874 C 238.273758 52.572605 238.273758 52.540337 238.257629 52.508068 C 238.225342 52.39513 238.176956 52.282188 238.12854 52.16925 C 238.112411 52.136982 238.096283 52.104713 238.096283 52.072445 C 238.047867 51.959507 237.999481 51.862701 237.951065 51.749763 C 237.934937 51.717495 237.918808 51.685226 237.902664 51.652958 C 237.838135 51.556152 237.789734 51.459347 237.725189 51.362545 C 237.709061 51.330276 237.692932 51.298008 237.660645 51.281876 C 237.59613 51.18507 237.531586 51.104397 237.450912 51.007591 C 237.434784 50.975323 237.402512 50.95919 237.386368 50.926922 C 237.30571 50.846252 237.241165 50.749447 237.160492 50.668777 C 237.128235 50.636509 237.112106 50.620373 237.079819 50.588104 C 236.999146 50.507435 236.918488 50.426765 236.837814 50.362228 C 236.805557 50.346092 236.77327 50.313828 236.757141 50.297691 C 236.676468 50.233154 236.579666 50.168617 236.482864 50.10408 C 236.450592 50.087948 236.41832 50.055679 236.386063 50.039543 C 236.289246 49.97501 236.208572 49.926605 236.111771 49.862068 C 236.079514 49.845936 236.031097 49.829803 235.99884 49.797535 C 235.902039 49.749134 235.805222 49.700729 235.70842 49.652328 C 235.660034 49.636192 235.611618 49.62006 235.579361 49.603924 C 235.482544 49.571659 235.385742 49.523251 235.28894 49.507122 C 235.240524 49.490986 235.192139 49.474854 235.127594 49.458717 C 235.030792 49.426453 234.93399 49.410316 234.853317 49.39418 C 234.788788 49.378048 234.740372 49.378048 234.675827 49.361912 C 234.579025 49.345779 234.498367 49.329647 234.401566 49.313511 C 234.337021 49.313511 234.272476 49.297375 234.207962 49.297375 C 234.143417 49.297375 234.095001 49.281239 234.030472 49.281239 C 233.998199 49.281239 233.965942 49.281239 233.93367 49.281239 C 233.917542 49.281239 233.885269 49.281239 233.869125 49.281239 L 216.250656 49.281239 C 213.685333 49.281239 211.587891 51.362545 211.587891 53.944008 C 211.587891 56.509331 213.669205 58.60677 216.250656 58.60677 L 228.577148 58.60677 C 226.447418 67.254669 219.558151 68.690598 214.766327 68.690598 C 205.263321 68.690598 198.616043 61.494778 198.616043 51.201202 C 198.616043 43.682697 206.312042 36.841827 214.766327 36.841827 C 219.945374 36.841827 223.785294 38.019615 228.012451 40.891495 C 230.142151 42.343559 233.030151 41.77887 234.482224 39.665298 C 235.934296 37.535591 235.369614 34.647583 233.256042 33.195511 C 227.49614 29.274918 221.800812 27.532433 214.782455 27.532433 C 208.183594 27.532433 201.875153 30.01709 196.986496 34.550781 C 192.113998 39.0522 189.322784 45.134769 189.322784 51.201202 C 189.322784 59.010124 191.92038 65.770325 196.841293 70.723503 C 201.504059 75.418541 207.877045 78 214.782455 78 C 221.268372 78 226.96373 76.128441 231.27153 72.595062 C 234.853317 69.658646 238.176956 64.076241 238.531891 54.105347 C 238.531891 54.056946 238.531891 54.024677 238.531891 53.976273 C 238.531891 53.96014 238.531891 53.944008 238.531891 53.944008 C 238.483505 53.944008 238.483505 53.927872 238.483505 53.895603 Z"/>
    <path id="Trazado-copia-6" fill="#ffffff" stroke="none" d="M 184.692307 67.15786 L 162.830551 67.15786 L 162.830551 56.638405 L 178.125702 56.638405 C 180.691025 56.638405 182.788467 54.557102 182.788467 51.975639 C 182.788467 49.410316 180.707153 47.312878 178.125702 47.312878 L 162.830551 47.312878 L 162.830551 38.390701 L 184.692307 38.390701 C 187.257629 38.390701 189.355072 36.309395 189.355072 33.727936 C 189.355072 31.162613 187.273758 29.06517 184.692307 29.06517 L 158.167786 29.06517 C 155.602448 29.06517 153.505005 31.146477 153.505005 33.727936 L 153.505005 71.788361 C 153.505005 74.353683 155.586319 76.451126 158.167786 76.451126 L 184.692307 76.451126 C 187.257629 76.451126 189.355072 74.36982 189.355072 71.788361 C 189.338913 69.239166 187.257629 67.15786 184.692307 67.15786 Z"/>
    <path id="Trazado-copia-5" fill="#ffffff" stroke="none" d="M 355.923859 61.02689 C 355.31073 53.459984 349.195923 47.700096 341.854889 47.700096 C 341.693542 47.700096 341.54837 47.700096 341.387024 47.700096 L 337.143738 47.700096 C 337.111481 47.700096 337.079163 47.700096 337.063049 47.700096 L 326.753326 47.700096 L 326.559723 47.700096 C 323.978271 47.796902 321.80014 45.731731 321.57428 42.972801 C 321.429047 40.826958 322.477783 38.681114 323.833069 38.374573 L 324.091187 38.310028 C 330.157654 36.583679 343.097198 37.035431 347.63092 38.681114 C 350.051025 39.552361 352.713165 38.2939 353.584381 35.873779 C 354.455658 33.453651 353.197205 30.791519 350.777069 29.92028 C 344.097504 27.516296 329.189606 27.225883 321.638824 29.339447 C 315.814423 30.72699 311.780884 36.857956 312.281006 43.666565 L 312.281006 43.714966 C 312.894104 51.281876 319.008942 57.041756 326.349976 57.041756 C 326.511322 57.041756 326.656555 57.041756 326.817871 57.041756 L 331.061157 57.041756 C 331.093414 57.041756 331.125702 57.041756 331.141846 57.041756 L 341.451538 57.041756 L 341.645142 57.041756 C 344.226593 56.944958 346.404694 59.010124 346.630615 61.769062 C 346.775787 63.914898 345.727081 66.060745 344.371826 66.367294 L 344.113678 66.431824 C 338.047211 68.15818 325.107635 67.706421 320.573975 66.060745 C 318.15387 65.189499 315.49173 66.44796 314.620453 68.86808 C 313.749237 71.2882 315.007721 73.950333 317.427826 74.821579 C 321.090271 76.144577 327.237335 76.822205 333.287659 76.822205 C 338.256958 76.822205 343.161774 76.354317 346.56604 75.402405 C 352.390472 74.014862 356.424011 67.883896 355.923859 61.075291 L 355.923859 61.02689 Z"/>
    <path id="Trazado-copia-4" fill="#ffffff" stroke="none" d="M 149.503754 61.02689 C 148.890656 53.459984 142.775818 47.700096 135.434784 47.700096 C 135.273438 47.700096 135.128235 47.700096 134.966888 47.700096 L 130.723618 47.700096 C 130.691345 47.700096 130.659088 47.700096 130.64296 47.700096 L 120.333237 47.700096 L 120.139626 47.700096 C 117.558167 47.796902 115.380058 45.731731 115.154182 42.972801 C 115.008972 40.826958 116.057693 38.681114 117.412964 38.374573 L 117.671104 38.310028 C 123.737534 36.583679 136.677124 37.035431 141.210815 38.681114 C 143.630936 39.552361 146.29306 38.2939 147.164307 35.873779 C 148.035538 33.453651 146.777084 30.791519 144.356964 29.92028 C 137.677429 27.516296 122.769485 27.225883 115.218712 29.339447 C 109.394295 30.72699 105.360764 36.857956 105.860916 43.666565 L 105.860916 43.714966 C 106.474014 51.281876 112.588852 57.041756 119.929886 57.041756 C 120.091225 57.041756 120.236435 57.041756 120.397781 57.041756 L 124.641052 57.041756 C 124.673325 57.041756 124.705582 57.041756 124.721725 57.041756 L 135.031433 57.041756 L 135.225052 57.041756 C 137.806519 56.944958 139.984619 59.010124 140.21048 61.769062 C 140.355698 63.914898 139.306976 66.060745 137.951706 66.367294 L 137.693558 66.431824 C 131.627136 68.15818 118.687553 67.706421 114.15387 66.060745 C 111.733749 65.189499 109.071617 66.44796 108.200371 68.86808 C 107.329132 71.2882 108.587593 73.950333 111.007713 74.821579 C 114.670158 76.144577 120.817261 76.822205 126.867561 76.822205 C 131.836884 76.822205 136.741638 76.354317 140.145966 75.402405 C 145.970383 74.014862 150.003906 67.883896 149.503754 61.075291 L 149.503754 61.02689 Z"/>
    <path id="Trazado-copia-3" fill="#ffffff" stroke="none" d="M 481.72168 27.096809 C 479.188629 27.096809 477.139587 29.145844 477.139587 31.678902 L 477.139587 59.978172 C 477.139587 64.350525 470.911804 68.190445 463.796661 68.190445 C 456.697662 68.190445 450.453766 64.350525 450.453766 59.978172 L 450.453766 31.678902 C 450.453766 29.145844 448.404694 27.096809 445.871643 27.096809 C 443.338593 27.096809 441.289551 29.145844 441.289551 31.678902 L 441.289551 59.978172 C 441.289551 64.834549 443.90329 69.497314 448.453094 72.740273 C 452.599548 75.708954 458.052917 77.338501 463.780518 77.338501 C 469.508148 77.338501 474.945343 75.708954 479.107941 72.740273 C 483.657776 69.497314 486.271545 64.834549 486.271545 59.978172 L 486.271545 31.678902 C 486.303802 29.145844 484.254761 27.096809 481.72168 27.096809 Z"/>
    <path id="Trazado-copia-2" fill="#ffffff" stroke="none" d="M 523.299377 58.316357 C 522.992798 58.02594 523.170288 57.493515 523.605896 57.461246 C 532.108582 56.928822 534.641602 50.55584 535.077271 45.134769 C 535.077271 45.118637 535.077271 45.102501 535.077271 45.086365 C 535.351563 41.246445 533.851074 37.164513 531.075989 34.179688 C 528.914001 31.856377 524.961121 29.097435 518.34613 29.097435 C 513.441406 29.097435 507.923523 29.178108 503.228485 29.323318 C 495.516357 29.565331 494.967804 29.758942 494.241791 30.033218 C 492.402496 30.694725 491.1763 32.437202 491.1763 34.389435 L 491.1763 71.562477 C 491.1763 74.208481 493.386658 76.338181 496.048798 76.209106 C 498.549591 76.096169 500.485687 73.934196 500.485687 71.433411 L 500.485687 38.745651 C 504.567627 38.584312 511.32782 38.406837 518.34613 38.406837 C 520.9599 38.406837 522.944397 39.116737 524.251282 40.520409 C 525.57428 41.940208 525.832397 43.618164 525.783997 44.408733 C 525.671082 45.844673 525.283813 50.087948 517.668518 50.087948 L 513.683411 50.087948 C 511.634369 50.087948 509.73053 51.249603 508.907684 53.121166 C 508.036469 55.105663 508.504333 57.396709 510.08548 58.864918 L 527.607178 75.289459 C 528.510681 76.128441 529.656189 76.547928 530.785583 76.547928 C 532.027893 76.547928 533.270203 76.047768 534.18988 75.07972 C 535.948486 73.20816 535.851685 70.255615 533.980164 68.496994 L 523.299377 58.316357 Z"/>
    <path id="Trazado-copia" fill="#ffffff" stroke="none" d="M 578.639465 29.178108 C 576.106323 29.178108 574.057312 31.227142 574.057312 33.760208 L 574.057312 59.849098 L 547.839355 30.694725 C 546.564758 29.274918 544.564148 28.790894 542.789368 29.484665 C 541.014587 30.162292 539.852966 31.872513 539.852966 33.760208 L 539.852966 71.820625 C 539.852966 74.353683 541.901978 76.402718 544.435059 76.402718 C 546.96814 76.402718 549.017151 74.353683 549.017151 71.820625 L 549.017151 45.731731 L 575.235107 74.886108 C 576.122498 75.870293 577.364807 76.402718 578.639465 76.402718 C 579.187988 76.402718 579.752686 76.305916 580.285095 76.096169 C 582.059875 75.418541 583.221497 73.708321 583.221497 71.820625 L 583.221497 33.760208 C 583.221497 31.227142 581.172485 29.178108 578.639465 29.178108 Z"/>
</svg>
