<?xml version="1.0" encoding="UTF-8"?>
<!-- Generated by Pixelmator Pro 3.7.1 -->
<svg width="584" height="51" viewBox="0 0 584 51" xmlns="http://www.w3.org/2000/svg">
    <g id="Agrupar">
        <radialGradient id="radialGradient1" cx="43.456438" cy="15.96498" r="28.100414" fx="43.456438" fy="15.96498" gradientUnits="userSpaceOnUse">
            <stop offset="0.015625" stop-color="#fefefe" stop-opacity="1"/>
            <stop offset="1" stop-color="#0549a0" stop-opacity="1"/>
        </radialGradient>
        <path id="Trazado" fill="url(#radialGradient1)" stroke="none" d="M 41.700001 50.599998 C 55.5 50.599998 66.800003 39.400002 66.800003 25.5 C 66.800003 11.699997 55.599998 0.400002 41.700001 0.400002 C 27.9 0.400002 16.6 11.599998 16.6 25.5 C 16.700001 39.400002 27.9 50.599998 41.700001 50.599998 Z"/>
        <path id="path1" fill="#ffffff" stroke="none" d="M 64.400002 15.099998 C 65.400002 14.900002 66.400002 14.699997 67.300003 14.599998 C 68.800003 14.300003 70.400002 14.099998 71.900002 14.099998 C 73.599998 14.099998 75.199997 14.300003 76.800003 14.800003 C 77.699997 15.099998 78.5 15.5 79.199997 16 C 79.800003 16.5 80.300003 17 80.599998 17.799999 C 80.599998 17.899998 80.699997 18 80.800003 18.099998 C 81.699997 19.699997 81.900002 21.399998 81.5 23.199997 C 81.199997 24.599998 80.599998 25.799999 79.900002 27 C 78.599998 29.099998 76.900002 30.899998 74.900002 32.5 C 73.099998 34 71.099998 35.199997 69 36.299995 C 66.900002 37.5 64.699997 38.599998 62.400002 39.5 C 62.400002 39.199997 62.599998 39 62.700001 38.799995 C 63.799999 37.099998 64.599998 35.299999 65.300003 33.299999 C 65.699997 32 66.099998 30.599998 66.300003 29.199997 C 66.300003 29 66.400002 28.799999 66.5 28.699997 C 68.5 27.599998 70.5 26.299999 72.199997 24.699997 C 72.599998 24.299999 73 23.899998 73.300003 23.5 C 73.5 23.199997 73.699997 22.899998 73.900002 22.599998 C 74 22.399998 74.099998 22.099998 74.099998 21.899998 C 74.099998 21.699997 74 21.599998 73.800003 21.599998 C 73.400002 21.599998 73 21.5 72.599998 21.5 C 71.5 21.5 70.400002 21.599998 69.300003 21.699997 C 68.300003 21.799999 67.300003 21.899998 66.300003 22.099998 C 65.699997 22.199997 65.199997 22.299999 64.599998 22.399998 C 61.900002 23 59.299999 23.699997 56.599998 24.399998 C 52.099998 25.699997 47.700001 27.099998 43.400002 28.899998 C 39.599998 30.399998 35.799999 31.799999 31.9 33.099998 C 28.4 34.199997 24.9 35.299999 21.4 36.199997 C 20.6 36.400002 19.9 36.5 19.1 36.799995 C 18.9 36.699997 18.700001 36.799995 18.5 36.900002 C 16.700001 37.299995 14.8 37.699997 13 37.900002 C 11 38.199997 9 38.400002 7 38.199997 C 6.2 38.099998 5.4 38 4.6 37.699997 C 2.4 36.900002 1 35.399998 0.3 33.299999 C 0.1 32.799999 0 32.299999 0 31.799999 C 0 31.599998 0 31.399998 -0.3 31.399998 C -0.3 30.799999 -0.3 30.299999 -0.3 29.699997 C -0.1 29.599998 -0.1 29.5 0 29.299999 C 0.3 27.599998 1 26.199997 1.9 24.799999 C 3.1 23 4.5 21.5 6.2 20.199997 C 8.2 18.5 10.5 17.099998 12.8 15.800003 C 15 14.599998 17.299999 13.599998 19.700001 12.599998 C 19.799999 12.599998 19.9 12.5 20 12.5 C 19.9 12.699997 19.799999 13 19.6 13.199997 C 18.5 15.099998 17.700001 17.199997 17.200001 19.299999 C 17 20.199997 16.799999 21.199997 16.6 22.199997 C 16.5 22.299999 16.299999 22.299999 16.200001 22.399998 C 14.3 23.599998 12.5 24.899998 10.8 26.399998 C 9.8 27.299999 8.8 28.299999 8 29.399998 C 7.8 29.699997 7.6 29.899998 7.5 30.199997 C 7.4 30.399998 7.5 30.599998 7.8 30.699997 C 8 30.799999 8.2 30.799999 8.4 30.799999 C 9.3 30.799999 10.2 30.799999 11 30.799999 C 12.6 30.699997 14.2 30.399998 15.8 30.099998 C 16.1 30 16.5 30.099998 16.700001 29.899998 C 17.200001 29.799999 17.6 29.699997 18.1 29.599998 C 20.4 29.099998 22.6 28.399998 24.799999 27.699997 C 28.5 26.5 32.099998 25.199997 35.799999 23.899998 C 36 23.799999 36.200001 23.799999 36.299999 23.699997 C 36.799999 23.5 37.400002 23.299999 37.900002 23.099998 C 43.400002 21.099998 49 19.199997 54.599998 17.5 C 54.700001 17.5 54.900002 17.399998 55 17.299999 C 55.200001 17.399998 55.400002 17.299999 55.700001 17.199997 C 57.599998 16.699997 59.400002 16.099998 61.299999 15.699997 C 62.5 15.599998 63.5 15.300003 64.400002 15.099998 Z"/>
        <path id="path2" fill="#ffffff" stroke="none" d="M 22.700001 42.099998 C 23 42.199997 23.1 42.400002 23.299999 42.599998 C 24.4 43.799995 25.6 44.900002 27 45.900002 C 28.200001 46.799995 29.5 47.5 30.799999 48.199997 C 31 48.299995 31.1 48.400002 31.299999 48.5 C 31.4 48.599998 31.4 48.699997 31.4 48.699997 C 30.200001 48.900002 29 49.099998 27.799999 49.199997 C 26.4 49.400002 25 49.5 23.6 49.699997 C 22.299999 49.799995 20.9 50 19.6 50.099998 C 18.700001 50 18 50.099998 17.200001 50.099998 C 15.1 50.199997 13 50.299995 10.9 50.299995 C 10.4 50.299995 9.9 50.199997 9.4 50.099998 C 7.9 49.599998 6.7 48 7 45.900002 C 7.3 44.199997 8.8 42.900002 10.5 42.799995 C 10.6 42.799995 10.6 42.799995 10.7 42.799995 C 13.4 42.799995 16.200001 42.699997 18.9 42.5 C 20.200001 42.400002 21.5 42.299995 22.700001 42.099998 Z"/>
        <path id="path3" fill="#ffffff" stroke="none" d="M 61.5 10 C 61.200001 9.900002 61.099998 9.699997 61 9.5 C 59.299999 7.5 57.400002 5.800003 55.200001 4.400002 C 54.799999 4.099998 54.299999 3.900002 53.799999 3.599998 C 53.700001 3.5 53.599998 3.5 53.5 3.300003 C 55 3.099998 56.5 2.900002 58.099998 2.800003 C 59.700001 2.699997 61.400002 2.5 63 2.400002 C 65.599998 2.300003 68.300003 2.199997 70.900002 2.199997 C 72.599998 2.199997 74.099998 3.400002 74.5 5 C 75 6.699997 74.099998 8.5 72.5 9.300003 C 71.900002 9.599998 71.300003 9.699997 70.699997 9.699997 C 69.199997 9.699997 67.699997 9.699997 66.199997 9.699997 C 64.699997 9.900002 63.099998 9.900002 61.5 10 Z"/>
    </g>
    <path id="Trazado-copia-10" fill="#ffffff" stroke="none" d="M 433.512909 2.097435 L 402.551483 2.097435 C 399.986176 2.097435 397.888733 4.178749 397.888733 6.760208 C 397.888733 9.325531 399.970032 11.422974 402.551483 11.422974 L 413.377502 11.422974 L 413.377502 44.820625 C 413.377502 47.385956 415.458801 49.483383 418.040253 49.483383 C 420.621704 49.483383 422.703033 47.402084 422.703033 44.820625 L 422.703033 11.422974 L 433.529022 11.422974 C 436.094391 11.422974 438.191803 9.341667 438.191803 6.760208 C 438.175659 4.194878 436.094391 2.097435 433.512909 2.097435 Z"/>
    <path id="Trazado-copia-9" fill="#ffffff" stroke="none" d="M 392.983948 9.196465 C 390.579956 4.275543 385.901062 0 380.78656 0 C 375.672058 0 370.993134 4.275543 368.589142 9.196465 C 364.394257 17.747551 360.425293 28.831699 356.456268 43.094276 C 355.762512 45.611191 357.230713 48.208794 359.731506 48.902565 C 360.15097 49.015503 360.586639 49.080032 361.006104 49.080032 C 363.071259 49.080032 364.975098 47.708633 365.555908 45.627335 C 366.427185 42.481171 367.314545 39.512497 368.185791 36.689022 L 393.403442 36.689022 C 394.274658 39.512497 395.145935 42.481171 396.033325 45.627335 C 396.727081 48.144257 399.34082 49.612465 401.841614 48.902565 C 404.35849 48.208794 405.826721 45.595062 405.116852 43.094276 C 401.131683 28.831699 397.16272 17.747551 392.983948 9.196465 Z M 371.267426 27.379627 C 373.187378 22.023098 375.107361 17.360329 377.075714 13.35907 C 377.914673 11.648849 379.269928 9.454605 380.78656 9.454605 C 382.319305 9.454605 383.674561 11.648849 384.513519 13.35907 C 386.481903 17.376465 388.401855 22.023098 390.321808 27.379627 L 371.267426 27.379627 L 371.267426 27.379627 Z"/>
    <path id="Trazado-copia-8" fill="#ffffff" stroke="none" d="M 276.237366 9.196465 C 273.833374 4.275543 269.15448 0 264.039948 0 C 258.925446 0 254.246552 4.275543 251.84256 9.196465 C 247.647675 17.747551 243.67868 28.831699 239.709702 43.094276 C 239.015915 45.611191 240.484116 48.208794 242.984909 48.902565 C 243.404419 49.015503 243.840027 49.080032 244.259506 49.080032 C 246.324692 49.080032 248.2285 47.708633 248.809357 45.627335 C 249.680573 42.481171 250.567947 39.512497 251.439194 36.689022 L 276.640717 36.689022 C 277.511963 39.512497 278.383209 42.481171 279.270569 45.627335 C 279.964355 48.144257 282.578064 49.612465 285.078857 48.902565 C 287.595795 48.208794 289.064026 45.595062 288.354095 43.094276 C 284.385101 28.831699 280.416107 17.747551 276.237366 9.196465 Z M 254.504684 27.363491 C 256.424652 22.006962 258.344604 17.3442 260.312988 13.342934 C 261.151947 11.632713 262.507202 9.438477 264.023834 9.438477 C 265.55658 9.438477 266.911835 11.632713 267.750793 13.342934 C 269.719177 17.360329 271.63916 22.006962 273.559082 27.363491 L 254.504684 27.363491 L 254.504684 27.363491 Z"/>
    <path id="Trazado-copia-7" fill="#ffffff" stroke="none" d="M 238.483505 26.895603 C 238.483505 26.766529 238.483505 26.637455 238.467361 26.524517 C 238.467361 26.492249 238.467361 26.459984 238.451218 26.427711 C 238.435089 26.298641 238.418961 26.185699 238.402832 26.056629 C 238.402832 26.024357 238.386688 25.992092 238.386688 25.959824 C 238.354416 25.846886 238.338287 25.717812 238.289886 25.604874 C 238.273758 25.572605 238.273758 25.540337 238.257629 25.508068 C 238.225342 25.39513 238.176956 25.282188 238.12854 25.16925 C 238.112411 25.136982 238.096283 25.104713 238.096283 25.072445 C 238.047867 24.959507 237.999481 24.862701 237.951065 24.749763 C 237.934937 24.717495 237.918808 24.685226 237.902664 24.652958 C 237.838135 24.556152 237.789734 24.459347 237.725189 24.362545 C 237.709061 24.330276 237.692932 24.298008 237.660645 24.281876 C 237.59613 24.18507 237.531586 24.104397 237.450912 24.007591 C 237.434784 23.975323 237.402512 23.95919 237.386368 23.926922 C 237.30571 23.846252 237.241165 23.749447 237.160492 23.668777 C 237.128235 23.636509 237.112106 23.620373 237.079819 23.588104 C 236.999146 23.507435 236.918488 23.426765 236.837814 23.362228 C 236.805557 23.346092 236.77327 23.313828 236.757141 23.297691 C 236.676468 23.233154 236.579666 23.168617 236.482864 23.10408 C 236.450592 23.087948 236.41832 23.055679 236.386063 23.039543 C 236.289246 22.97501 236.208572 22.926605 236.111771 22.862068 C 236.079514 22.845936 236.031097 22.829803 235.99884 22.797535 C 235.902039 22.749134 235.805222 22.700729 235.70842 22.652328 C 235.660034 22.636192 235.611618 22.62006 235.579361 22.603924 C 235.482544 22.571659 235.385742 22.523251 235.28894 22.507122 C 235.240524 22.490986 235.192139 22.474854 235.127594 22.458717 C 235.030792 22.426453 234.93399 22.410316 234.853317 22.39418 C 234.788788 22.378048 234.740372 22.378048 234.675827 22.361912 C 234.579025 22.345779 234.498367 22.329647 234.401566 22.313511 C 234.337021 22.313511 234.272476 22.297375 234.207962 22.297375 C 234.143417 22.297375 234.095001 22.281239 234.030472 22.281239 C 233.998199 22.281239 233.965942 22.281239 233.93367 22.281239 C 233.917542 22.281239 233.885269 22.281239 233.869125 22.281239 L 216.250656 22.281239 C 213.685333 22.281239 211.587891 24.362545 211.587891 26.944008 C 211.587891 29.509331 213.669205 31.60677 216.250656 31.60677 L 228.577148 31.60677 C 226.447418 40.254669 219.558151 41.690598 214.766327 41.690598 C 205.263321 41.690598 198.616043 34.494778 198.616043 24.201202 C 198.616043 16.682697 206.312042 9.841827 214.766327 9.841827 C 219.945374 9.841827 223.785294 11.019615 228.012451 13.891495 C 230.142151 15.343559 233.030151 14.77887 234.482224 12.665298 C 235.934296 10.535591 235.369614 7.647583 233.256042 6.195511 C 227.49614 2.274918 221.800812 0.532433 214.782455 0.532433 C 208.183594 0.532433 201.875153 3.01709 196.986496 7.550781 C 192.113998 12.0522 189.322784 18.134769 189.322784 24.201202 C 189.322784 32.010124 191.92038 38.770325 196.841293 43.723503 C 201.504059 48.418541 207.877045 51 214.782455 51 C 221.268372 51 226.96373 49.128441 231.27153 45.595062 C 234.853317 42.658646 238.176956 37.076241 238.531891 27.105347 C 238.531891 27.056946 238.531891 27.024677 238.531891 26.976273 C 238.531891 26.96014 238.531891 26.944008 238.531891 26.944008 C 238.483505 26.944008 238.483505 26.927872 238.483505 26.895603 Z"/>
    <path id="Trazado-copia-6" fill="#ffffff" stroke="none" d="M 184.692307 40.15786 L 162.830551 40.15786 L 162.830551 29.638405 L 178.125702 29.638405 C 180.691025 29.638405 182.788467 27.557102 182.788467 24.975639 C 182.788467 22.410316 180.707153 20.312878 178.125702 20.312878 L 162.830551 20.312878 L 162.830551 11.390701 L 184.692307 11.390701 C 187.257629 11.390701 189.355072 9.309395 189.355072 6.727936 C 189.355072 4.162613 187.273758 2.06517 184.692307 2.06517 L 158.167786 2.06517 C 155.602448 2.06517 153.505005 4.146477 153.505005 6.727936 L 153.505005 44.788361 C 153.505005 47.353683 155.586319 49.451126 158.167786 49.451126 L 184.692307 49.451126 C 187.257629 49.451126 189.355072 47.36982 189.355072 44.788361 C 189.338913 42.239166 187.257629 40.15786 184.692307 40.15786 Z"/>
    <path id="Trazado-copia-5" fill="#ffffff" stroke="none" d="M 355.923859 34.02689 C 355.31073 26.459984 349.195923 20.700096 341.854889 20.700096 C 341.693542 20.700096 341.54837 20.700096 341.387024 20.700096 L 337.143738 20.700096 C 337.111481 20.700096 337.079163 20.700096 337.063049 20.700096 L 326.753326 20.700096 L 326.559723 20.700096 C 323.978271 20.796902 321.80014 18.731731 321.57428 15.972801 C 321.429047 13.826958 322.477783 11.681114 323.833069 11.374573 L 324.091187 11.310028 C 330.157654 9.583679 343.097198 10.035431 347.63092 11.681114 C 350.051025 12.552361 352.713165 11.2939 353.584381 8.873779 C 354.455658 6.453651 353.197205 3.791519 350.777069 2.92028 C 344.097504 0.516296 329.189606 0.225883 321.638824 2.339447 C 315.814423 3.72699 311.780884 9.857956 312.281006 16.666565 L 312.281006 16.714966 C 312.894104 24.281876 319.008942 30.041756 326.349976 30.041756 C 326.511322 30.041756 326.656555 30.041756 326.817871 30.041756 L 331.061157 30.041756 C 331.093414 30.041756 331.125702 30.041756 331.141846 30.041756 L 341.451538 30.041756 L 341.645142 30.041756 C 344.226593 29.944958 346.404694 32.010124 346.630615 34.769062 C 346.775787 36.914898 345.727081 39.060745 344.371826 39.367294 L 344.113678 39.431824 C 338.047211 41.15818 325.107635 40.706421 320.573975 39.060745 C 318.15387 38.189499 315.49173 39.44796 314.620453 41.86808 C 313.749237 44.2882 315.007721 46.950333 317.427826 47.821579 C 321.090271 49.144577 327.237335 49.822205 333.287659 49.822205 C 338.256958 49.822205 343.161774 49.354317 346.56604 48.402405 C 352.390472 47.014862 356.424011 40.883896 355.923859 34.075291 L 355.923859 34.02689 Z"/>
    <path id="Trazado-copia-4" fill="#ffffff" stroke="none" d="M 149.503754 34.02689 C 148.890656 26.459984 142.775818 20.700096 135.434784 20.700096 C 135.273438 20.700096 135.128235 20.700096 134.966888 20.700096 L 130.723618 20.700096 C 130.691345 20.700096 130.659088 20.700096 130.64296 20.700096 L 120.333237 20.700096 L 120.139626 20.700096 C 117.558167 20.796902 115.380058 18.731731 115.154182 15.972801 C 115.008972 13.826958 116.057693 11.681114 117.412964 11.374573 L 117.671104 11.310028 C 123.737534 9.583679 136.677124 10.035431 141.210815 11.681114 C 143.630936 12.552361 146.29306 11.2939 147.164307 8.873779 C 148.035538 6.453651 146.777084 3.791519 144.356964 2.92028 C 137.677429 0.516296 122.769485 0.225883 115.218712 2.339447 C 109.394295 3.72699 105.360764 9.857956 105.860916 16.666565 L 105.860916 16.714966 C 106.474014 24.281876 112.588852 30.041756 119.929886 30.041756 C 120.091225 30.041756 120.236435 30.041756 120.397781 30.041756 L 124.641052 30.041756 C 124.673325 30.041756 124.705582 30.041756 124.721725 30.041756 L 135.031433 30.041756 L 135.225052 30.041756 C 137.806519 29.944958 139.984619 32.010124 140.21048 34.769062 C 140.355698 36.914898 139.306976 39.060745 137.951706 39.367294 L 137.693558 39.431824 C 131.627136 41.15818 118.687553 40.706421 114.15387 39.060745 C 111.733749 38.189499 109.071617 39.44796 108.200371 41.86808 C 107.329132 44.2882 108.587593 46.950333 111.007713 47.821579 C 114.670158 49.144577 120.817261 49.822205 126.867561 49.822205 C 131.836884 49.822205 136.741638 49.354317 140.145966 48.402405 C 145.970383 47.014862 150.003906 40.883896 149.503754 34.075291 L 149.503754 34.02689 Z"/>
    <path id="Trazado-copia-3" fill="#ffffff" stroke="none" d="M 481.72168 0.096809 C 479.188629 0.096809 477.139587 2.145844 477.139587 4.678902 L 477.139587 32.978172 C 477.139587 37.350525 470.911804 41.190445 463.796661 41.190445 C 456.697662 41.190445 450.453766 37.350525 450.453766 32.978172 L 450.453766 4.678902 C 450.453766 2.145844 448.404694 0.096809 445.871643 0.096809 C 443.338593 0.096809 441.289551 2.145844 441.289551 4.678902 L 441.289551 32.978172 C 441.289551 37.834549 443.90329 42.497314 448.453094 45.740273 C 452.599548 48.708954 458.052917 50.338501 463.780518 50.338501 C 469.508148 50.338501 474.945343 48.708954 479.107941 45.740273 C 483.657776 42.497314 486.271545 37.834549 486.271545 32.978172 L 486.271545 4.678902 C 486.303802 2.145844 484.254761 0.096809 481.72168 0.096809 Z"/>
    <path id="Trazado-copia-2" fill="#ffffff" stroke="none" d="M 523.299377 31.316357 C 522.992798 31.02594 523.170288 30.493515 523.605896 30.461246 C 532.108582 29.928822 534.641602 23.55584 535.077271 18.134769 C 535.077271 18.118637 535.077271 18.102501 535.077271 18.086365 C 535.351563 14.246445 533.851074 10.164513 531.075989 7.179688 C 528.914001 4.856377 524.961121 2.097435 518.34613 2.097435 C 513.441406 2.097435 507.923523 2.178108 503.228485 2.323318 C 495.516357 2.565331 494.967804 2.758942 494.241791 3.033218 C 492.402496 3.694725 491.1763 5.437202 491.1763 7.389435 L 491.1763 44.562477 C 491.1763 47.208481 493.386658 49.338181 496.048798 49.209106 C 498.549591 49.096169 500.485687 46.934196 500.485687 44.433411 L 500.485687 11.745651 C 504.567627 11.584312 511.32782 11.406837 518.34613 11.406837 C 520.9599 11.406837 522.944397 12.116737 524.251282 13.520409 C 525.57428 14.940208 525.832397 16.618164 525.783997 17.408733 C 525.671082 18.844673 525.283813 23.087948 517.668518 23.087948 L 513.683411 23.087948 C 511.634369 23.087948 509.73053 24.249603 508.907684 26.121166 C 508.036469 28.105663 508.504333 30.396709 510.08548 31.864918 L 527.607178 48.289459 C 528.510681 49.128441 529.656189 49.547928 530.785583 49.547928 C 532.027893 49.547928 533.270203 49.047768 534.18988 48.07972 C 535.948486 46.20816 535.851685 43.255615 533.980164 41.496994 L 523.299377 31.316357 Z"/>
    <path id="Trazado-copia" fill="#ffffff" stroke="none" d="M 578.639465 2.178108 C 576.106323 2.178108 574.057312 4.227142 574.057312 6.760208 L 574.057312 32.849098 L 547.839355 3.694725 C 546.564758 2.274918 544.564148 1.790894 542.789368 2.484665 C 541.014587 3.162292 539.852966 4.872513 539.852966 6.760208 L 539.852966 44.820625 C 539.852966 47.353683 541.901978 49.402718 544.435059 49.402718 C 546.96814 49.402718 549.017151 47.353683 549.017151 44.820625 L 549.017151 18.731731 L 575.235107 47.886108 C 576.122498 48.870293 577.364807 49.402718 578.639465 49.402718 C 579.187988 49.402718 579.752686 49.305916 580.285095 49.096169 C 582.059875 48.418541 583.221497 46.708321 583.221497 44.820625 L 583.221497 6.760208 C 583.221497 4.227142 581.172485 2.178108 578.639465 2.178108 Z"/>
</svg>
