<?xml version="1.0" encoding="UTF-8"?>
<!-- Generated by Pixelmator Pro 3.7.1 -->
<svg width="440" height="108" viewBox="0 0 440 108" xmlns="http://www.w3.org/2000/svg">
    <path id="Trazado" fill="#ffffff" stroke="none" d="M 21.6745 73.079903 C 20.097799 71.301903 18.823099 69.524002 17.8167 67.5783 C 17.648899 67.276398 17.481199 67.343498 17.246401 67.4105 C 14.9988 67.980797 12.7512 68.484001 10.4365 68.618202 C 8.18887 68.752403 5.97482 68.651802 3.89494 67.5783 C 1.47961 66.303497 0.271941 64.257202 0.037116 61.573502 C -0.231254 58.3866 0.976413 55.7029 2.98919 53.321098 C 5.13616 50.771599 7.78632 48.758801 10.6378 47.047901 C 12.617 45.840302 14.6969 44.800301 16.7096 43.659698 C 17.1793 43.391403 17.6154 43.055901 17.883801 42.888199 C 18.722401 43.626205 19.661699 44.3978 20.533899 45.236401 C 22.8822 47.517601 25.1633 49.865799 27.478001 52.1805 C 28.383801 53.0863 29.256001 53.992001 30.128201 54.8978 C 30.799101 55.6022 30.799101 55.568699 31.872601 55.031898 C 27.3438 50.670898 22.8486 46.376999 18.286301 41.982399 C 18.722401 41.311501 19.192101 40.539902 19.7288 39.734802 C 20.6346 40.674103 21.5068 41.579895 22.379 42.485596 C 26.1362 46.343399 29.8598 50.167702 33.617001 53.992001 C 33.851799 54.226799 34.053101 54.327499 34.355 54.159698 C 34.7911 53.9585 35.2272 53.790699 35.864601 53.555901 C 30.631399 48.725201 25.4652 43.928101 20.232 39.130997 C 20.802299 38.460098 21.339001 37.822701 21.775101 37.319504 C 22.680901 38.158096 23.586599 38.929703 24.458799 39.768402 C 28.584999 43.861 32.744801 47.920101 36.837399 52.046299 C 37.5084 52.750801 38.045101 52.851398 38.8167 52.381802 C 39.017899 52.281101 39.2528 52.2141 39.554699 52.079899 C 39.118599 51.643799 38.716 51.274799 38.313499 50.905701 C 35.931702 48.859402 33.5499 46.813099 31.1681 44.7332 C 28.618601 42.452103 26.1026 40.170898 23.553101 37.889801 C 23.351801 37.722 23.150499 37.520798 23.0163 37.319504 C 22.6138 36.749199 22.680901 36.447296 23.184099 35.9776 C 23.620199 35.575104 24.056299 35.2061 24.5259 34.803497 C 24.593 34.870605 24.660101 34.870605 24.7272 34.937698 C 29.625 40.003204 34.556301 45.068699 39.487598 50.167702 C 39.890202 50.570301 40.259201 50.939301 40.695301 51.3083 C 40.795898 51.408901 40.9972 51.509602 41.097801 51.442501 C 41.802299 51.174099 42.540298 50.905701 43.311901 50.570301 C 37.374199 44.967999 31.033899 39.936096 25.297501 34.132599 C 25.9349 33.696503 26.5387 33.2939 27.1761 32.857803 C 28.5515 34.2668 29.8598 35.642197 31.2017 36.984001 C 35.462002 41.311501 39.722401 45.639 43.9828 49.932899 C 44.083401 50.033501 44.351799 50.134201 44.486 50.067101 C 45.223999 49.798698 45.962002 49.496799 46.7001 49.228401 C 40.5275 43.592697 34.388599 37.956902 28.182501 32.253998 C 28.954 31.885002 29.658501 31.515999 30.3965 31.180496 C 30.4972 31.147003 30.732 31.281204 30.866199 31.415298 C 32.6441 33.260399 34.388599 35.1054 36.132999 36.916901 C 39.823101 40.774796 43.5802 44.632599 47.303902 48.490398 C 47.5723 48.792301 47.807098 48.859402 48.176102 48.6917 C 48.914101 48.356201 49.685699 48.087898 50.557899 47.752399 C 44.351799 42.015999 38.179298 36.313095 31.906099 30.543098 C 32.6106 30.308304 33.248001 30.073502 33.885399 29.939301 C 34.019501 29.9058 34.254398 30.073502 34.388599 30.207703 C 37.5755 33.3946 40.728802 36.615005 43.915699 39.801895 C 46.331001 42.250801 48.7799 44.6661 51.195301 47.081501 C 51.430099 47.316299 51.597801 47.3498 51.8997 47.215698 C 52.537102 46.9473 53.208 46.712502 54.013199 46.4105 C 47.874199 40.707703 41.8358 35.1054 35.6633 29.369003 C 36.569099 29.234802 37.374199 29.100601 38.179298 29 C 38.313499 29 38.447701 29.201302 38.581799 29.335503 C 42.842201 33.662903 47.1362 37.990402 51.3965 42.317902 C 52.503601 43.424896 53.577 44.565498 54.684101 45.739601 C 54.9189 45.9744 55.120201 46.0415 55.4221 45.907299 C 55.992401 45.672501 56.596199 45.471199 57.300701 45.236401 C 51.664902 39.869003 46.062698 34.468102 40.426899 29.033501 C 41.299099 29.033501 42.104198 29.033501 42.942902 29.033501 C 43.077 29.033501 43.211201 29.167702 43.345402 29.268402 C 48.0755 34.065498 52.839001 38.795502 57.468399 43.659698 C 58.340599 44.565498 59.045101 44.934502 60.1521 44.3307 C 60.453999 44.162899 60.823101 44.095798 61.192101 43.995201 C 56.160099 39.130997 51.161701 34.300301 46.196899 29.469604 C 47.5387 29.737999 48.847 29.8722 49.920502 30.979202 C 53.946098 35.139 58.105801 39.198105 62.198502 43.324295 C 62.466801 43.592697 62.668098 43.592697 63.003601 43.525604 C 66.022697 42.686905 69.041901 41.915298 72.195297 41.747604 C 73.805496 41.647003 75.415703 41.781204 76.958801 42.250801 C 80.179298 43.223602 82.0914 45.672501 82.359802 49.1278 C 82.628197 52.6502 81.387001 55.635799 79.072304 58.252399 C 77.227203 60.298698 75.0467 61.942501 72.664902 63.250801 C 70.081802 64.693298 67.398102 65.968002 64.748001 67.309898 C 64.6138 67.376999 64.345398 67.343498 64.211197 67.209297 C 62.3326 65.297096 60.453999 63.384998 58.609001 61.405701 C 56.562698 59.225201 54.583401 57.044701 52.604198 54.8307 C 52.302299 54.495201 52.067501 54.3946 51.664902 54.629398 C 51.295898 54.8307 50.859798 54.931301 50.356602 55.1661 C 54.9189 59.5942 59.3806 63.9888 63.909302 68.3834 C 63.573898 68.920097 63.2384 69.490402 62.8358 70.161301 C 62.198502 69.490402 61.661701 68.852997 61.0243 68.2827 C 56.864601 64.458504 53.073898 60.298698 49.2831 56.1054 C 49.014702 55.803501 48.7799 55.77 48.4109 55.904202 C 47.773499 56.172501 47.1362 56.440899 46.364601 56.709301 C 51.564301 61.606998 56.864601 66.269997 62.198502 70.966499 C 61.661701 71.637398 61.125 72.274803 60.487598 73.012802 C 58.743198 71.301903 57.032299 69.624603 55.388599 67.947304 C 52.067501 64.559097 48.746399 61.170898 45.458801 57.749199 C 45.089802 57.3466 44.754398 57.212502 44.284698 57.5144 C 44.0163 57.682098 43.714401 57.749199 43.345402 57.916901 C 48.847 63.2173 54.315102 68.484001 59.7831 73.784302 C 59.045101 74.455299 58.340599 75.092697 57.669701 75.696503 C 56.864601 74.924896 56.092999 74.253998 55.355 73.482399 C 50.826302 68.819504 46.331001 64.123001 41.8358 59.460098 C 41.097801 58.688499 41.064301 58.722 39.990799 59.292301 C 45.760799 64.861 51.4972 70.396202 57.267101 75.998398 C 56.562698 76.501602 55.8582 77.004799 55.019501 77.575104 C 54.449299 76.971199 53.946098 76.367401 53.375801 75.797096 C 48.243198 70.765198 43.1106 65.7668 38.0116 60.734798 C 37.609001 60.332298 37.273499 60.198101 36.770302 60.5 C 36.6026 60.600601 36.367802 60.667702 36.065899 60.801899 C 42.2719 66.504799 48.4109 72.140602 54.617001 77.809898 C 53.744801 78.279602 52.872601 78.715698 51.966801 79.151802 C 51.866199 79.218803 51.564301 79.051102 51.4636 78.916901 C 49.517899 76.971199 47.605801 75.025597 45.693699 73.079903 C 42.070702 69.490402 38.481201 65.867401 34.8582 62.278 C 33.986 61.439301 33.986 61.439301 32.811901 62.110199 C 38.850201 67.947304 44.855 73.750801 50.9604 79.621399 C 50.1889 79.889801 49.484402 80.158096 48.746399 80.359398 C 48.612202 80.392998 48.4109 80.225197 48.276699 80.091103 C 44.855 76.736397 41.3997 73.381798 37.978001 70.060699 C 35.696899 67.846603 33.382198 65.699699 31.1346 63.452099 C 30.6985 63.015999 30.2959 62.881802 29.759199 63.183701 C 29.658501 63.250801 29.557899 63.284302 29.323099 63.351398 C 35.428501 69.121399 41.466801 74.857803 47.6394 80.694901 C 46.465199 80.896202 45.391701 81.097397 44.318298 81.265198 C 44.184101 81.298698 44.0163 81.130997 43.882198 80.996803 C 40.628201 77.809898 37.4077 74.623001 34.153702 71.469597 C 32.140999 69.524002 30.094601 67.645401 28.0483 65.7332 C 27.712799 65.397797 27.377399 65.095802 27.0755 64.726799 C 26.7735 64.324303 26.438101 64.257202 25.968399 64.659698 C 31.6042 70.228401 37.240002 75.763603 42.976398 81.432899 C 42.2384 81.466499 41.634602 81.5 40.9972 81.5 C 40.326302 81.5 39.6553 81.432899 38.950901 81.399399 C 38.514801 81.365799 38.145699 81.198097 37.8438 80.862602 C 32.912498 75.964897 27.947701 71.100601 23.0163 66.236397 C 22.680901 65.901001 22.3454 65.531898 21.808701 66.035103 C 26.8071 71.201302 32.040298 76.132599 37.273499 81.097397 C 37.240002 81.164497 37.240002 81.231598 37.206402 81.265198 C 35.629799 80.829102 34.019501 80.460098 32.442902 79.956902 C 31.503599 79.654999 30.597799 79.185303 29.658501 78.816299 C 29.3902 78.715698 29.0882 78.648598 28.786301 78.682098 C 23.888599 79.520798 18.957199 80.158096 13.9924 80.325897 C 12.7847 80.359398 11.5771 80.359398 10.4029 80.292297 C 8.65852 80.158096 7.38376 78.648598 7.38376 76.837097 C 7.41731 75.126198 8.75916 73.6166 10.5036 73.515999 C 12.0802 73.448898 13.6905 73.482399 15.2671 73.415298 C 17.313499 73.482399 19.426901 73.281197 21.6745 73.079903 Z M 65.049896 50.033501 C 65.687302 50.737999 66.324699 51.408901 66.928497 52.1134 C 67.599403 52.918499 67.297501 53.891399 67.431702 54.931301 C 67.196899 54.696499 67.062698 54.595798 66.928497 54.4617 C 65.754402 53.287498 64.6138 52.079899 63.439701 50.905701 C 63.3055 50.771599 63.137798 50.603802 63.037102 50.637402 C 62.366199 50.805099 61.728802 51.039902 61.0243 51.274799 C 61.259201 51.476002 61.359798 51.576698 61.493999 51.710899 C 63.339001 53.287498 65.150497 54.8978 66.995598 56.4744 C 67.263901 56.709301 67.398102 56.944099 67.331001 57.313099 C 67.263901 57.682098 67.263901 58.017601 67.2304 58.487202 C 67.968399 58.084702 68.605797 57.715698 69.209602 57.3466 C 70.081802 56.809898 70.954002 56.273201 71.725601 55.6022 C 72.732002 54.763599 73.671303 53.824299 74.577103 52.851398 C 75.214401 52.146999 75.583397 51.3083 75.616997 50.301899 C 75.616997 48.993599 75.449303 48.758801 74.107399 48.624599 C 73.872597 48.591099 73.637802 48.557499 73.402901 48.557499 C 70.584999 48.624599 67.800697 49.295502 65.049896 50.033501 Z M 14.8646 52.448898 C 13.6569 53.287498 12.5834 53.992001 11.5435 54.763599 C 9.93328 55.971199 8.39015 57.279598 7.28312 59.023998 C 7.08185 59.359402 6.88057 59.694901 6.74638 60.0639 C 6.41092 61.036701 6.88057 61.774799 7.85341 61.8083 C 8.75916 61.8419 9.69846 61.875401 10.5707 61.741199 C 12.1473 61.539902 13.6905 61.204498 15.3007 60.902599 C 14.7304 58.118198 14.5962 55.367401 14.8646 52.448898 Z M 53.6441 53.9249 C 57.669701 57.5144 61.661701 61.036701 65.653702 64.592697 C 65.720802 64.424896 65.787903 64.290703 65.855003 64.156502 C 66.123398 63.6534 66.056297 63.284302 65.586601 62.881802 C 64.647301 62.043098 63.7416 61.137402 62.8358 60.265202 C 60.521099 58.017601 58.240002 55.77 55.925301 53.555901 C 55.7911 53.4217 55.556301 53.287498 55.4221 53.321098 C 54.818298 53.455299 54.281502 53.690102 53.6441 53.9249 Z M 66.760803 60.768398 C 67.1633 59.996799 67.029099 59.393002 66.3582 58.889801 C 65.821503 58.487202 65.385399 58.017601 64.915703 57.5144 C 63.2048 55.736401 61.5275 53.9249 59.8167 52.146999 C 59.682499 52.012798 59.447701 51.845001 59.313499 51.878601 C 58.676102 52.046299 58.0387 52.314701 57.367802 52.5495 C 60.521099 55.3339 63.6409 58.051102 66.760803 60.768398 Z M 16.5755 45.806702 C 16.5084 45.840302 16.4748 45.840302 16.4077 45.873798 C 16.4748 46.0751 16.5084 46.309898 16.608999 46.444099 C 17.514799 47.3834 18.4205 48.322701 19.3263 49.262001 C 21.6745 51.610199 24.056299 53.9249 26.404499 56.273201 C 26.6394 56.507999 26.8071 56.876999 27.041901 56.944099 C 27.3438 57.0112 27.6793 56.742802 27.981199 56.6422 C 28.014799 56.6422 28.014799 56.5751 28.1154 56.4744 C 24.2911 52.918499 20.4333 49.362598 16.5755 45.806702 Z M 15.5691 49.228401 C 15.2671 49.798698 15.7703 50 15.9716 50.234798 C 18.353399 52.884998 20.7687 55.501598 23.184099 58.118198 C 23.2512 58.2188 23.452499 58.2859 23.586599 58.252399 C 23.888599 58.185299 24.1905 58.051102 24.458799 57.9505 C 21.4732 55.031898 18.521099 52.146999 15.5691 49.228401 Z M 15.6026 54.964901 C 15.5691 54.998402 15.5355 55.031898 15.502 55.065498 C 15.5355 55.132599 15.5691 55.199699 15.6026 55.2332 C 16.8438 56.6422 18.118601 58.084702 19.3598 59.493599 C 19.426901 59.560699 19.594601 59.6278 19.7288 59.5942 C 19.9972 59.527199 20.299101 59.426498 20.601 59.325901 C 18.9237 57.816299 17.2799 56.373798 15.6026 54.964901 Z"/>
    <path id="path1" fill="#ffffff" stroke="none" d="M 53.6441 32.086304 C 59.581799 31.314804 65.351799 31.046402 71.155296 31.515999 C 71.725601 31.549599 72.295898 31.616699 72.866203 31.7509 C 74.711197 32.153397 75.851799 33.897797 75.516403 35.709305 C 75.180901 37.487305 73.503601 38.695 71.625 38.460098 C 68.303902 38.057602 64.982803 38.057602 61.661701 38.191803 C 61.5275 38.191803 61.426899 38.225296 61.259201 38.258896 C 61.8965 39.131104 62.500401 39.936203 63.104198 40.774796 C 59.716 38.191803 56.831001 35.071999 53.6441 32.086304 Z"/>
    <path id="Trazado-copia-6" fill="#ffffff" stroke="none" d="M 239.25119 30.208336 L 206.652771 30.208336 C 203.951828 30.208336 201.7435 32.399681 201.7435 35.11763 C 201.7435 37.818596 203.93483 40.026924 206.652771 40.026924 L 218.051193 40.026924 L 218.051193 75.190384 C 218.051193 77.891342 220.242523 80.099678 222.960464 80.099678 C 225.678421 80.099678 227.869781 77.908333 227.869781 75.190384 L 227.869781 40.026924 L 239.268158 40.026924 C 241.969147 40.026924 244.177475 37.835579 244.177475 35.11763 C 244.160477 32.416664 241.969147 30.208336 239.25119 30.208336 Z"/>
    <path id="Trazado-copia-5" fill="#ffffff" stroke="none" d="M 196.579376 37.682701 C 194.048294 32.501602 189.122009 28 183.737091 28 C 178.352158 28 173.425873 32.501602 170.89476 37.682701 C 166.478104 46.685902 162.299271 58.356091 158.120422 73.372757 C 157.389954 76.022751 158.935806 78.75769 161.568817 79.488144 C 162.010468 79.607048 162.469147 79.674995 162.910797 79.674995 C 165.085159 79.674995 167.089661 78.231087 167.701172 76.039742 C 168.6185 72.727242 169.552795 69.601601 170.470093 66.628845 L 197.021057 66.628845 C 197.938339 69.601601 198.855682 72.727242 199.789978 76.039742 C 200.520432 78.689743 203.272339 80.23558 205.90535 79.488144 C 208.555328 78.75769 210.101181 76.005768 209.35376 73.372757 C 205.157898 58.356091 200.97908 46.685902 196.579376 37.682701 Z M 173.714645 56.827244 C 175.736115 51.187504 177.757614 46.278206 179.830032 42.065392 C 180.713364 40.264748 182.140274 37.954491 183.737091 37.954491 C 185.350876 37.954491 186.777771 40.264748 187.661102 42.065392 C 189.733566 46.295193 191.755035 51.187504 193.776489 56.827244 L 173.714645 56.827244 L 173.714645 56.827244 Z"/>
    <path id="Trazado-copia-4" fill="#ffffff" stroke="none" d="M 157.55983 63.825962 C 156.914307 55.858974 150.476181 49.794556 142.747025 49.794556 C 142.577148 49.794556 142.424286 49.794556 142.25441 49.794556 L 137.786774 49.794556 C 137.752808 49.794556 137.718796 49.794556 137.701828 49.794556 L 126.847 49.794556 L 126.643166 49.794556 C 123.925217 49.896477 121.63195 47.722111 121.394142 44.81731 C 121.241234 42.558014 122.345398 40.298721 123.772346 39.975967 L 124.044121 39.908012 C 130.43132 38.090393 144.055023 38.566025 148.82843 40.298721 C 151.376511 41.216026 154.179398 39.891029 155.096695 37.342957 C 156.014023 34.794876 154.689011 31.991989 152.14093 31.074684 C 145.108215 28.543594 129.412079 28.237823 121.462074 30.463142 C 115.329727 31.924042 111.082932 38.379166 111.609512 45.547756 L 111.609512 45.598717 C 112.255035 53.565708 118.693161 59.630127 126.422325 59.630127 C 126.592194 59.630127 126.745102 59.630127 126.914978 59.630127 L 131.382614 59.630127 C 131.41658 59.630127 131.450546 59.630127 131.467545 59.630127 L 142.322342 59.630127 L 142.526184 59.630127 C 145.244125 59.528206 147.537399 61.702564 147.775238 64.607376 C 147.928101 66.866669 146.823944 69.125961 145.397034 69.448715 L 145.125229 69.516663 C 138.738022 71.334297 125.114319 70.858658 120.34095 69.125961 C 117.79287 68.208649 114.989983 69.533653 114.072655 72.081726 C 113.155365 74.629807 114.48037 77.432693 117.02845 78.349998 C 120.884529 79.74295 127.356621 80.456406 133.726807 80.456406 C 138.958862 80.456406 144.123001 79.963783 147.70726 78.96154 C 153.839661 77.500641 158.086456 71.045517 157.55983 63.876923 L 157.55983 63.825962 Z"/>
    <path id="Trazado-copia-3" fill="#ffffff" stroke="none" d="M 290.00885 28.101929 C 287.341858 28.101929 285.184509 30.2593 285.184509 32.926285 L 285.184509 62.721794 C 285.184509 67.325317 278.627441 71.368271 271.136108 71.368271 C 263.661774 71.368271 257.087738 67.325317 257.087738 62.721794 L 257.087738 32.926285 C 257.087738 30.2593 254.930328 28.101929 252.263351 28.101929 C 249.596375 28.101929 247.439011 30.2593 247.439011 32.926285 L 247.439011 62.721794 C 247.439011 67.834938 250.190918 72.744232 254.981293 76.158653 C 259.346985 79.284294 265.088654 81 271.11911 81 C 277.149567 81 282.874237 79.284294 287.256927 76.158653 C 292.047302 72.744232 294.799255 67.834938 294.799255 62.721794 L 294.799255 32.926285 C 294.833221 30.2593 292.675873 28.101929 290.00885 28.101929 Z"/>
    <path id="Trazado-copia-2" fill="#ffffff" stroke="none" d="M 333.784851 60.972118 C 333.462067 60.666344 333.648926 60.10577 334.107574 60.071793 C 343.059814 59.511219 345.726807 52.801285 346.185486 47.093594 C 346.185486 47.076607 346.185486 47.059616 346.185486 47.042629 C 346.474243 42.99968 344.89444 38.701927 341.972656 35.559296 C 339.69635 33.113144 335.534485 30.208336 328.569733 30.208336 C 323.40567 30.208336 317.596039 30.293274 312.652771 30.446159 C 304.532898 30.700966 303.955353 30.904808 303.190918 31.193596 C 301.254395 31.890068 299.963348 33.724686 299.963348 35.780128 L 299.963348 74.918587 C 299.963348 77.704491 302.290588 79.946793 305.093475 79.810898 C 307.726471 79.691986 309.764954 77.415703 309.764954 74.782692 L 309.764954 40.366669 C 314.062714 40.1968 321.180328 40.009941 328.569733 40.009941 C 331.321686 40.009941 333.411102 40.75737 334.787079 42.23526 C 336.180023 43.730133 336.451813 45.496799 336.400848 46.32917 C 336.281952 47.84103 335.874237 52.308655 327.856293 52.308655 L 323.660461 52.308655 C 321.503113 52.308655 319.498596 53.531731 318.632233 55.502243 C 317.714966 57.591667 318.207581 60.003845 319.872314 61.549683 L 338.320404 78.842628 C 339.271667 79.72596 340.477783 80.167633 341.66687 80.167633 C 342.974884 80.167633 344.282898 79.641022 345.25119 78.621796 C 347.102783 76.651283 347.000824 73.542633 345.030334 71.691025 L 333.784851 60.972118 Z"/>
    <path id="Trazado-copia" fill="#ffffff" stroke="none" d="M 392.050873 30.293274 C 389.38385 30.293274 387.226471 32.450645 387.226471 35.11763 L 387.226471 62.585899 L 359.622314 31.890068 C 358.280334 30.395195 356.17392 29.885582 354.305328 30.616028 C 352.436737 31.329491 351.213654 33.130135 351.213654 35.11763 L 351.213654 75.190384 C 351.213654 77.857376 353.371033 80.01474 356.038055 80.01474 C 358.705017 80.01474 360.862396 77.857376 360.862396 75.190384 L 360.862396 47.722115 L 388.466553 78.417946 C 389.400848 79.454163 390.708862 80.01474 392.050873 80.01474 C 392.628418 80.01474 393.222961 79.912819 393.783539 79.691986 C 395.65213 78.978531 396.875214 77.177887 396.875214 75.190384 L 396.875214 35.11763 C 396.875214 32.450645 394.717834 30.293274 392.050873 30.293274 Z"/>
</svg>
