<?xml version="1.0" encoding="UTF-8"?>
<!-- Generated by Pixelmator Pro 3.7.1 -->
<svg width="397" height="54" viewBox="0 0 397 54" xmlns="http://www.w3.org/2000/svg">
    <path id="Trazado" fill="#ffffff" stroke="none" d="M 21.6745 45.079903 C 20.097799 43.301903 18.823099 41.524002 17.8167 39.5783 C 17.648899 39.276398 17.481199 39.343498 17.246401 39.4105 C 14.9988 39.980797 12.7512 40.484001 10.4365 40.618202 C 8.18887 40.752403 5.97482 40.651802 3.89494 39.5783 C 1.47961 38.303497 0.271941 36.257202 0.037116 33.573502 C -0.231254 30.3866 0.976413 27.7029 2.98919 25.321098 C 5.13616 22.771599 7.78632 20.758801 10.6378 19.047901 C 12.617 17.840302 14.6969 16.800301 16.7096 15.659698 C 17.1793 15.391403 17.6154 15.055901 17.883801 14.888199 C 18.722401 15.626205 19.661699 16.3978 20.533899 17.236401 C 22.8822 19.517601 25.1633 21.865799 27.478001 24.1805 C 28.383801 25.0863 29.256001 25.992001 30.128201 26.8978 C 30.799101 27.6022 30.799101 27.568699 31.872601 27.031898 C 27.3438 22.670898 22.8486 18.376999 18.286301 13.982399 C 18.722401 13.311501 19.192101 12.539902 19.7288 11.734802 C 20.6346 12.674103 21.5068 13.579895 22.379 14.485596 C 26.1362 18.343399 29.8598 22.167702 33.617001 25.992001 C 33.851799 26.226799 34.053101 26.327499 34.355 26.159698 C 34.7911 25.9585 35.2272 25.790699 35.864601 25.555901 C 30.631399 20.725201 25.4652 15.928101 20.232 11.130997 C 20.802299 10.460098 21.339001 9.822701 21.775101 9.319504 C 22.680901 10.158096 23.586599 10.929703 24.458799 11.768402 C 28.584999 15.861 32.744801 19.920101 36.837399 24.046299 C 37.5084 24.750801 38.045101 24.851398 38.8167 24.381802 C 39.017899 24.281101 39.2528 24.2141 39.554699 24.079899 C 39.118599 23.643799 38.716 23.274799 38.313499 22.905701 C 35.931702 20.859402 33.5499 18.813099 31.1681 16.7332 C 28.618601 14.452103 26.1026 12.170898 23.553101 9.889801 C 23.351801 9.722 23.150499 9.520798 23.0163 9.319504 C 22.6138 8.749199 22.680901 8.447296 23.184099 7.9776 C 23.620199 7.575104 24.056299 7.2061 24.5259 6.803497 C 24.593 6.870605 24.660101 6.870605 24.7272 6.937698 C 29.625 12.003204 34.556301 17.068699 39.487598 22.167702 C 39.890202 22.570301 40.259201 22.939301 40.695301 23.3083 C 40.795898 23.408901 40.9972 23.509602 41.097801 23.442501 C 41.802299 23.174099 42.540298 22.905701 43.311901 22.570301 C 37.374199 16.967999 31.033899 11.936096 25.297501 6.132599 C 25.9349 5.696503 26.5387 5.2939 27.1761 4.857803 C 28.5515 6.2668 29.8598 7.642197 31.2017 8.984001 C 35.462002 13.311501 39.722401 17.639 43.9828 21.932899 C 44.083401 22.033501 44.351799 22.134201 44.486 22.067101 C 45.223999 21.798698 45.962002 21.496799 46.7001 21.228401 C 40.5275 15.592697 34.388599 9.956902 28.182501 4.253998 C 28.954 3.885002 29.658501 3.515999 30.3965 3.180496 C 30.4972 3.147003 30.732 3.281204 30.866199 3.415298 C 32.6441 5.260399 34.388599 7.1054 36.132999 8.916901 C 39.823101 12.774796 43.5802 16.632599 47.303902 20.490398 C 47.5723 20.792301 47.807098 20.859402 48.176102 20.6917 C 48.914101 20.356201 49.685699 20.087898 50.557899 19.752399 C 44.351799 14.015999 38.179298 8.313095 31.906099 2.543098 C 32.6106 2.308304 33.248001 2.073502 33.885399 1.939301 C 34.019501 1.9058 34.254398 2.073502 34.388599 2.207703 C 37.5755 5.3946 40.728802 8.615005 43.915699 11.801895 C 46.331001 14.250801 48.7799 16.6661 51.195301 19.081501 C 51.430099 19.316299 51.597801 19.3498 51.8997 19.215698 C 52.537102 18.9473 53.208 18.712502 54.013199 18.4105 C 47.874199 12.707703 41.8358 7.1054 35.6633 1.369003 C 36.569099 1.234802 37.374199 1.100601 38.179298 1 C 38.313499 1 38.447701 1.201302 38.581799 1.335503 C 42.842201 5.662903 47.1362 9.990402 51.3965 14.317902 C 52.503601 15.424896 53.577 16.565498 54.684101 17.739601 C 54.9189 17.9744 55.120201 18.0415 55.4221 17.907299 C 55.992401 17.672501 56.596199 17.471199 57.300701 17.236401 C 51.664902 11.869003 46.062698 6.468102 40.426899 1.033501 C 41.299099 1.033501 42.104198 1.033501 42.942902 1.033501 C 43.077 1.033501 43.211201 1.167702 43.345402 1.268402 C 48.0755 6.065498 52.839001 10.795502 57.468399 15.659698 C 58.340599 16.565498 59.045101 16.934502 60.1521 16.3307 C 60.453999 16.162899 60.823101 16.095798 61.192101 15.995201 C 56.160099 11.130997 51.161701 6.300301 46.196899 1.469604 C 47.5387 1.737999 48.847 1.8722 49.920502 2.979202 C 53.946098 7.139 58.105801 11.198105 62.198502 15.324295 C 62.466801 15.592697 62.668098 15.592697 63.003601 15.525604 C 66.022697 14.686905 69.041901 13.915298 72.195297 13.747604 C 73.805496 13.647003 75.415703 13.781204 76.958801 14.250801 C 80.179298 15.223602 82.0914 17.672501 82.359802 21.1278 C 82.628197 24.6502 81.387001 27.635799 79.072304 30.252399 C 77.227203 32.298698 75.0467 33.942501 72.664902 35.250801 C 70.081802 36.693298 67.398102 37.968002 64.748001 39.309898 C 64.6138 39.376999 64.345398 39.343498 64.211197 39.209297 C 62.3326 37.297096 60.453999 35.384998 58.609001 33.405701 C 56.562698 31.225201 54.583401 29.044701 52.604198 26.8307 C 52.302299 26.495201 52.067501 26.3946 51.664902 26.629398 C 51.295898 26.8307 50.859798 26.931301 50.356602 27.1661 C 54.9189 31.5942 59.3806 35.9888 63.909302 40.3834 C 63.573898 40.920097 63.2384 41.490402 62.8358 42.161301 C 62.198502 41.490402 61.661701 40.852997 61.0243 40.2827 C 56.864601 36.458504 53.073898 32.298698 49.2831 28.1054 C 49.014702 27.803501 48.7799 27.77 48.4109 27.904202 C 47.773499 28.172501 47.1362 28.440899 46.364601 28.709301 C 51.564301 33.606998 56.864601 38.269997 62.198502 42.966499 C 61.661701 43.637398 61.125 44.274803 60.487598 45.012802 C 58.743198 43.301903 57.032299 41.624603 55.388599 39.947304 C 52.067501 36.559097 48.746399 33.170898 45.458801 29.749199 C 45.089802 29.3466 44.754398 29.212502 44.284698 29.5144 C 44.0163 29.682098 43.714401 29.749199 43.345402 29.916901 C 48.847 35.2173 54.315102 40.484001 59.7831 45.784302 C 59.045101 46.455299 58.340599 47.092697 57.669701 47.696503 C 56.864601 46.924896 56.092999 46.253998 55.355 45.482399 C 50.826302 40.819504 46.331001 36.123001 41.8358 31.460098 C 41.097801 30.688499 41.064301 30.722 39.990799 31.292301 C 45.760799 36.861 51.4972 42.396202 57.267101 47.998398 C 56.562698 48.501602 55.8582 49.004799 55.019501 49.575104 C 54.449299 48.971199 53.946098 48.367401 53.375801 47.797096 C 48.243198 42.765198 43.1106 37.7668 38.0116 32.734798 C 37.609001 32.332298 37.273499 32.198101 36.770302 32.5 C 36.6026 32.600601 36.367802 32.667702 36.065899 32.801899 C 42.2719 38.504799 48.4109 44.140602 54.617001 49.809898 C 53.744801 50.279602 52.872601 50.715698 51.966801 51.151802 C 51.866199 51.218803 51.564301 51.051102 51.4636 50.916901 C 49.517899 48.971199 47.605801 47.025597 45.693699 45.079903 C 42.070702 41.490402 38.481201 37.867401 34.8582 34.278 C 33.986 33.439301 33.986 33.439301 32.811901 34.110199 C 38.850201 39.947304 44.855 45.750801 50.9604 51.621399 C 50.1889 51.889801 49.484402 52.158096 48.746399 52.359398 C 48.612202 52.392998 48.4109 52.225197 48.276699 52.091103 C 44.855 48.736397 41.3997 45.381798 37.978001 42.060699 C 35.696899 39.846603 33.382198 37.699699 31.1346 35.452099 C 30.6985 35.015999 30.2959 34.881802 29.759199 35.183701 C 29.658501 35.250801 29.557899 35.284302 29.323099 35.351398 C 35.428501 41.121399 41.466801 46.857803 47.6394 52.694901 C 46.465199 52.896202 45.391701 53.097397 44.318298 53.265198 C 44.184101 53.298698 44.0163 53.130997 43.882198 52.996803 C 40.628201 49.809898 37.4077 46.623001 34.153702 43.469597 C 32.140999 41.524002 30.094601 39.645401 28.0483 37.7332 C 27.712799 37.397797 27.377399 37.095802 27.0755 36.726799 C 26.7735 36.324303 26.438101 36.257202 25.968399 36.659698 C 31.6042 42.228401 37.240002 47.763603 42.976398 53.432899 C 42.2384 53.466499 41.634602 53.5 40.9972 53.5 C 40.326302 53.5 39.6553 53.432899 38.950901 53.399399 C 38.514801 53.365799 38.145699 53.198097 37.8438 52.862602 C 32.912498 47.964897 27.947701 43.100601 23.0163 38.236397 C 22.680901 37.901001 22.3454 37.531898 21.808701 38.035103 C 26.8071 43.201302 32.040298 48.132599 37.273499 53.097397 C 37.240002 53.164497 37.240002 53.231598 37.206402 53.265198 C 35.629799 52.829102 34.019501 52.460098 32.442902 51.956902 C 31.503599 51.654999 30.597799 51.185303 29.658501 50.816299 C 29.3902 50.715698 29.0882 50.648598 28.786301 50.682098 C 23.888599 51.520798 18.957199 52.158096 13.9924 52.325897 C 12.7847 52.359398 11.5771 52.359398 10.4029 52.292297 C 8.65852 52.158096 7.38376 50.648598 7.38376 48.837097 C 7.41731 47.126198 8.75916 45.6166 10.5036 45.515999 C 12.0802 45.448898 13.6905 45.482399 15.2671 45.415298 C 17.313499 45.482399 19.426901 45.281197 21.6745 45.079903 Z M 65.049896 22.033501 C 65.687302 22.737999 66.324699 23.408901 66.928497 24.1134 C 67.599403 24.918499 67.297501 25.891399 67.431702 26.931301 C 67.196899 26.696499 67.062698 26.595798 66.928497 26.4617 C 65.754402 25.287498 64.6138 24.079899 63.439701 22.905701 C 63.3055 22.771599 63.137798 22.603802 63.037102 22.637402 C 62.366199 22.805099 61.728802 23.039902 61.0243 23.274799 C 61.259201 23.476002 61.359798 23.576698 61.493999 23.710899 C 63.339001 25.287498 65.150497 26.8978 66.995598 28.4744 C 67.263901 28.709301 67.398102 28.944099 67.331001 29.313099 C 67.263901 29.682098 67.263901 30.017601 67.2304 30.487202 C 67.968399 30.084702 68.605797 29.715698 69.209602 29.3466 C 70.081802 28.809898 70.954002 28.273201 71.725601 27.6022 C 72.732002 26.763599 73.671303 25.824299 74.577103 24.851398 C 75.214401 24.146999 75.583397 23.3083 75.616997 22.301899 C 75.616997 20.993599 75.449303 20.758801 74.107399 20.624599 C 73.872597 20.591099 73.637802 20.557499 73.402901 20.557499 C 70.584999 20.624599 67.800697 21.295502 65.049896 22.033501 Z M 14.8646 24.448898 C 13.6569 25.287498 12.5834 25.992001 11.5435 26.763599 C 9.93328 27.971199 8.39015 29.279598 7.28312 31.023998 C 7.08185 31.359402 6.88057 31.694901 6.74638 32.0639 C 6.41092 33.036701 6.88057 33.774799 7.85341 33.8083 C 8.75916 33.8419 9.69846 33.875401 10.5707 33.741199 C 12.1473 33.539902 13.6905 33.204498 15.3007 32.902599 C 14.7304 30.118198 14.5962 27.367401 14.8646 24.448898 Z M 53.6441 25.9249 C 57.669701 29.5144 61.661701 33.036701 65.653702 36.592697 C 65.720802 36.424896 65.787903 36.290703 65.855003 36.156502 C 66.123398 35.6534 66.056297 35.284302 65.586601 34.881802 C 64.647301 34.043098 63.7416 33.137402 62.8358 32.265202 C 60.521099 30.017601 58.240002 27.77 55.925301 25.555901 C 55.7911 25.4217 55.556301 25.287498 55.4221 25.321098 C 54.818298 25.455299 54.281502 25.690102 53.6441 25.9249 Z M 66.760803 32.768398 C 67.1633 31.996799 67.029099 31.393002 66.3582 30.889801 C 65.821503 30.487202 65.385399 30.017601 64.915703 29.5144 C 63.2048 27.736401 61.5275 25.9249 59.8167 24.146999 C 59.682499 24.012798 59.447701 23.845001 59.313499 23.878601 C 58.676102 24.046299 58.0387 24.314701 57.367802 24.5495 C 60.521099 27.3339 63.6409 30.051102 66.760803 32.768398 Z M 16.5755 17.806702 C 16.5084 17.840302 16.4748 17.840302 16.4077 17.873798 C 16.4748 18.0751 16.5084 18.309898 16.608999 18.444099 C 17.514799 19.3834 18.4205 20.322701 19.3263 21.262001 C 21.6745 23.610199 24.056299 25.9249 26.404499 28.273201 C 26.6394 28.507999 26.8071 28.876999 27.041901 28.944099 C 27.3438 29.0112 27.6793 28.742802 27.981199 28.6422 C 28.014799 28.6422 28.014799 28.5751 28.1154 28.4744 C 24.2911 24.918499 20.4333 21.362598 16.5755 17.806702 Z M 15.5691 21.228401 C 15.2671 21.798698 15.7703 22 15.9716 22.234798 C 18.353399 24.884998 20.7687 27.501598 23.184099 30.118198 C 23.2512 30.2188 23.452499 30.2859 23.586599 30.252399 C 23.888599 30.185299 24.1905 30.051102 24.458799 29.9505 C 21.4732 27.031898 18.521099 24.146999 15.5691 21.228401 Z M 15.6026 26.964901 C 15.5691 26.998402 15.5355 27.031898 15.502 27.065498 C 15.5355 27.132599 15.5691 27.199699 15.6026 27.2332 C 16.8438 28.6422 18.118601 30.084702 19.3598 31.493599 C 19.426901 31.560699 19.594601 31.6278 19.7288 31.5942 C 19.9972 31.527199 20.299101 31.426498 20.601 31.325901 C 18.9237 29.816299 17.2799 28.373798 15.6026 26.964901 Z"/>
    <path id="path1" fill="#ffffff" stroke="none" d="M 53.6441 4.086304 C 59.581799 3.314804 65.351799 3.046402 71.155296 3.515999 C 71.725601 3.549599 72.295898 3.616699 72.866203 3.7509 C 74.711197 4.153397 75.851799 5.897797 75.516403 7.709305 C 75.180901 9.487305 73.503601 10.695 71.625 10.460098 C 68.303902 10.057602 64.982803 10.057602 61.661701 10.191803 C 61.5275 10.191803 61.426899 10.225296 61.259201 10.258896 C 61.8965 11.131104 62.500401 11.936203 63.104198 12.774796 C 59.716 10.191803 56.831001 7.071999 53.6441 4.086304 Z"/>
    <path id="Trazado-copia-6" fill="#ffffff" stroke="none" d="M 239.25119 2.208336 L 206.652771 2.208336 C 203.951828 2.208336 201.7435 4.399681 201.7435 7.11763 C 201.7435 9.818596 203.93483 12.026924 206.652771 12.026924 L 218.051193 12.026924 L 218.051193 47.190384 C 218.051193 49.891342 220.242523 52.099678 222.960464 52.099678 C 225.678421 52.099678 227.869781 49.908333 227.869781 47.190384 L 227.869781 12.026924 L 239.268158 12.026924 C 241.969147 12.026924 244.177475 9.835579 244.177475 7.11763 C 244.160477 4.416664 241.969147 2.208336 239.25119 2.208336 Z"/>
    <path id="Trazado-copia-5" fill="#ffffff" stroke="none" d="M 196.579376 9.682701 C 194.048294 4.501602 189.122009 0 183.737091 0 C 178.352158 0 173.425873 4.501602 170.89476 9.682701 C 166.478104 18.685902 162.299271 30.356091 158.120422 45.372757 C 157.389954 48.022751 158.935806 50.75769 161.568817 51.488144 C 162.010468 51.607048 162.469147 51.674995 162.910797 51.674995 C 165.085159 51.674995 167.089661 50.231087 167.701172 48.039742 C 168.6185 44.727242 169.552795 41.601601 170.470093 38.628845 L 197.021057 38.628845 C 197.938339 41.601601 198.855682 44.727242 199.789978 48.039742 C 200.520432 50.689743 203.272339 52.23558 205.90535 51.488144 C 208.555328 50.75769 210.101181 48.005768 209.35376 45.372757 C 205.157898 30.356091 200.97908 18.685902 196.579376 9.682701 Z M 173.714645 28.827244 C 175.736115 23.187504 177.757614 18.278206 179.830032 14.065392 C 180.713364 12.264748 182.140274 9.954491 183.737091 9.954491 C 185.350876 9.954491 186.777771 12.264748 187.661102 14.065392 C 189.733566 18.295193 191.755035 23.187504 193.776489 28.827244 L 173.714645 28.827244 L 173.714645 28.827244 Z"/>
    <path id="Trazado-copia-4" fill="#ffffff" stroke="none" d="M 157.55983 35.825962 C 156.914307 27.858974 150.476181 21.794556 142.747025 21.794556 C 142.577148 21.794556 142.424286 21.794556 142.25441 21.794556 L 137.786774 21.794556 C 137.752808 21.794556 137.718796 21.794556 137.701828 21.794556 L 126.847 21.794556 L 126.643166 21.794556 C 123.925217 21.896477 121.63195 19.722111 121.394142 16.81731 C 121.241234 14.558014 122.345398 12.298721 123.772346 11.975967 L 124.044121 11.908012 C 130.43132 10.090393 144.055023 10.566025 148.82843 12.298721 C 151.376511 13.216026 154.179398 11.891029 155.096695 9.342957 C 156.014023 6.794876 154.689011 3.991989 152.14093 3.074684 C 145.108215 0.543594 129.412079 0.237823 121.462074 2.463142 C 115.329727 3.924042 111.082932 10.379166 111.609512 17.547756 L 111.609512 17.598717 C 112.255035 25.565708 118.693161 31.630127 126.422325 31.630127 C 126.592194 31.630127 126.745102 31.630127 126.914978 31.630127 L 131.382614 31.630127 C 131.41658 31.630127 131.450546 31.630127 131.467545 31.630127 L 142.322342 31.630127 L 142.526184 31.630127 C 145.244125 31.528206 147.537399 33.702564 147.775238 36.607376 C 147.928101 38.866669 146.823944 41.125961 145.397034 41.448715 L 145.125229 41.516663 C 138.738022 43.334297 125.114319 42.858658 120.34095 41.125961 C 117.79287 40.208649 114.989983 41.533653 114.072655 44.081726 C 113.155365 46.629807 114.48037 49.432693 117.02845 50.349998 C 120.884529 51.74295 127.356621 52.456406 133.726807 52.456406 C 138.958862 52.456406 144.123001 51.963783 147.70726 50.96154 C 153.839661 49.500641 158.086456 43.045517 157.55983 35.876923 L 157.55983 35.825962 Z"/>
    <path id="Trazado-copia-3" fill="#ffffff" stroke="none" d="M 290.00885 0.101929 C 287.341858 0.101929 285.184509 2.2593 285.184509 4.926285 L 285.184509 34.721794 C 285.184509 39.325317 278.627441 43.368271 271.136108 43.368271 C 263.661774 43.368271 257.087738 39.325317 257.087738 34.721794 L 257.087738 4.926285 C 257.087738 2.2593 254.930328 0.101929 252.263351 0.101929 C 249.596375 0.101929 247.439011 2.2593 247.439011 4.926285 L 247.439011 34.721794 C 247.439011 39.834938 250.190918 44.744232 254.981293 48.158653 C 259.346985 51.284294 265.088654 53 271.11911 53 C 277.149567 53 282.874237 51.284294 287.256927 48.158653 C 292.047302 44.744232 294.799255 39.834938 294.799255 34.721794 L 294.799255 4.926285 C 294.833221 2.2593 292.675873 0.101929 290.00885 0.101929 Z"/>
    <path id="Trazado-copia-2" fill="#ffffff" stroke="none" d="M 333.784851 32.972118 C 333.462067 32.666344 333.648926 32.10577 334.107574 32.071793 C 343.059814 31.511219 345.726807 24.801285 346.185486 19.093594 C 346.185486 19.076607 346.185486 19.059616 346.185486 19.042629 C 346.474243 14.99968 344.89444 10.701927 341.972656 7.559296 C 339.69635 5.113144 335.534485 2.208336 328.569733 2.208336 C 323.40567 2.208336 317.596039 2.293274 312.652771 2.446159 C 304.532898 2.700966 303.955353 2.904808 303.190918 3.193596 C 301.254395 3.890068 299.963348 5.724686 299.963348 7.780128 L 299.963348 46.918587 C 299.963348 49.704491 302.290588 51.946793 305.093475 51.810898 C 307.726471 51.691986 309.764954 49.415703 309.764954 46.782692 L 309.764954 12.366669 C 314.062714 12.1968 321.180328 12.009941 328.569733 12.009941 C 331.321686 12.009941 333.411102 12.75737 334.787079 14.23526 C 336.180023 15.730133 336.451813 17.496799 336.400848 18.32917 C 336.281952 19.84103 335.874237 24.308655 327.856293 24.308655 L 323.660461 24.308655 C 321.503113 24.308655 319.498596 25.531731 318.632233 27.502243 C 317.714966 29.591667 318.207581 32.003845 319.872314 33.549683 L 338.320404 50.842628 C 339.271667 51.72596 340.477783 52.167633 341.66687 52.167633 C 342.974884 52.167633 344.282898 51.641022 345.25119 50.621796 C 347.102783 48.651283 347.000824 45.542633 345.030334 43.691025 L 333.784851 32.972118 Z"/>
    <path id="Trazado-copia" fill="#ffffff" stroke="none" d="M 392.050873 2.293274 C 389.38385 2.293274 387.226471 4.450645 387.226471 7.11763 L 387.226471 34.585899 L 359.622314 3.890068 C 358.280334 2.395195 356.17392 1.885582 354.305328 2.616028 C 352.436737 3.329491 351.213654 5.130135 351.213654 7.11763 L 351.213654 47.190384 C 351.213654 49.857376 353.371033 52.01474 356.038055 52.01474 C 358.705017 52.01474 360.862396 49.857376 360.862396 47.190384 L 360.862396 19.722115 L 388.466553 50.417946 C 389.400848 51.454163 390.708862 52.01474 392.050873 52.01474 C 392.628418 52.01474 393.222961 51.912819 393.783539 51.691986 C 395.65213 50.978531 396.875214 49.177887 396.875214 47.190384 L 396.875214 7.11763 C 396.875214 4.450645 394.717834 2.293274 392.050873 2.293274 Z"/>
</svg>
