<?xml version="1.0" encoding="UTF-8"?>
<!-- Generated by Pixelmator Pro 3.5.11 -->
<svg width="398" height="141" viewBox="0 0 398 141" xmlns="http://www.w3.org/2000/svg">
    <g id="mainlogo">
        <path id="Trazado" fill="#ffffff" stroke="none" d="M 348.470398 114.310616 L 347.474091 114.310616 C 347.258972 114.310616 347.116699 114.27581 347.047028 114.20623 C 346.983795 114.13665 346.952301 113.994339 346.952301 113.779274 L 346.952301 108.000999 C 346.952301 107.779602 346.987 107.634125 347.056641 107.564537 C 347.126312 107.488632 347.265381 107.450684 347.474091 107.450684 L 348.470398 107.450684 L 348.470398 114.310616 Z M 350.833008 110.097885 L 350.833008 110.66716 C 350.833008 110.894875 350.810852 111.040359 350.766541 111.103615 C 350.722229 111.160545 350.595734 111.189026 350.387024 111.189026 L 348.849945 111.189026 L 348.849945 110.097885 L 350.833008 110.097885 Z M 351.212524 107.450684 L 351.212524 108.26667 C 351.212524 108.481735 351.177582 108.624046 351.108185 108.693626 C 351.038513 108.756882 350.893036 108.788513 350.671539 108.788513 L 348.849945 108.788513 L 348.849945 107.450684 L 351.212524 107.450684 Z"/>
        <path id="path1" fill="#ffffff" stroke="none" d="M 353.622101 114.310616 L 352.625763 114.310616 C 352.410889 114.310616 352.268372 114.27581 352.198975 114.20623 C 352.135742 114.13665 352.103973 113.991196 352.103973 113.769798 L 352.103973 107.991501 C 352.103973 107.770103 352.135742 107.624619 352.198975 107.555038 C 352.268372 107.485489 352.410889 107.450684 352.625763 107.450684 L 353.622101 107.450684 L 353.622101 114.310616 Z"/>
        <path id="path2" fill="#ffffff" stroke="none" d="M 360.185394 107.450684 L 360.185394 113.769798 C 360.185394 113.991196 360.150696 114.13665 360.081024 114.20623 C 360.017792 114.27581 359.878723 114.310616 359.663605 114.310616 L 358.316315 114.310616 C 357.942902 114.310616 357.696289 114.253685 357.576202 114.139832 C 357.462219 114.02597 357.361084 113.731842 357.272461 113.257431 C 357.09552 112.321259 356.839294 110.809494 356.504059 108.722107 C 356.478699 108.563965 356.440796 108.462761 356.390106 108.41848 C 356.345795 108.374207 356.266785 108.3489 356.152832 108.342575 L 354.985931 108.342575 L 354.985931 107.450684 L 357.0448 107.450684 C 357.203064 107.450684 357.32959 107.46965 357.424316 107.507607 C 357.519348 107.545563 357.595154 107.627792 357.652008 107.754303 C 357.71524 107.874489 357.756348 107.991501 357.775299 108.105354 C 357.800659 108.219215 357.826019 108.352051 357.851379 108.50386 C 357.882874 108.687302 357.927155 108.956116 357.984009 109.310349 C 358.091583 110.025131 358.259186 111.034035 358.487122 112.33709 C 358.57547 112.893707 358.635773 113.206833 358.667267 113.276413 C 358.70517 113.339661 358.768433 113.377617 358.857056 113.390266 L 358.857056 107.830208 C 358.857056 107.716354 358.888794 107.624619 358.952057 107.555038 C 359.01532 107.485489 359.097504 107.450684 359.198669 107.450684 L 360.185394 107.450684 Z M 354.985931 108.674652 L 355.972656 108.674652 C 356.073822 108.674652 356.156036 108.709457 356.219269 108.779037 C 356.282532 108.848618 356.314301 108.940323 356.314301 109.054184 L 356.314301 113.769798 C 356.314301 113.984863 356.285736 114.130325 356.228882 114.20623 C 356.171783 114.27581 356.058075 114.310616 355.887268 114.310616 L 354.985931 114.310616 L 354.985931 108.674652 Z"/>
        <path id="path3" fill="#ffffff" stroke="none" d="M 364.098145 108.352051 L 363.215759 108.352051 C 363.114624 108.352051 363.063904 108.37735 363.063904 108.427956 L 363.063904 114.310616 L 362.067566 114.310616 C 361.852722 114.310616 361.710175 114.27581 361.640808 114.20623 C 361.577545 114.13665 361.545776 113.991196 361.545776 113.769798 L 361.545776 107.991501 C 361.545776 107.770103 361.577545 107.624619 361.640808 107.555038 C 361.710175 107.485489 361.852722 107.450684 362.067566 107.450684 L 364.098145 107.450684 L 364.098145 108.352051 Z M 364.477661 107.450684 L 365.473999 107.450684 C 365.689117 107.450684 365.828156 107.485489 365.891418 107.555038 C 365.96109 107.624619 365.995789 107.770103 365.995789 107.991501 L 365.995789 113.7603 C 365.995789 113.981689 365.96109 114.130325 365.891418 114.20623 C 365.821747 114.27581 365.682709 114.310616 365.473999 114.310616 L 364.477661 114.310616 L 364.477661 111.132095 L 363.44342 111.132095 L 363.44342 110.230698 L 364.477661 110.230698 L 364.477661 107.450684 Z"/>
        <path id="path4" fill="#ffffff" stroke="none" d="M 370.325409 112.242203 L 371.653778 112.242203 C 371.723419 112.242203 371.758118 112.286484 371.758118 112.375038 L 371.758118 114.044945 C 371.758118 114.222061 371.669495 114.310616 371.492554 114.310616 L 369.196442 114.310616 L 369.196442 113.409241 L 370.078796 113.409241 C 370.179962 113.409241 370.230652 113.399742 370.230652 113.380768 C 370.236816 113.355469 370.23999 113.327011 370.23999 113.295387 L 370.23999 112.346558 C 370.23999 112.295959 370.246399 112.267502 370.258942 112.261185 C 370.271759 112.248528 370.293915 112.242203 370.325409 112.242203 Z M 368.86441 114.310616 L 367.868073 114.310616 C 367.652954 114.310616 367.510681 114.27581 367.44104 114.20623 C 367.377777 114.13665 367.346283 113.991196 367.346283 113.769798 L 367.346283 107.991501 C 367.346283 107.770103 367.377777 107.624619 367.44104 107.555038 C 367.510681 107.485489 367.652954 107.450684 367.868073 107.450684 L 368.86441 107.450684 L 368.86441 114.310616 Z"/>
        <path id="path5" fill="#ffffff" stroke="none" d="M 376.931152 108.352051 L 376.048798 108.352051 C 375.947632 108.352051 375.896912 108.37735 375.896912 108.427956 L 375.896912 114.310616 L 374.900848 114.310616 C 374.68573 114.310616 374.543488 114.278984 374.473816 114.215729 C 374.410553 114.146149 374.378784 114.003845 374.378784 113.788773 L 374.378784 107.991501 C 374.378784 107.770103 374.410553 107.624619 374.473816 107.555038 C 374.543488 107.485489 374.68573 107.450684 374.900848 107.450684 L 376.931152 107.450684 L 376.931152 108.352051 Z M 377.462555 111.331329 L 378.363861 111.331329 C 378.623291 111.331329 378.790894 111.391441 378.866699 111.511597 C 378.94278 111.625458 378.980652 111.808899 378.980652 112.061913 L 378.980652 113.466171 C 378.980652 113.883659 378.869904 114.139832 378.648651 114.234711 C 378.541077 114.285309 378.404968 114.310616 378.24054 114.310616 L 376.276459 114.310616 L 376.276459 113.418724 L 377.073669 113.418724 C 377.332825 113.418724 377.462555 113.327011 377.462555 113.14357 L 377.462555 111.331329 Z M 377.339233 107.450684 L 378.24054 107.450684 C 378.493561 107.450684 378.654785 107.507607 378.724457 107.621468 C 378.800507 107.735329 378.838409 107.921913 378.838409 108.181259 L 378.838409 110.003006 C 378.838409 110.369858 378.771942 110.635529 378.639038 110.799988 C 378.512512 110.964455 378.243774 111.046684 377.832733 111.046684 L 376.276459 111.046684 L 376.276459 110.145317 L 376.978668 110.145317 C 377.136932 110.145317 377.234894 110.107361 377.272797 110.031456 C 377.317078 109.955551 377.339233 109.838547 377.339233 109.680405 L 377.339233 107.450684 Z"/>
        <path id="path6" fill="#ffffff" stroke="none" d="M 381.706512 107.450684 L 381.706512 113.134071 C 381.706512 113.235283 381.719055 113.308037 381.744415 113.35231 C 381.775879 113.390266 381.848755 113.409241 381.962738 113.409241 L 382.987335 113.409241 L 382.987335 114.310616 L 381.592529 114.310616 C 381.130798 114.310616 380.779816 114.231537 380.539337 114.073425 C 380.305298 113.915283 380.188385 113.640114 380.188385 113.247932 L 380.188385 107.991501 C 380.188385 107.770103 380.219879 107.624619 380.283142 107.555038 C 380.352783 107.485489 380.495056 107.450684 380.710175 107.450684 L 381.706512 107.450684 Z M 383.271851 107.450684 L 384.268188 107.450684 C 384.483307 107.450684 384.622375 107.485489 384.685638 107.555038 C 384.75528 107.624619 384.789978 107.770103 384.789978 107.991501 L 384.789978 113.134071 C 384.789978 113.235283 384.802795 113.308037 384.828156 113.35231 C 384.85965 113.390266 384.932495 113.409241 385.046204 113.409241 L 385.21701 113.409241 L 385.21701 114.310616 L 384.67627 114.310616 C 384.214539 114.310616 383.863312 114.231537 383.623108 114.073425 C 383.389038 113.915283 383.271851 113.640114 383.271851 113.247932 L 383.271851 107.450684 Z"/>
        <path id="path7" fill="#ffffff" stroke="none" d="M 387.748016 114.310616 L 386.751678 114.310616 C 386.53656 114.310616 386.394318 114.27581 386.324646 114.20623 C 386.261383 114.13665 386.229889 113.991196 386.229889 113.769798 L 386.229889 107.830208 C 386.229889 107.716354 386.261383 107.624619 386.324646 107.555038 C 386.387909 107.485489 386.470123 107.450684 386.571533 107.450684 L 387.748016 107.450684 L 387.748016 114.310616 Z M 388.127533 107.450684 L 389.332611 107.450684 C 389.69931 107.450684 389.98703 107.479156 390.196014 107.536057 C 390.410858 107.592987 390.572327 107.706848 390.679901 107.87764 C 390.787201 108.042099 390.853668 108.228714 390.878998 108.437454 C 390.910767 108.639877 390.926514 108.927673 390.926514 109.300873 C 390.926514 109.67408 390.910767 109.958725 390.878998 110.154793 C 390.853668 110.350876 390.787201 110.534317 390.679901 110.705109 C 390.578491 110.8759 390.417267 110.996078 390.196014 111.065659 C 389.980896 111.135239 389.692902 111.170044 389.332611 111.170044 L 388.127533 111.170044 L 388.127533 110.268646 L 388.829498 110.268646 C 388.994171 110.268646 389.098511 110.246521 389.142822 110.20224 C 389.193268 110.157967 389.218628 110.088387 389.218628 109.9935 L 389.218628 108.636696 C 389.218628 108.535492 389.193268 108.462761 389.142822 108.41848 C 389.098511 108.374207 388.994171 108.352051 388.829498 108.352051 L 388.127533 108.352051 L 388.127533 107.450684 Z M 389.038208 111.464172 L 390.214966 111.464172 C 390.404724 111.464172 390.540588 111.517921 390.622772 111.625458 C 390.704987 111.726662 390.746094 111.894302 390.746094 112.128342 L 390.746094 114.310616 L 389.379852 114.310616 C 389.278687 114.310616 389.196472 114.27581 389.133209 114.20623 C 389.069977 114.13665 389.038208 114.044945 389.038208 113.931084 L 389.038208 111.464172 Z"/>
        <path id="path8" fill="#ffffff" stroke="none" d="M 397.313385 107.450684 L 397.313385 113.769798 C 397.313385 113.991196 397.278442 114.13665 397.209045 114.20623 C 397.145782 114.27581 397.00647 114.310616 396.791626 114.310616 L 395.444031 114.310616 C 395.070923 114.310616 394.82431 114.253685 394.704193 114.139832 C 394.59024 114.02597 394.489075 113.731842 394.400482 113.257431 C 394.223267 112.321259 393.967285 110.809494 393.631805 108.722107 C 393.60672 108.563965 393.568817 108.462761 393.518097 108.41848 C 393.473785 108.374207 393.394806 108.3489 393.280823 108.342575 L 392.113953 108.342575 L 392.113953 107.450684 L 394.172791 107.450684 C 394.330811 107.450684 394.457306 107.46965 394.552338 107.507607 C 394.647095 107.545563 394.723145 107.627792 394.779999 107.754303 C 394.843262 107.874489 394.884369 107.991501 394.90329 108.105354 C 394.92865 108.219215 394.95401 108.352051 394.97937 108.50386 C 395.010864 108.687302 395.055176 108.956116 395.11203 109.310349 C 395.219574 110.025131 395.387207 111.034035 395.614868 112.33709 C 395.703461 112.893707 395.763519 113.206833 395.795288 113.276413 C 395.833191 113.339661 395.896423 113.377617 395.985046 113.390266 L 395.985046 107.830208 C 395.985046 107.716354 396.016541 107.624619 396.079803 107.555038 C 396.143066 107.485489 396.22525 107.450684 396.32666 107.450684 L 397.313385 107.450684 Z M 392.113953 108.674652 L 393.100677 108.674652 C 393.201813 108.674652 393.284027 108.709457 393.34729 108.779037 C 393.410553 108.848618 393.442291 108.940323 393.442291 109.054184 L 393.442291 113.769798 C 393.442291 113.984863 393.413757 114.130325 393.356903 114.20623 C 393.299774 114.27581 393.186066 114.310616 393.015259 114.310616 L 392.113953 114.310616 L 392.113953 108.674652 Z"/>
        <path id="path9" fill="#ffffff" stroke="none" d="M 362.576019 117.406883 L 362.576019 136.394821 C 362.576019 137.059937 362.471375 137.497116 362.26239 137.70636 C 362.072113 137.915344 361.654144 138.019974 361.007721 138.019974 L 356.959381 138.019974 C 355.837891 138.019974 355.09671 137.848892 354.735596 137.506729 C 354.393433 137.164566 354.089417 136.280853 353.823334 134.855087 C 353.291138 132.042236 352.521149 127.499542 351.513855 121.227264 C 351.437805 120.752106 351.323822 120.447975 351.171692 120.314926 C 351.038788 120.181877 350.801239 120.105865 350.459076 120.086861 L 346.952301 120.086861 L 346.952301 117.406883 L 353.139008 117.406883 C 353.614075 117.406883 353.994415 117.46389 354.279449 117.577934 C 354.564514 117.691986 354.792725 117.939079 354.963531 118.319221 C 355.153809 118.680336 355.27713 119.031975 355.334259 119.374084 C 355.410309 119.716217 355.486389 120.115364 355.562439 120.571526 C 355.657471 121.122726 355.790375 121.930519 355.961456 122.994911 C 356.284668 125.1427 356.7883 128.174286 357.472626 132.089752 C 357.738739 133.762405 357.919159 134.703217 358.01416 134.912201 C 358.128418 135.102234 358.318451 135.216461 358.584534 135.254364 L 358.584534 118.547287 C 358.584534 118.20517 358.679565 117.929573 358.869598 117.72049 C 359.059631 117.511421 359.306763 117.406883 359.610779 117.406883 L 362.576019 117.406883 Z M 346.952301 121.084717 L 349.917267 121.084717 C 350.221527 121.084717 350.468414 121.189262 350.658447 121.398323 C 350.848755 121.607407 350.943756 121.883011 350.943756 122.225121 L 350.943756 136.394821 C 350.943756 137.040985 350.858093 137.478165 350.687012 137.70636 C 350.51593 137.915344 350.174011 138.019974 349.660767 138.019974 L 346.952301 138.019974 L 346.952301 121.084717 Z"/>
        <path id="path10" fill="#ffffff" stroke="none" d="M 371.225403 138.019974 L 368.231842 138.019974 C 367.585693 138.019974 367.157867 137.915344 366.948883 137.70636 C 366.75885 137.497116 366.663818 137.059937 366.663818 136.394821 L 366.663818 119.031975 C 366.663818 118.36673 366.75885 117.929573 366.948883 117.72049 C 367.157867 117.511421 367.585693 117.406883 368.231842 117.406883 L 371.225403 117.406883 L 371.225403 138.019974 Z M 380.035187 134.028503 L 380.035187 136.451675 C 380.035187 137.098099 379.930542 137.525681 379.721588 137.73465 C 379.512604 137.924957 379.075409 138.019974 378.410034 138.019974 L 372.365845 138.019974 L 372.365845 134.028503 L 380.035187 134.028503 Z M 378.324615 125.617859 L 378.324615 127.328491 C 378.324615 128.012741 378.257904 128.44989 378.125 128.639954 C 377.991821 128.811035 377.611755 128.896545 376.984528 128.896545 L 372.365845 128.896545 L 372.365845 125.617859 L 378.324615 125.617859 Z M 379.750122 117.406883 L 379.750122 119.830269 C 379.750122 120.476509 379.645508 120.90416 379.436523 121.11322 C 379.227295 121.303307 378.7901 121.398323 378.125 121.398323 L 372.365845 121.398323 L 372.365845 117.406883 L 379.750122 117.406883 Z"/>
        <path id="path11" fill="#ffffff" stroke="none" d="M 388.077911 117.406883 L 388.077911 134.484634 C 388.077911 134.769684 388.144379 134.978668 388.277557 135.111847 C 388.429688 135.244766 388.752625 135.311478 389.246918 135.311478 L 391.35675 135.311478 L 391.35675 138.019974 L 387.735748 138.019974 C 386.975616 138.019974 386.338806 137.96286 385.825562 137.848892 C 385.331512 137.73465 384.894348 137.506729 384.514282 137.164566 C 384.153168 136.803452 383.867859 136.404175 383.658875 135.967255 C 383.468842 135.530075 383.316711 134.874298 383.202728 133.999939 C 383.031647 132.6884 382.945984 130.930344 382.945984 128.725494 C 382.945984 126.501694 382.955597 124.933609 382.974548 124.021271 C 383.012695 123.108955 383.088776 122.225121 383.202728 121.36982 C 383.316711 120.495514 383.468842 119.849274 383.658875 119.431122 C 383.867859 118.993965 384.153168 118.604324 384.514282 118.262184 C 384.894348 117.90107 385.331512 117.672974 385.825562 117.577934 C 386.338806 117.46389 386.975616 117.406883 387.735748 117.406883 L 388.077911 117.406883 Z M 389.218353 117.435387 L 392.839111 117.435387 C 393.599518 117.435387 394.226715 117.492416 394.720734 117.606468 C 395.234009 117.72049 395.671173 117.958084 396.032288 118.319221 C 396.412628 118.661331 396.697662 119.05098 396.887695 119.488129 C 397.09668 119.925285 397.258423 120.581024 397.372375 121.45536 C 397.543457 122.766815 397.628876 124.534462 397.628876 126.758286 C 397.628876 128.963089 397.609924 130.521637 397.572021 131.433975 C 397.552795 132.346237 397.486359 133.239548 397.372375 134.113907 C 397.258423 134.969315 397.09668 135.615479 396.887695 136.052658 C 396.697662 136.470886 396.412628 136.860565 396.032288 137.22168 C 395.671173 137.563568 395.234009 137.791779 394.720734 137.905746 C 394.226715 138.000748 393.599518 138.048264 392.839111 138.048264 L 392.496948 138.048264 L 392.496948 120.970673 C 392.496948 120.68557 392.421143 120.476509 392.269012 120.34346 C 392.135834 120.210411 391.822235 120.143875 391.328186 120.143875 L 389.218353 120.143875 L 389.218353 117.435387 Z"/>
        <path id="path12" fill="#cf8a61" fill-rule="evenodd" stroke="none" d="M 321.110901 119.279251 C 321.110901 123.230347 321.110901 125.947693 321.110901 129.909485 C 322.444336 129.909485 323.751068 129.909485 325.078064 129.909485 C 325.078064 133.396225 325.078064 138.036514 325.078064 141.498993 C 317.8909 141.498993 310.723572 141.498993 303.533691 141.498993 C 303.533691 139.716919 303.533691 137.951645 303.533691 136.152756 C 305.272156 135.275726 307.022614 134.392822 308.798615 133.496841 C 308.798615 127.470322 308.798615 121.453758 308.798615 115.37661 C 312.925812 116.684837 317.001678 117.976685 321.110901 119.279251 Z"/>
        <path id="path13" fill="#cf8a61" fill-rule="evenodd" stroke="none" d="M 336.604095 118.445221 L 322.314087 118.441086 L 291.607117 108.709717 C 291.607117 108.709717 291.607117 105.581329 291.607117 104.003067 C 291.744385 103.996674 305.774475 104.002266 312.662415 104.002266 C 317.779999 104.002266 322.897797 104.002823 328.015289 104.002029 C 329.957001 104.001709 331.642181 104.692032 333.109314 105.929535 C 334.89621 107.436958 335.974762 109.38591 336.57019 111.622437 C 336.597687 111.72522 336.603577 111.83609 336.603577 111.94339 C 336.605713 114.0075 336.604095 118.445221 336.604095 118.445221 L 336.604095 118.445221 Z"/>
        <path id="path14" fill="#cf8a61" fill-rule="evenodd" stroke="none" d="M 322.304993 119.64386 C 327.077698 119.64386 331.832214 119.64386 336.604645 119.64386 C 336.604645 122.688805 336.604645 125.712875 336.604645 128.757568 C 331.83194 128.757568 327.077423 128.757568 322.304993 128.757568 C 322.304993 125.712631 322.304993 122.688568 322.304993 119.64386 L 322.304993 119.64386 Z"/>
    </g>
    <path id="ARCADE" fill="#ffffff" fill-rule="evenodd" stroke="none" d="M 315 42 L 363 42 L 363 50 L 331 50 L 331 66 L 347 66 L 347 74 L 331 74 L 331 90 L 363 90 L 363 98 L 315 98 Z M 259 42 L 291 42 L 291 50 L 299 50 L 299 58 L 307 58 L 307 82 L 299 82 L 299 90 L 291 90 L 291 98 L 259 98 Z M 275 50 L 275 90 L 283 90 L 283 82 L 291 82 L 291 58 L 283 58 L 283 50 Z M 219 42 L 235 42 L 235 50 L 243 50 L 243 58 L 251 58 L 251 98 L 235 98 L 235 74 L 219 74 L 219 98 L 203 98 L 203 58 L 211 58 L 211 50 L 219 50 Z M 219 58 L 219 66 L 235 66 L 235 58 Z M 155 42 L 187 42 L 187 50 L 195 50 L 195 58 L 179 58 L 179 50 L 163 50 L 163 90 L 179 90 L 179 82 L 195 82 L 195 90 L 187 90 L 187 98 L 155 98 L 155 90 L 147 90 L 147 50 L 155 50 Z M 91 42 L 131 42 L 131 50 L 139 50 L 139 66 L 131 66 L 131 74 L 123 74 L 123 82 L 131 82 L 131 90 L 139 90 L 139 98 L 123 98 L 123 90 L 115 90 L 115 82 L 107 82 L 107 98 L 91 98 Z M 107 50 L 107 66 L 123 66 L 123 50 Z M 51 42 L 67 42 L 67 50 L 75 50 L 75 58 L 83 58 L 83 98 L 67 98 L 67 74 L 51 74 L 51 98 L 35 98 L 35 58 L 43 58 L 43 50 L 51 50 Z M 51 58 L 51 66 L 67 66 L 67 58 Z"/>
</svg>
