<?xml version="1.0" encoding="UTF-8"?>
<!-- Generated by Pixelmator Pro 3.5.11 -->
<svg width="398" height="141" viewBox="0 0 398 141" xmlns="http://www.w3.org/2000/svg">
    <g id="syslogo">
        <path id="Trazado" fill="#ffffff" stroke="none" d="M 351.264954 115.760696 L 350.321747 115.760696 C 350.118103 115.760696 349.983429 115.727753 349.91748 115.66188 C 349.857605 115.596016 349.827789 115.461296 349.827789 115.257698 L 349.827789 109.787605 C 349.827789 109.578018 349.860626 109.440292 349.926575 109.37442 C 349.992523 109.302567 350.124176 109.26664 350.321747 109.26664 L 351.264954 109.26664 L 351.264954 115.760696 Z M 353.501526 111.772659 L 353.501526 112.311569 C 353.501526 112.527138 353.48056 112.664864 353.438599 112.724747 C 353.396667 112.778641 353.276917 112.805595 353.079315 112.805595 L 351.624237 112.805595 L 351.624237 111.772659 L 353.501526 111.772659 Z M 353.860809 109.26664 L 353.860809 110.039108 C 353.860809 110.242706 353.827728 110.377426 353.762024 110.443291 C 353.696075 110.503174 353.55838 110.533112 353.348663 110.533112 L 351.624237 110.533112 L 351.624237 109.26664 L 353.860809 109.26664 Z"/>
        <path id="path1" fill="#ffffff" stroke="none" d="M 356.141846 115.760696 L 355.198669 115.760696 C 354.99527 115.760696 354.860352 115.727753 354.794647 115.66188 C 354.734772 115.596016 354.704712 115.458313 354.704712 115.248734 L 354.704712 109.77861 C 354.704712 109.569031 354.734772 109.431297 354.794647 109.365433 C 354.860352 109.299591 354.99527 109.26664 355.198669 109.26664 L 356.141846 109.26664 L 356.141846 115.760696 Z"/>
        <path id="path2" fill="#ffffff" stroke="none" d="M 362.355103 109.26664 L 362.355103 115.248734 C 362.355103 115.458313 362.322266 115.596016 362.256317 115.66188 C 362.196442 115.727753 362.064789 115.760696 361.861145 115.760696 L 360.585693 115.760696 C 360.232239 115.760696 359.998779 115.70681 359.885071 115.599022 C 359.777191 115.491234 359.681427 115.212799 359.597534 114.763687 C 359.430023 113.877449 359.187469 112.446304 358.870117 110.470253 C 358.84613 110.320549 358.810242 110.224739 358.762238 110.182823 C 358.720306 110.140907 358.645508 110.116951 358.537628 110.110962 L 357.432983 110.110962 L 357.432983 109.26664 L 359.382019 109.26664 C 359.53186 109.26664 359.651611 109.284599 359.741302 109.320526 C 359.831238 109.356461 359.903015 109.434303 359.956818 109.55407 C 360.016724 109.667847 360.055603 109.77861 360.073547 109.886398 C 360.097565 109.994186 360.121552 110.119934 360.145569 110.263649 C 360.175385 110.437302 360.217316 110.691788 360.271149 111.027122 C 360.372955 111.703781 360.531647 112.658875 360.747406 113.892426 C 360.831055 114.419357 360.888153 114.71579 360.917969 114.781654 C 360.953827 114.841537 361.013733 114.877464 361.097595 114.889442 L 361.097595 109.625923 C 361.097595 109.518143 361.127686 109.431297 361.187561 109.365433 C 361.247437 109.299591 361.325256 109.26664 361.421021 109.26664 L 362.355103 109.26664 Z M 357.432983 110.425331 L 358.367065 110.425331 C 358.46283 110.425331 358.540649 110.458275 358.600525 110.524147 C 358.6604 110.590012 358.690491 110.676834 358.690491 110.784615 L 358.690491 115.248734 C 358.690491 115.452324 358.663452 115.590027 358.609619 115.66188 C 358.555542 115.727753 358.447906 115.760696 358.286224 115.760696 L 357.432983 115.760696 L 357.432983 110.425331 Z"/>
        <path id="path3" fill="#ffffff" stroke="none" d="M 366.059174 110.119934 L 365.223846 110.119934 C 365.128113 110.119934 365.080078 110.14389 365.080078 110.191788 L 365.080078 115.760696 L 364.136902 115.760696 C 363.933502 115.760696 363.798584 115.727753 363.73288 115.66188 C 363.673004 115.596016 363.642944 115.458313 363.642944 115.248734 L 363.642944 109.77861 C 363.642944 109.569031 363.673004 109.431297 363.73288 109.365433 C 363.798584 109.299591 363.933502 109.26664 364.136902 109.26664 L 366.059174 109.26664 L 366.059174 110.119934 Z M 366.418457 109.26664 L 367.361633 109.26664 C 367.565277 109.26664 367.69693 109.299591 367.756805 109.365433 C 367.822754 109.431297 367.855591 109.569031 367.855591 109.77861 L 367.855591 115.239731 C 367.855591 115.449318 367.822754 115.590027 367.756805 115.66188 C 367.690857 115.727753 367.559235 115.760696 367.361633 115.760696 L 366.418457 115.760696 L 366.418457 112.751701 L 365.439392 112.751701 L 365.439392 111.898384 L 366.418457 111.898384 L 366.418457 109.26664 Z"/>
        <path id="path4" fill="#ffffff" stroke="none" d="M 371.954315 113.802612 L 373.211823 113.802612 C 373.277771 113.802612 373.310608 113.844528 373.310608 113.92836 L 373.310608 115.509201 C 373.310608 115.676865 373.226715 115.760696 373.059204 115.760696 L 370.885529 115.760696 L 370.885529 114.90741 L 371.720856 114.90741 C 371.81662 114.90741 371.864624 114.898407 371.864624 114.880447 C 371.870422 114.856491 371.873474 114.829559 371.873474 114.799622 L 371.873474 113.901398 C 371.873474 113.853493 371.879517 113.826561 371.891388 113.820572 C 371.903534 113.808594 371.9245 113.802612 371.954315 113.802612 Z M 370.571228 115.760696 L 369.628052 115.760696 C 369.424377 115.760696 369.289703 115.727753 369.223785 115.66188 C 369.163879 115.596016 369.134064 115.458313 369.134064 115.248734 L 369.134064 109.77861 C 369.134064 109.569031 369.163879 109.431297 369.223785 109.365433 C 369.289703 109.299591 369.424377 109.26664 369.628052 109.26664 L 370.571228 109.26664 L 370.571228 115.760696 Z"/>
        <path id="path5" fill="#ffffff" stroke="none" d="M 378.207733 110.119934 L 377.372437 110.119934 C 377.276672 110.119934 377.228668 110.14389 377.228668 110.191788 L 377.228668 115.760696 L 376.285706 115.760696 C 376.082062 115.760696 375.947418 115.730759 375.88147 115.670876 C 375.821594 115.605011 375.791504 115.470291 375.791504 115.266693 L 375.791504 109.77861 C 375.791504 109.569031 375.821594 109.431297 375.88147 109.365433 C 375.947418 109.299591 376.082062 109.26664 376.285706 109.26664 L 378.207733 109.26664 L 378.207733 110.119934 Z M 378.710785 112.940315 L 379.564026 112.940315 C 379.809631 112.940315 379.968292 112.997215 380.040039 113.110962 C 380.112061 113.21875 380.147949 113.39241 380.147949 113.631935 L 380.147949 114.961296 C 380.147949 115.356514 380.043091 115.599022 379.833618 115.688843 C 379.731812 115.736748 379.602936 115.760696 379.447296 115.760696 L 377.587952 115.760696 L 377.587952 114.916374 L 378.342651 114.916374 C 378.587982 114.916374 378.710785 114.829559 378.710785 114.655899 L 378.710785 112.940315 Z M 378.594055 109.26664 L 379.447296 109.26664 C 379.686829 109.26664 379.839447 109.320526 379.905396 109.428314 C 379.977386 109.536102 380.013275 109.712738 380.013275 109.958252 L 380.013275 111.682831 C 380.013275 112.030121 379.950348 112.281624 379.824524 112.437317 C 379.704773 112.593002 379.450348 112.670853 379.061249 112.670853 L 377.587952 112.670853 L 377.587952 111.817558 L 378.252716 111.817558 C 378.402557 111.817558 378.49527 111.781631 378.531158 111.70977 C 378.57309 111.637909 378.594055 111.527145 378.594055 111.377441 L 378.594055 109.26664 Z"/>
        <path id="path6" fill="#ffffff" stroke="none" d="M 382.728394 109.26664 L 382.728394 114.646912 C 382.728394 114.742722 382.740265 114.8116 382.764282 114.853516 C 382.794098 114.889442 382.863068 114.90741 382.970947 114.90741 L 383.940918 114.90741 L 383.940918 115.760696 L 382.620514 115.760696 C 382.183411 115.760696 381.851135 115.685837 381.623505 115.536163 C 381.401917 115.386459 381.291229 115.125961 381.291229 114.754692 L 381.291229 109.77861 C 381.291229 109.569031 381.321045 109.431297 381.380951 109.365433 C 381.446869 109.299591 381.581543 109.26664 381.785217 109.26664 L 382.728394 109.26664 Z M 384.210266 109.26664 L 385.153473 109.26664 C 385.357117 109.26664 385.488739 109.299591 385.548615 109.365433 C 385.614563 109.431297 385.64743 109.569031 385.64743 109.77861 L 385.64743 114.646912 C 385.64743 114.742722 385.659546 114.8116 385.683563 114.853516 C 385.713379 114.889442 385.782349 114.90741 385.889984 114.90741 L 386.051666 114.90741 L 386.051666 115.760696 L 385.539795 115.760696 C 385.102692 115.760696 384.770172 115.685837 384.542786 115.536163 C 384.321198 115.386459 384.210266 115.125961 384.210266 114.754692 L 384.210266 109.26664 Z"/>
        <path id="path7" fill="#ffffff" stroke="none" d="M 388.447693 115.760696 L 387.504486 115.760696 C 387.300842 115.760696 387.166168 115.727753 387.10022 115.66188 C 387.040344 115.596016 387.010529 115.458313 387.010529 115.248734 L 387.010529 109.625923 C 387.010529 109.518143 387.040344 109.431297 387.10022 109.365433 C 387.160126 109.299591 387.237946 109.26664 387.333954 109.26664 L 388.447693 109.26664 L 388.447693 115.760696 Z M 388.806976 109.26664 L 389.947754 109.26664 C 390.294922 109.26664 390.567291 109.293594 390.765106 109.347466 C 390.968506 109.40136 391.121368 109.509148 391.223206 109.670822 C 391.324768 109.826515 391.387695 110.003181 391.411682 110.20079 C 391.441742 110.39241 391.456665 110.664856 391.456665 111.018158 C 391.456665 111.371452 391.441742 111.640915 391.411682 111.826523 C 391.387695 112.012161 391.324768 112.185814 391.223206 112.347488 C 391.127197 112.509171 390.974579 112.622948 390.765106 112.688812 C 390.561462 112.754684 390.288849 112.787636 389.947754 112.787636 L 388.806976 112.787636 L 388.806976 111.934311 L 389.471497 111.934311 C 389.62738 111.934311 389.726166 111.913368 389.768127 111.871445 C 389.815857 111.829529 389.839874 111.763664 389.839874 111.673843 L 389.839874 110.389397 C 389.839874 110.293594 389.815857 110.224739 389.768127 110.182823 C 389.726166 110.140907 389.62738 110.119934 389.471497 110.119934 L 388.806976 110.119934 L 388.806976 109.26664 Z M 389.669067 113.066071 L 390.783051 113.066071 C 390.962708 113.066071 391.091309 113.116959 391.169128 113.21875 C 391.246948 113.31456 391.285858 113.473259 391.285858 113.694824 L 391.285858 115.760696 L 389.992493 115.760696 C 389.896729 115.760696 389.818909 115.727753 389.759003 115.66188 C 389.699127 115.596016 389.669067 115.509201 389.669067 115.401413 L 389.669067 113.066071 Z"/>
        <path id="path8" fill="#ffffff" stroke="none" d="M 397.502899 109.26664 L 397.502899 115.248734 C 397.502899 115.458313 397.469818 115.596016 397.404114 115.66188 C 397.344238 115.727753 397.212341 115.760696 397.008942 115.760696 L 395.733246 115.760696 C 395.380035 115.760696 395.146576 115.70681 395.032867 115.599022 C 394.924988 115.491234 394.829224 115.212799 394.745331 114.763687 C 394.577576 113.877449 394.335266 112.446304 394.01767 110.470253 C 393.993896 110.320549 393.958038 110.224739 393.910034 110.182823 C 393.868073 110.140907 393.793304 110.116951 393.685425 110.110962 L 392.58075 110.110962 L 392.58075 109.26664 L 394.529816 109.26664 C 394.679382 109.26664 394.799164 109.284599 394.889099 109.320526 C 394.97879 109.356461 395.050812 109.434303 395.104614 109.55407 C 395.16449 109.667847 395.2034 109.77861 395.221344 109.886398 C 395.245361 109.994186 395.269348 110.119934 395.293365 110.263649 C 395.323181 110.437302 395.365112 110.691788 395.418945 111.027122 C 395.520752 111.703781 395.679443 112.658875 395.894958 113.892426 C 395.978851 114.419357 396.035675 114.71579 396.065765 114.781654 C 396.101624 114.841537 396.161499 114.877464 396.245392 114.889442 L 396.245392 109.625923 C 396.245392 109.518143 396.275208 109.431297 396.335083 109.365433 C 396.394989 109.299591 396.472778 109.26664 396.568817 109.26664 L 397.502899 109.26664 Z M 392.58075 110.425331 L 393.514862 110.425331 C 393.610626 110.425331 393.688446 110.458275 393.748322 110.524147 C 393.808197 110.590012 393.838257 110.676834 393.838257 110.784615 L 393.838257 115.248734 C 393.838257 115.452324 393.811218 115.590027 393.757416 115.66188 C 393.703339 115.727753 393.595703 115.760696 393.434021 115.760696 L 392.58075 115.760696 L 392.58075 110.425331 Z"/>
        <path id="path9" fill="#ffffff" stroke="none" d="M 364.618225 118.691826 L 364.618225 136.667053 C 364.618225 137.296692 364.519165 137.710556 364.32135 137.908646 C 364.141205 138.106476 363.745514 138.205521 363.133575 138.205521 L 359.301178 138.205521 C 358.239471 138.205521 357.537811 138.043564 357.195984 137.71965 C 356.87207 137.395737 356.584259 136.559174 356.332367 135.209442 C 355.828552 132.546616 355.099609 128.246201 354.146057 122.308456 C 354.074066 121.858643 353.966156 121.570724 353.822144 121.444778 C 353.69632 121.318825 353.471466 121.246864 353.147552 121.228874 L 349.827789 121.228874 L 349.827789 118.691826 L 355.68454 118.691826 C 356.134277 118.691826 356.494324 118.745796 356.76416 118.85376 C 357.034027 118.961723 357.250031 119.195641 357.411743 119.555511 C 357.591888 119.897362 357.708618 120.230247 357.762695 120.554108 C 357.834717 120.877998 357.906708 121.255859 357.978729 121.687683 C 358.068665 122.209488 358.194489 122.974197 358.356445 123.981819 C 358.662445 126.01506 359.139221 128.884964 359.787048 132.591583 C 360.03894 134.175034 360.209747 135.065674 360.299683 135.263504 C 360.407837 135.443405 360.587738 135.551544 360.83963 135.587418 L 360.83963 119.771408 C 360.83963 119.44754 360.929596 119.186646 361.109467 118.988708 C 361.289368 118.790794 361.523346 118.691826 361.811127 118.691826 L 364.618225 118.691826 Z M 349.827789 122.173508 L 352.634644 122.173508 C 352.922668 122.173508 353.156372 122.272476 353.336273 122.470383 C 353.516418 122.66832 353.606384 122.929222 353.606384 123.25309 L 353.606384 136.667053 C 353.606384 137.278748 353.525269 137.692612 353.363312 137.908646 C 353.201355 138.106476 352.877686 138.205521 352.391815 138.205521 L 349.827789 138.205521 L 349.827789 122.173508 Z"/>
        <path id="path10" fill="#ffffff" stroke="none" d="M 372.806305 138.205521 L 369.972412 138.205521 C 369.360718 138.205521 368.955688 138.106476 368.757874 137.908646 C 368.577972 137.710556 368.488007 137.296692 368.488007 136.667053 L 368.488007 120.230247 C 368.488007 119.600479 368.577972 119.186646 368.757874 118.988708 C 368.955688 118.790794 369.360718 118.691826 369.972412 118.691826 L 372.806305 118.691826 L 372.806305 138.205521 Z M 381.14621 134.426941 L 381.14621 136.720871 C 381.14621 137.332825 381.04718 137.737595 380.849335 137.935425 C 380.651489 138.11557 380.23764 138.205521 379.607758 138.205521 L 373.885925 138.205521 L 373.885925 134.426941 L 381.14621 134.426941 Z M 379.526886 126.464874 L 379.526886 128.084274 C 379.526886 128.732025 379.463715 129.145859 379.337891 129.32579 C 379.211823 129.487747 378.85202 129.568695 378.25827 129.568695 L 373.885925 129.568695 L 373.885925 126.464874 L 379.526886 126.464874 Z M 380.876373 118.691826 L 380.876373 120.985962 C 380.876373 121.59774 380.777313 122.002579 380.579498 122.200493 C 380.381409 122.38044 379.967529 122.470383 379.337891 122.470383 L 373.885925 122.470383 L 373.885925 118.691826 L 380.876373 118.691826 Z"/>
        <path id="path11" fill="#ffffff" stroke="none" d="M 388.759979 118.691826 L 388.759979 134.858734 C 388.759979 135.128586 388.822906 135.326416 388.948975 135.452499 C 389.092987 135.578323 389.398712 135.641495 389.866638 135.641495 L 391.863953 135.641495 L 391.863953 138.205521 L 388.436066 138.205521 C 387.716492 138.205521 387.113617 138.151459 386.627747 138.043564 C 386.160065 137.935425 385.746216 137.71965 385.386414 137.395737 C 385.044556 137.053879 384.774475 136.675903 384.57663 136.262283 C 384.396729 135.848419 384.252716 135.227631 384.144836 134.399902 C 383.98288 133.15831 383.901764 131.494019 383.901764 129.406769 C 383.901764 127.301567 383.910858 125.817123 383.928802 124.953445 C 383.964935 124.089783 384.036926 123.25309 384.144836 122.443405 C 384.252716 121.615723 384.396729 121.003952 384.57663 120.608109 C 384.774475 120.194267 385.044556 119.825401 385.386414 119.501511 C 385.746216 119.15966 386.160065 118.943733 386.627747 118.85376 C 387.113617 118.745796 387.716492 118.691826 388.436066 118.691826 L 388.759979 118.691826 Z M 389.8396 118.718811 L 393.267242 118.718811 C 393.987091 118.718811 394.580841 118.772804 395.048523 118.880768 C 395.534393 118.988708 395.948273 119.213631 396.290131 119.555511 C 396.650146 119.879372 396.920013 120.248238 397.099915 120.662071 C 397.297729 121.075912 397.450867 121.696686 397.558746 122.524384 C 397.720703 123.7659 397.801544 125.439262 397.801544 127.544479 C 397.801544 129.631683 397.78363 131.107117 397.747742 131.970795 C 397.729553 132.834396 397.666626 133.680069 397.558746 134.507797 C 397.450867 135.317581 397.297729 135.929276 397.099915 136.34314 C 396.920013 136.739059 396.650146 137.107956 396.290131 137.449814 C 395.948273 137.773468 395.534393 137.989502 395.048523 138.097382 C 394.580841 138.187332 393.987091 138.2323 393.267242 138.2323 L 392.943329 138.2323 L 392.943329 122.065544 C 392.943329 121.795647 392.871582 121.59774 392.72757 121.471786 C 392.601471 121.345833 392.304596 121.282845 391.836914 121.282845 L 389.8396 121.282845 L 389.8396 118.718811 Z"/>
        <path id="path12" fill="#ffffff" fill-rule="evenodd" stroke="none" d="M 325.364655 120.46434 C 325.364655 124.204697 325.364655 126.777115 325.364655 130.527603 C 326.626953 130.527603 327.863983 130.527603 329.120239 130.527603 C 329.120239 133.828384 329.120239 138.221191 329.120239 141.498993 C 322.316376 141.498993 315.531311 141.498993 308.724915 141.498993 C 308.724915 139.811966 308.724915 138.140839 308.724915 136.437897 C 310.370636 135.607635 312.02774 134.77182 313.709045 133.92363 C 313.709045 128.218536 313.709045 122.522865 313.709045 116.769836 C 317.616119 118.008293 321.474579 119.231239 325.364655 120.46434 Z"/>
        <path id="path13" fill="#ffffff" fill-rule="evenodd" stroke="none" d="M 340.031525 119.674789 L 326.503662 119.670868 L 297.434448 110.458527 C 297.434448 110.458527 297.434448 107.496986 297.434448 106.002899 C 297.564362 105.996841 310.846191 106.002144 317.36676 106.002144 C 322.211395 106.002144 327.056213 106.00267 331.900787 106.001923 C 333.738922 106.001617 335.334259 106.655128 336.723145 107.826614 C 338.414734 109.253647 339.43573 111.098648 339.99942 113.215897 C 340.025452 113.313202 340.031006 113.418152 340.031006 113.51973 C 340.03302 115.473755 340.031525 119.674789 340.031525 119.674789 L 340.031525 119.674789 Z"/>
        <path id="path14" fill="#ffffff" fill-rule="evenodd" stroke="none" d="M 326.495056 120.809502 C 331.013184 120.809502 335.51413 120.809502 340.032013 120.809502 C 340.032013 123.692039 340.032013 126.554825 340.032013 129.437134 C 335.513885 129.437134 331.012939 129.437134 326.495056 129.437134 C 326.495056 126.554596 326.495056 123.691818 326.495056 120.809502 L 326.495056 120.809502 Z"/>
    </g>
    <path id="ARCADE" fill="#ffffff" fill-rule="evenodd" stroke="none" d="M 311 42 L 359 42 L 359 50 L 327 50 L 327 66 L 343 66 L 343 74 L 327 74 L 327 90 L 359 90 L 359 98 L 311 98 Z M 255 42 L 287 42 L 287 50 L 295 50 L 295 58 L 303 58 L 303 82 L 295 82 L 295 90 L 287 90 L 287 98 L 255 98 Z M 271 50 L 271 90 L 279 90 L 279 82 L 287 82 L 287 58 L 279 58 L 279 50 Z M 215 42 L 231 42 L 231 50 L 239 50 L 239 58 L 247 58 L 247 98 L 231 98 L 231 74 L 215 74 L 215 98 L 199 98 L 199 58 L 207 58 L 207 50 L 215 50 Z M 215 58 L 215 66 L 231 66 L 231 58 Z M 151 42 L 183 42 L 183 50 L 191 50 L 191 58 L 175 58 L 175 50 L 159 50 L 159 90 L 175 90 L 175 82 L 191 82 L 191 90 L 183 90 L 183 98 L 151 98 L 151 90 L 143 90 L 143 50 L 151 50 Z M 87 42 L 127 42 L 127 50 L 135 50 L 135 66 L 127 66 L 127 74 L 119 74 L 119 82 L 127 82 L 127 90 L 135 90 L 135 98 L 119 98 L 119 90 L 111 90 L 111 82 L 103 82 L 103 98 L 87 98 Z M 103 50 L 103 66 L 119 66 L 119 50 Z M 47 42 L 63 42 L 63 50 L 71 50 L 71 58 L 79 58 L 79 98 L 63 98 L 63 74 L 47 74 L 47 98 L 31 98 L 31 58 L 39 58 L 39 50 L 47 50 Z M 47 58 L 47 66 L 63 66 L 63 58 Z"/>
</svg>
