<?xml version="1.0" encoding="UTF-8"?>
<!-- Generated by Pixelmator Pro 3.5.7 -->
<svg width="465" height="125" viewBox="0 0 465 125" xmlns="http://www.w3.org/2000/svg">
    <g id="Page-1">
        <g id="syslogo">
            <g id="SEGAlogo">
                <path id="Shape" fill="#ffffff" stroke="none" d="M 114.247978 0 C 119.152046 0 123.253075 2.766724 125.094688 6.7519 L 125.214096 7.019363 L 138.23999 45.879547 L 77.926346 45.872635 C 74.240707 45.872635 70.887123 44.452057 68.375755 42.135551 L 68.109459 41.883957 L 68.109459 45.86895 L 46.574898 45.872635 C 41.159595 45.872635 36.465309 42.815826 34.122498 38.346924 L 33.976166 38.059769 L 33.916721 38.230728 C 31.97368 42.308807 26.455057 45.725632 20.817255 45.864563 L 20.478872 45.86895 L 0 45.872635 L 0 27.400551 L 4.582656 27.407921 C 1.876838 24.586906 0.041933 20.779312 0.041933 16.580963 C 0.052404 7.621681 7.077832 0.819016 15.708323 0.663506 L 16.02478 0.660789 L 36.350666 0.64328 L 36.350666 5.065109 C 38.82338 2.459961 42.324474 0.771851 46.188255 0.665649 L 46.575817 0.660324 L 68.141716 0.660324 L 68.134346 4.586342 C 70.568001 2.213638 73.842331 0.746887 77.491966 0.648552 L 77.884415 0.64328 L 98.947121 0.653877 L 98.964165 19.755417 L 103.306282 7.096779 C 105.019081 2.985519 109.256134 0 114.247978 0 Z M 33.193264 10.522827 L 15.944601 10.522827 L 15.718215 10.527 C 12.487865 10.646286 9.896601 13.307518 9.896601 16.560226 C 9.896601 19.816093 12.487426 22.46727 15.718185 22.586098 L 20.692705 22.653595 C 24.628614 22.780594 27.774719 25.995026 27.774719 29.942322 C 27.774719 33.892326 24.629057 37.113892 20.692732 37.241173 L 20.450764 37.245079 L 3.170765 37.245079 L 3.163853 42.712006 L 20.433252 42.694504 L 20.73959 42.690918 C 27.663465 42.528763 33.224598 36.884171 33.224598 29.952461 C 33.224598 23.007126 27.663465 17.361893 20.73959 17.199715 L 20.433252 17.196136 L 15.948287 17.220551 L 15.853718 17.213539 C 15.54511 17.167305 15.308236 16.898285 15.308236 16.574051 C 15.308236 16.249817 15.54511 15.980423 15.853718 15.93412 L 15.948287 15.927094 L 33.186352 15.930779 L 33.193264 10.522827 Z M 65.046982 3.831551 L 46.613605 3.831551 L 46.324249 3.835312 C 40.555573 3.985527 35.910305 8.614067 35.759552 14.362778 L 35.755775 14.651138 L 35.755775 31.843582 L 35.759552 32.131958 C 35.910305 37.881317 40.555573 42.516342 46.324249 42.666771 L 46.613605 42.670532 L 64.970032 42.67791 L 64.966347 37.273193 L 46.613605 37.27964 L 46.39537 37.275406 C 43.573483 37.165649 41.283424 34.936218 41.167839 32.070648 L 41.163261 31.843124 L 41.163261 14.59169 L 41.167614 14.378036 C 41.280334 11.615173 43.568615 9.36451 46.389801 9.250908 L 46.613605 9.246414 L 65.046982 9.249634 L 65.046982 3.831551 Z M 114.243835 3.198875 L 113.959015 3.203156 C 110.273834 3.314125 107.187286 5.570694 106.12236 8.655571 L 106.042519 8.90081 L 95.80394 38.927872 L 95.804001 17.199821 L 80.460747 17.199821 L 80.460747 22.600853 L 90.381767 22.600853 L 90.381767 37.265816 L 77.964592 37.265816 L 77.747139 37.261505 C 74.935486 37.149742 72.6586 34.880783 72.543686 32.066406 L 72.539131 31.843124 L 72.539131 14.650673 L 72.543427 14.432777 C 72.654709 11.616127 74.914055 9.36409 77.727104 9.25045 L 77.950302 9.245949 L 95.804001 9.245949 L 95.804001 3.831551 L 77.908836 3.831551 L 77.619614 3.835312 C 71.853523 3.985527 67.208298 8.614067 67.057549 14.362778 L 67.053772 14.651138 L 67.053772 31.843582 L 67.057579 32.131958 C 67.209618 37.881317 71.894127 42.516342 77.661072 42.666771 L 77.950302 42.670532 L 95.804001 42.67791 L 95.80394 42.672874 L 100.271454 42.673767 L 111.451385 9.844528 L 111.528114 9.675629 C 112.018471 8.679008 113.041946 7.991653 114.234154 7.991653 C 115.419823 7.991653 116.448326 8.679008 116.942757 9.669754 L 117.020149 9.837616 L 126.329231 37.265816 L 111.912643 37.265816 L 111.912643 42.673302 L 133.852249 42.673302 L 122.441925 8.914177 L 122.364685 8.674805 C 121.308632 5.585861 118.214951 3.31768 114.535507 3.2034 L 114.243835 3.198875 Z M 114.24752 9.246872 C 113.526276 9.246872 112.908592 9.679192 112.633881 10.296555 L 112.580345 10.431587 L 101.620682 42.673302 L 108.017967 42.673302 L 111.901939 31.219872 L 111.891449 36.035019 L 124.581879 36.035019 L 115.915154 10.431587 C 115.681068 9.743156 115.020744 9.246872 114.24752 9.246872 Z M 95.803078 10.508545 L 77.949387 10.51223 L 77.742798 10.517296 C 75.621201 10.621559 73.919807 12.322952 73.815544 14.44455 L 73.810478 14.651138 L 73.811401 31.843124 L 73.816467 32.05014 C 73.920731 34.176369 75.622124 35.886856 77.743721 35.991684 L 77.950302 35.996773 L 89.102127 35.996773 L 89.102127 23.880035 L 80.474106 23.880035 L 80.474106 29.299042 L 83.676208 29.299042 L 83.68634 30.571312 L 80.498528 30.571312 L 80.369652 30.564667 C 79.776146 30.503181 79.300522 30.022217 79.239738 29.427994 L 79.23317 29.299042 L 79.204605 17.196136 C 79.206818 17.089592 79.254379 16.043243 80.317101 15.917999 L 80.484245 15.906357 L 95.80999 15.906357 L 95.803078 10.508545 Z M 33.186352 3.831551 L 15.948287 3.831551 L 15.642262 3.835129 C 8.725236 3.997108 3.156941 9.635529 3.156941 16.574051 C 3.156941 23.512581 8.725236 29.154129 15.642262 29.3162 L 15.948287 29.319778 L 20.408831 29.326691 L 20.499847 29.333389 C 20.797724 29.377563 21.034597 29.634926 21.034597 29.952461 C 21.034597 30.26413 20.797724 30.520576 20.499847 30.564629 L 20.408831 30.571312 L 3.163853 30.585136 L 3.170765 35.975571 L 20.450764 35.975571 L 20.677845 35.97142 C 23.917765 35.852585 26.501989 33.201324 26.501989 29.941864 C 26.501989 26.685997 23.917765 24.037895 20.677845 23.919212 L 15.703062 23.862312 C 11.773535 23.735168 8.624332 20.516998 8.624332 16.559769 C 8.624332 12.613373 11.773535 9.394981 15.703062 9.267822 L 15.944601 9.263924 L 33.193264 9.260239 L 33.186352 3.831551 Z M 61.124657 23.886948 L 42.477924 23.886948 L 42.477924 31.843582 C 42.477924 34.054077 44.220207 35.853378 46.407299 35.960403 L 46.613605 35.965439 L 64.965881 35.958069 L 64.969574 30.577766 L 49.157406 30.577606 C 49.057003 30.574707 48.000072 30.519165 47.885201 29.464806 L 47.875275 29.299042 L 61.124657 29.299042 L 61.124657 23.886948 Z M 112.311943 30.011871 L 111.901939 31.219872 L 111.905273 30.011902 L 112.311943 30.011871 Z M 114.236923 24.338074 L 116.146011 30.011902 L 112.311943 30.011902 L 114.236923 24.338074 Z M 65.046982 10.51223 L 46.613605 10.51223 C 44.393272 10.51223 42.596706 12.254509 42.489864 14.44455 L 42.484837 14.651138 L 42.478386 22.600853 L 61.125118 22.600853 L 61.125118 17.199821 L 47.875736 17.199821 L 47.884907 17.089821 C 47.921432 16.799652 48.102737 16.029907 48.999683 15.945274 L 49.165512 15.937691 L 65.046982 15.937691 L 65.046982 10.51223 Z"/>
                <path id="path1" fill="#ffffff" stroke="none" d="M 129.717041 8.128052 C 130.738174 8.128052 131.699402 7.729462 132.419632 7.012917 C 133.139404 6.289459 133.541672 5.335144 133.541672 4.314468 C 133.541672 3.300713 133.139404 2.349617 132.419632 1.62616 C 131.699402 0.913307 130.738174 0.514709 129.717041 0.514709 C 127.616249 0.514709 125.899765 2.217369 125.899765 4.314934 C 125.899765 5.335602 126.298363 6.289917 127.02504 7.013374 C 127.74205 7.729462 128.699585 8.128052 129.717041 8.128052 M 126.438446 4.314011 C 126.438446 3.443558 126.773903 2.618729 127.399216 1.99987 C 128.021759 1.38102 128.846588 1.045555 129.717041 1.045555 C 130.598083 1.045555 131.422913 1.381477 132.045456 1.99987 C 132.664307 2.618729 133.007141 3.443558 133.007141 4.314011 C 133.007141 6.121269 131.531662 7.589378 129.717041 7.589378 C 128.84613 7.589378 128.021286 7.250229 127.399216 6.631371 C 126.773445 6.012978 126.438446 5.191376 126.438446 4.314011 Z"/>
                <path id="path2" fill="#ffffff" stroke="none" d="M 128.738297 4.635651 L 128.738297 6.432304 L 128.185791 6.432304 L 128.185791 2.209534 L 129.75528 2.209534 C 130.346481 2.216446 130.692551 2.216446 131.021103 2.464355 C 131.33905 2.698906 131.472229 3.05188 131.472229 3.443558 C 131.472229 4.429672 130.668594 4.558693 130.46492 4.600624 L 131.653778 6.432304 L 130.986084 6.432304 L 129.82901 4.635651 L 128.738297 4.635651 M 128.738297 4.1707 L 129.860352 4.1707 C 130.039139 4.1707 130.206863 4.1707 130.374603 4.128769 C 130.766281 4.034302 130.905899 3.754601 130.905899 3.447243 C 130.905899 3.335266 130.895294 3.052338 130.653839 2.856499 C 130.433121 2.671257 130.15387 2.678169 129.82901 2.678169 L 128.738297 2.678169 L 128.738297 4.1707 L 128.738297 4.1707 Z"/>
            </g>
        </g>
    </g>
    <g id="logo-monochrome-svgwor">
        <path id="Trazado" fill="#ffffff" stroke="none" d="M -0.002267 79.0681 L -0.002267 69.393654 C 25.229144 69.233828 50.460556 69.182271 75.691971 69.238983 C 83.928009 69.25444 88.436569 68.504303 88.397896 78.333427 C 88.393654 78.76178 88.045204 79.106789 87.616829 79.106766 L -0.002267 79.0681 Z"/>
        <path id="path3" fill="#ffffff" stroke="none" d="M 93.192589 69.25444 L 150.790741 69.25444 C 151.00856 69.25444 151.185135 69.43103 151.185135 69.648849 L 151.185135 78.712372 C 151.185135 78.930191 151.00856 79.106766 150.790741 79.106766 L 93.192589 79.106766 C 92.974762 79.106766 92.798187 78.930191 92.798187 78.712372 L 92.798187 69.648849 C 92.798187 69.43103 92.974762 69.25444 93.192589 69.25444 Z"/>
        <path id="path4" fill="#ffffff" stroke="none" d="M 155.446228 78.302498 C 155.399826 74.064606 156.505707 69.48645 161.516922 69.424576 C 179.839849 69.192581 198.162786 69.14876 216.485733 69.293114 C 216.700562 69.293076 216.875916 69.464981 216.880142 69.679779 L 216.918793 78.720093 C 216.918793 78.93364 216.745682 79.106766 216.53212 79.106766 L 156.258224 79.106766 C 155.812775 79.106789 155.45047 78.747932 155.446228 78.302498 Z"/>
        <path id="path5" fill="#ffffff" stroke="none" d="M 224.273239 78.302498 C 224.226837 73.917664 225.580185 69.177124 230.838867 69.161652 C 247.888367 69.125565 264.937876 69.210632 281.987396 69.416855 C 287.663666 69.48645 288.846893 73.801666 288.645813 78.596359 C 288.633362 78.881958 288.398071 79.10704 288.112213 79.106766 L 225.085236 79.106766 C 224.639771 79.106789 224.277466 78.747932 224.273239 78.302498 Z"/>
        <path id="path6" fill="#ffffff" stroke="none" d="M 331.76709 78.302498 C 331.720703 74.072342 332.826569 69.478722 337.837769 69.424576 C 356.769063 69.213206 375.994232 69.156494 395.513275 69.25444 C 395.859222 69.25444 396.139679 69.534897 396.139679 69.880859 L 396.139679 78.573166 C 396.139679 78.867859 395.900757 79.106766 395.606079 79.106766 L 332.579102 79.106766 C 332.133636 79.106789 331.771332 78.747932 331.76709 78.302498 Z"/>
        <path id="path7" fill="#ffffff" stroke="none" d="M 464 72.579796 L 464 78.959824 L 401.259155 79.106766 C 401.087585 79.106728 400.923126 79.039658 400.802551 78.920509 C 400.681946 78.801361 400.615204 78.640068 400.617279 78.472626 L 400.710083 69.780319 C 400.710388 69.565498 400.896088 69.39016 401.127716 69.38591 C 417.780223 69.226089 434.432739 69.177114 451.085266 69.238983 C 455.261292 69.25444 462.012512 68.048042 464 72.579796 Z"/>
        <path id="path8" fill="#ffffff" stroke="none" d="M -0.002267 106.127167 L -0.01 81.674248 C 5.22807 81.323667 10.463562 81.282422 15.696476 81.550514 C 15.925839 81.562851 16.105703 81.739326 16.106346 81.952637 L 16.106346 105.841034 C 16.105703 106.054344 15.925839 106.23082 15.696476 106.243164 C 10.463562 106.511256 5.230647 106.47259 -0.002267 106.127167 Z"/>
        <path id="path9" fill="#ffffff" stroke="none" d="M 36.607513 81.426773 L 51.935055 81.426773 C 52.187042 81.426773 52.391323 81.63105 52.391323 81.883041 L 52.391323 105.918365 C 52.391323 106.170357 52.187042 106.374626 51.935055 106.374626 L 36.607513 106.374626 C 36.355522 106.374626 36.151245 106.170357 36.151245 105.918365 L 36.151245 81.883041 C 36.151245 81.63105 36.355522 81.426773 36.607513 81.426773 Z"/>
        <path id="path10" fill="#ffffff" stroke="none" d="M 72.706886 81.426773 L 88.1427 81.426773 C 88.364792 81.426773 88.54483 81.606827 88.54483 81.828918 L 88.54483 105.972504 C 88.54483 106.194595 88.364792 106.374626 88.1427 106.374626 L 72.706886 106.374626 C 72.484795 106.374626 72.304756 106.194595 72.304756 105.972504 L 72.304756 81.828918 C 72.304756 81.606827 72.484795 81.426773 72.706886 81.426773 Z"/>
        <path id="path11" fill="#ffffff" stroke="none" d="M 109.687866 94.233238 C 108.950623 94.238401 108.795957 94.542582 109.223869 95.145782 C 110.561745 97.024986 111.88414 96.70018 113.933495 96.70018 C 126.219246 96.70018 138.507573 96.70018 150.798477 96.70018 C 151.012024 96.70018 151.185135 96.873306 151.185135 97.086853 L 151.146469 105.93383 C 151.142258 106.148628 150.966904 106.320534 150.752075 106.320496 C 133.496343 106.377207 116.240613 106.413297 98.984886 106.428764 C 91.560852 106.428764 92.798187 96.29805 92.751785 91.418289 C 92.715698 88.226985 92.803342 85.040838 93.014717 81.859848 C 93.027039 81.642426 93.210442 81.472595 93.43232 81.473175 L 108.203064 81.426773 C 108.515755 81.425774 108.793945 81.628952 108.891327 81.929443 C 109.873474 84.999588 111.141747 84.520126 114.258293 84.520126 C 125.100482 84.520126 136.117961 84.520126 147.31073 84.520126 C 147.513062 84.520195 147.707016 84.597885 147.849365 84.735878 C 147.99173 84.873871 148.070663 85.060715 148.068588 85.254791 L 147.968048 93.653236 C 147.968048 93.871056 147.784546 94.047646 147.558182 94.047646 L 109.687866 94.233238 Z"/>
        <path id="path12" fill="#ffffff" stroke="none" d="M 203.501389 95.47831 C 203.323486 94.752388 202.675476 94.241638 201.931519 94.240982 L 183.038895 94.186836 C 182.744202 94.186836 182.505295 93.947929 182.505295 93.653236 L 182.505295 85.285736 C 182.505295 84.8629 182.848068 84.520126 183.270905 84.520126 C 192.752014 84.520126 202.292414 84.520126 211.892105 84.520126 C 216.818253 84.520126 219.169205 87.768143 219.718277 92.470032 C 220.220932 96.785248 220.452942 105.183693 214.939056 106.312759 C 214.753448 106.348852 212.716995 106.366898 208.829697 106.366898 C 193.651667 106.366898 178.473633 106.366898 163.295593 106.366898 C 158.671036 106.366898 155.948898 105.044487 155.709167 100.180199 C 155.435923 94.509061 155.350856 88.500234 155.453964 82.153717 C 155.462494 81.755386 155.783249 81.438095 156.173157 81.442245 L 171.144974 81.558243 C 171.367065 81.558243 171.547104 81.741745 171.547104 81.968109 L 171.663101 95.965515 C 171.66716 96.365143 171.979828 96.688126 172.366837 96.692459 C 182.559423 96.769786 192.398849 96.702759 201.885117 96.491379 C 203.117304 96.460444 203.656062 96.122754 203.501389 95.47831 Z"/>
        <path id="path13" fill="#ffffff" stroke="none" d="M 224.760437 81.426773 L 240.010635 81.426773 C 240.283997 81.426773 240.505569 81.648376 240.505569 81.921707 L 240.505569 105.879692 C 240.505569 106.153046 240.283997 106.374626 240.010635 106.374626 L 224.760437 106.374626 C 224.487076 106.374626 224.265503 106.153046 224.265503 105.879692 L 224.265503 81.921707 C 224.265503 81.648376 224.487076 81.426773 224.760437 81.426773 Z"/>
        <path id="path14" fill="#ffffff" stroke="none" d="M 272.367065 89.972153 L 272.405731 81.944916 C 272.405731 81.658752 272.634247 81.426773 272.916138 81.426773 L 287.965271 81.426773 C 288.336853 81.426773 288.638062 81.724541 288.638062 82.091843 L 288.506622 105.841034 C 288.506622 106.058853 288.333496 106.235428 288.119934 106.235428 L 273.086273 106.359169 C 272.906525 106.361237 272.733429 106.289627 272.605591 106.160339 C 272.477722 106.031029 272.405762 105.854782 272.405731 105.670898 L 272.405731 100.883942 C 272.405731 100.602043 272.177216 100.373535 271.895325 100.373535 L 242.848785 100.373535 C 242.51564 100.373535 242.24559 100.103477 242.24559 99.770332 L 242.24559 91.031616 C 242.24559 90.745468 242.477554 90.513489 242.763733 90.513489 L 271.810272 90.513489 C 272.114777 90.513565 272.362823 90.272408 272.367065 89.972153 Z"/>
        <path id="path15" fill="#ffffff" stroke="none" d="M 331.906281 81.782516 C 331.914581 81.583565 332.078369 81.426598 332.277496 81.426773 L 347.481293 81.426773 C 347.767456 81.426773 347.99942 81.658752 347.99942 81.944916 C 347.99942 85.718801 347.99942 89.474642 347.99942 93.21244 C 347.99942 95.756714 348.99704 96.70018 351.479462 96.70018 C 365.91509 96.70018 380.541463 96.70018 395.358582 96.70018 C 395.560944 96.700256 395.754883 96.777946 395.897247 96.915939 C 396.039612 97.053932 396.11853 97.240776 396.116455 97.434853 L 396.015961 105.833298 C 396.015717 106.048119 395.833466 106.223465 395.606079 106.227707 C 377.958516 106.382365 360.313538 106.431338 342.671143 106.374626 C 336.04364 106.359169 332.455353 106.738098 331.991333 99.337265 C 331.620138 93.485682 331.591787 87.634099 331.906281 81.782516 Z"/>
        <path id="path16" fill="#ffffff" stroke="none" d="M 401.081299 81.426773 L 416.331482 81.426773 C 416.604828 81.426773 416.826447 81.648376 416.826447 81.921707 L 416.826447 105.879692 C 416.826447 106.153046 416.604828 106.374626 416.331482 106.374626 L 401.081299 106.374626 C 400.807953 106.374626 400.586365 106.153046 400.586365 105.879692 L 400.586365 81.921707 C 400.586365 81.648376 400.807953 81.426773 401.081299 81.426773 Z"/>
        <path id="path17" fill="#ffffff" stroke="none" d="M 464 81.666504 L 464 103.126617 C 462.984375 105.286804 461.051036 106.366898 458.199982 106.366898 C 445.182139 106.366898 432.205536 106.366898 419.270172 106.366898 C 418.8815 106.366898 418.566437 106.051819 418.566437 105.663162 L 418.566437 97.311111 C 418.566437 96.969437 418.846924 96.692459 419.192841 96.692459 L 448.192993 96.560989 C 448.41507 96.560989 448.595123 96.384399 448.595123 96.16658 L 448.711121 82.238785 C 448.711243 82.030289 448.789734 81.830437 448.929169 81.683739 C 449.068665 81.537025 449.257416 81.45565 449.453522 81.457703 L 464 81.666504 Z"/>
        <path id="path18" fill="#ffffff" stroke="none" d="M 293.595154 84.520126 L 320.81665 84.520126 C 321.094238 84.520126 321.319305 84.745178 321.319305 85.022789 L 321.319305 93.684174 C 321.319305 93.961784 321.094238 94.186836 320.81665 94.186836 L 293.595154 94.186836 C 293.317566 94.186836 293.092499 93.961784 293.092499 93.684174 L 293.092499 85.022789 C 293.092499 84.745178 293.317566 84.520126 293.595154 84.520126 Z"/>
    </g>
</svg>
