<?xml version="1.0" encoding="UTF-8"?>
<!-- Generated by Pixelmator Pro 3.7.1 -->
<svg width="520" height="85" viewBox="0 0 520 85" xmlns="http://www.w3.org/2000/svg">
    <g id="logo-svgeu-2">
        <linearGradient id="linearGradient1" x1="259.999579" y1="60.984301" x2="259.999579" y2="0.675421" gradientUnits="userSpaceOnUse">
            <stop offset="1e-05" stop-color="#ffffff" stop-opacity="1"/>
            <stop offset="0.1086" stop-color="#fcfcfe" stop-opacity="1"/>
            <stop offset="0.1965" stop-color="#f2f3f9" stop-opacity="1"/>
            <stop offset="0.2773" stop-color="#e1e5f1" stop-opacity="1"/>
            <stop offset="0.3537" stop-color="#c9d0e6" stop-opacity="1"/>
            <stop offset="0.4265" stop-color="#aab5d8" stop-opacity="1"/>
            <stop offset="0.4588" stop-color="#9aa7d0" stop-opacity="1"/>
            <stop offset="0.5107" stop-color="#b3bcdb" stop-opacity="1"/>
            <stop offset="0.584" stop-color="#ced5e8" stop-opacity="1"/>
            <stop offset="0.6633" stop-color="#e4e7f2" stop-opacity="1"/>
            <stop offset="0.7506" stop-color="#f3f5fa" stop-opacity="1"/>
            <stop offset="0.8518" stop-color="#fcfdfe" stop-opacity="1"/>
            <stop offset="1" stop-color="#ffffff" stop-opacity="1"/>
        </linearGradient>
        <path id="Trazado" fill="url(#linearGradient1)" stroke="none" d="M 519.991455 58.043678 C 519.981384 58.356964 519.961182 58.67025 519.920715 58.973427 C 519.829773 59.670734 519.678162 60.337723 519.476074 60.984501 L 0.577653 60.984501 C 0.355323 60.307407 0.193628 59.640415 0.102675 58.973427 C -0.422833 55.254448 1.072843 51.666847 4.498749 48.715919 C 9.046412 44.825142 14.37223 42.29866 19.970907 40.267372 C 31.895891 35.921829 44.316063 33.829903 56.897926 33.415558 C 71.662674 32.940582 86.447632 33.263977 101.232582 33.354927 C 120.929024 33.486305 140.554718 32.617195 159.968185 29.140755 C 173.752655 26.66481 186.981293 22.693184 199.057861 15.113747 C 211.225388 7.48378 224.797638 3.593002 239.026779 1.89521 C 250.547516 0.510696 262.078369 0.369209 273.629425 1.147369 C 291.223816 2.329758 307.918793 6.695518 322.94632 16.235504 C 333.001678 22.622444 344.188934 25.84623 355.618744 28.281754 C 369.221283 31.192261 383.046204 32.637405 396.951935 32.859734 C 412.414001 33.112381 427.886169 32.950691 443.348206 32.829414 C 459.345886 32.698044 475.232391 33.577255 490.825806 37.427612 C 498.991364 39.448792 506.874023 42.25824 513.776367 47.301094 C 517.424561 49.958946 520.17334 53.17263 519.991455 58.043678 Z"/>
        <linearGradient id="linearGradient2" x1="260.026461" y1="84.218613" x2="260.026461" y2="60.984301" gradientUnits="userSpaceOnUse">
            <stop offset="1e-05" stop-color="#ffffff" stop-opacity="1"/>
            <stop offset="1" stop-color="#5a78b5" stop-opacity="1"/>
        </linearGradient>
        <path id="path1" fill="url(#linearGradient2)" stroke="none" d="M 519.476074 60.984501 C 518.900024 62.773251 517.909668 64.380089 516.737366 65.906082 C 513.362 70.312263 508.652618 72.848846 503.781616 75.163101 C 495.090515 79.286316 485.772858 80.852737 476.374329 82.237244 C 460.366547 84.591927 444.257721 83.985565 428.189331 84.066422 C 392.010162 84.23822 355.830963 84.167473 319.661896 84.187691 L 259.824738 84.187691 L 259.824738 84.207901 C 211.397202 84.207901 162.979752 84.23822 114.562294 84.1978 C 97.50351 84.177582 80.444717 84.187691 63.396034 83.803665 C 49.075951 83.48027 34.856926 81.984604 21.224043 77.184288 C 16.039705 75.365219 10.976642 73.111603 6.77258 69.433052 C 5.135421 68.008118 3.609428 66.350746 2.376506 64.561996 C 1.568033 63.379608 0.971784 62.177002 0.577653 60.984501 Z"/>
        <path id="path2" fill="#000000" stroke="none" d="M 513.776367 47.301094 C 506.874023 42.25824 498.991364 39.448792 490.825806 37.427612 C 475.232391 33.577255 459.345886 32.698044 443.348206 32.829414 C 427.886169 32.950691 412.414001 33.112381 396.951935 32.859734 C 383.046204 32.637405 369.221283 31.192261 355.618744 28.281754 C 344.188934 25.84623 333.001678 22.622444 322.94632 16.235504 C 307.918793 6.695518 291.223816 2.329758 273.629425 1.147369 C 262.078369 0.369209 250.547516 0.510696 239.026779 1.89521 C 224.797638 3.593002 211.225388 7.48378 199.057861 15.113747 C 186.981293 22.693184 173.752655 26.66481 159.968185 29.140755 C 140.554718 32.617195 120.929024 33.486305 101.232582 33.354927 C 86.447632 33.263977 71.662674 32.940582 56.897926 33.415558 C 44.316063 33.829903 31.895891 35.921829 19.970907 40.267372 C 14.37223 42.29866 9.046412 44.825142 4.498749 48.715919 C 1.072843 51.666847 -0.422833 55.254448 0.102675 58.973427 C 0.355323 60.822807 1.113266 62.712616 2.376506 64.561996 C 3.609428 66.350746 5.135421 68.008118 6.77258 69.433052 C 10.976642 73.111603 16.039705 75.365219 21.224043 77.184288 C 34.856926 81.984604 49.075951 83.48027 63.396034 83.803665 C 80.444717 84.187691 97.50351 84.177582 114.562294 84.1978 C 162.979752 84.23822 211.397202 84.207901 259.824738 84.207901 L 259.824738 84.187691 L 319.661896 84.187691 C 355.830963 84.167473 392.010162 84.23822 428.189331 84.066422 C 444.257721 83.985565 460.366547 84.591927 476.374329 82.237244 C 485.772858 80.852737 495.090515 79.286316 503.781616 75.163101 C 508.652618 72.848846 513.362 70.312263 516.737366 65.906082 C 518.334106 63.824265 519.597351 61.590858 519.920715 58.973427 C 519.961182 58.67025 519.981384 58.356964 519.991455 58.043678 C 520.17334 53.17263 517.424561 49.958946 513.776367 47.301094 Z M 213.792297 16.892387 C 219.148438 13.901031 225.080597 12.688324 231.03299 11.667625 C 246.151443 9.070404 261.381042 8.62574 276.640991 9.686867 C 286.706482 10.384178 296.741638 11.526146 306.322083 14.992477 C 308.181549 15.669571 310.010712 16.54879 311.637787 17.660439 C 315.265808 20.126282 315.35675 23.238899 311.58725 25.441994 C 308.606018 27.180206 305.301361 28.58493 301.966431 29.48436 C 288.869171 33.031532 275.428284 33.708633 265.585114 33.769272 C 249.749146 33.769272 237.611938 33.061852 225.697067 30.343361 C 221.907349 29.474251 218.279327 27.928047 214.590652 26.68502 C 214.327911 26.59407 214.085358 26.462692 213.852936 26.311104 C 212.064178 25.159027 210.032898 24.108009 210.002579 21.611847 C 209.97226 19.095474 211.942917 17.923195 213.792297 16.892387 Z M 502.811401 66.381058 C 497.202637 71.161163 490.441772 73.41478 483.529327 75.294479 C 472.998962 78.154457 462.215973 79.437904 451.331879 79.478333 C 393.899963 79.700661 336.468018 79.811829 279.02597 79.953308 C 235.146103 80.064468 191.256104 80.276695 147.376205 80.226173 C 120.48436 80.195847 93.592514 79.933098 66.700668 79.407593 C 53.542763 79.165047 40.516235 77.275238 28.217337 72.313232 C 24.154758 70.66597 20.304401 68.119278 16.908815 65.330048 C 14.624878 63.460453 13.462697 61.247257 13.361638 58.973427 C 13.250473 56.507584 14.392441 53.970993 16.706696 51.717377 C 21.537325 47.038338 27.631191 44.653343 33.917072 42.803955 C 42.860809 40.176422 52.057198 38.761589 61.334427 38.54937 C 78.524597 38.165344 95.724861 38.316933 112.904922 37.963226 C 131.813095 37.569092 150.660629 36.356384 169.154465 31.929993 C 176.986542 30.050285 184.596298 27.554131 191.953415 24.289917 C 192.115112 24.219177 192.297012 24.178757 192.357635 24.168648 C 196.349487 26.604172 199.977509 29.090233 203.848083 31.121513 C 210.558411 34.638374 217.976151 35.931938 225.343353 37.255806 C 238.278931 39.570061 251.33577 39.388161 264.40271 39.408371 C 278.126556 39.43869 291.718994 38.52916 305.109344 35.275047 C 313.234528 33.294289 320.702789 30.050285 327.099823 24.542564 C 327.301971 24.370766 327.564697 24.269707 327.615234 24.259598 C 334.295258 26.493011 340.591248 28.847687 347.038818 30.697067 C 357.761169 33.779373 368.756439 35.386215 379.852722 36.447334 C 402.762817 38.650429 425.753784 37.882378 448.714447 38.084496 C 461.387268 38.195656 473.969147 39.246674 486.237701 42.652367 C 492.291138 44.329948 498.112152 46.623993 502.983215 50.767426 C 506.095825 53.415169 507.530884 56.194298 507.328766 58.973427 C 507.146851 61.479694 505.630981 63.975857 502.811401 66.381058 Z"/>
        <path id="path3" fill="#000000" stroke="none" d="M 236.368912 17.033867 C 235.841385 17.737236 235.684738 19.288498 235.994995 20.186913 C 236.357788 21.23793 237.234985 21.937256 238.599289 22.155548 C 239.496689 22.299049 240.558823 22.147461 241.488556 22.329369 C 242.923615 22.612335 243.836182 23.491547 243.785645 24.96701 C 243.725021 26.442474 242.835693 27.442963 241.299591 27.483391 C 238.763 27.564232 236.226425 27.503601 233.497818 27.503601 C 233.427078 26.816399 233.376556 26.260567 233.305801 25.411674 L 241.188416 25.411674 C 241.218735 25.199448 241.215714 24.720428 241.235916 24.508209 C 240.501221 24.508209 239.975708 24.502144 239.318832 24.471825 C 235.90303 24.330338 233.366455 22.01609 233.305801 18.953995 C 233.245163 15.79084 235.579636 13.304787 239.005554 13.13298 C 241.521912 13.00161 244.048401 13.102661 246.686035 13.102661 L 246.686035 15.386604 C 244.412216 15.386604 242.148483 15.204697 239.925186 15.457344 C 238.673065 15.588722 237.193542 15.934341 236.368912 17.033867 Z M 241.250076 19.307701 C 240.471909 19.216751 239.699829 19.367325 238.931763 19.266266 C 238.941879 19.064148 238.945923 18.610397 238.966141 18.39817 L 246.757797 18.39817 C 246.717377 17.518951 246.656738 16.336563 246.656738 16.336563 C 246.656738 16.336563 241.310699 16.154655 238.743805 16.447731 C 237.905014 16.538681 236.652893 17.056099 236.57103 18.620491 C 236.484116 20.295044 236.846924 20.65583 237.604874 21.161125 C 237.974747 21.407707 238.693268 21.530998 239.087402 21.561317 C 239.703873 21.611847 240.320328 21.571426 240.946884 21.581535 C 243.059021 21.632065 244.443542 22.854874 244.504181 24.744682 C 244.574905 26.68502 243.160095 28.211014 241.037842 28.291862 C 238.521469 28.382813 235.994995 28.312073 233.296722 28.312073 C 233.347229 29.241814 233.387665 29.878487 233.428085 30.646538 C 236.35881 30.646538 239.097504 30.767815 241.826111 30.616219 C 244.686081 30.454529 246.81842 27.948257 246.828537 25.057968 C 246.84874 21.995872 244.615341 19.691727 241.250076 19.307701 Z M 253.417587 28.281754 C 251.537888 28.301964 250.618256 27.341904 250.598038 25.522835 C 250.557632 23.259117 250.547516 20.985283 250.567734 18.721558 C 250.587936 16.134438 251.315567 15.406815 253.862244 15.386604 C 256.247253 15.366394 258.632233 15.386604 261.098083 15.386604 L 261.098083 13.13298 C 258.076416 13.13298 255.196243 13.00161 252.336258 13.173409 C 250.072525 13.304787 248.597076 14.71962 248.455597 16.993439 C 248.243362 20.197021 248.233261 23.441025 248.394958 26.654701 C 248.506119 28.837578 249.941162 30.383789 252.012863 30.515167 C 255.004227 30.707176 258.015778 30.555588 261.138519 30.555588 L 261.138519 28.281754 C 258.470551 28.281754 255.944061 28.271652 253.417587 28.281754 Z M 261.087982 16.336563 C 258.399811 16.336563 255.863235 16.195084 253.356949 16.427513 C 252.679855 16.488152 251.537888 16.897438 251.537888 18.35775 C 251.537888 19.078293 251.477249 20.075752 251.477249 21.23793 L 259.48114 21.23793 C 259.440704 20.510307 259.4104 19.964584 259.369995 19.176323 L 254.256378 19.176323 C 254.256378 18.964104 254.256378 18.751877 254.246277 18.549751 L 261.087982 18.549751 Z M 254.175537 25.189346 C 254.175537 24.9468 254.185654 24.714363 254.195755 24.471825 L 259.501373 24.471825 C 259.460938 23.683563 259.430634 23.178268 259.400299 22.652756 L 251.467148 22.652756 C 251.467148 23.663353 251.517685 24.500122 251.517685 25.280296 C 251.517685 26.561729 252.417114 27.291374 252.972946 27.331795 C 255.661102 27.554131 258.379608 27.432854 261.158722 27.432854 L 261.158722 25.189346 Z M 275.529327 18.458801 L 275.529327 16.316345 C 272.810852 16.316345 270.345001 16.336563 267.87915 16.316345 C 266.535095 16.296135 265.77713 17.013657 265.726593 18.276894 C 265.635651 20.661896 265.544678 23.077209 265.746826 25.452095 C 265.797333 26.169617 266.727081 27.250954 267.394104 27.382324 C 268.950378 27.665298 270.597656 27.473282 272.305542 27.473282 L 272.305542 22.268738 C 271.082733 22.268738 271.254517 22.268738 269.738647 22.268738 C 269.738647 23.390488 269.68811 23.905891 269.68811 25.068069 C 269.132294 24.977119 268.677521 25.098389 268.152039 25.01754 L 268.152039 18.458801 Z M 292.345612 28.908325 C 290.930756 24.603203 289.475494 20.318291 288.090973 16.003067 C 287.444214 14.012199 286.181 12.728752 284.08905 12.759064 C 282.108307 12.799492 280.895569 14.042519 280.279144 15.972748 C 279.116943 19.631088 277.873932 23.269218 276.640991 26.907349 C 276.48941 27.341904 276.226654 27.74614 276.014435 28.170593 C 275.872925 28.120056 275.721344 28.089745 275.579865 28.049316 L 275.579865 19.378441 L 268.869537 19.378441 L 268.81192 21.339996 L 273.235321 21.3592 C 273.235321 21.3592 273.184753 25.977608 273.184753 28.322174 C 271.20401 28.322174 269.364716 28.301964 267.525452 28.322174 C 265.70639 28.352493 264.90802 27.442963 264.918121 25.654213 C 264.948456 23.249008 264.90802 20.843803 264.918121 18.42849 C 264.948456 16.083916 265.625549 15.416924 268.02066 15.386604 C 270.486511 15.366394 272.94223 15.386604 275.519226 15.386604 L 275.519226 13.122879 C 272.43692 13.122879 269.556732 13.00161 266.686676 13.163307 C 264.271362 13.294678 262.694824 14.992477 262.644287 17.306732 C 262.563477 20.409248 262.563477 23.501656 262.634186 26.59407 C 262.684723 28.736519 264.261261 30.535378 266.322876 30.606117 C 270.092346 30.737488 273.871979 30.646538 277.671783 30.646538 C 278.00531 29.737007 278.308472 28.968956 278.571228 28.190796 C 279.905182 24.300026 281.18866 20.38903 282.593353 16.518471 C 282.805603 15.912109 283.331116 15.116776 284.028412 15.043007 C 284.70755 14.971245 285.321991 15.416924 285.473572 15.821159 C 286.969238 19.914055 288.35376 24.047379 289.920166 28.595039 L 283.29068 28.595039 C 283.331116 29.443932 283.351318 29.959335 283.381622 30.565689 L 292.69928 30.565689 C 292.567932 29.929016 292.507263 29.403511 292.345612 28.908325 Z M 284.634796 15.467453 L 283.72525 15.497772 C 282.017365 20.459778 280.309448 25.411674 278.530792 30.555588 L 281.208862 30.555588 C 281.754578 29.100334 282.269989 27.715828 282.92688 25.95739 C 283.189606 26.786079 283.331116 27.240845 283.462494 27.665298 L 288.828735 27.665298 C 287.383606 23.461235 286.009186 19.469398 284.634796 15.467453 Z M 283.260345 24.96701 C 283.523132 24.138329 284.058746 22.460747 284.058746 22.460747 C 284.058746 22.460747 284.90155 24.168648 285.245178 24.96701 C 284.577179 25.027649 283.947571 24.90638 283.260345 24.96701 Z"/>
        <path id="path4" fill="#000000" stroke="none" d="M 493.736328 53.900253 C 491.21991 51.747696 488.299316 49.888206 485.267548 48.604752 C 476.96048 45.057579 468.127899 43.612434 459.174072 43.2183 C 450.594147 42.854485 441.994019 42.763535 433.39386 42.763535 C 317.761963 42.733215 202.140167 42.743324 86.508263 42.743324 C 80.181969 42.743324 73.845551 42.601837 67.519241 42.814064 C 57.069729 43.16777 46.690952 44.148041 36.736626 47.72554 C 32.613411 49.211113 28.672102 50.949333 25.680752 54.27417 C 24.245712 55.870911 23.568615 57.417114 23.669674 58.973427 C 23.740416 60.327618 24.397301 61.681812 25.640327 63.096638 C 28.60136 66.461914 32.249599 68.8368 36.504189 70.322372 C 44.346378 73.061073 52.471539 74.405167 60.728069 74.748764 C 69.24736 75.112572 77.776749 75.22374 86.306152 75.22374 C 144.15242 75.26416 201.998688 75.243958 259.855042 75.243958 L 285.645386 75.243958 C 339.509888 75.233841 393.364349 75.26416 447.228882 75.183319 C 458.153351 75.173218 469.057648 74.546646 479.678986 71.524979 C 485.146301 69.968666 490.158813 67.715042 494.019287 63.430134 C 495.393677 61.914249 496.161743 60.418571 496.272888 58.973427 C 496.43457 57.204887 495.615997 55.507095 493.736328 53.900253 Z M 427.956879 47.280884 L 463.469086 47.280884 L 463.469086 52.869453 L 427.956879 52.869453 Z M 412.707062 46.85643 L 424.035797 46.85643 C 422.580536 49.059517 421.317322 50.959435 420.043945 52.889664 L 408.755646 52.889664 C 410.221008 50.656258 411.46405 48.746239 412.707062 46.85643 Z M 390.413391 46.87664 C 391.646332 48.726028 392.919678 50.636047 394.425446 52.869453 L 383.076538 52.869453 C 381.904236 51.090813 380.600555 49.130264 379.11499 46.87664 Z M 365.72464 47.311195 L 375.56781 47.311195 L 375.56781 52.889664 L 365.72464 52.889664 Z M 323.845734 47.220245 C 334.083038 47.119186 344.300079 47.119186 354.527313 47.220245 C 357.680359 47.250565 359.741943 49.787148 359.408447 52.909874 L 318.984772 52.909874 C 318.711945 49.777046 320.753326 47.240456 323.845734 47.220245 Z M 270.304565 47.392044 C 270.981689 47.301094 271.436462 47.179817 271.901306 47.179817 C 283.442261 47.169716 294.993347 47.149506 306.544403 47.189926 C 310.020844 47.189926 312.173401 49.423332 312.001587 52.889664 L 270.446075 52.889664 C 270.395538 52.131721 270.324799 51.535469 270.304565 50.929115 C 270.294495 49.777046 270.304565 48.624962 270.304565 47.392044 Z M 212.104614 47.210136 C 221.98819 47.129288 231.87178 47.129288 241.755371 47.210136 C 244.867996 47.230354 246.939713 49.686089 246.747696 52.859344 L 206.991013 52.859344 C 207.051651 49.443542 208.96167 47.230354 212.104614 47.210136 Z M 165.182831 47.189926 C 169.174667 47.119186 173.156403 47.169716 177.148239 47.169716 L 201.806671 47.169716 L 201.806671 52.849236 L 159.877228 52.849236 C 159.513412 49.60524 161.70639 47.240456 165.182831 47.189926 Z M 118.877525 47.321304 L 154.349289 47.321304 L 154.349289 52.879562 L 118.877525 52.879562 Z M 58.84837 47.341515 C 59.495152 47.280884 60.030766 47.179817 60.556271 47.179817 C 76.159805 47.169716 91.763344 47.159607 107.366875 47.179817 C 110.964592 47.189926 113.13736 49.413231 112.975662 52.899765 L 58.84837 52.899765 Z M 35.968575 65.047081 C 32.593197 65.067291 29.581635 62.257851 29.349199 58.973427 C 29.31888 58.821835 29.31888 58.660141 29.31888 58.498447 C 29.349199 55.07254 32.350658 52.121613 35.8372 52.101402 C 39.475327 52.081192 42.507103 55.03212 42.486893 58.579296 C 42.486893 58.71067 42.476788 58.842049 42.466679 58.973427 C 42.234241 62.247742 39.293423 65.026871 35.968575 65.047081 Z M 68.640999 71.140945 L 58.84837 71.140945 L 58.84837 54.688515 L 68.640999 54.688515 Z M 90.752754 71.171272 L 81.010651 71.171272 L 81.010651 54.759254 L 90.752754 54.759254 Z M 113.026199 71.130844 L 102.99102 71.130844 L 102.99102 54.759254 L 113.026199 54.759254 Z M 154.31897 71.161163 C 153.601456 71.201584 152.883926 71.282425 152.146194 71.282425 C 143.546066 71.292542 134.956039 71.302643 126.355896 71.282425 C 121.151352 71.272324 118.796677 68.877228 118.816879 63.723209 C 118.826988 62.146683 118.816879 60.57016 118.816879 58.973427 L 118.816879 54.749153 L 128.70047 54.749153 C 129.215866 56.659172 130.751968 56.8815 132.530609 56.871391 C 138.301102 56.820862 144.08168 56.851189 149.862274 56.851189 L 152.732346 56.851189 L 152.732346 62.035519 L 129.104706 62.035519 C 128.740891 64.814644 129.438202 65.693863 131.873734 65.703964 C 138.483002 65.734283 145.082153 65.714073 151.68132 65.714073 L 154.31897 65.714073 Z M 201.887527 64.582214 C 201.675293 68.220337 198.724365 71.201584 195.035721 71.252113 C 189.608826 71.343071 184.181961 71.292542 178.755081 71.292542 C 174.692505 71.292542 170.64003 71.322853 166.587555 71.272324 C 162.231903 71.231903 159.685211 68.634682 159.665009 64.339668 L 159.665009 54.587456 L 169.710297 54.587456 L 169.710297 62.257851 C 169.720383 65.410896 170.013458 65.714073 173.095764 65.714073 L 188.345581 65.714073 C 188.759933 65.714073 189.174286 65.724174 189.588623 65.693863 C 190.760895 65.613022 191.751297 65.036972 191.438019 63.804054 C 191.266205 63.126961 190.245499 62.237637 189.558304 62.197212 C 186.475998 62.015305 183.373474 62.106258 180.281067 62.106258 L 177.552475 62.106258 L 177.552475 57.285736 C 177.663635 57.194786 177.774811 57.033089 177.865753 57.033089 C 183.979843 57.033089 190.093918 56.851189 196.18779 57.124039 C 197.602615 57.184677 198.875961 57.902199 199.866348 58.973427 C 201.210434 60.428677 202.01889 62.540813 201.887527 64.582214 Z M 216.813965 71.140945 L 206.879852 71.140945 L 206.879852 54.739052 L 216.813965 54.739052 Z M 246.808319 71.120743 L 236.975266 71.120743 C 236.914642 69.594742 236.843887 68.119278 236.763046 66.350746 L 218.926102 66.350746 L 218.926102 59.65052 L 236.823669 59.65052 L 236.823669 54.728943 L 246.808319 54.728943 Z M 280.309448 71.120743 L 270.425873 71.120743 L 270.425873 54.728943 L 280.309448 54.728943 Z M 312.1633 64.723694 C 312.112762 68.200134 309.899567 71.080315 306.493896 71.161163 C 298.399048 71.363281 290.294098 71.221794 281.936493 71.221794 L 281.936493 65.85556 C 282.835938 65.805023 283.634277 65.724174 284.432648 65.724174 C 289.384552 65.714073 294.326355 65.734283 299.288361 65.714073 C 301.582397 65.693863 302.097809 65.188568 302.118011 62.934944 C 302.128113 61.621174 302.138214 60.307407 302.138214 58.973427 C 302.138214 57.599022 302.128113 56.204407 302.128113 54.759254 L 312.24411 54.759254 C 312.24411 56.133659 312.254242 57.538383 312.24411 58.943111 L 312.24411 58.973427 C 312.223938 60.883446 312.193604 62.80357 312.1633 64.723694 Z M 328.777435 71.120743 L 318.82309 71.120743 L 318.82309 54.708725 L 328.777435 54.708725 Z M 361.318481 71.272324 C 357.761169 71.272324 354.203918 71.413811 350.656738 71.181366 C 349.706757 71.110626 348.635529 70.059616 347.968536 69.190506 C 346.139374 66.775192 343.86554 65.9263 340.854004 66.189056 C 337.721161 66.441704 334.558014 66.239578 331.20282 66.239578 L 331.20282 59.579781 L 341.339081 59.579781 C 343.117706 59.579781 344.906464 59.579781 346.695221 59.569675 C 347.928131 59.559566 348.625427 59.428192 349.029694 58.973427 C 349.383362 58.579296 349.494537 57.912308 349.534973 56.830971 C 349.545074 56.163986 349.605713 55.496994 349.646118 54.718834 L 359.479187 54.718834 C 359.762177 56.254936 359.802612 57.669762 359.509521 58.973427 C 359.034546 61.166409 357.650024 63.036007 354.982056 64.592316 C 357.458008 66.623611 359.711609 68.483093 361.96524 70.332474 C 361.753021 70.64576 361.530701 70.959045 361.318481 71.272324 Z M 375.507172 71.161163 L 365.704437 71.161163 L 365.704437 54.739052 L 375.507172 54.739052 Z M 407.795593 71.181366 L 395.345093 71.181366 C 392.656921 67.159225 389.958649 63.126961 387.169403 58.973427 C 386.229553 57.578812 385.289734 56.163986 384.329651 54.739052 L 395.638184 54.739052 C 396.537598 56.103348 397.467346 57.508064 398.427429 58.973427 C 399.427887 60.489315 400.468811 62.065838 401.570343 63.723209 C 402.651672 62.086048 403.672363 60.51963 404.682953 58.973427 C 405.622833 57.538383 406.552551 56.123558 407.492401 54.698624 L 418.800903 54.698624 C 417.840881 56.143768 416.8909 57.568703 415.95108 58.973427 C 413.182037 63.106747 410.493866 67.128906 407.795593 71.181366 Z M 463.418579 71.151054 C 462.791962 71.191483 462.074463 71.282425 461.356964 71.282425 C 452.696167 71.292542 444.025299 71.312752 435.374634 71.282425 C 430.21051 71.262222 427.89624 68.85701 427.916473 63.642361 C 427.926544 62.086048 427.926544 60.539845 427.926544 58.973427 C 427.916473 57.588913 427.916473 56.204407 427.916473 54.819893 C 428.310577 54.728943 428.573364 54.617775 428.825989 54.617775 C 431.716278 54.597565 434.606598 54.607674 437.779816 54.607674 C 438.214417 57.043198 440.154724 56.86129 442.044525 56.851189 C 447.754395 56.84108 453.454102 56.851189 459.16394 56.86129 C 460.033081 56.86129 460.912292 56.95224 461.852142 57.002769 L 461.852142 62.025414 L 438.254822 62.025414 C 437.81015 64.794434 438.507446 65.683762 440.942993 65.703964 C 447.471436 65.734283 454.009949 65.714073 460.538361 65.714073 L 463.418579 65.714073 Z M 483.781982 65.047081 C 480.396484 65.05719 477.39505 62.267952 477.152496 58.973427 C 477.132263 58.831944 477.122192 58.69046 477.122192 58.548977 C 477.091858 55.092751 480.194366 52.091293 483.761749 52.101402 C 487.359497 52.111511 490.371033 55.112968 490.300293 58.639931 C 490.300293 58.751095 490.290192 58.862259 490.28009 58.973427 C 490.047638 62.267952 487.127045 65.026871 483.781982 65.047081 Z"/>
    </g>
</svg>
