<?xml version="1.0" encoding="UTF-8"?>
<!-- Generated by Pixelmator Pro 3.5.7 -->
<svg width="520" height="160" viewBox="0 0 520 160" xmlns="http://www.w3.org/2000/svg">
    <g id="Page-1">
        <g id="mainlogo">
            <g id="SEGAlogo">
                <path id="Path" fill="#ffffff" stroke="none" d="M 68.109924 41.883957 C 70.64801 44.34877 74.109077 45.872635 77.926346 45.872635 L 138.23999 45.879547 L 125.214096 7.019363 C 123.434952 2.891052 119.261024 0 114.247978 0 C 109.256134 0 105.019081 2.985519 103.306282 7.096786 L 98.964165 19.755417 L 98.947121 0.65387 L 77.884415 0.64328 C 74.077286 0.64328 70.654922 2.128891 68.134346 4.586334 L 68.141716 0.660324 L 46.575817 0.660324 C 42.559025 0.660324 38.905804 2.373123 36.350666 5.065109 L 36.350666 0.64328 L 16.02478 0.660782 C 7.250227 0.653412 0.052531 7.512421 0.041933 16.580963 C 0.041933 20.779312 1.876838 24.586899 4.582656 27.407928 L 0 27.400543 L 0 45.872635 L 20.478872 45.86895 C 26.232882 45.862038 31.93482 42.390373 33.916721 38.230728 L 33.976166 38.059769 C 36.265881 42.684357 41.044376 45.872635 46.574898 45.872635 L 68.109459 45.86895 L 68.109459 41.883957"/>
                <path id="path1" fill="#0060a8" stroke="none" d="M 3.163853 42.712006 L 20.433252 42.694504 C 27.498699 42.694504 33.224598 36.986115 33.224598 29.952454 C 33.224598 22.904984 27.498699 17.196136 20.433252 17.196136 L 15.948287 17.220551 C 15.594853 17.220551 15.308236 16.93071 15.308236 16.574051 C 15.308236 16.217392 15.594853 15.927094 15.948287 15.927094 L 33.186352 15.930771 L 33.193264 10.522827 L 15.944601 10.522827 C 12.609791 10.522827 9.896601 13.231873 9.896601 16.560226 C 9.896601 19.891815 12.60933 22.590256 15.944601 22.590256 L 20.450764 22.649704 C 24.498892 22.649704 27.774719 25.914474 27.774719 29.942322 C 27.774719 33.972931 24.499352 37.245079 20.450764 37.245079 L 3.170765 37.245079 L 3.163853 42.712006"/>
                <path id="path2" fill="#0060a8" stroke="none" d="M 3.170765 35.975571 L 20.450764 35.975571 C 23.796171 35.975571 26.501989 33.27713 26.501989 29.941864 C 26.501989 26.610275 23.796171 23.915054 20.450764 23.915054 L 15.944601 23.866211 C 11.903385 23.866211 8.624332 20.597763 8.624332 16.559769 C 8.624332 12.532837 11.903385 9.263916 15.944601 9.263916 L 33.193264 9.260239 L 33.186352 3.831558 L 15.948287 3.831558 C 8.890214 3.831558 3.156941 9.533493 3.156941 16.574051 C 3.156941 23.614624 8.890214 29.319778 15.948287 29.319778 L 20.408831 29.326691 C 20.74798 29.326691 21.034597 29.60318 21.034597 29.952454 C 21.034597 30.295288 20.74798 30.57132 20.408831 30.57132 L 3.163853 30.585144 L 3.170765 35.975571"/>
                <path id="path3" fill="#0060a8" stroke="none" d="M 46.613605 37.27964 C 43.617481 37.27964 41.163261 34.891769 41.163261 31.843124 L 41.163261 14.59169 C 41.163261 11.658707 43.617481 9.246414 46.613605 9.246414 L 65.046982 9.249634 L 65.046982 3.831558 L 46.613605 3.831558 C 40.61491 3.831558 35.755775 8.673172 35.755775 14.651138 L 35.755775 31.843582 C 35.755775 37.821999 40.61491 42.670532 46.613605 42.670532 L 64.970032 42.67791 L 64.966347 37.273193 L 46.613605 37.27964"/>
                <path id="path4" fill="#0060a8" stroke="none" d="M 42.484837 14.651138 C 42.484837 12.365112 44.323887 10.512222 46.613605 10.512222 L 65.046982 10.512222 L 65.046982 15.937683 L 49.165512 15.937683 C 47.893246 15.937683 47.875736 17.199814 47.875736 17.199814 L 61.125118 17.199814 L 61.125118 22.600861 L 42.478386 22.600861 L 42.484837 14.651138"/>
                <path id="path5" fill="#0060a8" stroke="none" d="M 46.613605 35.965439 C 44.330799 35.965439 42.477924 34.123154 42.477924 31.843582 L 42.477924 23.886948 L 61.124657 23.886948 L 61.124657 29.299042 L 47.875275 29.299042 C 47.892784 30.57132 49.165054 30.577759 49.165054 30.577759 L 64.969574 30.577759 L 64.965881 35.958069 L 46.613605 35.965439"/>
                <path id="path6" fill="#0060a8" stroke="none" d="M 77.964592 37.265816 C 74.979065 37.265816 72.539131 34.832794 72.539131 31.843124 L 72.539131 14.650681 C 72.539131 11.658234 74.961555 9.245956 77.950302 9.245956 L 95.804001 9.245956 L 95.804001 3.831558 L 77.908836 3.831558 C 71.912903 3.831558 67.053772 8.673172 67.053772 14.651138 L 67.053772 31.843582 C 67.053772 37.821999 71.954834 42.670532 77.950302 42.670532 L 95.804001 42.67791 L 95.804001 17.199814 L 80.460747 17.199814 L 80.460747 22.600861 L 90.381767 22.600861 L 90.381767 37.265816 L 77.964592 37.265816"/>
                <path id="path7" fill="#0060a8" stroke="none" d="M 73.811401 31.843124 C 73.811401 34.133759 75.664276 35.996765 77.950302 35.996765 L 89.102127 35.996765 L 89.102127 23.880035 L 80.474106 23.880035 L 80.474106 29.299042 L 83.676208 29.299042 L 83.68634 30.57132 L 80.498528 30.57132 C 79.802719 30.57132 79.23317 29.994858 79.23317 29.299042 L 79.204605 17.196136 C 79.204605 17.196136 79.20092 15.937683 80.484245 15.906357 L 95.80999 15.906357 L 95.803078 10.508545 L 77.949387 10.512222 C 75.663353 10.512222 73.810478 12.365112 73.810478 14.651138 L 73.810478 31.843124"/>
                <path id="path8" fill="#0060a8" stroke="none" d="M 112.580345 10.431595 C 112.820885 9.743149 113.474754 9.246872 114.24752 9.246872 C 115.020744 9.246872 115.681068 9.743149 115.915154 10.431595 L 124.581879 36.035019 L 111.891449 36.035019 L 111.905273 30.011902 L 116.146011 30.011902 L 114.236923 24.338074 L 108.017967 42.673302 L 101.620682 42.673302 L 112.580345 10.431595"/>
                <path id="path9" fill="#0060a8" stroke="none" d="M 126.329231 37.265816 L 111.912643 37.265816 L 111.912643 42.673302 L 133.852249 42.673302 L 122.441925 8.914169 C 121.441994 5.621292 118.145889 3.198868 114.243835 3.198868 C 110.335793 3.198868 107.049828 5.610703 106.042519 8.900818 L 94.527588 42.673767 L 100.271454 42.673767 L 111.451385 9.844528 C 111.905273 8.757507 112.975716 7.991653 114.234154 7.991653 C 115.485687 7.991653 116.562119 8.757507 117.020149 9.837616 L 126.329231 37.265816"/>
                <path id="Shape" fill="#ffffff" stroke="none" d="M 129.717041 8.128052 C 130.738174 8.128052 131.699402 7.729462 132.419632 7.012909 C 133.139404 6.289459 133.541672 5.335144 133.541672 4.314468 C 133.541672 3.300705 133.139404 2.349625 132.419632 1.62616 C 131.699402 0.9133 130.738174 0.514709 129.717041 0.514709 C 127.616249 0.514709 125.899765 2.217361 125.899765 4.314926 C 125.899765 5.335602 126.298363 6.289917 127.02504 7.013382 C 127.74205 7.729462 128.699585 8.128052 129.717041 8.128052 M 126.438446 4.314011 C 126.438446 3.443558 126.773903 2.618729 127.399216 1.999878 C 128.021759 1.381012 128.846588 1.045547 129.717041 1.045547 C 130.598083 1.045547 131.422913 1.381485 132.045456 1.999878 C 132.664307 2.618729 133.007141 3.443558 133.007141 4.314011 C 133.007141 6.121262 131.531662 7.589371 129.717041 7.589371 C 128.84613 7.589371 128.021286 7.250229 127.399216 6.631378 C 126.773445 6.012985 126.438446 5.191376 126.438446 4.314011 Z"/>
                <path id="path10" fill="#ffffff" stroke="none" d="M 128.738297 4.635651 L 128.738297 6.432312 L 128.185791 6.432312 L 128.185791 2.209534 L 129.75528 2.209534 C 130.346481 2.216446 130.692551 2.216446 131.021103 2.464355 C 131.33905 2.698898 131.472229 3.05188 131.472229 3.443558 C 131.472229 4.429672 130.668594 4.558701 130.46492 4.600632 L 131.653778 6.432312 L 130.986084 6.432312 L 129.82901 4.635651 L 128.738297 4.635651 M 128.738297 4.1707 L 129.860352 4.1707 C 130.039139 4.1707 130.206863 4.1707 130.374603 4.128769 C 130.766281 4.034302 130.905899 3.754593 130.905899 3.44725 C 130.905899 3.335266 130.895294 3.052338 130.653839 2.856491 C 130.433121 2.671249 130.15387 2.678162 129.82901 2.678162 L 128.738297 2.678162 L 128.738297 4.1707 L 128.738297 4.1707 Z"/>
            </g>
        </g>
    </g>
    <g id="logo-svgeu-2">
        <linearGradient id="linearGradient1" x1="257.275" y1="131.0088" x2="257.275" y2="71.332" gradientUnits="userSpaceOnUse">
            <stop offset="1e-05" stop-color="#ffffff" stop-opacity="1"/>
            <stop offset="0.1086" stop-color="#fcfcfe" stop-opacity="1"/>
            <stop offset="0.1965" stop-color="#f2f3f9" stop-opacity="1"/>
            <stop offset="0.2773" stop-color="#e1e5f1" stop-opacity="1"/>
            <stop offset="0.3537" stop-color="#c9d0e6" stop-opacity="1"/>
            <stop offset="0.4265" stop-color="#aab5d8" stop-opacity="1"/>
            <stop offset="0.4588" stop-color="#9aa7d0" stop-opacity="1"/>
            <stop offset="0.5107" stop-color="#b3bcdb" stop-opacity="1"/>
            <stop offset="0.584" stop-color="#ced5e8" stop-opacity="1"/>
            <stop offset="0.6633" stop-color="#e4e7f2" stop-opacity="1"/>
            <stop offset="0.7506" stop-color="#f3f5fa" stop-opacity="1"/>
            <stop offset="0.8518" stop-color="#fcfdfe" stop-opacity="1"/>
            <stop offset="1" stop-color="#ffffff" stop-opacity="1"/>
        </linearGradient>
        <path id="Trazado" fill="url(#linearGradient1)" stroke="none" d="M 514.541992 128.098999 C 514.531982 128.408997 514.512024 128.718994 514.471985 129.018997 C 514.382019 129.709 514.231995 130.369003 514.031982 131.009003 L 0.572 131.009003 C 0.352 130.339005 0.192 129.679001 0.102 129.018997 C -0.418 125.339005 1.062 121.789001 4.452 118.869003 C 8.952 115.018997 14.222 112.518997 19.761999 110.509003 C 31.562 106.209 43.852001 104.139 56.301998 103.729004 C 70.912003 103.259003 85.542 103.579002 100.171997 103.669006 C 119.662003 103.798996 139.082001 102.938995 158.292007 99.499001 C 171.932007 97.048996 185.022003 93.118996 196.972 85.619003 C 209.011993 78.069 222.442001 74.219002 236.522003 72.539001 C 247.921997 71.168999 259.332001 71.028999 270.761993 71.799004 C 288.171997 72.969002 304.691986 77.289001 319.562012 86.729004 C 329.511993 93.048996 340.582001 96.238998 351.891998 98.649002 C 365.35199 101.528999 379.032013 102.959 392.791992 103.179001 C 408.09201 103.429001 423.402008 103.268997 438.701996 103.149002 C 454.532013 103.018997 470.252014 103.889 485.682007 107.699005 C 493.761993 109.699005 501.562012 112.479004 508.391998 117.469002 C 512.002014 120.098999 514.721985 123.278999 514.541992 128.098999 Z"/>
        <linearGradient id="linearGradient2" x1="257.3016" y1="153.9996" x2="257.3016" y2="131.0088" gradientUnits="userSpaceOnUse">
            <stop offset="1e-05" stop-color="#ffffff" stop-opacity="1"/>
            <stop offset="1" stop-color="#5a78b5" stop-opacity="1"/>
        </linearGradient>
        <path id="path11" fill="url(#linearGradient2)" stroke="none" d="M 514.031982 131.009003 C 513.461975 132.778992 512.481995 134.369003 511.321991 135.878998 C 507.981995 140.238998 503.321991 142.748993 498.502014 145.039001 C 489.902008 149.119003 480.682007 150.668991 471.381989 152.039001 C 455.541992 154.369003 439.60199 153.768997 423.701996 153.848999 C 387.902008 154.018997 352.10199 153.94899 316.312012 153.968994 L 257.10199 153.968994 L 257.10199 153.988998 C 209.182007 153.988998 161.272003 154.018997 113.362 153.979004 C 96.482002 153.959 79.601997 153.968994 62.731998 153.589005 C 48.562 153.268997 34.492001 151.789001 21.002001 147.039001 C 15.872 145.238998 10.862 143.009003 6.702 139.369003 C 5.082 137.959 3.572 136.319 2.352 134.548996 C 1.552 133.378998 0.962 132.188995 0.572 131.009003 Z"/>
        <path id="path12" fill="#000000" stroke="none" d="M 508.391998 117.469002 C 501.562012 112.479004 493.761993 109.699005 485.682007 107.699005 C 470.252014 103.889 454.532013 103.018997 438.701996 103.149002 C 423.402008 103.268997 408.09201 103.429001 392.791992 103.179001 C 379.032013 102.959 365.35199 101.528999 351.891998 98.649002 C 340.582001 96.238998 329.511993 93.048996 319.562012 86.729004 C 304.691986 77.289001 288.171997 72.969002 270.761993 71.799004 C 259.332001 71.028999 247.921997 71.168999 236.522003 72.539001 C 222.442001 74.219002 209.011993 78.069 196.972 85.619003 C 185.022003 93.118996 171.932007 97.048996 158.292007 99.499001 C 139.082001 102.938995 119.662003 103.798996 100.171997 103.669006 C 85.542 103.579002 70.912003 103.259003 56.301998 103.729004 C 43.852001 104.139 31.562 106.209 19.761999 110.509003 C 14.222 112.518997 8.952 115.018997 4.452 118.869003 C 1.062 121.789001 -0.418 125.339005 0.102 129.018997 C 0.352 130.848999 1.102 132.718994 2.352 134.548996 C 3.572 136.319 5.082 137.959 6.702 139.369003 C 10.862 143.009003 15.872 145.238998 21.002001 147.039001 C 34.492001 151.789001 48.562 153.268997 62.731998 153.589005 C 79.601997 153.968994 96.482002 153.959 113.362 153.979004 C 161.272003 154.018997 209.182007 153.988998 257.10199 153.988998 L 257.10199 153.968994 L 316.312012 153.968994 C 352.10199 153.94899 387.902008 154.018997 423.701996 153.848999 C 439.60199 153.768997 455.541992 154.369003 471.381989 152.039001 C 480.682007 150.668991 489.902008 149.119003 498.502014 145.039001 C 503.321991 142.748993 507.981995 140.238998 511.321991 135.878998 C 512.901978 133.819 514.151978 131.609009 514.471985 129.018997 C 514.512024 128.718994 514.531982 128.408997 514.541992 128.098999 C 514.721985 123.278999 512.002014 120.098999 508.391998 117.469002 Z M 211.552002 87.378998 C 216.852005 84.418999 222.722 83.219002 228.612 82.209 C 243.572006 79.639 258.641998 79.198997 273.742004 80.249001 C 283.701996 80.939003 293.631989 82.069 303.112 85.499001 C 304.951996 86.168999 306.761993 87.039001 308.372009 88.139 C 311.962006 90.578995 312.052002 93.658997 308.321991 95.838997 C 305.372009 97.558998 302.10199 98.949005 298.802002 99.839005 C 285.84201 103.348999 272.541992 104.018997 262.802002 104.079002 C 247.132004 104.079002 235.121994 103.378998 223.332001 100.688995 C 219.582001 99.828995 215.992004 98.298996 212.341995 97.069 C 212.082001 96.979004 211.841995 96.848999 211.612 96.699005 C 209.841995 95.558998 207.832001 94.518997 207.802002 92.048996 C 207.772003 89.558998 209.722 88.399002 211.552002 87.378998 Z M 497.541992 136.348999 C 491.992004 141.078995 485.302002 143.30899 478.462006 145.168991 C 468.041992 147.998993 457.372009 149.268997 446.60199 149.30899 C 389.772003 149.528992 332.941986 149.638992 276.10199 149.778992 C 232.682007 149.888992 189.251999 150.098999 145.832001 150.048996 C 119.222 150.018997 92.612 149.759003 66.001999 149.238998 C 52.981998 148.998993 40.091999 147.128998 27.922001 142.218994 C 23.902 140.589005 20.091999 138.069 16.732 135.309006 C 14.472 133.459 13.322 131.268997 13.222 129.018997 C 13.112 126.579002 14.242 124.069 16.532 121.839005 C 21.312 117.209 27.341999 114.848999 33.562 113.018997 C 42.411999 110.419006 51.512001 109.018997 60.692001 108.809006 C 77.702003 108.429001 94.722 108.579002 111.722 108.229004 C 130.432007 107.839005 149.082001 106.639 167.382004 102.259003 C 175.132004 100.399002 182.662003 97.929001 189.942001 94.698997 C 190.102005 94.628998 190.281998 94.588997 190.341995 94.578995 C 194.292007 96.988998 197.882004 99.449005 201.712006 101.459 C 208.352005 104.938995 215.692001 106.219002 222.981995 107.528999 C 235.781998 109.819 248.701996 109.639 261.631989 109.658997 C 275.212006 109.688995 288.661987 108.789001 301.911987 105.569 C 309.951996 103.609001 317.34201 100.399002 323.671997 94.948997 C 323.872009 94.778999 324.131989 94.679001 324.182007 94.668999 C 330.791992 96.878998 337.022003 99.209 343.402008 101.039001 C 354.011993 104.089005 364.891998 105.679001 375.872009 106.729004 C 398.541992 108.908997 421.291992 108.149002 444.011993 108.348999 C 456.552002 108.459 469.002014 109.499001 481.141998 112.869003 C 487.131989 114.528999 492.891998 116.798996 497.712006 120.899002 C 500.791992 123.518997 502.212006 126.268997 502.011993 129.018997 C 501.832001 131.498993 500.332001 133.968994 497.541992 136.348999 Z"/>
        <path id="path13" fill="#000000" stroke="none" d="M 233.891998 87.518997 C 233.369995 88.214996 233.214996 89.75 233.522003 90.639 C 233.880997 91.679001 234.748993 92.370995 236.098999 92.586998 C 236.987 92.728996 238.037994 92.578995 238.957993 92.758995 C 240.378006 93.039001 241.281006 93.908997 241.231003 95.368996 C 241.171005 96.828995 240.291 97.819 238.770996 97.859001 C 236.261002 97.938995 233.751007 97.878998 231.050995 97.878998 C 230.981003 97.199005 230.931 96.649002 230.860992 95.808998 L 238.660995 95.808998 C 238.690994 95.598999 238.688004 95.125 238.707993 94.915001 C 237.981003 94.915001 237.460999 94.908997 236.811005 94.878998 C 233.431 94.738998 230.921005 92.448997 230.860992 89.418999 C 230.800995 86.289001 233.110992 83.829002 236.501007 83.658997 C 238.990997 83.528999 241.490997 83.628998 244.100998 83.628998 L 244.100998 85.889 C 241.850998 85.889 239.610992 85.709 237.410995 85.959 C 236.171997 86.088997 234.707993 86.431 233.891998 87.518997 Z M 238.722 89.768997 C 237.951996 89.679001 237.188004 89.828003 236.427994 89.727997 C 236.438004 89.528 236.442001 89.079002 236.462006 88.869003 L 244.171997 88.869003 C 244.132004 87.999001 244.072006 86.829002 244.072006 86.829002 C 244.072006 86.829002 238.781998 86.649002 236.242004 86.939003 C 235.412003 87.028999 234.173004 87.541 234.091995 89.088997 C 234.005997 90.745995 234.365005 91.102997 235.115005 91.602997 C 235.481003 91.847 236.192001 91.968994 236.582001 91.999001 C 237.192001 92.048996 237.802002 92.008995 238.421997 92.018997 C 240.511993 92.069 241.882004 93.278999 241.942001 95.148994 C 242.011993 97.069 240.612 98.578995 238.511993 98.658997 C 236.022003 98.749001 233.522003 98.679001 230.852005 98.679001 C 230.901993 99.598999 230.942001 100.229004 230.981995 100.988998 C 233.882004 100.988998 236.591995 101.109001 239.292007 100.959 C 242.121994 100.798996 244.231995 98.319 244.242004 95.459 C 244.261993 92.429001 242.052002 90.148994 238.722 89.768997 Z M 250.761993 98.649002 C 248.901993 98.668999 247.992004 97.718994 247.972 95.918999 C 247.932007 93.679001 247.921997 91.429001 247.942001 89.189003 C 247.962006 86.628998 248.682007 85.908997 251.201996 85.889 C 253.561996 85.869003 255.921997 85.889 258.362 85.889 L 258.362 83.658997 C 255.371994 83.658997 252.522003 83.528999 249.692001 83.698997 C 247.451996 83.829002 245.992004 85.229004 245.852005 87.478996 C 245.641998 90.648994 245.632004 93.859001 245.792007 97.039001 C 245.901993 99.199005 247.322006 100.729004 249.371994 100.859001 C 252.332001 101.048996 255.311996 100.899002 258.402008 100.899002 L 258.402008 98.649002 C 255.761993 98.649002 253.261993 98.639 250.761993 98.649002 Z M 258.35199 86.829002 C 255.692001 86.829002 253.182007 86.689003 250.701996 86.918999 C 250.031998 86.979004 248.901993 87.384003 248.901993 88.829002 C 248.901993 89.542 248.841995 90.528999 248.841995 91.679001 L 256.761993 91.679001 C 256.721985 90.959 256.691986 90.418999 256.652008 89.639 L 251.591995 89.639 C 251.591995 89.429001 251.591995 89.219002 251.582001 89.018997 L 258.35199 89.018997 Z M 251.511993 95.588997 C 251.511993 95.348999 251.522003 95.118996 251.531998 94.878998 L 256.782013 94.878998 C 256.742004 94.098999 256.712006 93.598999 256.682007 93.078995 L 248.832001 93.078995 C 248.832001 94.078995 248.882004 94.906998 248.882004 95.679001 C 248.882004 96.946999 249.772003 97.668999 250.322006 97.709 C 252.981995 97.929001 255.671997 97.808998 258.421997 97.808998 L 258.421997 95.588997 Z M 272.641998 88.929001 L 272.641998 86.808998 C 269.951996 86.808998 267.511993 86.829002 265.071991 86.808998 C 263.742004 86.789001 262.992004 87.499001 262.941986 88.749001 C 262.85199 91.109001 262.761993 93.499001 262.962006 95.848999 C 263.011993 96.558998 263.932007 97.628998 264.59201 97.759003 C 266.131989 98.039001 267.761993 97.848999 269.451996 97.848999 L 269.451996 92.698997 C 268.242004 92.698997 268.411987 92.698997 266.911987 92.698997 C 266.911987 93.808998 266.862 94.319 266.862 95.468994 C 266.312012 95.378998 265.862 95.499001 265.34201 95.418999 L 265.34201 88.929001 Z M 289.282013 99.268997 C 287.881989 95.008995 286.441986 90.768997 285.071991 86.499001 C 284.432007 84.528999 283.182007 83.259003 281.112 83.289001 C 279.152008 83.329002 277.951996 84.558998 277.34201 86.469002 C 276.191986 90.088997 274.962006 93.688995 273.742004 97.289001 C 273.59201 97.718994 273.332001 98.119003 273.122009 98.539001 C 272.981995 98.488998 272.832001 98.459 272.691986 98.418999 L 272.691986 89.838997 L 266.052002 89.838997 L 265.994995 91.779999 L 270.372009 91.798996 C 270.372009 91.798996 270.321991 96.369003 270.321991 98.688995 C 268.362 98.688995 266.541992 98.668999 264.721985 98.688995 C 262.921997 98.718994 262.131989 97.819 262.141998 96.048996 C 262.171997 93.668999 262.131989 91.289001 262.141998 88.899002 C 262.171997 86.579002 262.84201 85.918999 265.212006 85.889 C 267.652008 85.869003 270.082001 85.889 272.631989 85.889 L 272.631989 83.649002 C 269.582001 83.649002 266.731995 83.528999 263.891998 83.689003 C 261.502014 83.819 259.941986 85.499001 259.891998 87.789001 C 259.812012 90.859001 259.812012 93.918999 259.881989 96.979004 C 259.932007 99.098999 261.492004 100.878998 263.532013 100.949005 C 267.261993 101.078995 271.002014 100.988998 274.761993 100.988998 C 275.09201 100.089005 275.391998 99.328995 275.652008 98.558998 C 276.971985 94.709 278.242004 90.838997 279.631989 87.009003 C 279.84201 86.408997 280.362 85.622002 281.052002 85.549004 C 281.723999 85.477997 282.332001 85.918999 282.481995 86.319 C 283.962006 90.368996 285.332001 94.459 286.881989 98.959 L 280.321991 98.959 C 280.362 99.798996 280.381989 100.308998 280.411987 100.908997 L 289.631989 100.908997 C 289.502014 100.278999 289.441986 99.759003 289.282013 99.268997 Z M 281.652008 85.969002 L 280.752014 85.999001 C 279.062012 90.908997 277.372009 95.808998 275.612 100.899002 L 278.261993 100.899002 C 278.802002 99.459 279.312012 98.089005 279.962006 96.348999 C 280.221985 97.168999 280.362 97.619003 280.492004 98.039001 L 285.802002 98.039001 C 284.372009 93.878998 283.011993 89.929001 281.652008 85.969002 Z M 280.291992 95.368996 C 280.552002 94.548996 281.082001 92.889 281.082001 92.889 C 281.082001 92.889 281.915985 94.578995 282.256012 95.368996 C 281.595001 95.429001 280.971985 95.308998 280.291992 95.368996 Z"/>
        <path id="path14" fill="#000000" stroke="none" d="M 488.562012 123.999001 C 486.071991 121.869003 483.182007 120.028999 480.182007 118.759003 C 471.962006 115.249001 463.221985 113.819 454.362 113.429001 C 445.872009 113.069 437.362 112.979004 428.85199 112.979004 C 314.432007 112.949005 200.022003 112.959 85.601997 112.959 C 79.342003 112.959 73.071999 112.819 66.811996 113.028999 C 56.472 113.378998 46.202 114.348999 36.352001 117.889 C 32.271999 119.359001 28.372 121.079002 25.412001 124.369003 C 23.992001 125.949005 23.322001 127.479004 23.422001 129.018997 C 23.492001 130.359009 24.142 131.699005 25.372 133.098999 C 28.302 136.429001 31.912001 138.778992 36.122002 140.248993 C 43.882 142.959 51.922001 144.289001 60.091999 144.628998 C 68.522003 144.988998 76.961998 145.098999 85.402 145.098999 C 142.641998 145.138992 199.882004 145.119003 257.131989 145.119003 L 282.652008 145.119003 C 335.951996 145.108994 389.242004 145.138992 442.541992 145.05899 C 453.35199 145.048996 464.141998 144.429001 474.652008 141.438995 C 480.062012 139.899002 485.022003 137.669006 488.84201 133.429001 C 490.201996 131.929001 490.962006 130.449005 491.071991 129.018997 C 491.231995 127.268997 490.421997 125.589005 488.562012 123.999001 Z M 423.471985 117.449005 L 458.612 117.449005 L 458.612 122.979004 L 423.471985 122.979004 Z M 408.381989 117.028999 L 419.59201 117.028999 C 418.152008 119.209 416.902008 121.089005 415.641998 122.999001 L 404.471985 122.999001 C 405.921997 120.789001 407.152008 118.899002 408.381989 117.028999 Z M 386.321991 117.048996 C 387.541992 118.878998 388.802002 120.768997 390.291992 122.979004 L 379.062012 122.979004 C 377.902008 121.219002 376.612 119.278999 375.141998 117.048996 Z M 361.891998 117.479004 L 371.631989 117.479004 L 371.631989 122.999001 L 361.891998 122.999001 Z M 320.451996 117.389 C 330.582001 117.289001 340.691986 117.289001 350.812012 117.389 C 353.932007 117.419006 355.971985 119.929001 355.641998 123.018997 L 315.641998 123.018997 C 315.372009 119.919006 317.391998 117.408997 320.451996 117.389 Z M 267.471985 117.559006 C 268.141998 117.469002 268.59201 117.348999 269.052002 117.348999 C 280.471985 117.339005 291.902008 117.319 303.332001 117.359001 C 306.772003 117.359001 308.902008 119.569 308.731995 122.999001 L 267.612 122.999001 C 267.562012 122.249001 267.492004 121.658997 267.471985 121.059006 C 267.462006 119.919006 267.471985 118.778999 267.471985 117.559006 Z M 209.882004 117.378998 C 219.662003 117.298996 229.442001 117.298996 239.222 117.378998 C 242.302002 117.399002 244.352005 119.829002 244.162003 122.969002 L 204.822006 122.969002 C 204.882004 119.589005 206.772003 117.399002 209.882004 117.378998 Z M 163.451996 117.359001 C 167.401993 117.289001 171.341995 117.339005 175.292007 117.339005 L 199.692001 117.339005 L 199.692001 122.959 L 158.201996 122.959 C 157.841995 119.749001 160.011993 117.408997 163.451996 117.359001 Z M 117.632004 117.488998 L 152.731995 117.488998 L 152.731995 122.988998 L 117.632004 122.988998 Z M 58.231998 117.509003 C 58.872002 117.449005 59.402 117.348999 59.922001 117.348999 C 75.362 117.339005 90.802002 117.329002 106.241997 117.348999 C 109.802002 117.359001 111.952003 119.559006 111.792 123.009003 L 58.231998 123.009003 Z M 35.591999 135.028992 C 32.251999 135.048996 29.271999 132.268997 29.042 129.018997 C 29.011999 128.869003 29.011999 128.709 29.011999 128.548996 C 29.042 125.158997 32.012001 122.238998 35.462002 122.219002 C 39.062 122.199005 42.062 125.119003 42.042 128.628998 C 42.042 128.759003 42.032001 128.889008 42.021999 129.018997 C 41.792 132.259003 38.882 135.009003 35.591999 135.028992 Z M 67.921997 141.05899 L 58.231998 141.05899 L 58.231998 124.778999 L 67.921997 124.778999 Z M 89.802002 141.089005 L 80.162003 141.089005 L 80.162003 124.848999 L 89.802002 124.848999 Z M 111.842003 141.048996 L 101.912003 141.048996 L 101.912003 124.848999 L 111.842003 124.848999 Z M 152.701996 141.078995 C 151.992004 141.119003 151.281998 141.19899 150.552002 141.19899 C 142.042007 141.209 133.542007 141.218994 125.031998 141.19899 C 119.882004 141.188995 117.552002 138.819 117.571999 133.718994 C 117.582001 132.158997 117.571999 130.598999 117.571999 129.018997 L 117.571999 124.839005 L 127.351997 124.839005 C 127.862 126.729004 129.382004 126.949005 131.141998 126.938995 C 136.852005 126.889 142.572006 126.919006 148.292007 126.919006 L 151.132004 126.919006 L 151.132004 132.048996 L 127.751999 132.048996 C 127.391998 134.798996 128.082001 135.669006 130.492004 135.679001 C 137.031998 135.709 143.561996 135.688995 150.091995 135.688995 L 152.701996 135.688995 Z M 199.772003 134.569 C 199.561996 138.168991 196.641998 141.119003 192.992004 141.168991 C 187.621994 141.259003 182.251999 141.209 176.882004 141.209 C 172.862 141.209 168.852005 141.238998 164.841995 141.188995 C 160.531998 141.149002 158.011993 138.578995 157.992004 134.32901 L 157.992004 124.679001 L 167.932007 124.679001 L 167.932007 132.268997 C 167.942001 135.389008 168.231995 135.688995 171.281998 135.688995 L 186.371994 135.688995 C 186.781998 135.688995 187.192001 135.699005 187.602005 135.669006 C 188.761993 135.589005 189.742004 135.018997 189.432007 133.798996 C 189.261993 133.128998 188.251999 132.248993 187.572006 132.209 C 184.522003 132.028992 181.451996 132.119003 178.391998 132.119003 L 175.692001 132.119003 L 175.692001 127.348999 C 175.802002 127.259003 175.912003 127.098999 176.001999 127.098999 C 182.052002 127.098999 188.102005 126.919006 194.132004 127.188995 C 195.531998 127.249001 196.792007 127.959 197.772003 129.018997 C 199.102005 130.459 199.901993 132.548996 199.772003 134.569 Z M 214.542007 141.05899 L 204.712006 141.05899 L 204.712006 124.829002 L 214.542007 124.829002 Z M 244.222 141.039001 L 234.492004 141.039001 C 234.432007 139.528992 234.362 138.069 234.281998 136.319 L 216.632004 136.319 L 216.632004 129.688995 L 234.341995 129.688995 L 234.341995 124.819 L 244.222 124.819 Z M 277.372009 141.039001 L 267.59201 141.039001 L 267.59201 124.819 L 277.372009 124.819 Z M 308.891998 134.709 C 308.84201 138.149002 306.652008 140.998993 303.282013 141.078995 C 295.272003 141.278992 287.252014 141.138992 278.981995 141.138992 L 278.981995 135.82901 C 279.872009 135.778992 280.661987 135.699005 281.451996 135.699005 C 286.35199 135.688995 291.242004 135.709 296.152008 135.688995 C 298.421997 135.669006 298.932007 135.169006 298.951996 132.938995 C 298.962006 131.639008 298.971985 130.339005 298.971985 129.018997 C 298.971985 127.658997 298.962006 126.278999 298.962006 124.848999 L 308.971985 124.848999 C 308.971985 126.209 308.981995 127.598999 308.971985 128.988998 L 308.971985 129.018997 C 308.951996 130.908997 308.921997 132.809006 308.891998 134.709 Z M 325.332001 141.039001 L 315.481995 141.039001 L 315.481995 124.798996 L 325.332001 124.798996 Z M 357.532013 141.188995 C 354.011993 141.188995 350.492004 141.328995 346.981995 141.098999 C 346.041992 141.028992 344.981995 139.988998 344.321991 139.128998 C 342.511993 136.738998 340.261993 135.899002 337.282013 136.158997 C 334.182007 136.408997 331.052002 136.209 327.731995 136.209 L 327.731995 129.619003 L 337.761993 129.619003 C 339.522003 129.619003 341.291992 129.619003 343.062012 129.609009 C 344.282013 129.598999 344.971985 129.468994 345.372009 129.018997 C 345.721985 128.628998 345.832001 127.969002 345.872009 126.899002 C 345.881989 126.238998 345.941986 125.579002 345.981995 124.809006 L 355.712006 124.809006 C 355.992004 126.329002 356.032013 127.729004 355.742004 129.018997 C 355.272003 131.188995 353.902008 133.039001 351.261993 134.57901 C 353.712006 136.589005 355.941986 138.429001 358.171997 140.259003 C 357.962006 140.569 357.742004 140.878998 357.532013 141.188995 Z M 371.571991 141.078995 L 361.872009 141.078995 L 361.872009 124.829002 L 371.571991 124.829002 Z M 403.522003 141.098999 L 391.201996 141.098999 C 388.541992 137.119003 385.872009 133.128998 383.112 129.018997 C 382.182007 127.639 381.252014 126.238998 380.302002 124.829002 L 391.492004 124.829002 C 392.381989 126.179001 393.302002 127.569 394.252014 129.018997 C 395.242004 130.518997 396.272003 132.07901 397.362 133.718994 C 398.432007 132.098999 399.441986 130.548996 400.441986 129.018997 C 401.372009 127.598999 402.291992 126.199005 403.221985 124.789001 L 414.411987 124.789001 C 413.462006 126.219002 412.522003 127.628998 411.59201 129.018997 C 408.85199 133.109009 406.191986 137.089005 403.522003 141.098999 Z M 458.562012 141.069 C 457.941986 141.108994 457.231995 141.19899 456.522003 141.19899 C 447.951996 141.209 439.372009 141.229004 430.812012 141.19899 C 425.701996 141.179001 423.411987 138.798996 423.432007 133.639008 C 423.441986 132.098999 423.441986 130.569 423.441986 129.018997 C 423.432007 127.649002 423.432007 126.278999 423.432007 124.908997 C 423.821991 124.819 424.082001 124.709 424.332001 124.709 C 427.191986 124.688995 430.052002 124.699005 433.191986 124.699005 C 433.622009 127.109001 435.541992 126.929001 437.411987 126.919006 C 443.062012 126.908997 448.701996 126.919006 454.35199 126.929001 C 455.212006 126.929001 456.082001 127.018997 457.011993 127.069 L 457.011993 132.039001 L 433.661987 132.039001 C 433.221985 134.778992 433.911987 135.658997 436.321991 135.679001 C 442.782013 135.709 449.252014 135.688995 455.712006 135.688995 L 458.562012 135.688995 Z M 478.712006 135.028992 C 475.362 135.039001 472.391998 132.278992 472.152008 129.018997 C 472.131989 128.878998 472.122009 128.738998 472.122009 128.598999 C 472.09201 125.179001 475.161987 122.209 478.691986 122.219002 C 482.252014 122.229004 485.231995 125.199005 485.161987 128.688995 C 485.161987 128.798996 485.152008 128.908997 485.141998 129.018997 C 484.911987 132.278992 482.022003 135.009003 478.712006 135.028992 Z"/>
    </g>
</svg>
