<?xml version="1.0" encoding="UTF-8"?>
<!-- Generated by Pixelmator Pro 3.7.1 -->
<svg width="457" height="96" viewBox="0 0 457 96" xmlns="http://www.w3.org/2000/svg">
    <g id="Page-1">
        <g id="syslogo">
            <g id="SEGAlogo">
                <path id="Shape" fill="#ffffff" stroke="none" d="M 114.247978 0 C 119.152046 0 123.253075 2.766724 125.094688 6.751892 L 125.214096 7.019363 L 138.23999 45.879547 L 77.926346 45.872635 C 74.240707 45.872635 70.887123 44.452057 68.375755 42.135551 L 68.109459 41.883957 L 68.109459 45.86895 L 46.574898 45.872635 C 41.159595 45.872635 36.465309 42.815826 34.122498 38.346924 L 33.976166 38.059769 L 33.916721 38.230728 C 31.97368 42.308807 26.455057 45.725632 20.817255 45.864563 L 20.478872 45.86895 L 0 45.872635 L 0 27.400543 L 4.582656 27.407928 C 1.876838 24.586899 0.041933 20.779312 0.041933 16.580963 C 0.052404 7.621674 7.077832 0.819016 15.708323 0.663498 L 16.02478 0.660782 L 36.350666 0.64328 L 36.350666 5.065109 C 38.82338 2.459961 42.324474 0.771851 46.188255 0.665649 L 46.575817 0.660324 L 68.141716 0.660324 L 68.134346 4.586334 C 70.568001 2.213638 73.842331 0.746887 77.491966 0.64856 L 77.884415 0.64328 L 98.947121 0.65387 L 98.964165 19.755417 L 103.306282 7.096786 C 105.019081 2.985519 109.256134 0 114.247978 0 Z M 33.193264 10.522827 L 15.944601 10.522827 L 15.718215 10.527008 C 12.487865 10.646286 9.896601 13.30751 9.896601 16.560226 C 9.896601 19.816101 12.487426 22.46727 15.718185 22.586105 L 20.692705 22.653595 C 24.628614 22.780594 27.774719 25.995026 27.774719 29.942322 C 27.774719 33.892334 24.629057 37.113892 20.692732 37.241173 L 20.450764 37.245079 L 3.170765 37.245079 L 3.163853 42.712006 L 20.433252 42.694504 L 20.73959 42.690918 C 27.663465 42.528763 33.224598 36.884171 33.224598 29.952454 C 33.224598 23.007126 27.663465 17.361893 20.73959 17.199722 L 20.433252 17.196136 L 15.948287 17.220551 L 15.853718 17.213531 C 15.54511 17.167297 15.308236 16.898285 15.308236 16.574051 C 15.308236 16.249817 15.54511 15.980423 15.853718 15.934113 L 15.948287 15.927094 L 33.186352 15.930771 L 33.193264 10.522827 Z M 65.046982 3.831558 L 46.613605 3.831558 L 46.324249 3.835312 C 40.555573 3.985519 35.910305 8.614059 35.759552 14.362778 L 35.755775 14.651138 L 35.755775 31.843582 L 35.759552 32.131958 C 35.910305 37.881317 40.555573 42.516342 46.324249 42.666771 L 46.613605 42.670532 L 64.970032 42.67791 L 64.966347 37.273193 L 46.613605 37.27964 L 46.39537 37.275406 C 43.573483 37.165649 41.283424 34.936218 41.167839 32.070648 L 41.163261 31.843124 L 41.163261 14.59169 L 41.167614 14.378036 C 41.280334 11.615173 43.568615 9.364517 46.389801 9.250916 L 46.613605 9.246414 L 65.046982 9.249634 L 65.046982 3.831558 Z M 114.243835 3.198868 L 113.959015 3.203156 C 110.273834 3.314117 107.187286 5.570694 106.12236 8.655579 L 106.042519 8.900818 L 95.80394 38.927872 L 95.804001 17.199814 L 80.460747 17.199814 L 80.460747 22.600861 L 90.381767 22.600861 L 90.381767 37.265816 L 77.964592 37.265816 L 77.747139 37.261505 C 74.935486 37.149742 72.6586 34.880783 72.543686 32.066406 L 72.539131 31.843124 L 72.539131 14.650681 L 72.543427 14.43277 C 72.654709 11.616119 74.914055 9.36409 77.727104 9.250458 L 77.950302 9.245956 L 95.804001 9.245956 L 95.804001 3.831558 L 77.908836 3.831558 L 77.619614 3.835312 C 71.853523 3.985519 67.208298 8.614059 67.057549 14.362778 L 67.053772 14.651138 L 67.053772 31.843582 L 67.057579 32.131958 C 67.209618 37.881317 71.894127 42.516342 77.661072 42.666771 L 77.950302 42.670532 L 95.804001 42.67791 L 95.80394 42.672874 L 100.271454 42.673767 L 111.451385 9.844528 L 111.528114 9.675629 C 112.018471 8.679016 113.041946 7.991653 114.234154 7.991653 C 115.419823 7.991653 116.448326 8.679016 116.942757 9.669754 L 117.020149 9.837616 L 126.329231 37.265816 L 111.912643 37.265816 L 111.912643 42.673302 L 133.852249 42.673302 L 122.441925 8.914169 L 122.364685 8.674805 C 121.308632 5.585861 118.214951 3.317688 114.535507 3.2034 L 114.243835 3.198868 Z M 114.24752 9.246872 C 113.526276 9.246872 112.908592 9.679184 112.633881 10.296555 L 112.580345 10.431595 L 101.620682 42.673302 L 108.017967 42.673302 L 111.901939 31.219879 L 111.891449 36.035019 L 124.581879 36.035019 L 115.915154 10.431595 C 115.681068 9.743149 115.020744 9.246872 114.24752 9.246872 Z M 95.803078 10.508545 L 77.949387 10.512222 L 77.742798 10.517288 C 75.621201 10.621552 73.919807 12.322952 73.815544 14.44455 L 73.810478 14.651138 L 73.811401 31.843124 L 73.816467 32.05014 C 73.920731 34.176361 75.622124 35.886856 77.743721 35.991684 L 77.950302 35.996765 L 89.102127 35.996765 L 89.102127 23.880035 L 80.474106 23.880035 L 80.474106 29.299042 L 83.676208 29.299042 L 83.68634 30.57132 L 80.498528 30.57132 L 80.369652 30.564667 C 79.776146 30.503174 79.300522 30.022217 79.239738 29.427994 L 79.23317 29.299042 L 79.204605 17.196136 C 79.206818 17.0896 79.254379 16.043243 80.317101 15.917999 L 80.484245 15.906357 L 95.80999 15.906357 L 95.803078 10.508545 Z M 33.186352 3.831558 L 15.948287 3.831558 L 15.642262 3.835129 C 8.725236 3.997101 3.156941 9.635529 3.156941 16.574051 C 3.156941 23.512573 8.725236 29.154129 15.642262 29.316193 L 15.948287 29.319778 L 20.408831 29.326691 L 20.499847 29.333389 C 20.797724 29.377563 21.034597 29.634918 21.034597 29.952454 C 21.034597 30.26413 20.797724 30.520569 20.499847 30.564621 L 20.408831 30.57132 L 3.163853 30.585144 L 3.170765 35.975571 L 20.450764 35.975571 L 20.677845 35.97142 C 23.917765 35.852585 26.501989 33.201324 26.501989 29.941864 C 26.501989 26.685989 23.917765 24.037903 20.677845 23.919205 L 15.703062 23.862305 C 11.773535 23.735168 8.624332 20.516998 8.624332 16.559769 C 8.624332 12.613373 11.773535 9.394989 15.703062 9.267822 L 15.944601 9.263916 L 33.193264 9.260239 L 33.186352 3.831558 Z M 61.124657 23.886948 L 42.477924 23.886948 L 42.477924 31.843582 C 42.477924 34.054077 44.220207 35.853378 46.407299 35.960403 L 46.613605 35.965439 L 64.965881 35.958069 L 64.969574 30.577759 L 49.157406 30.577606 C 49.057003 30.574707 48.000072 30.519165 47.885201 29.464813 L 47.875275 29.299042 L 61.124657 29.299042 L 61.124657 23.886948 Z M 112.311943 30.011871 L 111.901939 31.219879 L 111.905273 30.011902 L 112.311943 30.011871 Z M 114.236923 24.338074 L 116.146011 30.011902 L 112.311943 30.011902 L 114.236923 24.338074 Z M 65.046982 10.512222 L 46.613605 10.512222 C 44.393272 10.512222 42.596706 12.254517 42.489864 14.44455 L 42.484837 14.651138 L 42.478386 22.600861 L 61.125118 22.600861 L 61.125118 17.199814 L 47.875736 17.199814 L 47.884907 17.089813 C 47.921432 16.799652 48.102737 16.029907 48.999683 15.945282 L 49.165512 15.937683 L 65.046982 15.937683 L 65.046982 10.512222 Z"/>
                <path id="path1" fill="#ffffff" stroke="none" d="M 129.717041 8.128052 C 130.738174 8.128052 131.699402 7.729462 132.419632 7.012909 C 133.139404 6.289459 133.541672 5.335144 133.541672 4.314468 C 133.541672 3.300705 133.139404 2.349625 132.419632 1.62616 C 131.699402 0.9133 130.738174 0.514709 129.717041 0.514709 C 127.616249 0.514709 125.899765 2.217361 125.899765 4.314926 C 125.899765 5.335602 126.298363 6.289917 127.02504 7.013382 C 127.74205 7.729462 128.699585 8.128052 129.717041 8.128052 M 126.438446 4.314011 C 126.438446 3.443558 126.773903 2.618729 127.399216 1.999878 C 128.021759 1.381012 128.846588 1.045547 129.717041 1.045547 C 130.598083 1.045547 131.422913 1.381485 132.045456 1.999878 C 132.664307 2.618729 133.007141 3.443558 133.007141 4.314011 C 133.007141 6.121262 131.531662 7.589371 129.717041 7.589371 C 128.84613 7.589371 128.021286 7.250229 127.399216 6.631378 C 126.773445 6.012985 126.438446 5.191376 126.438446 4.314011 Z"/>
                <path id="path2" fill="#ffffff" stroke="none" d="M 128.738297 4.635651 L 128.738297 6.432312 L 128.185791 6.432312 L 128.185791 2.209534 L 129.75528 2.209534 C 130.346481 2.216446 130.692551 2.216446 131.021103 2.464355 C 131.33905 2.698898 131.472229 3.05188 131.472229 3.443558 C 131.472229 4.429672 130.668594 4.558701 130.46492 4.600632 L 131.653778 6.432312 L 130.986084 6.432312 L 129.82901 4.635651 L 128.738297 4.635651 M 128.738297 4.1707 L 129.860352 4.1707 C 130.039139 4.1707 130.206863 4.1707 130.374603 4.128769 C 130.766281 4.034302 130.905899 3.754593 130.905899 3.44725 C 130.905899 3.335266 130.895294 3.052338 130.653839 2.856491 C 130.433121 2.671249 130.15387 2.678162 129.82901 2.678162 L 128.738297 2.678162 L 128.738297 4.1707 L 128.738297 4.1707 Z"/>
            </g>
        </g>
    </g>
    <g id="Agrupar-copia">
        <g id="Agrupar">
            <path id="Trazado" fill="#ffffff" stroke="none" d="M 0.337812 77.044762 L 11.71869 77.044762 L 11.71869 95.929642 L 0.337812 95.929642 Z"/>
            <path id="path3" fill="#ffffff" stroke="none" d="M 25.382879 77.044762 L 36.763756 77.044762 L 36.763756 95.929642 L 25.382879 95.929642 Z"/>
            <path id="path4" fill="#ffffff" stroke="none" d="M 50.416054 77.044762 L 61.796928 77.044762 L 61.796928 95.929642 L 50.416054 95.929642 Z"/>
            <path id="path5" fill="#ffffff" stroke="none" d="M 167.007614 77.044762 L 178.388489 77.044762 L 178.388489 95.929642 L 167.007614 95.929642 Z"/>
            <path id="path6" fill="#ffffff" stroke="none" d="M 346.081055 77.044762 L 357.461914 77.044762 L 357.461914 95.929642 L 346.081055 95.929642 Z"/>
            <path id="path7" fill="#ffffff" stroke="none" d="M 293.160553 77.044762 L 304.541412 77.044762 L 304.541412 95.929642 L 293.160553 95.929642 Z"/>
            <path id="path8" fill="#ffffff" stroke="none" d="M 343.060394 95.929642 L 328.123749 95.929642 L 322.474945 90.28083 L 329.360535 82.229774 Z"/>
            <path id="path9" fill="#ffffff" stroke="none" d="M 238.729736 77.044762 L 250.110626 77.044762 L 250.110626 95.929642 L 238.729736 95.929642 Z"/>
            <path id="path10" fill="#ffffff" stroke="none" d="M 201.007553 77.044762 L 212.388428 77.044762 L 212.388428 95.929642 L 201.007553 95.929642 Z"/>
            <path id="path11" fill="#ffffff" stroke="none" d="M 61.523411 75.344162 L 0.337812 75.344162 L 0.337812 68.851006 L 55.030243 68.851006 C 58.621704 68.851006 61.523411 71.764603 61.523411 75.344162 L 61.523411 75.344162 Z"/>
            <path id="path12" fill="#ffffff" stroke="none" d="M 68.135498 68.851006 L 108.735619 68.851006 L 108.735619 75.344162 L 68.135498 75.344162 Z"/>
            <path id="path13" fill="#ffffff" stroke="none" d="M 79.516373 87.74778 L 79.516373 86.059082 L 106.42852 86.059082 L 106.42852 79.56591 L 81.205078 79.56591 C 80.277481 79.56591 79.516373 78.80481 79.516373 77.87722 L 79.516373 77.044762 L 68.135498 77.044762 L 68.135498 79.56591 L 68.135498 86.059082 L 68.135498 88.009407 C 68.135498 92.385757 71.67939 95.929642 76.055733 95.929642 L 108.735619 95.929642 L 108.735619 89.436478 L 81.205078 89.436478 C 80.277481 89.436478 79.516373 88.675377 79.516373 87.74778 Z"/>
            <path id="path14" fill="#ffffff" stroke="none" d="M 416.399902 68.851006 L 457 68.851006 L 457 75.344162 L 416.399902 75.344162 Z"/>
            <path id="path15" fill="#ffffff" stroke="none" d="M 427.780762 87.74778 L 427.780762 86.059082 L 454.692902 86.059082 L 454.692902 79.56591 L 429.469452 79.56591 C 428.54184 79.56591 427.780762 78.80481 427.780762 77.87722 L 427.780762 77.044762 L 416.399902 77.044762 L 416.399902 79.56591 L 416.399902 86.059082 L 416.399902 88.009407 C 416.399902 92.385757 419.943756 95.929642 424.320099 95.929642 L 457 95.929642 L 457 89.436478 L 429.469452 89.436478 C 428.54184 89.436478 427.780762 88.675377 427.780762 87.74778 Z"/>
            <path id="path16" fill="#ffffff" stroke="none" d="M 159.301437 75.344162 L 114.19416 75.344162 L 114.19416 75.344162 C 114.19416 71.752708 117.107765 68.851006 120.687325 68.851006 L 159.301437 68.851006 L 159.301437 75.344162 Z"/>
            <path id="path17" fill="#ffffff" stroke="none" d="M 134.23259 79.56591 L 134.23259 86.059082 L 148.479492 86.059082 C 149.407089 86.059082 150.168198 86.820183 150.168198 87.74778 L 150.168198 87.74778 C 150.168198 88.675377 149.407089 89.436478 148.479492 89.436478 L 127.263741 89.436478 C 126.336143 89.436478 125.575035 88.675377 125.575035 87.74778 L 125.575035 77.044762 L 114.19416 77.044762 L 114.19416 88.009407 C 114.19416 92.385757 117.738052 95.929642 122.114395 95.929642 L 125.586922 95.929642 L 153.379105 95.929642 C 157.898163 95.929642 161.560959 92.266838 161.560959 87.74778 L 161.560959 87.74778 C 161.560959 83.228729 157.898163 79.56591 153.379105 79.56591 L 134.23259 79.56591 Z"/>
            <path id="path18" fill="#ffffff" stroke="none" d="M 274.703796 77.044762 L 274.703796 87.74778 C 274.703796 88.675377 273.942688 89.436478 273.015076 89.436478 L 251.811218 89.436478 L 251.811218 95.929642 L 278.176331 95.929642 C 282.552673 95.929642 286.096558 92.385757 286.096558 88.009407 L 286.096558 77.044762 L 274.703796 77.044762 Z"/>
            <path id="path19" fill="#ffffff" stroke="none" d="M 212.388428 75.344162 L 167.007614 75.344162 L 167.007614 75.344162 C 167.007614 71.752708 169.921219 68.851006 173.500778 68.851006 L 205.895264 68.851006 C 209.48671 68.851006 212.388428 71.764603 212.388428 75.344162 L 212.388428 75.344162 Z"/>
            <path id="path20" fill="#ffffff" stroke="none" d="M 286.084656 75.344162 L 238.71785 75.344162 L 238.71785 68.851006 L 279.591492 68.851006 C 283.182953 68.851006 286.084656 71.764603 286.084656 75.344162 L 286.084656 75.344162 Z"/>
            <path id="path21" fill="#ffffff" stroke="none" d="M 346.081055 68.851006 L 357.461914 68.851006 L 357.461914 75.344162 L 346.081055 75.344162 Z"/>
            <path id="path22" fill="#ffffff" stroke="none" d="M 180.089081 82.8125 L 209.106171 82.8125 L 209.106171 90.483002 L 180.089081 90.483002 Z"/>
            <path id="path23" fill="#ffffff" stroke="none" d="M 293.148651 75.344162 L 293.148651 75.344162 L 327.136688 75.344162 L 327.136688 81.111908 C 327.136688 82.039505 326.37561 82.800606 325.447998 82.800606 L 306.230133 82.800606 L 306.230133 90.4711 L 329.919464 90.4711 C 335.128265 90.4711 339.385712 86.213676 339.385712 81.004875 L 339.385712 78.293449 C 339.385712 73.072746 335.152039 68.827217 329.919464 68.827217 L 299.641815 68.827217 C 296.062256 68.851006 293.148651 71.764603 293.148651 75.344162 Z"/>
            <g id="g1">
                <path id="path24" fill="#ffffff" stroke="none" d="M 407.932587 75.344162 L 412.106781 68.851006 L 398.573395 68.851006 L 394.399231 75.344162 Z"/>
                <path id="path25" fill="#ffffff" stroke="none" d="M 378.903625 75.344162 L 374.71756 68.851006 L 361.184204 68.851006 L 365.358337 75.344162 Z"/>
                <path id="path26" fill="#ffffff" stroke="none" d="M 393.305115 77.044762 L 386.645477 87.391014 L 379.997711 77.044762 L 366.452454 77.044762 L 378.606323 95.929642 L 394.696533 95.929642 L 406.838501 77.044762 Z"/>
            </g>
        </g>
    </g>
</svg>
