<?xml version="1.0" encoding="UTF-8"?>
<!-- Generated by Pixelmator Pro 3.5.7 -->
<svg width="457" height="164" viewBox="0 0 457 164" xmlns="http://www.w3.org/2000/svg">
    <g id="Page-1">
        <g id="syslogo">
            <g id="SEGAlogo">
                <path id="Shape" fill="#ffffff" stroke="none" d="M 114.247978 0 C 119.152046 0 123.253075 2.766724 125.094688 6.751892 L 125.214096 7.019363 L 138.23999 45.879547 L 77.926346 45.872635 C 74.240707 45.872635 70.887123 44.452057 68.375755 42.135551 L 68.109459 41.883957 L 68.109459 45.86895 L 46.574898 45.872635 C 41.159595 45.872635 36.465309 42.815826 34.122498 38.346924 L 33.976166 38.059769 L 33.916721 38.230728 C 31.97368 42.308807 26.455057 45.725632 20.817255 45.864563 L 20.478872 45.86895 L 0 45.872635 L 0 27.400543 L 4.582656 27.407928 C 1.876838 24.586899 0.041933 20.779312 0.041933 16.580963 C 0.052404 7.621674 7.077832 0.819016 15.708323 0.663498 L 16.02478 0.660782 L 36.350666 0.64328 L 36.350666 5.065109 C 38.82338 2.459961 42.324474 0.771851 46.188255 0.665649 L 46.575817 0.660324 L 68.141716 0.660324 L 68.134346 4.586334 C 70.568001 2.213638 73.842331 0.746887 77.491966 0.64856 L 77.884415 0.64328 L 98.947121 0.65387 L 98.964165 19.755417 L 103.306282 7.096786 C 105.019081 2.985519 109.256134 0 114.247978 0 Z M 33.193264 10.522827 L 15.944601 10.522827 L 15.718215 10.527008 C 12.487865 10.646286 9.896601 13.30751 9.896601 16.560226 C 9.896601 19.816101 12.487426 22.46727 15.718185 22.586105 L 20.692705 22.653595 C 24.628614 22.780594 27.774719 25.995026 27.774719 29.942322 C 27.774719 33.892334 24.629057 37.113892 20.692732 37.241173 L 20.450764 37.245079 L 3.170765 37.245079 L 3.163853 42.712006 L 20.433252 42.694504 L 20.73959 42.690918 C 27.663465 42.528763 33.224598 36.884171 33.224598 29.952454 C 33.224598 23.007126 27.663465 17.361893 20.73959 17.199722 L 20.433252 17.196136 L 15.948287 17.220551 L 15.853718 17.213531 C 15.54511 17.167297 15.308236 16.898285 15.308236 16.574051 C 15.308236 16.249817 15.54511 15.980423 15.853718 15.934113 L 15.948287 15.927094 L 33.186352 15.930771 L 33.193264 10.522827 Z M 65.046982 3.831558 L 46.613605 3.831558 L 46.324249 3.835312 C 40.555573 3.985519 35.910305 8.614059 35.759552 14.362778 L 35.755775 14.651138 L 35.755775 31.843582 L 35.759552 32.131958 C 35.910305 37.881317 40.555573 42.516342 46.324249 42.666771 L 46.613605 42.670532 L 64.970032 42.67791 L 64.966347 37.273193 L 46.613605 37.27964 L 46.39537 37.275406 C 43.573483 37.165649 41.283424 34.936218 41.167839 32.070648 L 41.163261 31.843124 L 41.163261 14.59169 L 41.167614 14.378036 C 41.280334 11.615173 43.568615 9.364517 46.389801 9.250916 L 46.613605 9.246414 L 65.046982 9.249634 L 65.046982 3.831558 Z M 114.243835 3.198868 L 113.959015 3.203156 C 110.273834 3.314117 107.187286 5.570694 106.12236 8.655579 L 106.042519 8.900818 L 95.80394 38.927872 L 95.804001 17.199814 L 80.460747 17.199814 L 80.460747 22.600861 L 90.381767 22.600861 L 90.381767 37.265816 L 77.964592 37.265816 L 77.747139 37.261505 C 74.935486 37.149742 72.6586 34.880783 72.543686 32.066406 L 72.539131 31.843124 L 72.539131 14.650681 L 72.543427 14.43277 C 72.654709 11.616119 74.914055 9.36409 77.727104 9.250458 L 77.950302 9.245956 L 95.804001 9.245956 L 95.804001 3.831558 L 77.908836 3.831558 L 77.619614 3.835312 C 71.853523 3.985519 67.208298 8.614059 67.057549 14.362778 L 67.053772 14.651138 L 67.053772 31.843582 L 67.057579 32.131958 C 67.209618 37.881317 71.894127 42.516342 77.661072 42.666771 L 77.950302 42.670532 L 95.804001 42.67791 L 95.80394 42.672874 L 100.271454 42.673767 L 111.451385 9.844528 L 111.528114 9.675629 C 112.018471 8.679016 113.041946 7.991653 114.234154 7.991653 C 115.419823 7.991653 116.448326 8.679016 116.942757 9.669754 L 117.020149 9.837616 L 126.329231 37.265816 L 111.912643 37.265816 L 111.912643 42.673302 L 133.852249 42.673302 L 122.441925 8.914169 L 122.364685 8.674805 C 121.308632 5.585861 118.214951 3.317688 114.535507 3.2034 L 114.243835 3.198868 Z M 114.24752 9.246872 C 113.526276 9.246872 112.908592 9.679184 112.633881 10.296555 L 112.580345 10.431595 L 101.620682 42.673302 L 108.017967 42.673302 L 111.901939 31.219879 L 111.891449 36.035019 L 124.581879 36.035019 L 115.915154 10.431595 C 115.681068 9.743149 115.020744 9.246872 114.24752 9.246872 Z M 95.803078 10.508545 L 77.949387 10.512222 L 77.742798 10.517288 C 75.621201 10.621552 73.919807 12.322952 73.815544 14.44455 L 73.810478 14.651138 L 73.811401 31.843124 L 73.816467 32.05014 C 73.920731 34.176361 75.622124 35.886856 77.743721 35.991684 L 77.950302 35.996765 L 89.102127 35.996765 L 89.102127 23.880035 L 80.474106 23.880035 L 80.474106 29.299042 L 83.676208 29.299042 L 83.68634 30.57132 L 80.498528 30.57132 L 80.369652 30.564667 C 79.776146 30.503174 79.300522 30.022217 79.239738 29.427994 L 79.23317 29.299042 L 79.204605 17.196136 C 79.206818 17.0896 79.254379 16.043243 80.317101 15.917999 L 80.484245 15.906357 L 95.80999 15.906357 L 95.803078 10.508545 Z M 33.186352 3.831558 L 15.948287 3.831558 L 15.642262 3.835129 C 8.725236 3.997101 3.156941 9.635529 3.156941 16.574051 C 3.156941 23.512573 8.725236 29.154129 15.642262 29.316193 L 15.948287 29.319778 L 20.408831 29.326691 L 20.499847 29.333389 C 20.797724 29.377563 21.034597 29.634918 21.034597 29.952454 C 21.034597 30.26413 20.797724 30.520569 20.499847 30.564621 L 20.408831 30.57132 L 3.163853 30.585144 L 3.170765 35.975571 L 20.450764 35.975571 L 20.677845 35.97142 C 23.917765 35.852585 26.501989 33.201324 26.501989 29.941864 C 26.501989 26.685989 23.917765 24.037903 20.677845 23.919205 L 15.703062 23.862305 C 11.773535 23.735168 8.624332 20.516998 8.624332 16.559769 C 8.624332 12.613373 11.773535 9.394989 15.703062 9.267822 L 15.944601 9.263916 L 33.193264 9.260239 L 33.186352 3.831558 Z M 61.124657 23.886948 L 42.477924 23.886948 L 42.477924 31.843582 C 42.477924 34.054077 44.220207 35.853378 46.407299 35.960403 L 46.613605 35.965439 L 64.965881 35.958069 L 64.969574 30.577759 L 49.157406 30.577606 C 49.057003 30.574707 48.000072 30.519165 47.885201 29.464813 L 47.875275 29.299042 L 61.124657 29.299042 L 61.124657 23.886948 Z M 112.311943 30.011871 L 111.901939 31.219879 L 111.905273 30.011902 L 112.311943 30.011871 Z M 114.236923 24.338074 L 116.146011 30.011902 L 112.311943 30.011902 L 114.236923 24.338074 Z M 65.046982 10.512222 L 46.613605 10.512222 C 44.393272 10.512222 42.596706 12.254517 42.489864 14.44455 L 42.484837 14.651138 L 42.478386 22.600861 L 61.125118 22.600861 L 61.125118 17.199814 L 47.875736 17.199814 L 47.884907 17.089813 C 47.921432 16.799652 48.102737 16.029907 48.999683 15.945282 L 49.165512 15.937683 L 65.046982 15.937683 L 65.046982 10.512222 Z"/>
                <path id="path1" fill="#ffffff" stroke="none" d="M 129.717041 8.128052 C 130.738174 8.128052 131.699402 7.729462 132.419632 7.012909 C 133.139404 6.289459 133.541672 5.335144 133.541672 4.314468 C 133.541672 3.300705 133.139404 2.349625 132.419632 1.62616 C 131.699402 0.9133 130.738174 0.514709 129.717041 0.514709 C 127.616249 0.514709 125.899765 2.217361 125.899765 4.314926 C 125.899765 5.335602 126.298363 6.289917 127.02504 7.013382 C 127.74205 7.729462 128.699585 8.128052 129.717041 8.128052 M 126.438446 4.314011 C 126.438446 3.443558 126.773903 2.618729 127.399216 1.999878 C 128.021759 1.381012 128.846588 1.045547 129.717041 1.045547 C 130.598083 1.045547 131.422913 1.381485 132.045456 1.999878 C 132.664307 2.618729 133.007141 3.443558 133.007141 4.314011 C 133.007141 6.121262 131.531662 7.589371 129.717041 7.589371 C 128.84613 7.589371 128.021286 7.250229 127.399216 6.631378 C 126.773445 6.012985 126.438446 5.191376 126.438446 4.314011 Z"/>
                <path id="path2" fill="#ffffff" stroke="none" d="M 128.738297 4.635651 L 128.738297 6.432312 L 128.185791 6.432312 L 128.185791 2.209534 L 129.75528 2.209534 C 130.346481 2.216446 130.692551 2.216446 131.021103 2.464355 C 131.33905 2.698898 131.472229 3.05188 131.472229 3.443558 C 131.472229 4.429672 130.668594 4.558701 130.46492 4.600632 L 131.653778 6.432312 L 130.986084 6.432312 L 129.82901 4.635651 L 128.738297 4.635651 M 128.738297 4.1707 L 129.860352 4.1707 C 130.039139 4.1707 130.206863 4.1707 130.374603 4.128769 C 130.766281 4.034302 130.905899 3.754593 130.905899 3.44725 C 130.905899 3.335266 130.895294 3.052338 130.653839 2.856491 C 130.433121 2.671249 130.15387 2.678162 129.82901 2.678162 L 128.738297 2.678162 L 128.738297 4.1707 L 128.738297 4.1707 Z"/>
            </g>
        </g>
    </g>
    <g id="logo-monochrome-svgwor-2">
        <path id="Trazado" fill="#ffffff" stroke="none" d="M 184.205597 100.55101 C 176.879196 97.951813 167.196793 90.473404 175.1008 81.938606 C 182.503204 73.943405 200.652008 71.359413 210.949997 70.538612 C 225.169586 69.406204 280.4216 67.810211 285.566803 86.55941 C 288.059601 95.633812 274.067993 100.832214 267.744812 102.428215 C 258.64506 104.728477 249.403458 106.017944 240.020004 106.296616 C 220.503204 106.881821 201.662796 106.737411 184.205597 100.55101 Z M 251.207199 81.148216 C 251.693588 79.939819 252.658798 79.696609 253.525192 80.768211 C 253.83934 81.158343 254.087611 81.616877 254.270004 82.143814 L 258.434814 94.243011 C 258.489349 94.404243 258.47287 94.580856 258.389679 94.726814 C 258.306488 94.87278 258.164825 94.973618 258.001617 95.003014 C 256.283997 95.307022 254.133209 95.459007 252.293991 95.147415 C 251.382004 94.995412 251.070409 95.712346 251.359207 97.298218 C 251.403625 97.55732 251.628326 97.746696 251.89119 97.746613 L 261.641998 97.746613 C 261.800171 97.747955 261.949097 97.672325 262.041321 97.543823 C 262.133514 97.415329 262.157501 97.250015 262.105591 97.100609 C 260.372803 92.023811 258.726135 87.152212 257.165588 82.485809 C 256.078796 79.233009 254.376404 76.717415 250.660004 78.176613 C 247.794815 79.309006 244.830795 91.149818 243.865601 94.341805 C 243.356415 96.029007 243.037201 94.919411 243.075195 94.243011 C 243.252533 91.420883 243.308263 88.520218 243.242386 85.541016 C 243.233856 85.162384 242.939087 84.860855 242.581192 84.864616 L 236.356796 84.940605 C 236.129196 84.940674 235.918137 85.083359 235.8172 85.305412 C 234.960938 87.164879 235.890676 87.85141 238.606415 87.365005 C 239.918681 87.131948 240.574814 87.663951 240.574814 88.961014 L 240.574814 94.129005 C 240.57486 94.628128 240.173477 95.03624 239.67041 95.048607 C 236.729218 95.13221 231.470001 96.386208 231.470001 91.666611 C 231.470001 88.692479 231.470001 86.009682 231.470001 83.618217 C 231.470001 81.804349 232.417465 80.877146 234.312393 80.836609 L 242.588806 80.661804 C 242.863174 80.655891 243.096268 80.445129 243.143585 80.16021 C 243.41214 78.513547 242.93841 77.76368 241.722397 77.910606 C 236.121201 78.587021 229.227997 76.010605 228.847992 84.431419 C 228.718811 87.448608 228.148804 93.37661 230.018402 95.80101 C 232.343994 98.810608 241.175186 97.746613 244.716797 97.746613 C 245.179611 97.747833 245.588333 97.441292 245.720001 96.994217 C 247.275472 91.613413 249.104538 86.331413 251.207199 81.148216 Z M 205.280411 90.944611 C 205.771876 91.425944 205.67307 91.669146 204.983994 91.674217 L 197.323212 91.704613 C 197.073181 91.71003 196.857407 91.847878 196.776001 92.054222 C 196.492269 92.738218 196.515071 93.40448 196.844406 94.053009 C 196.942184 94.247917 197.162872 94.37149 197.414398 94.372208 C 200.013596 94.341805 208.616791 95.565414 208.289993 91.286613 C 207.925186 86.437805 202.187195 90.207413 199.899597 86.422615 C 198.888809 84.735413 199.337204 82.630211 200.933212 81.543404 C 202.84079 80.236206 208.609207 80.851807 211.147614 80.677017 C 211.386993 80.657791 211.588211 80.504623 211.656799 80.289413 C 211.889872 79.600347 211.834137 78.954348 211.489594 78.351418 C 211.383118 78.156158 211.158005 78.040642 210.912003 78.055008 C 207.552795 78.222214 203.084 77.705414 200.416412 78.81501 C 193.963989 81.49781 196.2668 90.868607 203.471603 90.914223 C 203.714813 90.914223 205.189209 90.861015 205.280411 90.944611 Z M 213.8228 80.851807 C 213.3364 81.545944 213.08813 82.316078 213.077988 83.162209 C 213.009598 87.045807 211.770782 94.896614 215.821609 97.032211 C 218.283997 98.339409 223.786407 97.746613 226.993591 97.746613 C 227.226593 97.746498 227.430923 97.59478 227.495193 97.374207 C 227.961329 95.818746 227.728266 95.073949 226.796005 95.139816 C 224.348801 95.314613 221.795197 95.003014 219.309998 95.086609 C 214.134399 95.276611 215.662003 88.459412 215.692398 85.092613 C 215.722794 82.250214 216.384003 80.281807 219.690002 80.836609 C 220.814799 81.024073 223.287333 80.970876 227.107605 80.677017 C 227.350189 80.658394 227.556747 80.513809 227.639587 80.304611 C 227.898 79.656072 227.887873 79.012609 227.609207 78.374222 C 227.518204 78.167091 227.297928 78.037338 227.054398 78.047417 C 222.646408 78.207016 216.604401 76.884613 213.8228 80.851807 Z M 251.328796 93.232208 C 251.23761 94.987808 255.113586 94.326614 256.648804 94.326614 C 256.865417 94.32827 257.068665 94.222626 257.192932 94.043793 C 257.31723 93.864944 257.346771 93.635612 257.272003 93.429817 C 255.853333 89.487953 254.536001 85.611949 253.320007 81.801804 C 253.084396 81.057022 252.179993 80.41861 251.800003 81.406609 C 250.847468 83.889275 249.051336 89.153542 246.411606 97.199409 C 246.377548 97.295387 246.383469 97.400879 246.427994 97.491333 C 246.472504 97.581787 246.551712 97.64933 246.647202 97.678215 C 247.407201 97.89608 248.169739 97.883413 248.934814 97.640213 C 249.158112 97.56736 249.347397 97.397285 249.459213 97.169006 C 249.770782 96.52301 250.713211 92.935814 250.9944 92.859818 C 251.076675 92.835526 251.164413 92.864685 251.230515 92.938301 C 251.296616 93.011917 251.333145 93.12114 251.328796 93.232208 Z M 203.274002 87.501801 C 210.440796 86.384613 210.972794 95.352615 204.679993 95.177811 C 203.197998 95.13221 198.524002 94.661011 197.361191 95.094223 C 196.788661 95.307012 196.626531 96.049276 196.874802 97.321014 C 196.928253 97.568253 197.14624 97.745193 197.399216 97.746613 C 199.907201 97.746613 202.207464 97.782079 204.300003 97.853012 C 214.712006 98.210213 213.670792 83.466202 203.722397 84.955811 C 203.463074 84.993835 203.217056 84.92952 203.053589 84.781013 C 201.67041 83.481422 209.566788 84.302208 210 84.347809 C 211.611196 84.525146 212.201457 83.808217 211.770782 82.197021 C 211.680573 81.867371 211.387238 81.635811 211.048798 81.627022 C 208.434402 81.535812 202.437988 80.859413 200.712799 82.858215 C 199.694397 84.038742 199.874262 85.356074 201.252396 86.810211 C 201.771347 87.357391 202.526443 87.61573 203.274002 87.501801 Z M 219.43161 84.416206 C 220.579208 82.523811 229.022797 86.612617 227.556 82.007019 C 227.487076 81.788605 227.281998 81.638618 227.046799 81.634613 C 224.865601 81.589005 219.272003 81.19381 217.919205 81.855011 C 216.657598 82.468079 216.242132 84.069148 216.672806 86.658218 C 216.76506 87.212013 217.256042 87.608063 217.812805 87.577805 C 219.781189 87.463814 222.213211 87.334618 224.500793 87.562614 C 225.716807 87.679146 226.071477 86.931811 225.564804 85.32061 C 225.472656 85.029533 225.199936 84.830338 224.888397 84.826614 L 219.735596 84.788612 C 219.385997 84.788612 219.284668 84.664477 219.43161 84.416206 Z M 236.850784 91.491806 C 233.871597 93.179001 234.783585 87.220604 234.6772 85.905807 C 234.586004 84.679677 235.156006 84.066612 236.387207 84.066612 C 238.173203 84.066612 240.035187 84.036209 241.904816 84.180611 C 243.353872 84.292076 243.728795 83.544741 243.029587 81.938606 C 242.936005 81.730324 242.721695 81.596382 242.482391 81.596611 C 240.0808 81.59154 237.679204 81.548475 235.277603 81.467415 C 231.006409 81.323013 232.192017 86.483406 232.222397 89.272614 C 232.283203 94.205009 232.351608 94.357018 237.344803 94.379814 C 237.978144 94.38488 238.60641 94.31648 239.229599 94.174614 C 239.450974 94.127533 239.622345 93.947136 239.662796 93.718613 C 239.961726 92.09728 239.961726 90.475947 239.662796 88.854614 C 239.626343 88.650284 239.43782 88.496338 239.206787 88.482208 L 236.637985 88.337807 C 236.385925 88.323288 236.15596 88.414139 236.0224 88.581017 C 235.069855 89.766614 235.333323 90.63048 236.812805 91.172615 C 237.061066 91.258741 237.073725 91.365138 236.850784 91.491806 Z M 219.340408 91.241013 C 219.423996 90.671013 223.254395 90.975006 225.063202 90.800209 C 225.315369 90.776871 225.533447 90.646576 225.648392 90.450607 C 225.96253 89.898341 225.990402 89.353676 225.73201 88.816612 C 225.629425 88.607224 225.408203 88.474487 225.162003 88.474617 L 217.113586 88.444221 C 216.940964 88.442177 216.774704 88.510132 216.651932 88.632942 C 216.529114 88.75573 216.460007 88.923141 216.460007 89.097809 L 216.460007 91.856613 C 216.460007 93.503281 217.156672 94.326614 218.550003 94.326614 C 221.149216 94.326614 223.915604 94.159409 226.492004 94.379814 C 227.474945 94.46594 227.822011 93.776873 227.533203 92.312614 C 227.45787 91.936813 227.125427 91.664536 226.735199 91.659004 L 219.727997 91.628609 C 219.616776 91.627876 219.510574 91.584969 219.436401 91.510796 C 219.362228 91.43663 219.327286 91.338371 219.340408 91.241013 Z"/>
        <path id="path3" fill="#ffffff" stroke="none" d="M 251.640411 90.830605 C 252.795593 86.582207 254.5056 92.13781 251.906418 91.317017 C 251.702515 91.251381 251.585648 91.037674 251.640411 90.830605 Z"/>
        <path id="path4" fill="#ffffff" stroke="none" d="M 457 132.942215 L 457 135.412216 C 453.648407 156.388214 408.945221 157.209015 392.589996 157.209015 C 283.342539 157.214081 174.092539 157.211548 64.839996 157.201416 C 49.678001 157.201416 4.0704 156.55542 1 135.131012 L 1 132.851013 C 2.043733 127.105418 5.154667 122.879817 10.3328 120.17421 C 25.479599 112.262619 44.540401 111.046616 61.799999 110.856613 C 76.43 110.697006 91.759201 111.502617 106.229607 109.959816 C 115.060799 109.01741 161.990799 102.990608 163.259995 92.426613 C 163.556396 89.926208 164.164398 92.168213 164.134003 92.586205 C 163.366394 104.297806 196.502396 109.306213 204.315186 110.119415 C 218.466415 111.593811 233.955185 110.666611 248.380005 110.666611 C 250.624532 110.666611 255.27066 110.094081 262.31839 108.94902 C 270.37439 107.641815 293.995178 102.998215 293.980011 92.023811 C 293.980011 91.818611 294.207977 90.557022 294.473999 91.833817 C 296.214417 100.209015 316.749603 104.06221 323.407196 105.445419 C 336.380402 108.151016 351.230804 110.925011 364.470001 110.757813 C 375.555878 110.615946 386.639211 110.643812 397.720001 110.841408 C 412.448792 111.107414 454.682007 112.627411 457 132.942215 Z M 81.354805 117.453407 C 63.2136 117.48381 44.737999 116.913818 27.1668 122.279411 C 21.725201 123.936218 12.7116 129.400604 14.976399 136.065811 C 19.7644 150.163818 58.828396 150.726212 70.6008 150.627411 C 137.815201 150.04982 205.097992 150.604614 272.320007 150.680603 C 341.206401 150.756612 383.703064 150.655284 399.809998 150.376617 C 409.378418 150.209412 440.888 147.800217 443.038818 135.001816 C 445.638 119.58902 404.932404 117.62822 396.200012 117.506607 C 380.493347 117.283676 360.986674 117.174746 337.679993 117.179817 C 252.235728 117.200081 166.793999 117.291278 81.354805 117.453407 Z"/>
        <path id="path5" fill="#ffffff" stroke="none" d="M 93.910004 121.30661 C 97.360397 121.314209 100.924797 124.278214 100.499199 127.721008 C 100.429642 128.292816 99.939034 128.721283 99.3592 128.716614 C 82.005867 128.660878 65.004668 128.660878 48.355602 128.716614 C 47.360001 128.716614 45.5284 129.203003 45.665199 127.591812 C 45.847599 125.608215 45.467598 123.738609 45.8172 121.732208 C 45.857437 121.512581 46.045918 121.352844 46.265602 121.352211 C 62.144534 121.296476 78.026001 121.281275 93.910004 121.30661 Z"/>
        <path id="path6" fill="#ffffff" stroke="none" d="M 178.657593 128.671021 C 165.866791 128.823013 152.93161 128.359406 140.034409 128.53421 C 139.887085 128.535919 139.746475 128.472763 139.649872 128.361542 C 139.553284 128.250305 139.510468 128.102234 139.532806 127.956612 C 140.665207 120.888611 145.035202 121.30661 151.426788 121.30661 C 160.460663 121.30661 169.575602 121.30661 178.771606 121.30661 C 178.952652 121.30687 179.124634 121.385849 179.242813 121.522995 C 179.360992 121.660149 179.413696 121.841919 179.387207 122.021011 C 179.103475 123.885544 179.111074 125.805812 179.410004 127.781815 C 179.44548 128.002853 179.382675 128.228363 179.238068 128.399261 C 179.093475 128.57016 178.881454 128.669403 178.657593 128.671021 Z"/>
        <path id="path7" fill="#ffffff" stroke="none" d="M 215.699997 121.253403 C 219.591202 121.23822 222.114395 124.042618 222.410797 127.979416 C 222.425659 128.169739 222.359421 128.357635 222.228073 128.49765 C 222.096725 128.63765 221.912231 128.717026 221.719208 128.716614 L 182.404404 128.716614 C 182.261276 128.716751 182.124313 128.658386 182.025299 128.555054 C 181.92627 128.451721 181.873779 128.312393 181.880005 128.169403 C 182.077591 122.522614 185.603989 121.30661 190.787201 121.30661 C 199.091461 121.301544 207.395727 121.283808 215.699997 121.253403 Z"/>
        <path id="path8" fill="#ffffff" stroke="none" d="M 268.063995 121.223007 C 272.251617 121.033012 275.557617 123.617004 275.74762 127.994614 C 275.754425 128.174103 275.685333 128.348053 275.557617 128.472839 C 275.429962 128.597626 275.255768 128.661423 275.078796 128.648224 C 273.163595 128.506358 271.167328 128.46582 269.089996 128.526611 C 258.262533 128.830617 247.435069 128.83315 236.607605 128.53421 C 236.370529 128.530563 236.179108 128.362671 236.174408 128.154205 L 236.136414 121.831009 C 236.132675 121.621445 236.319702 121.448029 236.554398 121.443405 C 247.019592 121.276215 257.63678 121.694206 268.063995 121.223007 Z"/>
        <path id="path9" fill="#ffffff" stroke="none" d="M 278.255585 128.207413 C 278.08078 124.658218 280.991608 121.458611 284.480011 121.420609 C 292.809601 121.329412 301.136658 121.301544 309.461182 121.337006 C 314.56839 121.359818 317.570404 122.819016 317.935181 128.169403 C 317.941498 128.272141 317.905884 128.37291 317.836761 128.447784 C 317.767639 128.522644 317.671234 128.564941 317.570404 128.564606 L 278.627991 128.572205 C 278.428131 128.572205 278.263763 128.411194 278.255585 128.207413 Z"/>
        <path id="path10" fill="#ffffff" stroke="none" d="M 102.459999 121.686615 L 137.237595 121.686615 C 137.548203 121.686615 137.800003 121.938416 137.800003 122.249016 L 137.800003 128.526611 C 137.800003 128.837219 137.548203 129.08902 137.237595 129.08902 L 102.459999 129.08902 C 102.149391 129.08902 101.897598 128.837219 101.897598 128.526611 L 101.897598 122.249016 C 101.897598 121.938416 102.149391 121.686615 102.459999 121.686615 Z"/>
        <path id="path11" fill="#ffffff" stroke="none" d="M 320.919678 121.671646 L 329.507629 121.701614 C 329.830841 121.702759 330.091919 121.965668 330.09079 122.288864 L 330.069153 128.490433 C 330.068024 128.813614 329.805115 129.074707 329.481903 129.073578 L 320.893982 129.04361 C 320.57077 129.042465 320.309692 128.779556 320.310791 128.45636 L 320.332458 122.254807 C 320.333557 121.931602 320.596497 121.670517 320.919678 121.671646 Z"/>
        <path id="path12" fill="#ffffff" stroke="none" d="M 375.269592 123.389015 C 374.775604 123.419411 361.688385 143.278214 360.229218 145.451813 C 359.840393 146.035355 359.184509 146.386108 358.481201 146.386612 L 348.183197 146.386612 C 347.321869 146.386612 346.642944 146.02181 346.146423 145.292206 L 330.634796 122.332611 C 330.588806 122.266953 330.580688 122.181976 330.613373 122.10878 C 330.646088 122.035591 330.714813 121.984947 330.794403 121.975418 C 334.589325 121.529546 338.389323 121.499143 342.194397 121.884209 C 342.434692 121.908028 342.652191 122.039108 342.787201 122.241409 L 352.864807 137.129822 C 352.952301 137.26033 353.099091 137.338654 353.256195 137.338654 C 353.41333 137.338654 353.56012 137.26033 353.647614 137.129822 L 363.6492 122.279411 C 363.895721 121.909409 364.312073 121.686981 364.758789 121.686615 L 410.510803 121.686615 C 410.896942 121.686615 411.209991 121.999649 411.209991 122.385811 L 411.209991 128.222626 C 411.209991 128.617157 410.896942 128.937012 410.510803 128.937012 L 375.892792 128.944611 C 375.726685 128.944092 375.567871 128.880875 375.454102 128.769989 C 375.340332 128.659103 375.281799 128.510452 375.292389 128.359406 L 375.573578 123.799408 C 375.579041 123.68869 375.548889 123.580399 375.490753 123.501938 C 375.432648 123.42347 375.352142 123.382355 375.269592 123.389015 Z"/>
        <path id="path13" fill="#ffffff" stroke="none" d="M 32.099197 134.013809 C 32.099197 137.468246 29.29883 140.268616 25.844398 140.268616 C 22.389971 140.268616 19.5896 137.468246 19.5896 134.013809 C 19.5896 130.559387 22.389971 127.759018 25.844398 127.759018 C 29.29883 127.759018 32.099197 130.559387 32.099197 134.013809 Z"/>
        <path id="path14" fill="#ffffff" stroke="none" d="M 438.395203 134.013809 C 438.395203 137.468246 435.594849 140.268616 432.140381 140.268616 C 428.685974 140.268616 425.88559 137.468246 425.88559 134.013809 C 425.88559 130.559387 428.685974 127.759018 432.140381 127.759018 C 435.594849 127.759018 438.395203 130.559387 438.395203 134.013809 Z"/>
        <path id="path15" fill="#ffffff" stroke="none" d="M 45.874241 130.268509 L 55.115715 130.220123 C 55.363358 130.218842 55.565163 130.418533 55.566456 130.666168 L 55.645405 145.74437 C 55.646702 145.992004 55.447002 146.193817 55.19936 146.195114 L 45.957886 146.2435 C 45.710243 146.244797 45.508442 146.04509 45.507145 145.797455 L 45.428192 130.719269 C 45.426899 130.471619 45.626602 130.269806 45.874241 130.268509 Z"/>
        <path id="path16" fill="#ffffff" stroke="none" d="M 68.831253 130.252151 L 77.920837 130.236282 C 78.244034 130.235733 78.506493 130.497269 78.507057 130.820465 L 78.532921 145.640442 C 78.533485 145.963654 78.271942 146.226105 77.948746 146.226669 L 68.859161 146.242538 C 68.535965 146.243103 68.273506 145.981552 68.272942 145.658356 L 68.247078 130.838379 C 68.246513 130.515167 68.508057 130.252716 68.831253 130.252151 Z"/>
        <path id="path17" fill="#ffffff" stroke="none" d="M 90.68 130.236603 L 99.815201 130.236603 C 100.117416 130.236603 100.362404 130.481598 100.362404 130.783813 L 100.362404 145.695007 C 100.362404 145.997223 100.117416 146.242218 99.815201 146.242218 L 90.68 146.242218 C 90.377792 146.242218 90.132797 145.997223 90.132797 145.695007 L 90.132797 130.783813 C 90.132797 130.481598 90.377792 130.236603 90.68 130.236603 Z"/>
        <path id="path18" fill="#ffffff" stroke="none" d="M 182.07637 130.236252 L 191.211548 130.252197 C 191.522156 130.252747 191.773514 130.504974 191.772964 130.815582 L 191.747025 145.681152 C 191.746475 145.99176 191.494232 146.243118 191.18364 146.242569 L 182.048447 146.226624 C 181.737854 146.226089 181.486496 145.973846 181.48703 145.663239 L 181.51297 130.797668 C 181.513519 130.487061 181.765762 130.235703 182.07637 130.236252 Z"/>
        <path id="path19" fill="#ffffff" stroke="none" d="M 212.614395 140.557419 L 195.879211 140.686615 C 195.493042 140.686615 195.179993 140.370163 195.179993 139.979813 L 195.179993 135.602203 C 195.180115 135.365906 195.376221 135.173157 195.620789 135.169022 L 212.705597 135.047409 C 212.938629 135.043655 213.126678 134.872391 213.131195 134.659821 L 213.207199 130.814209 C 213.211349 130.599182 213.373474 130.426926 213.572006 130.426605 L 221.985199 130.426605 C 222.129639 130.426666 222.268051 130.482971 222.369461 130.582962 C 222.470886 130.682953 222.526825 130.818253 222.524811 130.958618 L 222.410797 145.869812 C 222.406799 146.082245 222.235352 146.256989 222.015594 146.272614 C 219.988932 146.404348 217.959732 146.447413 215.927994 146.40181 C 214.332016 146.371414 212.705597 146.888214 213.229996 144.296616 C 213.402267 143.440343 213.34907 142.313009 213.070404 140.914612 C 213.026459 140.702515 212.834549 140.5522 212.614395 140.557419 Z"/>
        <path id="path20" fill="#ffffff" stroke="none" d="M 236.537964 130.381378 L 244.852341 130.395874 C 245.120987 130.396347 245.338379 130.614502 245.337891 130.883118 L 245.311676 145.900711 C 245.311218 146.169342 245.093063 146.386719 244.824432 146.386261 L 236.510056 146.37175 C 236.241425 146.371277 236.024033 146.153122 236.024506 145.884491 L 236.050705 130.866913 C 236.051178 130.598297 236.269333 130.38089 236.537964 130.381378 Z"/>
        <path id="path21" fill="#ffffff" stroke="none" d="M 265.077209 137.859406 C 265.92334 135.89861 266.06014 133.687012 265.48761 131.224609 C 265.443542 131.030334 265.489441 130.826584 265.612274 130.671204 C 265.735107 130.515808 265.921448 130.425751 266.118408 130.426605 L 275.170013 130.426605 C 275.385315 130.426025 275.564453 130.591904 275.580414 130.80661 C 276.317596 140.093811 276.917999 146.804611 265.662384 146.576614 C 259.587453 146.449946 253.469457 146.386612 247.308395 146.386612 C 246.850891 146.386612 246.479996 146.015732 246.479996 145.558212 L 246.479996 139.675812 C 246.479996 139.289658 246.793045 138.976608 247.179214 138.976608 L 263.382385 138.976608 C 264.11969 138.975906 264.785919 138.536728 265.077209 137.859406 Z"/>
        <path id="path22" fill="#ffffff" stroke="none" d="M 278.718018 130.335861 L 286.925995 130.350189 C 287.198822 130.350662 287.419586 130.57222 287.419128 130.845047 L 287.392853 145.893021 C 287.392395 146.165848 287.170837 146.386642 286.89801 146.386169 L 278.690002 146.371841 C 278.417175 146.371368 278.196411 146.149796 278.196869 145.876968 L 278.223114 130.828995 C 278.223602 130.556168 278.44519 130.335388 278.718018 130.335861 Z"/>
        <path id="path23" fill="#ffffff" stroke="none" d="M 307.4776 133.269012 C 307.903198 132.671143 308.039998 131.926341 307.888 131.034607 C 307.863434 130.884857 307.904938 130.731873 308.001556 130.616257 C 308.098145 130.500641 308.240051 130.434067 308.389587 130.434204 L 317.403198 130.381012 C 317.627258 130.380875 317.821808 130.531525 317.87439 130.745819 C 318.710388 134.079681 318.12266 137.086741 316.111206 139.766998 C 315.977203 139.946121 315.983521 140.192245 316.126404 140.359818 L 320.055603 145.011017 C 320.506531 145.54302 320.729462 145.479685 320.724396 144.821014 L 320.587616 131.087799 C 320.587616 130.722641 320.887024 130.426605 321.256409 130.426605 L 329.175598 130.426605 C 329.57016 130.426605 329.890015 130.74646 329.890015 131.141022 L 329.890015 145.489822 C 329.889954 145.730316 329.794983 145.960754 329.626343 146.129379 C 329.457733 146.298004 329.229584 146.390686 328.993195 146.386612 L 310.130005 146.02182 C 309.930908 146.016479 309.710815 145.903687 309.522003 145.710205 L 305.623199 141.727814 C 305.473389 141.577332 305.23111 141.491974 304.954407 141.492218 L 289.518799 141.446609 C 289.149414 141.446609 288.850006 141.150589 288.850006 140.785416 L 288.850006 134.72821 C 288.850006 134.451187 289.074585 134.226608 289.351593 134.226608 L 305.608002 134.226608 C 306.351257 134.227005 307.047577 133.870346 307.4776 133.269012 Z"/>
        <path id="path24" fill="#ffffff" stroke="none" d="M 112.560394 137.669403 C 113.403992 139.227417 115.2052 138.984207 116.808807 138.969009 C 123.694402 138.908208 130.579997 138.95634 137.465591 139.113403 C 137.693161 139.117584 137.87558 139.286499 137.876007 139.493408 L 137.951996 145.657013 C 137.954025 145.849747 137.874847 146.035294 137.732101 146.172333 C 137.589355 146.309372 137.394882 146.38652 137.192001 146.386612 C 128.847198 146.386612 120.636663 146.386612 112.560394 146.386612 C 99.876007 146.386612 102.794403 140.405411 102.133209 130.996613 C 102.122627 130.84906 102.173981 130.703766 102.274918 130.595627 C 102.375854 130.487473 102.517265 130.426224 102.665207 130.426605 L 111.382401 130.426605 C 111.59861 130.426422 111.834526 130.514893 112.051193 130.677414 C 114.270393 132.303818 132.533203 131.376617 136.629608 131.376617 C 136.854614 131.377106 137.039368 131.568588 137.047592 131.809814 L 137.153992 136.035416 C 137.160217 136.208954 137.100525 136.377548 136.988678 136.502304 C 136.876816 136.627075 136.722473 136.69722 136.561203 136.696609 L 113.138 136.696609 C 112.904518 136.698288 112.688576 136.821823 112.569984 137.021561 C 112.451385 137.221298 112.447746 137.46759 112.560394 137.669403 Z"/>
        <path id="path25" fill="#ffffff" stroke="none" d="M 177.745605 132.661011 C 182.366394 136.879013 180.937592 146.158615 173.139999 146.242218 C 164.334132 146.338481 155.530797 146.386612 146.729996 146.386612 C 137.876007 146.386612 139.692398 136.476212 139.654404 130.951019 C 139.654404 130.728546 139.824539 130.548218 140.034409 130.548218 L 149.344406 130.457001 C 149.558228 130.457153 149.735077 130.630646 149.747208 130.852203 C 149.929611 134.051819 148.31839 139.280609 153.250809 139.060211 C 159.984406 138.771408 165.585602 139.257813 168.435593 138.832214 C 169.37293 138.695414 169.879598 138.158346 169.955597 137.221008 C 169.961899 137.118362 169.925461 137.01767 169.854935 136.942825 C 169.784393 136.867966 169.68605 136.825607 169.583206 136.825806 L 157.810806 136.711823 C 157.314774 136.707565 156.914673 136.354919 156.914001 135.921402 L 156.951996 131.802216 C 156.957932 131.592392 157.161484 131.422195 157.415604 131.414612 C 161.344803 131.346222 175.237595 130.365814 177.745605 132.661011 Z"/>
        <path id="path26" fill="#ffffff" stroke="none" d="M 385.879211 137.304611 C 386.190796 138.414215 387.095184 138.931015 388.280792 138.938614 C 395.855479 138.984207 403.387085 138.996872 410.87561 138.976608 C 411.270172 138.976608 411.589996 139.289658 411.589996 139.675812 L 411.552002 145.672211 C 411.547821 146.068054 411.218994 146.386719 410.814789 146.386612 C 401.385732 146.386612 392.0808 146.371414 382.899994 146.341019 C 373.719208 146.310608 375.679993 136.79541 375.679993 131.019409 C 375.679993 130.692017 375.945404 130.426605 376.272797 130.426605 L 384.799988 130.426605 C 385.016296 130.426346 385.249146 130.511993 385.461182 130.669815 C 387.452393 132.159409 402.188812 131.331009 409.933197 131.513397 C 410.164948 131.517593 410.350769 131.689911 410.351196 131.901016 L 410.412018 136.119019 C 410.415802 136.441956 410.130066 136.70726 409.77359 136.711823 L 386.183197 136.924622 C 386.085205 136.924667 385.99234 136.968704 385.932526 137.043457 C 385.872711 137.118225 385.852966 137.214966 385.879211 137.304611 Z"/>
    </g>
</svg>
