<?xml version="1.0" encoding="UTF-8"?>
<!-- Generated by Pixelmator Pro 3.5.11 -->
<svg width="496" height="87" viewBox="0 0 496 87" xmlns="http://www.w3.org/2000/svg">
    <g id="logo-svgwor">
        <path id="Trazado" fill="#ff0000" stroke="none" d="M 78.762665 56.052612 C 78.453974 61.052373 78.431925 65.850929 78.696518 70.44828 C 78.719162 70.838928 78.58078 71.221786 78.313629 71.507683 C 78.046478 71.793579 77.673859 71.957565 77.282585 71.961441 L 65.119446 72.126808 C 64.836624 72.131248 64.563965 72.022316 64.363182 71.824646 C 64.162415 71.626991 64.050499 71.357315 64.052795 71.076691 C 64.185097 57.00351 63.391308 43.58353 64.474495 29.270554 C 64.623329 27.308136 65.078105 25.643389 65.838821 24.276314 C 70.733841 15.536377 80.43293 13.080597 89.826088 15.098145 C 92.18264 15.602531 98.06163 18.909981 99.10347 21.192108 C 99.423192 21.881159 99.668495 22.344205 99.839378 22.581245 C 102.038831 25.591019 103.135801 29.014226 103.130287 32.850868 C 103.130287 45.391607 103.130287 58.180402 103.130287 71.217255 C 103.130386 71.466515 103.027374 71.705444 102.844147 71.880905 C 102.660912 72.056381 102.412659 72.153831 102.154594 72.151611 L 88.519638 71.944901 C 88.315125 71.940521 88.123535 71.844025 87.999481 71.682907 C 87.87542 71.521805 87.832497 71.313736 87.882957 71.118034 C 88.966148 67.058136 87.80027 61.253578 88.188896 57.044842 C 88.267357 56.205124 87.668785 55.45327 86.83284 55.341511 C 83.878189 54.950133 81.3287 55.016282 79.184372 55.539959 C 78.9478 55.597935 78.77668 55.805962 78.762665 56.052612 Z M 88.064865 34.347488 C 88.180626 26.748623 78.018494 28.534649 79.143021 31.899982 C 79.234634 32.18549 79.254837 32.456753 79.200905 32.677223 C 78.42366 35.844105 79.440697 39.143288 78.531151 41.94635 C 78.172844 43.048833 78.861895 43.600075 80.598305 43.600075 L 86.865921 43.600075 C 87.229263 43.599758 87.576965 43.457401 87.828369 43.205997 C 88.079758 42.954605 88.21299 42.616028 88.197166 42.268826 C 88.070376 39.644919 88.026276 37.004473 88.064865 34.347488 Z"/>
        <path id="path1" fill="#ff0000" stroke="none" d="M 152.07225 29.70879 C 147.086273 26.376537 146.110565 34.620354 146.127106 37.398609 C 146.204274 48.202941 146.146393 59.478582 145.953461 71.225533 C 145.944595 71.5812 145.655991 71.866142 145.300247 71.870483 C 141.207275 71.93663 136.899323 71.713379 132.690598 72.002785 C 130.350586 72.168152 131.243591 70.018311 131.243591 68.811096 C 131.232564 59.280131 131.232564 49.74641 131.243591 40.209934 C 131.243591 36.613094 132.177948 27.567223 125.910339 29.187878 C 124.267639 29.612326 123.426994 30.66795 123.388405 32.354748 C 123.074191 44.757674 123.063169 57.46654 123.355339 70.481346 C 123.364258 70.866257 123.212273 71.238503 122.933731 71.513931 C 122.655182 71.789352 122.273598 71.944717 121.875244 71.944901 L 109.331757 71.961441 C 108.875084 71.961441 108.50489 71.606049 108.50489 71.167648 C 108.50489 57.055875 108.50489 43.327211 108.50489 29.981655 C 108.50489 27.429406 108.656484 25.637873 108.959671 24.607056 C 109.951897 21.266525 114.077942 16.86763 117.426727 15.72657 C 121.991005 14.180328 128.953186 13.535378 133.1371 16.826279 C 135.907089 19.017464 138.19751 21.332687 137.734467 25.086636 C 137.651779 25.748127 137.577362 28.840584 138.801117 26.748623 C 139.076731 26.274555 139.244858 25.767414 139.305496 25.2272 C 139.727188 21.382301 140.347336 20.588509 143.158676 17.82679 C 147.036667 14.031487 154.850494 14.097649 159.861282 15.337944 C 162.771835 16.065567 164.85553 18.248482 167.286499 20.001427 C 167.50444 20.155571 167.655258 20.386215 167.708206 20.646378 C 168.278732 23.391563 169.22963 25.681976 169.213089 28.501579 C 169.13591 42.745651 169.141424 56.923571 169.22963 71.035339 C 169.230713 71.324722 169.095276 71.597672 168.864151 71.771805 C 168.633057 71.945953 168.333344 72.000916 168.055481 71.92009 C 166.037949 71.333015 163.846756 71.862206 162.317062 71.829132 C 160.13414 71.774007 157.6067 71.757472 154.734741 71.779526 C 154.526917 71.779984 154.328293 71.694473 154.186935 71.543701 C 154.045593 71.392929 153.97438 71.19062 153.990555 70.985733 C 154.412262 65.139832 153.9823 57.507896 153.9823 53.489346 C 153.9823 49.503868 155.106827 31.7346 152.07225 29.70879 Z"/>
        <path id="path2" fill="#ff0000" stroke="none" d="M 350.188354 26.682472 C 350.061564 26.313143 350.067078 25.974131 350.204895 25.665436 C 354.380524 16.669174 362.417633 14.734322 371.860382 14.453194 C 376.209686 14.320892 374.729614 16.826279 374.779205 19.364754 C 374.828827 22.049294 374.870168 24.733836 374.903229 27.418381 C 374.90863 27.707951 374.809265 27.96994 374.630402 28.13776 C 373.880686 28.865393 372.993184 29.000444 371.967896 28.542912 C 371.674194 28.409401 371.399078 28.353786 371.190643 28.385818 L 366.733856 29.088646 C 366.492432 29.124817 366.260193 29.287689 366.097168 29.535156 C 365.204163 30.932545 364.807281 31.68499 363.492554 33.454475 C 362.425903 34.876678 361.838837 40.821815 361.475006 42.781475 C 360.243011 49.404648 360.276062 57.565769 356.596527 63.17189 C 355.620819 64.660248 355.042023 66.92585 352.759888 67.934616 C 348.526367 69.803329 345.185822 71.341293 340.447937 71.539734 C 338.686707 71.614159 335.958038 72.581581 333.799957 71.266876 C 333.591034 71.139397 333.467682 70.892632 333.477448 70.62191 C 333.664886 65.52845 333.642843 62.240299 333.411316 60.757458 C 333.119161 58.888749 333.946025 58.130793 335.891907 58.483589 C 339.736816 59.186424 342.845825 56.540459 344.507813 53.406654 C 345.02596 52.425446 345.428365 50.934338 345.715027 48.933331 C 346.393046 44.143042 347.266764 39.385831 348.336182 34.661697 C 348.584229 33.586777 349.3284 32.379551 349.179596 30.783714 C 349.152008 30.541166 349.190582 30.279327 349.295319 29.998199 L 350.246216 27.459724 C 350.32016 27.27615 350.299042 26.993015 350.188354 26.682472 Z"/>
        <path id="path3" fill="#ff0000" stroke="none" d="M 9.066483 64.122787 C 7.120601 63.014791 5.761791 61.394142 4.990053 59.260841 C 4.813656 58.764717 4.314783 57.81658 3.493433 56.416431 C -8.165319 36.522137 11.315547 11.732811 33.045479 14.883148 C 39.850552 15.875397 46.035477 19.75338 50.97184 24.61533 C 51.250828 24.897018 51.268822 25.343227 51.013187 25.640633 C 48.494015 28.584259 45.839788 31.414884 43.050507 34.132507 C 40.305325 36.811531 41.190067 36.042557 38.891392 33.818295 C 34.236156 29.336704 27.985081 28.294865 22.370689 31.817291 C 5.023128 42.673992 22.899881 66.181671 36.882118 55.24229 C 38.353931 54.092953 40.983349 53.621635 39.974579 50.653202 C 39.88393 50.401924 39.665989 50.229515 39.420582 50.21497 C 38.775628 50.176378 38.160994 50.325211 37.576679 50.661469 C 37.360268 50.791107 37.100002 50.859741 36.824238 50.859921 L 24.859545 50.802044 C 23.575153 50.796528 22.999105 50.192918 23.131403 48.991215 C 23.478684 45.832597 23.495221 42.671229 23.181015 39.507111 C 23.149643 39.189819 23.256481 38.874496 23.473835 38.642876 C 23.691189 38.411243 23.99766 38.286095 24.313816 38.299885 C 31.954018 38.57275 39.602489 38.159321 47.399799 38.324692 C 50.393037 38.390846 53.242954 38.357773 55.949551 38.225471 C 57.25599 38.159325 57.956067 38.776716 58.049782 40.077644 C 58.587238 47.32095 56.214149 56.838127 51.608524 61.948139 C 40.388008 74.38414 23.586176 76.748962 10.315043 65.718628 C 10.188258 65.613892 9.962249 65.27212 9.637017 64.693314 C 9.507165 64.455444 9.309299 64.257576 9.066483 64.122787 Z"/>
        <path id="path4" fill="#ff0000" stroke="none" d="M 200.865356 15.007187 C 205.049286 15.048531 205.561935 13.485764 205.429642 18.835564 C 205.357976 21.431913 205.429637 23.970376 205.644623 26.450954 C 205.743846 27.630609 205.203629 28.179095 204.023972 28.096413 C 200.672429 27.864894 197.326396 27.823552 193.98587 27.972389 C 192.646347 28.038528 189.39679 26.922272 189.570419 29.518616 C 189.727524 32.057076 189.578705 34.537663 189.58696 36.993443 C 189.589142 37.384502 189.746857 37.758419 190.024918 38.031826 C 190.302994 38.305222 190.678253 38.455353 191.067047 38.448727 L 204.296844 38.208931 C 204.667099 38.202282 205.024506 38.353531 205.288818 38.628731 C 205.553131 38.903919 205.702179 39.279991 205.702499 39.672478 L 205.685959 48.908524 C 205.68338 49.167236 205.582703 49.414135 205.406769 49.593193 C 205.230835 49.77224 204.994568 49.868244 204.751602 49.859425 C 200.540126 49.688531 196.714518 49.658212 193.27478 49.768467 C 191.794678 49.818077 189.429855 49.197933 189.545624 51.546215 C 189.686188 54.514648 189.496002 56.887749 192.100632 58.863949 C 192.308868 59.024361 192.571381 59.108944 192.844803 59.103733 L 204.164536 58.963165 C 205.327662 58.952138 205.900955 59.558503 205.884415 60.782261 L 205.752121 70.952667 C 205.742996 71.575882 205.268097 72.07653 204.685471 72.077194 C 199.332911 72.077194 193.864594 72.052391 188.280518 72.002785 C 185.022695 71.975222 182.583455 71.570058 180.962799 70.787292 C 174.33963 67.579071 173.951004 61.212234 174.033691 54.555992 C 174.188039 41.921544 174.033691 29.289851 173.570648 16.660912 C 173.532064 15.613548 174.036453 15.081599 175.083817 15.065063 C 183.550878 14.93277 192.144725 14.913478 200.865356 15.007187 Z"/>
        <path id="path5" fill="#ff0000" stroke="none" d="M 246.04509 30.362019 C 243.977941 28.36652 242.178141 28.374789 240.645691 30.386826 C 239.929077 31.323934 239.545965 32.652423 239.496353 34.372292 C 239.14356 46.709073 239.008504 58.883235 239.091187 70.894775 C 239.093475 71.22216 238.960068 71.536789 238.720779 71.768311 C 238.481476 71.999832 238.156265 72.128952 237.817825 72.126808 L 225.985413 72.060654 C 224.552195 72.049627 223.852127 71.360575 223.885208 69.9935 C 224.105698 60.071159 224.169083 50.421684 224.075363 41.045074 C 224.025757 35.868908 223.215454 26.988422 226.307907 22.705284 C 226.715815 22.143008 226.980408 21.525612 227.101685 20.853096 C 227.155334 20.573494 227.276627 20.33091 227.448975 20.158531 C 232.095937 15.665922 237.649694 14.039762 244.110245 15.280052 C 249.986476 16.410098 253.324234 19.918752 254.12352 25.806015 C 254.710617 30.122223 256.41394 22.490288 256.562775 22.052055 C 257.621155 18.951324 260.688812 17.190102 263.384399 15.685211 C 263.615926 15.558436 263.87501 15.495049 264.161652 15.495049 C 265.964203 15.503296 267.460815 14.783936 269.081482 14.775665 C 278.052917 14.717796 285.965973 20.034508 285.494659 29.799747 C 284.824921 43.567005 285.552551 57.747681 285.50293 71.572815 C 285.50293 71.851379 285.269745 72.077194 284.982025 72.077194 L 271.189972 71.911827 C 270.880646 71.912354 270.618683 71.806313 270.495392 71.630684 C 270.285919 71.338529 270.250092 71.007787 270.387909 70.638458 C 270.498159 70.329763 270.545013 70.070679 270.528473 69.861206 C 270.368622 68.168894 270.382406 66.030078 270.569824 63.444756 C 270.76825 60.649963 270.148102 57.425205 270.222534 54.622143 C 270.398926 48.128521 270.44578 41.629387 270.363098 35.124741 C 270.272156 27.881432 262.325989 27.666443 262.301208 35.124741 C 262.273641 45.047081 262.119293 54.969424 261.838165 64.891769 C 261.788544 66.826619 261.887756 68.868968 262.135803 71.018814 C 262.166565 71.286522 262.079254 71.554565 261.895935 71.755264 C 261.712616 71.955978 261.450806 72.070129 261.176666 72.068924 L 247.475571 72.077194 C 247.242661 72.077194 247.053864 71.895805 247.053864 71.672028 L 247.004257 32.627613 C 247.004257 31.734605 246.684535 30.979407 246.04509 30.362019 Z"/>
        <path id="path6" fill="#ff0000" stroke="none" d="M 385.652435 27.501072 L 379.657684 27.451462 C 378.918671 27.442581 378.322937 26.861572 378.318176 26.14502 L 378.202454 15.561188 C 378.202454 15.177589 378.513397 14.866623 378.897003 14.866623 C 385.385101 14.872142 391.603099 14.872142 397.550995 14.866623 C 400.602112 14.866623 404.728149 15.106422 408.399414 14.668182 C 408.766541 14.623116 409.135376 14.736832 409.41217 14.980415 C 409.688934 15.223999 409.847107 15.574013 409.846436 15.941544 L 409.846436 27.021488 C 409.847382 27.238613 409.750244 27.446514 409.577271 27.597668 C 409.404297 27.748817 409.170258 27.830322 408.928589 27.823547 L 402.388153 27.633373 C 402.147705 27.623581 401.914063 27.725212 401.742065 27.914413 C 401.570038 28.10363 401.474792 28.363777 401.478607 28.633869 C 401.649485 41.902248 401.701853 55.25607 401.635712 68.695335 C 401.610901 73.557274 401.809326 71.820877 397.815613 72.035851 C 394.662496 72.206734 391.164866 72.132314 387.322723 71.812592 C 386.872498 71.773872 386.527252 71.396278 386.528931 70.944397 C 386.611613 58.05086 386.567505 45.435705 386.396606 33.09893 C 386.380096 31.751141 386.85968 29.667446 386.222992 27.906239 C 386.131927 27.666164 385.906036 27.505726 385.652435 27.501072 Z"/>
        <path id="path7" fill="#ff0000" stroke="none" d="M 430.021881 27.922768 C 429.729889 27.931473 429.455536 28.064316 429.268799 28.287434 C 429.082062 28.510551 429.000977 28.802418 429.046143 29.088646 C 429.487162 31.883443 429.443075 34.515621 428.913879 36.98518 C 428.610697 38.407383 429.024119 39.027528 430.154144 38.845615 C 433.665558 38.27233 437.196259 38.104202 440.746246 38.341232 C 442.29248 38.440449 445.558594 37.208435 444.599426 40.565491 C 444.516744 40.841113 444.497457 41.108466 444.541565 41.36755 C 444.913635 43.575268 444.756531 45.427444 444.963226 47.982445 C 445.186493 50.644939 442.581909 49.743652 441.110077 49.760193 C 437.361643 49.787755 433.781331 49.754682 430.369141 49.660973 C 430.013672 49.65387 429.672394 49.800705 429.433167 50.063728 C 429.193909 50.326756 429.079956 50.680328 429.120575 51.033566 C 429.459564 53.944111 428.302002 59.112 432.841461 59.103733 C 436.286713 59.103733 439.729207 59.034828 443.168945 58.897018 C 444.855754 58.830872 445.599935 59.409676 445.401489 60.63343 C 444.839233 64.056641 445.145172 67.529457 445.492432 71.084969 C 445.518188 71.352509 445.429443 71.618439 445.24826 71.816948 C 445.067047 72.015472 444.810303 72.128044 444.541565 72.126808 C 438.604675 72.126808 423.779022 73.565552 419.132111 70.142342 C 413.236572 65.809586 414.278412 61.203957 414.154388 54.795776 C 413.8567 39.967392 413.74645 28.587018 413.823639 20.654655 C 413.840179 19.009209 412.533722 13.932266 415.477356 14.659904 C 417.668549 15.197365 418.454071 14.883148 420.397186 14.858345 C 428.274424 14.759127 435.955973 14.808741 443.441833 15.007187 C 443.978455 15.020584 444.408997 15.46209 444.417511 16.007698 L 444.558075 25.260284 C 444.558075 25.491796 444.635254 25.742607 444.789612 26.012718 C 445.881073 27.947582 444.004089 28.063343 442.738983 28.005459 C 438.312531 27.829065 434.073497 27.801501 430.021881 27.922768 Z"/>
        <path id="path8" fill="#ff0000" stroke="none" d="M 465.42807 43.550465 C 464.7883 43.829346 464.380157 44.488846 464.394501 45.220726 L 464.931976 71.349556 C 464.938934 71.60498 464.83371 71.852203 464.640411 72.034576 C 464.447113 72.216957 464.182312 72.318878 463.906677 72.316986 L 450.238617 72.151611 C 450.041931 72.149307 449.854614 72.069321 449.720276 71.930298 C 449.585907 71.79126 449.516266 71.605301 449.527527 71.41571 C 450.065002 62.16312 449.386963 55.258831 449.610229 43.757179 C 449.764567 35.659444 450.340607 30.240742 451.338348 27.501072 C 453.901642 20.472744 459.518799 16.192355 468.189819 14.659904 C 470.769623 14.205132 479.112671 14.40358 482.783936 16.032501 C 489.638611 19.075348 493.218933 22.118195 495.21991 29.584766 C 496.476725 34.270318 496.214884 38.922792 494.434387 43.542187 C 494.062286 44.509624 493.152771 48.065121 491.70575 48.718349 C 490.178813 49.401885 488.891673 50.413411 487.84433 51.75293 C 487.41983 52.303421 486.775665 52.639118 486.083099 52.67075 C 484.305328 52.753441 483.354462 53.439724 484.834534 55.010769 C 487.855326 58.196944 490.862345 61.292163 493.855591 64.296425 C 494.188019 64.633713 494.205963 65.169632 493.896973 65.528458 C 492.375519 67.331009 490.134705 68.306709 488.679474 69.505661 C 487.169037 70.745951 485.526326 72.077199 483.751343 73.499405 C 483.345795 73.821007 482.765625 73.788971 482.403564 73.424988 C 477.673889 68.695335 473.49823 63.271111 468.967072 58.334755 C 468.250458 57.551987 467.784658 56.63968 467.569672 55.597836 C 467.329895 54.423691 465.899384 43.343746 465.42807 43.550465 Z M 478.236206 29.874161 C 466.45343 21.944557 458.904175 40.962383 471.389771 43.393356 C 473.680176 43.839859 478.103882 42.95512 479.104401 40.234737 C 480.13797 37.439953 481.262482 35.662193 479.509552 32.693764 C 479.272512 32.29687 478.999644 31.571986 478.690948 30.519112 C 478.616486 30.247433 478.454712 30.018044 478.236206 29.874161 Z"/>
        <path id="path9" fill="#ff0000" stroke="none" d="M 329.310089 33.313908 C 329.376231 45.121494 329.414815 56.931842 329.425842 68.744949 C 329.434113 73.152122 329.260468 71.804337 325.597473 71.969704 C 322.075053 72.129565 318.593974 72.115784 315.154236 71.92836 C 314.842957 71.910797 314.599701 71.65303 314.60022 71.341293 L 314.60022 56.275867 C 314.60022 55.782673 314.207794 55.382854 313.723755 55.382854 L 305.885071 55.424202 C 305.610901 55.426296 305.348846 55.540741 305.156525 55.742336 C 304.964233 55.943928 304.857483 56.216164 304.859772 56.499123 L 304.934204 71.572815 C 304.934143 71.761421 304.779968 71.915604 304.586914 71.92009 C 300.568359 72.077194 296.549835 71.887024 292.50647 72.126808 C 288.446564 72.366592 290.373169 68.381126 290.323547 66.380119 C 290.092021 56.45226 290.025869 46.524405 290.125092 36.596554 C 290.158173 33.462749 290.670837 26.715553 292.341095 24.003448 C 294.25116 20.877899 300.287231 15.445427 304.43808 15.180832 C 312.425568 14.676437 317.849762 14.41185 324.07605 19.960098 C 327.061035 22.614311 329.285278 28.923275 329.310089 33.313908 Z M 305.83548 30.907738 C 305.284231 31.877927 305.005859 32.795745 305.000366 33.66119 L 304.917664 42.798016 C 304.915283 43.033257 305.013794 43.259506 305.191101 43.425896 C 305.368378 43.592289 305.609497 43.684845 305.860291 43.682766 L 313.359924 43.616615 C 314.046173 43.612061 314.600128 43.065495 314.60022 42.392849 C 314.60022 39.044067 315.617249 30.279327 310.76355 29.22921 C 308.158966 28.658672 307.216339 28.443695 305.83548 30.907738 Z"/>
    </g>
</svg>
