<?xml version="1.0" encoding="UTF-8"?>
<!-- Generated by Pixelmator Pro 3.5.11 -->
<svg width="496" height="87" viewBox="0 0 496 87" xmlns="http://www.w3.org/2000/svg">
    <g id="logo-monochrome-svgwor">
        <path id="Trazado" fill="#ffffff" stroke="none" d="M 89.593819 15.004761 C 92.017403 15.501068 97.567665 18.751808 98.783592 20.968597 C 101.132736 25.228493 102.944221 27.585899 102.952492 32.838387 C 102.974551 45.311999 102.98558 58.019974 102.98558 70.962311 C 102.985832 71.2855 102.850327 71.595215 102.609383 71.822174 C 102.368423 72.049141 102.04213 72.174408 101.703476 72.169975 L 88.774925 72.054176 C 88.46521 72.053947 88.20153 71.96302 88.05529 71.806023 C 87.608625 71.331785 87.547969 70.796885 87.873322 70.201324 C 88.005666 69.947667 88.071838 69.694005 88.071838 69.440338 L 88.030479 56.528328 C 88.028816 55.836037 87.531853 55.260422 86.880722 55.196594 C 84.167628 54.915362 81.537252 54.976021 78.989594 55.378571 C 78.665169 55.431316 78.426918 55.711617 78.427116 56.040306 L 78.534653 71.293182 C 78.537216 71.506676 78.450935 71.711792 78.296066 71.860413 C 78.14119 72.009026 77.931343 72.088058 77.715759 72.078987 C 74.092789 71.913551 70.469816 71.921824 66.84684 72.103806 C 63.24041 72.285782 63.902145 71.723297 63.902145 68.886139 C 63.877331 55.792152 63.099796 42.01162 64.282639 29.000351 C 64.453583 27.086848 64.925064 25.460092 65.697083 24.120083 C 70.651794 15.525879 80.230331 13.085739 89.593819 15.004761 Z M 86.111458 30.050854 C 84.363391 28.88731 82.695282 28.592286 81.107132 29.165783 C 80.224823 29.480109 79.676137 30.092209 79.461075 31.002083 C 78.622884 34.459625 78.380249 37.555971 78.73317 40.291119 C 78.766256 40.550297 78.738686 40.812236 78.650459 41.076935 C 77.928068 43.199979 78.716629 44.021626 81.016144 43.541874 C 82.301 43.271666 84.162114 43.318539 86.599487 43.682491 C 86.875999 43.724129 87.14257 43.64753 87.319115 43.4757 C 88.626038 42.210144 87.956039 34.054317 87.691345 32.490978 C 87.520396 31.448755 86.993767 30.63538 86.111458 30.050854 Z"/>
        <path id="path1" fill="#ffffff" stroke="none" d="M 163.178223 16.965134 C 163.790314 17.436623 167.405014 20.025642 167.487732 20.472305 C 167.71933 21.795761 168.066737 23.080617 168.529953 24.326874 C 168.778102 24.999634 168.907694 25.694452 168.918732 26.411327 C 169.133789 39.177212 169.136546 51.314448 168.927002 62.823036 C 168.86083 66.407407 168.938029 68.751035 169.1586 69.85392 C 169.467407 71.397957 168.43897 72.043142 166.073288 71.789474 C 165.565964 71.734334 165.061391 71.720548 164.55957 71.748116 C 162.392405 71.858411 160.051534 71.863927 157.536957 71.764664 C 155.866089 71.690216 153.856094 73.005409 153.856094 69.85392 C 153.861598 58.68722 153.861598 47.520523 153.856094 36.353828 C 153.856094 34.181147 153.511439 32.223527 152.822128 30.480968 C 152.725952 30.22942 152.544632 30.018845 152.309296 29.88541 C 149.54657 28.357922 147.602737 29.350519 146.477798 32.863201 C 146.163478 33.850287 146.00356 34.906298 145.998047 36.031235 L 145.824341 71.136024 C 145.819809 71.571373 145.461914 71.921898 145.022003 71.921822 L 131.597137 71.921822 C 131.423126 71.92189 131.256454 71.851639 131.134979 71.727036 C 131.013489 71.602448 130.947495 71.434052 130.95195 71.260094 C 131.24147 60.556602 130.794785 49.836582 131.208374 39.157909 C 131.348984 35.518398 131.456528 27.759609 125.939346 29.116154 C 123.937614 29.612457 123.267616 31.56456 123.217987 33.582829 C 122.931234 46.072989 122.936745 58.397715 123.23452 70.557007 C 123.243431 70.920143 123.101845 71.27153 122.84182 71.531555 C 122.581787 71.79158 122.225334 71.938255 121.853165 71.93837 L 109.503632 71.94664 C 109.158516 71.94651 108.827782 71.812584 108.585312 71.574783 C 108.342842 71.336967 108.208839 71.015099 108.213257 70.681076 C 108.362142 56.994288 108.414525 43.139314 108.370407 29.116154 C 108.345596 21.340828 114.086105 15.327354 121.72081 14.657341 C 127.800461 14.11969 132.589737 14.913773 136.336792 20.091805 C 137.588552 21.823341 138.007645 23.938121 137.59407 26.436142 C 137.550537 26.703037 137.660599 26.956501 137.867035 27.064796 C 138.666626 27.483887 139.085724 27.048247 139.124329 25.757877 C 139.240128 21.663406 140.7621 19.529343 143.93013 17.097481 C 148.297562 13.747467 158.827332 13.582039 163.178223 16.965134 Z"/>
        <path id="path2" fill="#ffffff" stroke="none" d="M 350.100433 26.014294 C 352.648102 16.799698 365.551849 13.45797 374.096436 14.789688 C 374.549744 14.860397 374.879517 15.25753 374.865692 15.716118 C 374.738861 19.306002 374.79125 22.890376 375.022858 26.469238 C 375.262756 30.174923 371.697662 27.933319 369.720734 28.561958 C 369.456045 28.644671 369.191355 28.675001 368.926666 28.652946 C 365.361603 28.305538 365.311981 31.465294 363.409485 33.566296 C 363.225342 33.772251 363.099823 34.014709 363.045532 34.269375 C 361.236796 42.904957 360.299347 48.14917 360.233185 50.002014 C 360.051219 54.976021 358.697428 59.564016 356.171814 63.765999 C 355.17923 65.412064 354.674652 67.207001 352.58194 67.992798 C 350.505737 68.778603 348.710815 69.944908 346.907593 70.43293 C 342.804871 71.546847 338.903422 72.010061 335.203247 71.822571 C 334.188578 71.76742 333.65919 71.235275 333.615082 70.226135 C 333.466217 66.611443 333.615082 63.311058 333.184967 60.093395 C 332.845825 57.52092 337.3125 58.753395 339.115723 58.306721 C 342.110046 57.570549 344.905853 53.542271 345.37735 50.605839 C 346.26239 45.03904 347.064758 39.348152 348.537079 33.905422 C 348.917592 32.488221 349.179535 31.046202 349.322906 29.579365 C 349.400116 28.80183 349.659292 27.613473 350.100433 26.014294 Z"/>
        <path id="path3" fill="#ffffff" stroke="none" d="M 378.174347 15.848457 C 378.174133 15.419426 378.514771 15.067787 378.943604 15.05439 C 387.910055 14.767642 396.338847 14.701469 404.22998 14.855873 C 405.691284 14.888959 406.970622 14.797969 408.067993 14.582901 C 408.418457 14.515816 408.780853 14.598801 409.065948 14.811447 C 409.351044 15.024086 409.532318 15.346596 409.565186 15.69957 C 409.780212 17.924644 410.367493 26.436142 409.292206 27.544552 C 409.12262 27.719864 408.855042 27.794533 408.580872 27.743061 C 406.860352 27.420467 405.470703 27.544552 403.237366 27.445282 C 400.74762 27.329479 401.591309 29.761341 401.591309 31.200607 C 401.569255 44.060226 401.585805 56.919851 401.640961 69.77948 C 401.649231 71.152573 402.013184 72.848244 399.837738 72.318863 C 396.686249 71.549606 392.368469 72.227875 388.977081 71.954903 C 388.756521 71.938362 388.489075 71.98524 388.174744 72.095535 C 386.983612 72.509117 386.437683 71.880463 386.445984 70.714157 C 386.501119 56.911573 386.51766 42.957339 386.495605 28.851456 C 386.495605 27.500425 385.839386 26.99586 384.526947 27.337761 C 383.683238 27.552823 382.751302 27.555579 381.73114 27.346027 C 381.460938 27.29088 381.193492 27.293635 380.928802 27.354294 C 377.082489 28.239365 378.397675 24.814911 378.314941 23.053051 C 378.199158 20.599135 378.152293 18.197604 378.174347 15.848457 Z"/>
        <path id="path4" fill="#ffffff" stroke="none" d="M 38.516521 50.200539 L 37.929234 50.547943 C 37.702385 50.688423 37.441723 50.76289 37.176514 50.763 L 24.901423 50.787815 C 23.423558 50.793336 22.781128 50.084736 22.974133 48.662014 C 23.365657 45.766944 23.340842 42.689897 22.899689 39.430874 C 22.866602 39.187695 22.938959 38.941967 23.098543 38.755524 C 23.258129 38.569065 23.489752 38.459663 23.735123 38.454815 C 34.444122 38.289389 44.491391 38.256304 53.87693 38.35556 C 55.969658 38.380375 57.566074 37.164444 57.855587 40.646805 C 58.307769 46.13916 57.444761 50.99736 55.266563 55.221405 C 54.825411 56.087173 54.54969 56.759933 54.4394 57.239685 C 54.362198 57.598119 54.276726 57.854538 54.182983 58.008942 C 52.076475 61.571259 49.379924 64.55456 46.09333 66.958847 C 35.158241 74.932693 21.890549 74.601837 11.104348 66.619705 C 9.946321 65.759468 9.532739 64.758591 8.358168 63.865257 C 6.659727 62.580396 5.374867 60.939857 4.50359 58.943642 C 4.189267 58.226763 3.792229 57.451988 3.312475 56.619316 C -2.386676 46.685097 -0.409757 33.657284 6.778286 25.137505 C 12.651142 18.164528 23.379442 13.275993 32.941444 14.814507 C 39.484299 15.865021 46.010612 19.736137 50.692356 24.484039 C 51.056873 24.850845 51.071568 25.431332 50.725441 25.79097 L 41.486034 35.485306 C 41.279297 35.703999 40.983807 35.816479 40.678955 35.792538 C 40.374107 35.768593 40.091164 35.610687 39.906155 35.361237 C 37.071743 31.561803 33.429469 29.678628 28.979334 29.711712 C 22.113884 29.761341 15.23189 36.304199 14.97547 43.14484 C 14.561889 54.311539 28.507851 62.971916 37.341949 54.634129 C 37.529439 54.457663 37.763803 54.330831 38.04504 54.253632 C 39.658005 53.823502 41.196526 51.135223 39.260967 50.159176 C 39.035587 50.041306 38.753094 50.056992 38.516521 50.200539 Z"/>
        <path id="path5" fill="#ffffff" stroke="none" d="M 189.862488 38.008152 C 189.921143 38.386295 190.266281 38.655941 190.656555 38.628525 C 193.253845 38.435516 195.85114 38.305927 198.448441 38.239758 C 199.7388 38.206676 201.872894 38.578899 203.700912 38.115688 C 203.996384 38.04578 204.275223 38.054489 204.494995 38.140503 C 206.50499 38.975933 205.338699 40.737793 205.404877 42.143967 C 205.479324 43.823105 206.587708 50.547943 203.643021 49.952385 C 199.904236 49.207932 195.197678 49.737312 191.334824 49.786953 C 189.920395 49.80349 189.060135 50.43214 189.490265 51.89621 C 189.572978 52.182961 189.600545 52.447655 189.572968 52.690292 C 189.319305 54.879517 189.870748 56.748904 191.227295 58.298454 C 191.688477 58.833733 192.384293 59.139286 193.129776 59.133884 L 204.412277 59.125618 C 205.476557 59.125618 205.948039 59.666033 205.826721 60.746864 C 205.440715 64.265058 205.429682 67.68675 205.793625 71.01194 C 205.824585 71.283722 205.737045 71.555679 205.55336 71.758362 C 205.369675 71.961044 205.10762 72.074844 204.834137 72.070709 C 199.860128 72.004537 194.830973 72.00178 189.746674 72.062439 C 185.903127 72.106557 183.121104 71.764664 181.400604 71.036758 C 178.621338 69.862188 176.583761 67.890783 175.287872 65.122543 C 174.521372 63.479253 174.116063 61.05291 174.071945 57.843513 C 173.92306 45.375412 173.787954 32.904556 173.666626 20.430946 C 173.650085 19.245349 173.526016 18.073535 173.294418 16.915504 C 173.04627 15.685783 173.459849 15.065412 174.535156 15.05439 C 184.287399 14.938591 194.461502 15.434875 204.081406 14.731796 C 204.418594 14.709396 204.750305 14.835709 204.998947 15.081223 C 205.247589 15.326736 205.391342 15.669907 205.396591 16.030434 L 205.545486 26.444424 C 205.562037 27.525244 205.040924 28.062899 203.982147 28.057388 L 190.201614 28.016026 C 189.964996 28.015408 189.763321 28.199406 189.730133 28.446156 C 189.316549 31.694146 189.360667 34.881479 189.862488 38.008152 Z"/>
        <path id="path6" fill="#ffffff" stroke="none" d="M 246.002014 30.38998 C 242.279785 26.791828 239.517059 30.696037 239.384705 34.352097 C 238.904968 47.727318 239.268921 58.662407 238.789154 71.392441 C 238.775848 71.802048 238.422867 72.125595 237.995087 72.120346 L 225.852341 72.062439 C 224.280726 72.051412 223.57488 71.301453 223.734802 69.812561 C 224.156647 65.767731 223.80925 61.70636 223.95813 57.744255 C 224.206268 50.796097 224.090485 43.59977 223.933319 33.830978 C 223.850586 28.487514 224.868011 25.460098 227.010361 20.76181 C 227.630737 19.421806 229.160995 18.776619 230.029495 18.123154 C 232.957657 15.917389 236.517217 14.825539 240.708176 14.847603 C 246.117828 14.872414 253.884872 18.404404 253.562286 24.897621 C 253.530807 25.540054 253.771454 26.162712 254.224014 26.609852 C 254.885757 27.263306 255.324142 26.717388 255.481293 26.047375 C 256.622772 21.076134 256.82132 19.620323 261.362427 16.865875 C 270.816895 11.133644 285.333618 16.857597 285.317047 28.677761 C 285.30602 42.993186 285.374949 57.195567 285.523834 71.284904 C 285.526215 71.500633 285.440704 71.707863 285.287415 71.858032 C 285.134125 72.008217 284.926483 72.088112 284.713226 72.078987 C 280.715281 71.913551 276.720083 71.858409 272.727631 71.913559 C 269.576141 71.95491 270.626648 72.054176 270.411591 69.589218 C 270.130371 66.32193 270.742462 62.740311 270.361969 59.084255 C 269.642334 52.086468 270.370209 44.369038 270.287506 37.27198 C 270.262695 34.823574 270.626648 33.260235 269.088135 31.134434 C 266.308868 27.296398 262.297119 30.820107 262.247498 34.567154 C 262.115133 44.746773 261.933156 54.923632 261.701569 65.097733 C 261.651947 67.165639 261.762238 68.963341 262.03244 70.490837 C 262.21992 71.577176 261.75119 72.120346 260.626251 72.120346 L 247.383377 72.078987 C 247.150391 72.078987 246.961517 71.89753 246.961517 71.673676 L 246.911896 32.557156 C 246.911591 31.737629 246.583481 30.956104 246.002014 30.38998 Z"/>
        <path id="path7" fill="#ffffff" stroke="none" d="M 431.063141 58.736847 C 432.700897 59.704628 441.799683 59.1008 444.256378 59.1008 C 444.551025 59.10157 444.831573 59.227028 445.028625 59.446114 C 445.225677 59.665211 445.32074 59.957474 445.290344 60.250557 C 444.948446 63.763237 445.020131 67.212504 445.505402 70.598358 C 445.560638 70.98613 445.44458 71.378769 445.187286 71.674141 C 444.930084 71.969513 444.557068 72.138412 444.165375 72.136887 C 438.91566 72.092768 433.842397 72.081741 428.945587 72.103806 C 423.635223 72.136887 419.648285 71.624046 416.521606 67.686752 C 413.73407 64.179581 414.064911 60.258827 414.048401 55.742523 C 414.015299 42.800184 413.855377 29.648293 413.568634 16.28685 C 413.541066 14.803477 414.230377 14.298912 415.636566 14.773155 C 417.357056 15.352165 419.640015 14.847595 420.889008 14.839317 C 427.544932 14.800718 434.200836 14.800718 440.85672 14.839317 C 442.395264 14.847595 445.042206 14.070061 444.529327 16.799698 C 444.016479 19.554153 444.620331 22.349968 444.430054 25.178852 C 444.408417 25.442577 444.471924 25.713928 444.612061 25.956387 C 445.985138 28.479237 443.44574 27.933319 442.105743 27.916771 C 438.427622 27.867144 434.457245 27.856113 430.194611 27.883678 C 429.854553 27.885418 429.531677 28.033432 429.308441 28.28994 C 429.085205 28.546459 428.983124 28.886646 429.02829 29.22369 C 429.397776 31.947814 429.383993 34.495472 428.986938 36.866665 C 428.760864 38.195642 429.320587 38.799472 430.666107 38.678154 C 435.198944 38.25354 439.58842 38.143253 443.834534 38.347294 C 444.117157 38.362892 444.36438 38.488022 444.504517 38.686432 C 444.907064 39.265439 444.940155 39.888568 444.60379 40.555817 C 444.480804 40.801659 444.442841 41.07037 444.496246 41.316803 C 444.976013 43.541874 444.669983 45.436073 444.926392 47.917561 C 445.086304 49.450568 444.355632 50.104029 442.734375 49.877945 C 438.755737 49.315468 434.305603 49.877945 430.434479 49.67942 C 430.070221 49.660275 429.715851 49.813904 429.458984 50.102318 C 429.202057 50.390732 429.06665 50.786995 429.086212 51.19313 L 429.276428 55.386837 C 429.348124 56.963963 429.943695 58.080633 431.063141 58.736847 Z"/>
        <path id="path8" fill="#ffffff" stroke="none" d="M 490.031555 68.580093 C 487.649323 69.961456 485.961914 72.095535 483.621033 73.567886 C 483.408081 73.703651 483.134338 73.703651 482.917969 73.567886 C 480.130432 71.822571 478.128723 68.555267 476.565369 66.89267 C 473.901886 64.063782 468.161346 58.678955 467.450012 54.915363 C 466.80483 51.507448 466.303019 48.074722 465.94458 44.617188 C 465.912262 44.328373 465.801453 44.074566 465.630249 43.897549 C 464.281952 42.491375 464.463959 47.495712 464.49704 48.149166 C 464.844452 55.406142 464.963013 63.018796 464.852722 70.987129 C 464.848938 71.347878 464.697052 71.691216 464.43277 71.936752 C 464.168427 72.182297 463.81488 72.308487 463.454803 72.285782 C 459.969696 72.081752 456.241964 72.023847 452.271606 72.112068 C 448.326019 72.203056 449.748718 71.814293 449.707367 68.886139 C 449.552968 58.596235 449.495076 48.303572 449.533691 38.008152 C 449.558472 30.654678 451.858002 23.069595 457.937653 18.669083 C 463.669861 14.525002 469.162231 14.334763 476.830048 14.723526 C 483.563141 15.070923 491.479065 19.562424 494.109436 25.94812 C 496.590942 31.991926 496.629547 37.980584 494.22525 43.914097 C 493.373322 46.039909 493.34021 47.925838 490.900055 49.17485 C 489.538015 49.869665 488.432383 50.840204 487.58316 52.086468 C 487.40036 52.352581 487.171021 52.523815 486.962799 52.549675 L 485.391174 52.756466 C 485.038391 52.802979 484.762787 52.885662 484.646698 52.979805 C 483.306702 54.055107 484.737732 54.865734 485.465637 55.626724 C 487.891968 58.16335 490.541646 60.95916 493.414673 64.014153 C 493.954926 64.593239 493.940277 65.495941 493.381531 66.057243 C 492.460632 66.978152 491.343974 67.819102 490.031555 68.580093 Z M 468.202759 29.389118 C 458.020325 39.960258 474.414703 48.430408 478.92276 40.415199 C 479.590017 39.235115 480.061503 38.08536 480.337219 36.965935 C 480.965881 34.401722 479.311554 32.954189 478.757324 30.605049 C 478.693542 30.333611 478.54306 30.103485 478.33551 29.959866 C 475.341146 27.864384 472.261332 27.4701 469.096069 28.777016 C 468.754171 28.914876 468.456401 29.11891 468.202759 29.389118 Z"/>
        <path id="path9" fill="#ffffff" stroke="none" d="M 293.026215 22.796631 C 294.539917 20.579826 296.889069 18.627739 299.486359 17.378716 C 300.636108 16.832779 301.024902 16.071808 302.356598 15.69957 C 310.115387 13.565496 317.149038 14.748342 323.45755 19.248108 C 326.435333 21.365639 329.024323 28.4627 329.073944 31.994678 C 329.283498 45.14657 329.382762 58.30397 329.371735 71.466881 C 329.371521 71.801727 329.087738 72.074448 328.734833 72.078987 L 315.508484 72.120346 C 315.050293 72.120636 314.677582 71.773758 314.673065 71.342812 L 314.474548 56.205734 C 314.470001 55.747673 314.108429 55.378696 313.66394 55.378571 L 305.714874 55.378571 C 305.216949 55.378571 304.813293 55.793339 304.813293 56.304989 L 304.846375 71.193916 C 304.848541 71.427811 304.751923 71.65287 304.577942 71.819084 C 304.403961 71.985283 304.167084 72.078857 303.919952 72.078987 L 290.999664 72.078987 C 290.720306 72.078873 290.452942 71.968491 290.259369 71.773331 C 290.065765 71.578178 289.962708 71.315147 289.973969 71.045036 C 290.387573 60.87093 290.098053 50.581024 290.00708 40.390385 C 289.979492 37.065192 290.348958 32.945922 291.115479 28.032574 C 291.440816 25.931581 292.077728 24.186267 293.026215 22.796631 Z M 305.648712 31.192329 C 305.163442 32.118757 304.91805 32.970737 304.912537 33.748272 L 304.854645 42.317677 C 304.849579 42.687248 305.013458 43.043011 305.309235 43.304539 C 305.605011 43.566071 306.007721 43.711269 306.42627 43.707306 L 313.564667 43.632862 C 313.968811 43.627007 314.299591 43.332169 314.325653 42.954586 C 314.606873 39.472237 315.698761 29.868877 310.313904 29.083073 C 307.427124 28.669491 306.972168 28.611584 305.648712 31.192329 Z"/>
    </g>
</svg>
