<svg width="528" height="102" viewBox="0 0 528 102" fill="none" xmlns="http://www.w3.org/2000/svg">
<path d="M21.7202 66C21.9075 66 22.0912 66.0932 22.1959 66.2524C22.3008 66.4136 22.316 66.6121 22.2479 66.791C22.1995 66.8998 17.5678 78.0454 15.4162 84.1913L14.9994 85.4358L14.7752 86.1255C13.8463 88.9525 14.0666 91.3688 15.4436 93.3038C19.3025 98.7351 30.9333 98.9815 31.0433 98.9815H49.9854C50.2028 98.9816 50.4017 99.1034 50.4999 99.2993C50.5928 99.494 50.5695 99.7273 50.4359 99.8991L48.9811 101.779C48.8737 101.916 48.7115 102 48.5307 102H25.5321C13.4692 102 5.53624 99.5029 1.9656 94.5841C-1.05728 90.4146 0.289857 86.118 0.354122 85.9364L1.05199 83.8116C1.07558 83.7408 3.60729 76.5624 7.90905 66.3495C7.99681 66.1345 8.20384 66.0001 8.42911 66H21.7202Z" fill="white"/>
<path d="M83.3163 66C84.6408 66.0002 84.9827 67.4077 84.5778 68.4328C83.4208 71.3728 80.943 77.7963 78.8361 84.1765C77.0907 89.4616 75.5955 94.72 74.6468 98.1954C74.6244 98.3017 74.5648 98.5678 74.6826 98.7277C74.8059 98.8882 75.1385 98.9815 75.5942 98.9815H78.2324C78.4497 98.9816 78.6498 99.1071 78.7454 99.3028C78.8358 99.5027 78.8126 99.7372 78.6723 99.9089L77.1459 101.789C77.0411 101.922 76.8786 102 76.7031 102H61.6474C60.2231 102 59.5193 100.669 59.7878 99.6656C60.612 96.6118 62.5041 89.7601 64.467 83.8228C66.0865 78.9068 68.1415 73.4347 69.5776 69.7083C69.6065 69.6427 69.6037 69.4888 69.4975 69.3328C69.3573 69.1304 69.1029 69.0179 68.7821 69.0178H66.3905C66.1612 69.0178 65.9581 68.889 65.869 68.6845C65.7774 68.4807 65.8116 68.2425 65.9583 68.0728L67.6155 66.192C67.7281 66.07 67.8831 66 68.0456 66H83.3163Z" fill="white"/>
<path d="M125.206 66C125.449 66 125.664 66.1536 125.744 66.3804C125.827 66.6084 125.752 66.8618 125.565 67.0125L123.24 68.8948C123.134 68.974 123.009 69.0178 122.881 69.0178H115.1C114.039 69.0179 113.284 69.8055 113.161 70.1189C111.807 73.612 109.822 78.8861 108.078 84.1765C105.234 92.7967 103.014 101.483 102.993 101.569C102.925 101.821 102.699 102 102.441 102H89.1537C88.9715 102 88.8078 101.916 88.7004 101.779C88.5906 101.635 88.5532 101.454 88.5978 101.288C88.6222 101.186 91.1065 91.6971 93.707 83.8228C95.6751 77.8593 98.3232 70.9712 99.5078 67.9357C99.8904 66.959 100.849 66 102.086 66H125.206Z" fill="white"/>
<path d="M159.036 66C159.227 66 159.403 66.0931 159.51 66.2496C159.615 66.4108 159.635 66.6083 159.564 66.784C159.53 66.8712 156.011 75.5635 153.165 84.1765C151.026 90.6605 149.239 97.1794 148.475 100.052C148.226 101.001 147.226 102 145.977 102H122.585C122.344 102 122.129 101.847 122.045 101.618C121.969 101.395 122.043 101.137 122.229 100.984L123.814 99.1073C123.916 99.0268 124.042 98.9815 124.173 98.9815H132.84C133.933 98.9814 134.504 98.2359 134.598 97.8938C135.623 94.1805 137.177 88.7238 138.794 83.8228C141.395 75.9439 145.178 66.4555 145.218 66.3572C145.304 66.1423 145.511 66 145.747 66H159.036Z" fill="white"/>
<path fill-rule="evenodd" clip-rule="evenodd" d="M208.403 66C208.596 66 213.201 66.0332 215.563 68.996C216.863 70.619 217.221 72.7823 216.622 75.4324C216.561 75.68 215.153 81.5673 214.289 84.1765C212.722 88.9352 211.013 92.4324 211.003 92.4502C210.954 92.5574 206.645 102 196.894 102H158.17C157.993 102 157.825 101.916 157.715 101.779C157.615 101.635 157.573 101.454 157.619 101.288C157.644 101.189 160.125 91.6984 162.728 83.8228C165.33 75.9439 169.112 66.4555 169.147 66.3572C169.239 66.1423 169.445 66.0001 169.678 66H208.403ZM182.611 69.0178C181.345 72.2421 179.08 78.1841 177.097 84.1765C175.184 89.9827 173.583 95.6988 172.697 98.9815H188.505C188.741 98.9841 194.358 98.9928 196.206 93.4029C196.234 93.3501 198.111 89.3035 199.921 83.8263C201.73 78.329 202.714 73.6994 202.745 73.593C202.746 73.5698 203.344 71.6844 202.401 70.3791C201.744 69.4772 200.481 69.0178 198.642 69.0178H182.611Z" fill="white"/>
<path d="M264.839 66C265 66 268.949 66.0257 270.943 68.3787C271.678 69.2491 272.046 70.3154 272.046 71.5477C272.046 71.9179 272.014 72.3075 271.946 72.7085C271.938 72.7648 271.752 73.9352 271.328 75.232C270.901 76.5141 270.212 78.0026 270.188 78.0551C270.151 78.1318 269.456 79.6351 267.863 81.0581C273.233 82.4491 273.641 86.4806 273.641 87.4763C273.641 87.608 273.636 87.687 273.628 87.6977C273.623 87.7774 273.327 89.7012 272.562 92.003C272.095 93.4234 270.903 96.0251 270.845 96.1542C270.721 96.3964 267.828 102 261.686 102H243.321C243.132 102 242.959 101.907 242.851 101.756L241.524 99.8794C241.408 99.7063 241.389 99.4811 241.485 99.2937C241.581 99.107 241.768 98.988 241.975 98.9815L247.595 98.8268C254.883 98.8268 256.805 94.7512 256.891 94.5588C256.9 94.5365 257.917 92.4692 258.384 91.058C258.845 89.6618 259.12 87.8156 259.125 87.7927C259.291 86.7315 259.095 85.8863 258.527 85.2164C257.14 83.5912 254.034 83.5676 254.005 83.5676H243.723C243.517 83.5675 243.326 83.4502 243.224 83.2695L242.202 81.3886C242.101 81.2123 242.11 80.9978 242.211 80.8254C242.316 80.6511 242.501 80.5448 242.703 80.5448H251.081C251.213 80.5448 254.309 80.4861 255.942 77.3196C255.956 77.3019 256.707 75.7153 257.144 74.4023C257.573 73.1022 257.774 71.808 257.785 71.7579C257.785 71.7474 258.027 70.5661 257.397 69.7835C256.99 69.2769 256.272 69.0179 255.264 69.0178H243.3C242.042 72.2329 239.775 78.1598 237.789 84.1765C234.945 92.7948 232.724 101.479 232.702 101.569C232.639 101.821 232.409 102 232.153 102H218.862C218.684 102 218.516 101.915 218.409 101.779C218.307 101.635 218.265 101.454 218.307 101.288C218.337 101.183 220.819 91.6959 223.415 83.8228C226.02 75.9439 229.805 66.4555 229.84 66.3572C229.927 66.1423 230.138 66.0001 230.37 66H264.839Z" fill="white"/>
<path d="M329.534 66C329.762 66 329.964 66.1345 330.06 66.3495C330.088 66.4163 330.104 66.493 330.104 66.5723C330.104 66.7145 330.045 66.8592 329.945 66.9654L328.121 68.8477C328.011 68.9563 327.865 69.0178 327.707 69.0178H301.833C300.685 71.879 299.532 74.9526 298.392 78.169H323.377C323.603 78.169 323.813 78.306 323.905 78.517C323.933 78.5865 323.946 78.6633 323.946 78.7399C323.946 78.8861 323.888 79.0282 323.786 79.1344L321.965 81.0152C321.86 81.128 321.71 81.1896 321.553 81.1896H297.33C295.888 85.3931 294.998 88.2954 294.982 88.3355C294.461 89.925 294.196 91.3481 294.196 92.6013C294.196 94.0611 294.555 95.2906 295.27 96.2745C297.204 98.9487 301.198 98.9814 301.256 98.9815H317.677C317.887 98.9815 318.086 99.103 318.18 99.2937C318.275 99.4884 318.262 99.7209 318.128 99.8913L316.715 101.769C316.608 101.916 316.44 102 316.265 102H292.202C287.246 102 283.745 100.637 281.782 97.9465C278.787 93.8408 280.534 88.2251 280.613 87.9797C284.309 76.7905 288.339 66.4839 288.389 66.3628C288.478 66.1426 288.685 66.0001 288.918 66H329.534Z" fill="white"/>
<path d="M380.818 66C380.981 66 384.865 66.0258 386.867 68.3632C387.837 69.4932 388.191 70.9595 387.925 72.7148C387.914 72.767 387.713 73.9726 387.273 75.303C386.807 76.7244 386.186 78.0171 386.152 78.0776C386.041 78.3031 383.325 83.5676 377.121 83.5676H372.32C371.958 83.5676 371.694 83.6424 371.602 83.7729C371.489 83.9214 371.544 84.1903 371.557 84.2299L377.302 98.0639C377.323 98.1 377.834 98.9815 379.207 98.9815H381.723C381.959 98.9816 382.168 99.126 382.25 99.3499C382.339 99.5702 382.276 99.8171 382.096 99.9757L379.971 101.855C379.868 101.947 379.734 102 379.592 102H367.715C363.793 102 362.367 99.5655 362.275 99.3928L355.45 82.8455C355.479 82.9018 355.519 82.9502 355.568 82.9924C355.307 82.7529 355.231 82.0214 355.417 81.5412C355.591 81.085 356.051 80.5449 357.251 80.5448H366.177C366.334 80.5448 370.119 80.4834 372.27 76.3099C372.276 76.2975 372.69 75.5975 372.964 74.7497C373.248 73.8989 373.376 72.9448 373.389 72.8773C373.397 72.8576 373.832 70.951 372.954 69.8426C372.524 69.2973 371.808 69.0179 370.824 69.0178H354.224C352.962 72.2422 350.689 78.1841 348.714 84.1765C345.869 92.7937 343.654 101.477 343.624 101.569C343.564 101.821 343.336 102 343.074 102H329.787C329.611 102 329.441 101.916 329.334 101.779C329.221 101.635 329.19 101.454 329.234 101.288C329.257 101.189 331.739 91.6984 334.342 83.8228C336.939 75.9439 340.726 66.4555 340.765 66.3572C340.851 66.1422 341.064 66 341.297 66H380.818Z" fill="white"/>
<path d="M472.701 66C472.893 66 473.077 66.093 473.177 66.2496C473.242 66.3492 473.277 66.4596 473.277 66.5723C473.277 66.6418 473.264 66.7144 473.236 66.784C473.206 66.8458 471.143 71.9537 468.916 78.169H487.849C488.092 78.169 488.305 78.3195 488.387 78.5515C488.407 78.6091 488.42 78.6738 488.42 78.7399C488.42 78.909 488.344 79.0715 488.206 79.1843L485.881 81.0638C485.781 81.1443 485.656 81.1854 485.523 81.1854C485.523 81.1854 468.626 81.1896 467.852 81.1896C467.647 81.7871 466.845 84.1433 466.834 84.1765C463.994 92.7967 461.771 101.484 461.747 101.57C461.684 101.822 461.456 102 461.2 102H447.907C447.73 102 447.564 101.916 447.457 101.779C447.341 101.636 447.313 101.454 447.355 101.289C447.381 101.19 449.863 91.6984 452.465 83.8228C455.064 75.9523 458.839 66.476 458.885 66.3579C458.971 66.143 459.182 66.0001 459.416 66H472.701Z" fill="white"/>
<path d="M507.959 66C508.153 66 508.324 66.0931 508.434 66.2496C508.541 66.4082 508.56 66.6083 508.489 66.784C508.449 66.8791 504.934 75.5675 502.089 84.1765C499.243 92.7967 497.026 101.483 497.002 101.569C496.939 101.821 496.706 102 496.452 102H483.163C482.985 102 482.82 101.916 482.71 101.779C482.612 101.635 482.566 101.454 482.611 101.288C482.634 101.187 485.121 91.6975 487.721 83.8228C490.317 75.9456 494.1 66.4593 494.143 66.3572C494.227 66.1422 494.443 66 494.673 66H507.959Z" fill="white"/>
<path d="M446.741 66C446.969 66 447.182 66.1424 447.265 66.36C447.351 66.5776 447.299 66.8223 447.129 66.9816L445.139 68.8638C445.037 68.9652 444.896 69.0178 444.749 69.0178H416.189C415.047 69.0178 414.359 69.8769 414.268 70.1189C409.087 83.7725 408.836 84.5364 405.264 97.3685C405.229 97.4977 405.231 97.7287 405.357 97.9437C405.509 98.2104 405.829 98.4114 406.23 98.5111C412.005 99.4454 418.676 98.9189 422.138 98.5216C423.042 98.4154 423.775 97.9208 424.174 97.1716C425.804 93.3443 427.164 89.6206 428.023 87.1704C428.039 87.1075 428.026 86.956 427.914 86.7935C427.823 86.6631 427.609 86.449 427.161 86.449H422.549C422.368 86.4489 422.192 86.3592 422.085 86.2078L420.764 84.3305C420.64 84.1568 420.629 83.9259 420.724 83.7384C420.825 83.549 421.013 83.4319 421.23 83.4319H444.39C444.573 83.4319 444.744 83.5193 444.851 83.6653C444.959 83.814 444.989 84.0061 444.934 84.1765C443.072 89.8051 440.915 95.2129 439.794 97.9338C439.119 99.5704 436.699 100.772 435.643 100.924C422.042 102.923 398.495 101.547 393.086 100.863C392.148 100.746 391.335 100.262 390.796 99.5032C390.347 98.8629 390.135 98.0778 390.263 97.5049C392.88 85.5974 397.862 73.2719 399.881 68.5242C400.557 66.9453 402.611 66 404.205 66H446.741Z" fill="white"/>
<path d="M124.528 70.5816C127.839 70.5817 128.315 73.0439 128.333 73.1501L132.847 96.3349C132.847 96.3473 132.842 97.1041 132.268 97.1041H122.454C119.584 97.1041 118.921 94.6675 118.887 94.5145C118.887 94.5145 115.596 75.4436 114.885 71.3311C114.885 70.6435 115.632 70.5816 115.632 70.5816H124.528Z" fill="white"/>
<path d="M519.281 66.7425H516.642V72.2557H515.586V66.7425H512.942V66H519.281V66.7425Z" fill="white"/>
<path d="M523.844 70.4276C524.019 70.8437 524.145 71.1539 524.226 71.3578C524.319 71.1284 524.46 70.7928 524.655 70.3523L526.575 66H528V72.2557H526.978V67.0245L524.646 72.2557H523.692L521.375 66.9345V72.2557H520.356V66H521.946L523.844 70.4276Z" fill="white"/>
<path d="M68.1099 41.884C70.648 44.3488 74.1091 45.8726 77.9263 45.8726L138.24 45.8796L125.214 7.01937C123.435 2.89106 119.261 0 114.248 0C109.256 0 105.019 2.98552 103.306 7.09678L98.9642 19.7554L98.9471 0.653875L77.8844 0.643277C74.0773 0.643277 70.6549 2.1289 68.1343 4.58634L68.1417 0.660326H46.5758C42.559 0.660326 38.9058 2.37312 36.3507 5.06511V0.643277L16.0248 0.660787C7.25023 0.653414 0.0525312 7.51242 0.0419328 16.581C0.0419328 20.7793 1.87684 24.5869 4.58266 27.4079L0 27.4005V45.8726L20.4789 45.8689C26.2329 45.862 31.9348 42.3904 33.9167 38.2307L33.9762 38.0598C36.2659 42.6844 41.0444 45.8726 46.5749 45.8726L68.1095 45.8689V41.884" fill="white"/>
<path d="M3.16406 42.7126L20.4335 42.6951C27.4989 42.6951 33.2248 36.9867 33.2248 29.9531C33.2248 22.9056 27.4989 17.1967 20.4335 17.1967L15.9485 17.2212C15.5951 17.2212 15.3084 16.9313 15.3084 16.5747C15.3084 16.218 15.5951 15.9277 15.9485 15.9277L33.1866 15.9314L33.1935 10.5234H15.9448C12.61 10.5234 9.89681 13.2325 9.89681 16.5608C9.89681 19.8924 12.6095 22.5909 15.9448 22.5909L20.451 22.6503C24.4991 22.6503 27.7749 25.9151 27.7749 29.9429C27.7749 33.9735 24.4996 37.2457 20.451 37.2457H3.17097L3.16406 42.7126" fill="#0060A8"/>
<path d="M3.17105 35.9761H20.451C23.7965 35.9761 26.5023 33.2776 26.5023 29.9423C26.5023 26.6108 23.7965 23.9155 20.451 23.9155L15.9449 23.8667C11.9037 23.8667 8.62462 20.5982 8.62462 16.5602C8.62462 12.5333 11.9037 9.2644 15.9449 9.2644L33.1936 9.26072L33.1866 3.83203H15.9486C8.8905 3.83203 3.15723 9.53397 3.15723 16.5745C3.15723 23.6151 8.8905 29.3203 15.9486 29.3203L20.4091 29.3272C20.7483 29.3272 21.0349 29.6037 21.0349 29.9529C21.0349 30.2958 20.7483 30.5718 20.4091 30.5718L3.16414 30.5856L3.17105 35.9761" fill="#0060A8"/>
<path d="M46.6137 37.2801C43.6176 37.2801 41.1633 34.8923 41.1633 31.8436V14.5922C41.1633 11.6592 43.6176 9.24689 46.6137 9.24689L65.0471 9.25012V3.83203H46.6137C40.615 3.83203 35.7559 8.67366 35.7559 14.6516V31.8441C35.7559 37.8225 40.615 42.671 46.6137 42.671L64.9701 42.6784L64.9664 37.2737L46.6137 37.2801" fill="#0060A8"/>
<path d="M42.485 14.6506C42.485 12.3646 44.324 10.5117 46.6137 10.5117H65.0471V15.9372H49.1656C47.8934 15.9372 47.8759 17.1993 47.8759 17.1993H61.1252V22.6003H42.4785L42.485 14.6506" fill="#0060A8"/>
<path d="M46.6132 35.9652C44.3304 35.9652 42.4775 34.1229 42.4775 31.8434V23.8867H61.1243V29.2988H47.8749C47.8924 30.5711 49.1647 30.5775 49.1647 30.5775H64.9692L64.9655 35.9578L46.6132 35.9652" fill="#0060A8"/>
<path d="M77.9645 37.2663C74.979 37.2663 72.5391 34.8333 72.5391 31.8436V14.6512C72.5391 11.6587 74.9615 9.24643 77.9502 9.24643H95.8039V3.83203H77.9088C71.9128 3.83203 67.0537 8.67366 67.0537 14.6516V31.8441C67.0537 37.8225 71.9548 42.671 77.9502 42.671L95.8039 42.6784V17.2003H80.4607V22.6013H90.3817V37.2663H77.9645" fill="#0060A8"/>
<path d="M73.8115 31.8424C73.8115 34.133 75.6643 35.996 77.9504 35.996H89.1022V23.8793H80.4742V29.2983H83.6763L83.6864 30.5706H80.4986C79.8028 30.5706 79.2332 29.9941 79.2332 29.2983L79.2047 17.1954C79.2047 17.1954 79.201 15.937 80.4843 15.9056H95.8101L95.8031 10.5078L77.9495 10.5115C75.6634 10.5115 73.8105 12.3644 73.8105 14.6504V31.8424" fill="#0060A8"/>
<path d="M112.581 10.4308C112.821 9.74238 113.475 9.24609 114.248 9.24609C115.021 9.24609 115.681 9.74238 115.916 10.4308L124.582 36.0342H111.892L111.906 30.0111H116.146L114.237 24.3373L108.018 42.6725H101.621L112.581 10.4308" fill="#0060A8"/>
<path d="M126.329 37.2662H111.912V42.6736H133.852L122.442 8.91452C121.442 5.62164 118.146 3.19922 114.244 3.19922C110.336 3.19922 107.05 5.61105 106.042 8.90116L94.5273 42.6741H100.271L111.451 9.84488C111.905 8.75785 112.975 7.992 114.234 7.992C115.485 7.992 116.562 8.75785 117.02 9.83796L126.329 37.2662" fill="#0060A8"/>
<path fill-rule="evenodd" clip-rule="evenodd" d="M132.419 7.01383C131.699 7.73037 130.738 8.12896 129.717 8.12896C128.699 8.12896 127.742 7.73037 127.025 7.01429C126.298 6.29083 125.899 5.33651 125.899 4.31584C125.899 2.21828 127.616 0.515625 129.717 0.515625C130.738 0.515625 131.699 0.914217 132.419 1.62707C133.139 2.35053 133.541 3.30162 133.541 4.31538C133.541 5.33605 133.139 6.29037 132.419 7.01383ZM127.399 2.00078C126.774 2.61964 126.438 3.44447 126.438 4.31492C126.438 5.19228 126.773 6.01389 127.399 6.63228C128.021 7.25114 128.846 7.59029 129.717 7.59029C131.531 7.59029 133.007 6.12218 133.007 4.31492C133.007 3.44447 132.664 2.61964 132.045 2.00078C131.423 1.38239 130.598 1.04647 129.717 1.04647C128.846 1.04647 128.021 1.38193 127.399 2.00078Z" fill="white"/>
<path fill-rule="evenodd" clip-rule="evenodd" d="M128.738 6.43176V4.6351H129.829L130.986 6.43176H131.654L130.465 4.60008C130.471 4.59875 130.478 4.59733 130.486 4.5958C130.718 4.54911 131.472 4.39788 131.472 3.44301C131.472 3.05133 131.339 2.69835 131.021 2.46381C130.698 2.2199 130.357 2.21596 129.783 2.20931C129.774 2.20921 129.765 2.2091 129.755 2.20898H128.186V6.43176H128.738ZM129.86 4.17015H128.738V2.67762H129.829C129.84 2.67762 129.851 2.67761 129.863 2.6776C130.173 2.67737 130.441 2.67717 130.654 2.85595C130.895 3.05179 130.906 3.33472 130.906 3.44669C130.906 3.75405 130.766 4.03375 130.374 4.12822C130.207 4.17015 130.039 4.17015 129.86 4.17015Z" fill="white"/>
</svg>
