<?xml version="1.0" encoding="UTF-8"?>
<!-- Generated by Pixelmator Pro 3.5.7 -->
<svg width="465" height="125" viewBox="0 0 465 125" xmlns="http://www.w3.org/2000/svg">
    <g id="Page-1">
        <g id="mainlogo">
            <g id="SEGAlogo">
                <path id="Path" fill="#ffffff" stroke="none" d="M 68.109924 41.883957 C 70.64801 44.34877 74.109077 45.872635 77.926346 45.872635 L 138.23999 45.879547 L 125.214096 7.019363 C 123.434952 2.89106 119.261024 0 114.247978 0 C 109.256134 0 105.019081 2.985519 103.306282 7.096779 L 98.964165 19.755417 L 98.947121 0.653877 L 77.884415 0.64328 C 74.077286 0.64328 70.654922 2.128899 68.134346 4.586342 L 68.141716 0.660324 L 46.575817 0.660324 C 42.559025 0.660324 38.905804 2.373123 36.350666 5.065109 L 36.350666 0.64328 L 16.02478 0.660789 C 7.250227 0.653412 0.052531 7.512421 0.041933 16.580963 C 0.041933 20.779312 1.876838 24.586906 4.582656 27.407921 L 0 27.400551 L 0 45.872635 L 20.478872 45.86895 C 26.232882 45.862038 31.93482 42.390373 33.916721 38.230728 L 33.976166 38.059769 C 36.265881 42.684357 41.044376 45.872635 46.574898 45.872635 L 68.109459 45.86895 L 68.109459 41.883957"/>
                <path id="path1" fill="#0060a8" stroke="none" d="M 3.163853 42.712006 L 20.433252 42.694504 C 27.498699 42.694504 33.224598 36.986115 33.224598 29.952461 C 33.224598 22.904984 27.498699 17.196136 20.433252 17.196136 L 15.948287 17.220551 C 15.594853 17.220551 15.308236 16.93071 15.308236 16.574051 C 15.308236 16.217392 15.594853 15.927094 15.948287 15.927094 L 33.186352 15.930779 L 33.193264 10.522827 L 15.944601 10.522827 C 12.609791 10.522827 9.896601 13.231873 9.896601 16.560226 C 9.896601 19.891815 12.60933 22.590256 15.944601 22.590256 L 20.450764 22.649704 C 24.498892 22.649704 27.774719 25.914467 27.774719 29.942322 C 27.774719 33.972939 24.499352 37.245079 20.450764 37.245079 L 3.170765 37.245079 L 3.163853 42.712006"/>
                <path id="path2" fill="#0060a8" stroke="none" d="M 3.170765 35.975571 L 20.450764 35.975571 C 23.796171 35.975571 26.501989 33.27713 26.501989 29.941864 C 26.501989 26.610275 23.796171 23.915054 20.450764 23.915054 L 15.944601 23.866211 C 11.903385 23.866211 8.624332 20.597763 8.624332 16.559769 C 8.624332 12.532837 11.903385 9.263924 15.944601 9.263924 L 33.193264 9.260239 L 33.186352 3.831551 L 15.948287 3.831551 C 8.890214 3.831551 3.156941 9.533493 3.156941 16.574051 C 3.156941 23.614616 8.890214 29.319778 15.948287 29.319778 L 20.408831 29.326691 C 20.74798 29.326691 21.034597 29.603172 21.034597 29.952461 C 21.034597 30.295296 20.74798 30.571312 20.408831 30.571312 L 3.163853 30.585136 L 3.170765 35.975571"/>
                <path id="path3" fill="#0060a8" stroke="none" d="M 46.613605 37.27964 C 43.617481 37.27964 41.163261 34.891769 41.163261 31.843124 L 41.163261 14.59169 C 41.163261 11.658699 43.617481 9.246414 46.613605 9.246414 L 65.046982 9.249634 L 65.046982 3.831551 L 46.613605 3.831551 C 40.61491 3.831551 35.755775 8.67318 35.755775 14.651138 L 35.755775 31.843582 C 35.755775 37.821999 40.61491 42.670532 46.613605 42.670532 L 64.970032 42.67791 L 64.966347 37.273193 L 46.613605 37.27964"/>
                <path id="path4" fill="#0060a8" stroke="none" d="M 42.484837 14.651138 C 42.484837 12.365105 44.323887 10.51223 46.613605 10.51223 L 65.046982 10.51223 L 65.046982 15.937691 L 49.165512 15.937691 C 47.893246 15.937691 47.875736 17.199821 47.875736 17.199821 L 61.125118 17.199821 L 61.125118 22.600853 L 42.478386 22.600853 L 42.484837 14.651138"/>
                <path id="path5" fill="#0060a8" stroke="none" d="M 46.613605 35.965439 C 44.330799 35.965439 42.477924 34.123154 42.477924 31.843582 L 42.477924 23.886948 L 61.124657 23.886948 L 61.124657 29.299042 L 47.875275 29.299042 C 47.892784 30.571312 49.165054 30.577766 49.165054 30.577766 L 64.969574 30.577766 L 64.965881 35.958069 L 46.613605 35.965439"/>
                <path id="path6" fill="#0060a8" stroke="none" d="M 77.964592 37.265816 C 74.979065 37.265816 72.539131 34.832794 72.539131 31.843124 L 72.539131 14.650673 C 72.539131 11.658241 74.961555 9.245949 77.950302 9.245949 L 95.804001 9.245949 L 95.804001 3.831551 L 77.908836 3.831551 C 71.912903 3.831551 67.053772 8.67318 67.053772 14.651138 L 67.053772 31.843582 C 67.053772 37.821999 71.954834 42.670532 77.950302 42.670532 L 95.804001 42.67791 L 95.804001 17.199821 L 80.460747 17.199821 L 80.460747 22.600853 L 90.381767 22.600853 L 90.381767 37.265816 L 77.964592 37.265816"/>
                <path id="path7" fill="#0060a8" stroke="none" d="M 73.811401 31.843124 C 73.811401 34.133759 75.664276 35.996773 77.950302 35.996773 L 89.102127 35.996773 L 89.102127 23.880035 L 80.474106 23.880035 L 80.474106 29.299042 L 83.676208 29.299042 L 83.68634 30.571312 L 80.498528 30.571312 C 79.802719 30.571312 79.23317 29.99485 79.23317 29.299042 L 79.204605 17.196136 C 79.204605 17.196136 79.20092 15.937691 80.484245 15.906357 L 95.80999 15.906357 L 95.803078 10.508545 L 77.949387 10.51223 C 75.663353 10.51223 73.810478 12.365105 73.810478 14.651138 L 73.810478 31.843124"/>
                <path id="path8" fill="#0060a8" stroke="none" d="M 112.580345 10.431587 C 112.820885 9.743156 113.474754 9.246872 114.24752 9.246872 C 115.020744 9.246872 115.681068 9.743156 115.915154 10.431587 L 124.581879 36.035019 L 111.891449 36.035019 L 111.905273 30.011902 L 116.146011 30.011902 L 114.236923 24.338074 L 108.017967 42.673302 L 101.620682 42.673302 L 112.580345 10.431587"/>
                <path id="path9" fill="#0060a8" stroke="none" d="M 126.329231 37.265816 L 111.912643 37.265816 L 111.912643 42.673302 L 133.852249 42.673302 L 122.441925 8.914177 C 121.441994 5.6213 118.145889 3.198875 114.243835 3.198875 C 110.335793 3.198875 107.049828 5.610703 106.042519 8.90081 L 94.527588 42.673767 L 100.271454 42.673767 L 111.451385 9.844528 C 111.905273 8.7575 112.975716 7.991653 114.234154 7.991653 C 115.485687 7.991653 116.562119 8.7575 117.020149 9.837616 L 126.329231 37.265816"/>
                <path id="Shape" fill="#ffffff" stroke="none" d="M 129.717041 8.128052 C 130.738174 8.128052 131.699402 7.729462 132.419632 7.012917 C 133.139404 6.289459 133.541672 5.335144 133.541672 4.314468 C 133.541672 3.300713 133.139404 2.349617 132.419632 1.62616 C 131.699402 0.913307 130.738174 0.514709 129.717041 0.514709 C 127.616249 0.514709 125.899765 2.217369 125.899765 4.314934 C 125.899765 5.335602 126.298363 6.289917 127.02504 7.013374 C 127.74205 7.729462 128.699585 8.128052 129.717041 8.128052 M 126.438446 4.314011 C 126.438446 3.443558 126.773903 2.618729 127.399216 1.99987 C 128.021759 1.38102 128.846588 1.045555 129.717041 1.045555 C 130.598083 1.045555 131.422913 1.381477 132.045456 1.99987 C 132.664307 2.618729 133.007141 3.443558 133.007141 4.314011 C 133.007141 6.121269 131.531662 7.589378 129.717041 7.589378 C 128.84613 7.589378 128.021286 7.250229 127.399216 6.631371 C 126.773445 6.012978 126.438446 5.191376 126.438446 4.314011 Z"/>
                <path id="path10" fill="#ffffff" stroke="none" d="M 128.738297 4.635651 L 128.738297 6.432304 L 128.185791 6.432304 L 128.185791 2.209534 L 129.75528 2.209534 C 130.346481 2.216446 130.692551 2.216446 131.021103 2.464355 C 131.33905 2.698906 131.472229 3.05188 131.472229 3.443558 C 131.472229 4.429672 130.668594 4.558693 130.46492 4.600624 L 131.653778 6.432304 L 130.986084 6.432304 L 129.82901 4.635651 L 128.738297 4.635651 M 128.738297 4.1707 L 129.860352 4.1707 C 130.039139 4.1707 130.206863 4.1707 130.374603 4.128769 C 130.766281 4.034302 130.905899 3.754601 130.905899 3.447243 C 130.905899 3.335266 130.895294 3.052338 130.653839 2.856499 C 130.433121 2.671257 130.15387 2.678169 129.82901 2.678169 L 128.738297 2.678169 L 128.738297 4.1707 L 128.738297 4.1707 Z"/>
            </g>
        </g>
    </g>
    <g id="logo-svgeu">
        <radialGradient id="radialGradient1" cx="220.247983" cy="85.981807" r="154.284002" fx="220.247983" fy="85.981807" gradientUnits="userSpaceOnUse">
            <stop offset="1e-05" stop-color="#aebadc" stop-opacity="1"/>
            <stop offset="0.2354" stop-color="#b2bdde" stop-opacity="1"/>
            <stop offset="0.4525" stop-color="#bdc7e2" stop-opacity="1"/>
            <stop offset="0.6625" stop-color="#d0d7ea" stop-opacity="1"/>
            <stop offset="0.8668" stop-color="#eaedf6" stop-opacity="1"/>
            <stop offset="1" stop-color="#ffffff" stop-opacity="1"/>
        </radialGradient>
        <path id="Trazado" fill="url(#radialGradient1)" stroke="none" d="M 438.00647 96.74498 C 437.997833 97.048073 437.98056 97.350098 437.947144 97.643494 C 437.870544 98.316559 437.744324 98.961594 437.575012 99.586136 L 2.965626 99.586136 C 2.77902 98.932472 2.644189 98.287437 2.567605 97.643494 C 2.127517 94.051598 3.379826 90.585907 6.250104 87.736115 C 10.058805 83.978119 14.520088 81.538208 19.208965 79.576157 C 29.197231 75.379143 39.599701 73.357758 50.138077 72.957581 C 62.503685 72.498077 74.887627 72.809807 87.270493 72.898254 C 103.767311 73.025536 323.306396 72.205765 334.953644 72.42041 C 347.903839 72.664192 360.862732 72.507782 373.812958 72.391296 C 387.211914 72.264008 400.518097 73.113983 413.578339 76.83316 C 420.416962 78.785507 427.019348 81.499382 432.800903 86.369476 C 435.85672 88.935577 438.159637 92.039917 438.00647 96.74498 Z"/>
        <linearGradient id="linearGradient1" x1="220.270419" y1="122.027373" x2="220.270419" y2="99.585375" gradientUnits="userSpaceOnUse">
            <stop offset="1e-05" stop-color="#ffffff" stop-opacity="1"/>
            <stop offset="0.4206" stop-color="#faf0c2" stop-opacity="1"/>
            <stop offset="1" stop-color="#f4dc72" stop-opacity="1"/>
        </linearGradient>
        <linearGradient id="linearGradient2" x1="2.250051" y1="110.80632" x2="438.285717" y2="110.80632" gradientUnits="userSpaceOnUse">
            <stop offset="1e-05" stop-color="#ffffff" stop-opacity="1"/>
            <stop offset="0.0836" stop-color="#fefefc" stop-opacity="1"/>
            <stop offset="0.1514" stop-color="#fafbf2" stop-opacity="1"/>
            <stop offset="0.2136" stop-color="#f4f7e1" stop-opacity="1"/>
            <stop offset="0.2725" stop-color="#ecf0c9" stop-opacity="1"/>
            <stop offset="0.3291" stop-color="#e1e8aa" stop-opacity="1"/>
            <stop offset="0.3839" stop-color="#d3de84" stop-opacity="1"/>
            <stop offset="0.4364" stop-color="#c3d258" stop-opacity="1"/>
            <stop offset="0.4798" stop-color="#b4c62d" stop-opacity="1"/>
            <stop offset="0.4905" stop-color="#b8c939" stop-opacity="1"/>
            <stop offset="0.5369" stop-color="#c9d667" stop-opacity="1"/>
            <stop offset="0.5864" stop-color="#d7e190" stop-opacity="1"/>
            <stop offset="0.6381" stop-color="#e4eab2" stop-opacity="1"/>
            <stop offset="0.6927" stop-color="#eef2ce" stop-opacity="1"/>
            <stop offset="0.7514" stop-color="#f5f8e4" stop-opacity="1"/>
            <stop offset="0.8158" stop-color="#fbfcf3" stop-opacity="1"/>
            <stop offset="0.8906" stop-color="#fefefc" stop-opacity="1"/>
            <stop offset="1" stop-color="#ffffff" stop-opacity="1"/>
        </linearGradient>
        <path id="path11" fill="url(#linearGradient1)" stroke="url(#linearGradient2)" stroke-width="1.078647" d="M 437.575012 99.585052 C 437.092834 101.313042 436.263367 102.865219 435.280701 104.338646 C 432.453583 108.594986 428.508972 111.044594 424.429535 113.279541 C 417.14975 117.261909 409.345734 118.775253 401.473755 120.112778 C 388.066193 122.387634 374.574493 121.801933 361.116211 121.879601 C 330.813782 122.045715 300.511383 121.977753 270.21759 121.997169 L 220.100418 121.997169 L 220.100418 122.016586 C 179.538986 122.016586 138.986206 122.045715 98.434479 122.006882 C 84.146729 121.987465 69.858971 121.997169 55.579849 121.626122 C 43.586376 121.313309 31.677042 119.868996 20.258488 115.232979 C 15.915857 113.475868 11.675696 111.299156 8.153916 107.746094 C 6.782956 106.369736 5.50476 104.769028 4.471416 103.041031 C 3.794026 101.89875 3.294613 100.737045 2.964547 99.585052 Z"/>
        <path id="path12" fill="#000000" stroke="none" d="M 440.509979 84.596176 C 433.142853 79.21373 424.729401 76.215096 416.013916 74.0578 C 399.370422 69.948158 382.414093 69.009735 365.339111 69.149956 C 348.835815 69.279396 332.321747 69.451981 315.818451 69.18232 C 300.976288 68.945015 128.919189 69.851074 107.896362 69.710854 C 92.115768 69.61377 76.335175 69.268608 60.576141 69.775574 C 47.146992 70.217819 33.890427 72.450615 21.162394 77.088791 C 15.186691 79.256882 9.502224 81.953491 4.648314 86.106277 C 0.991702 89.255936 -0.604695 93.085129 -0.043798 97.05455 C 0.225863 99.028473 1.034848 101.04554 2.383157 103.019463 C 3.699106 104.928665 5.327861 106.697647 7.075269 108.218536 C 11.562439 112.144806 16.966459 114.550194 22.499916 116.49176 C 37.050861 121.615334 52.227417 123.211723 67.511841 123.556892 C 85.708603 123.966782 103.916168 123.955994 122.123718 123.97757 C 173.801666 124.020706 225.47963 123.98835 277.168396 123.98835 L 277.168396 123.966782 L 341.035065 123.966782 C 379.639832 123.945206 310.543854 124.020706 349.159393 123.837341 C 366.309906 123.751045 383.50354 124.398239 400.589294 121.884995 C 410.620697 120.407242 420.565826 118.735344 429.842194 114.334465 C 435.04126 111.864365 440.067719 109.15696 443.670441 104.454063 C 445.374695 102.232048 446.722992 99.848244 447.068176 97.05455 C 447.111328 96.730957 447.132874 96.396576 447.143677 96.062195 C 447.33783 90.863113 444.4039 87.433014 440.509979 84.596176 Z M 371.066742 74.758919 C 384.592957 74.877571 398.022095 75.999367 411.116852 79.634399 C 417.577972 81.424957 423.790955 83.873489 428.990051 88.295937 C 432.312286 91.121994 433.843964 94.088272 433.628235 97.05455 C 433.434052 99.729591 431.816101 102.393845 428.806702 104.961029 C 422.82019 110.063026 415.604034 112.468407 408.226105 114.474686 C 396.986603 117.52726 385.477448 118.897141 373.860443 118.940285 C 312.560913 119.177589 358.972961 119.296242 297.662689 119.44725 C 250.827835 119.565903 203.982208 119.792412 157.147369 119.738487 C 128.44458 119.706123 99.741798 119.425682 71.039009 118.864777 C 56.995033 118.605904 43.091278 116.588837 29.964149 111.292679 C 25.627991 109.534485 21.518347 106.816299 17.894096 103.839233 C 15.456353 101.843735 14.21591 99.481506 14.108045 97.05455 C 13.989394 94.422653 15.208265 91.71524 17.678366 89.30986 C 22.834297 84.315735 29.338535 81.770126 36.047718 79.796204 C 45.593739 76.991714 55.409424 75.481613 65.311401 75.255096 C 83.659172 74.845215 102.017746 75.007004 120.354736 74.629486"/>
        <path id="path13" fill="#000000" stroke="none" d="M 420.608978 91.63974 C 417.923126 89.342224 414.805847 87.357513 411.569916 85.987633 C 402.70343 82.201584 393.276062 80.659119 383.719238 80.238449 C 374.561554 79.850128 365.382263 79.753052 356.202972 79.753052 C 232.784225 79.720695 215.600311 79.731476 92.181564 79.731476 C 85.429237 79.731476 78.666122 79.580475 71.913795 79.806992 C 60.76059 80.184517 49.682888 81.230804 39.05822 85.04921 C 34.657341 86.634827 30.450619 88.490097 27.257826 92.038834 C 25.726149 93.743103 25.003454 95.393433 25.11132 97.05455 C 25.186825 98.499931 25.887945 99.94532 27.21468 101.455421 C 30.375114 105.047318 34.269028 107.582138 38.810131 109.167747 C 47.180428 112.090881 55.852749 113.525482 64.665291 113.89222 C 73.758286 114.280533 82.862053 114.399185 91.965836 114.399185 C 153.707565 114.442329 215.44931 114.420761 277.201813 114.420761 L 304.728882 114.420761 C 362.220734 114.409973 313.477783 114.442329 370.969635 114.356033 C 382.629791 114.345253 394.268402 113.676491 405.60498 110.451332 C 411.440491 108.790222 416.790558 106.384842 420.91098 101.811378 C 422.37793 100.193405 423.197723 98.597015 423.316345 97.05455 C 423.488953 95.166916 422.615234 93.35479 420.608978 91.63974 Z M 337.628693 84.69326 C 338.351379 84.596176 338.836761 84.466736 339.332947 84.466736 C 351.651093 84.455956 363.980011 84.43438 376.30896 84.477524 C 380.019501 84.477524 382.317017 86.861336 382.133636 90.561096 L 337.779694 90.561096 C 337.725769 89.752106 337.650269 89.115707 337.628693 88.468521 C 337.617889 87.238861 337.628693 86.009201 337.628693 84.69326 Z M 226.235764 84.4991 C 236.784927 84.412811 247.334091 84.412811 257.88327 84.4991 C 261.205505 84.520676 263.416718 87.141785 263.211761 90.528732 L 220.777817 90.528732 C 220.842545 86.882904 222.88118 84.520676 226.235764 84.4991 Z M 176.154205 84.477524 C 180.414856 84.402023 184.664719 84.455956 188.925385 84.455956 L 215.244354 84.455956 L 215.244354 90.517944 L 170.491302 90.517944 C 170.102997 87.055496 172.443649 84.531464 176.154205 84.477524 Z M 126.730621 84.617752 L 164.59111 84.617752 L 164.59111 90.550308 L 126.730621 90.550308 Z M 62.659004 84.639328 C 63.349342 84.574608 63.921024 84.466736 64.481918 84.466736 C 81.136223 84.455956 97.790527 84.445175 114.444824 84.466736 C 118.284813 84.477524 120.603905 86.850555 120.43132 90.571884 L 62.659004 90.571884 Z M 38.238449 103.537216 C 34.635769 103.558784 31.421402 100.56015 31.173313 97.05455 C 31.140953 96.892746 31.140953 96.720169 31.140953 96.547585 C 31.173313 92.890976 34.376896 89.741325 38.098225 89.719749 C 41.981354 89.698181 45.217293 92.847824 45.195721 96.633881 C 45.195721 96.774094 45.184933 96.914322 45.174145 97.05455 C 44.926056 100.549362 41.787197 103.51564 38.238449 103.537216 Z M 73.111092 110.041451 L 62.659004 110.041451 L 62.659004 92.481079 L 73.111092 92.481079 Z M 96.711884 110.073807 L 86.313728 110.073807 L 86.313728 92.556587 L 96.711884 92.556587 Z M 120.485252 110.030663 L 109.774292 110.030663 L 109.774292 92.556587 L 120.485252 92.556587 Z M 164.558746 110.063026 C 163.792923 110.106171 163.027069 110.192459 162.23967 110.192459 C 153.060394 110.203247 143.891891 110.214035 134.712601 110.192459 C 129.157578 110.181671 126.644325 107.625282 126.665894 102.124191 C 126.676682 100.441498 126.665894 98.758804 126.665894 97.05455 L 126.665894 92.545807 L 137.215057 92.545807 C 137.765167 94.584442 139.404724 94.821747 141.303131 94.810959 C 147.462204 94.757027 153.632065 94.789383 159.801926 94.789383 L 162.86528 94.789383 L 162.86528 100.322845 L 137.646515 100.322845 C 137.258209 103.289124 138.002472 104.227547 140.60202 104.238335 C 147.656357 104.270691 154.699921 104.249115 161.743484 104.249115 L 164.558746 104.249115 Z M 215.330658 103.041031 C 215.104126 106.924164 211.954483 110.106171 208.017426 110.160103 C 202.225082 110.257179 196.432755 110.203247 190.640427 110.203247 C 186.304276 110.203247 181.978897 110.235611 177.653519 110.181671 C 173.004547 110.138535 170.286362 107.366409 170.264801 102.782166 L 170.264801 92.373222 L 180.986542 92.373222 L 180.986542 100.56015 C 180.99733 103.925522 181.310135 104.249115 184.600006 104.249115 L 200.876785 104.249115 C 201.319031 104.249115 201.761276 104.259903 202.203522 104.227547 C 203.454742 104.141251 204.511826 103.526428 204.177444 102.21048 C 203.994064 101.487785 202.904633 100.538574 202.171173 100.49543 C 198.881287 100.30127 195.569839 100.398346 192.26918 100.398346 L 189.356842 100.398346 L 189.356842 95.253204 C 189.475494 95.156128 189.594147 94.983543 189.691223 94.983543 C 196.217026 94.983543 202.742844 94.789383 209.247086 95.08062 C 210.757187 95.14534 212.116287 95.911179 213.173355 97.05455 C 214.607956 98.607796 215.470871 100.862167 215.330658 103.041031 Z M 231.262268 110.041451 L 220.659164 110.041451 L 220.659164 92.535019 L 231.262268 92.535019 Z M 263.276489 110.019882 L 252.781265 110.019882 C 252.716553 108.391121 252.641037 106.816299 252.554733 104.928665 L 233.516632 104.928665 L 233.516632 97.777237 L 252.619461 97.777237 L 252.619461 92.524231 L 263.276489 92.524231 Z M 334.609558 89.46843 L 334.609558 90.388512 L 298.649628 90.388512 L 298.649628 89.46843 C 298.649628 86.706009 300.921265 84.43438 303.683685 84.43438 L 329.576569 84.43438 C 332.337891 84.43438 334.609558 86.706009 334.609558 89.46843 Z M 334.609558 104.446518 L 334.609558 105.3666 C 334.609558 108.129013 332.337891 110.339157 329.575531 110.339157 L 303.682587 110.339157 C 300.920166 110.339157 298.64856 108.129013 298.64856 105.3666 L 298.64856 92.352722 L 306.50647 92.352722 L 306.50647 102.542702 C 306.50647 103.585754 307.36615 104.445435 308.40921 104.445435 L 334.609558 104.445435 Z M 348.307281 110.019882 L 337.758118 110.019882 L 337.758118 92.524231 L 348.307281 92.524231 Z M 382.306213 103.192047 C 382.252289 106.902588 379.890076 109.97673 376.255035 110.063026 C 367.615051 110.278755 358.964325 110.127739 350.043884 110.127739 L 350.043884 104.400131 C 351.003906 104.346199 351.856018 104.259903 352.70816 104.259903 C 357.99353 104.249115 363.268127 104.270691 368.56427 104.249115 C 371.012787 104.227547 371.562897 103.688217 371.584473 101.282837 C 371.595276 99.8806 371.606079 98.478363 371.606079 97.05455 C 371.606079 95.587585 371.595276 94.099052 371.595276 92.556587 L 382.392517 92.556587 C 382.392517 94.023544 382.40329 95.522865 382.392517 97.022186 L 382.392517 97.05455 C 382.370941 99.093185 382.338593 101.142616 382.306213 103.192047 Z M 409.984283 103.537216 C 406.370819 103.548004 403.167236 100.570938 402.908386 97.05455 C 402.88681 96.903534 402.876007 96.752525 402.876007 96.601517 C 402.843658 92.912544 406.155121 89.708961 409.962738 89.719749 C 413.802704 89.730537 417.017059 92.934113 416.941589 96.698593 C 416.941589 96.817245 416.930786 96.935898 416.919983 97.05455 C 416.671906 100.570938 413.554626 103.51564 409.984283 103.537216 Z"/>
    </g>
</svg>
